<?xml version="1.0" encoding="UTF-8" standalone="no"?>
<svg width="962px" height="196px" viewBox="0 0 962 196" version="1.1" xmlns="http://www.w3.org/2000/svg" xmlns:xlink="http://www.w3.org/1999/xlink">
    <!-- Generator: Sketch 3.8.2 (29753) - http://www.bohemiancoding.com/sketch -->
    <title>medium-wordmark</title>
    <desc>Created with Sketch.</desc>
    <defs>
        <polygon id="path-1" points="0.06 196 961.033 196 961.033 0.234 0.06 0.234"></polygon>
    </defs>
    <g id="Page-1" stroke="none" stroke-width="1" fill="none" fill-rule="evenodd">
        <g id="medium-wordmark">
            <mask id="mask-2" fill="white">
                <use xlink:href="#path-1"></use>
            </mask>
            <g id="Clip-2"></g>
            <path d="M930.869,191.475 C930.869,192.984 931.774,193.889 933.282,193.889 L958.62,193.889 C960.128,193.889 961.033,192.984 961.033,191.475 L961.033,111.842 C961.033,96.458 958.62,86.805 954.699,78.963 C946.253,62.976 929.964,56.038 910.055,56.038 C891.957,56.038 875.367,62.372 862.396,75.041 C852.743,62.372 838.566,56.038 821.373,56.038 C805.084,56.038 792.113,60.261 779.746,69.31 L758.933,58.753 C755.313,56.943 752.9,58.753 752.9,62.071 L752.9,191.475 C752.9,192.984 753.805,193.889 755.313,193.889 L780.651,193.889 C782.159,193.889 783.064,192.984 783.064,191.475 L783.064,108.222 C783.064,100.379 783.667,96.76 787.589,92.537 C794.225,85.297 804.179,81.376 814.435,81.376 C831.327,81.376 841.884,91.028 841.884,108.825 L841.884,191.475 C841.884,192.984 842.789,193.889 844.297,193.889 L869.635,193.889 C871.144,193.889 872.049,192.984 872.049,191.475 L872.049,108.222 C872.049,100.379 872.652,96.76 876.573,92.537 C883.209,85.297 893.164,81.376 903.419,81.376 C914.58,81.376 923.026,85.599 927.551,93.743 C929.662,97.966 930.869,103.396 930.869,110.937 L930.869,191.475 L930.869,191.475 Z M528.176,17.126 C528.176,26.477 536.019,34.018 545.973,34.018 C555.927,34.018 563.77,26.477 563.77,17.126 C563.77,7.775 555.927,0.234 545.973,0.234 C536.019,0.234 528.176,7.775 528.176,17.126 L528.176,17.126 Z M245.235,108.222 C248.252,91.028 260.921,79.868 280.226,79.868 C299.531,79.868 311.295,93.14 311.295,108.825 C311.295,109.429 310.993,109.73 310.39,109.73 L246.14,109.73 C244.934,109.73 245.235,108.524 245.235,108.222 L245.235,108.222 Z M530.891,191.475 C530.891,192.984 531.796,193.889 533.304,193.889 L558.642,193.889 C560.15,193.889 561.055,192.984 561.055,191.475 L561.055,60.261 C561.055,58.753 560.15,57.848 558.642,57.848 L533.304,57.848 C531.796,57.848 530.891,58.753 530.891,60.261 L530.891,191.475 L530.891,191.475 Z M395.755,125.114 C395.755,96.156 411.742,81.074 431.952,81.074 C442.208,81.074 451.559,83.487 459.402,90.425 C464.831,95.251 465.434,99.474 465.434,109.73 L465.434,143.816 C465.434,151.357 465.133,154.675 460.306,159.501 C450.956,168.551 441.001,170.964 431.952,170.964 C415.965,170.964 395.755,160.708 395.755,125.114 L395.755,125.114 Z M652.453,170.964 C639.784,170.964 631.036,166.137 627.115,157.39 C625.305,153.468 624.4,148.34 624.4,140.498 L624.4,60.261 C624.4,58.753 623.495,57.848 621.987,57.848 L596.649,57.848 C595.141,57.848 594.236,58.753 594.236,60.261 L594.236,141.704 C594.236,154.373 596.046,162.819 599.062,169.757 C607.206,187.554 624.702,196 647.627,196 C664.82,196 677.791,191.777 690.761,182.728 L711.575,193.285 C715.194,195.095 717.608,193.285 717.608,189.967 L717.608,60.261 C717.608,58.753 716.703,57.848 715.194,57.848 L689.856,57.848 C688.348,57.848 687.443,58.753 687.443,60.261 L687.443,143.816 C687.443,151.357 687.142,154.675 682.315,159.501 C672.964,168.551 663.01,170.964 652.453,170.964 L652.453,170.964 Z M214.166,125.114 C214.166,175.488 247.95,196 281.734,196 C301.341,196 319.741,190.57 335.426,178.806 C336.935,177.6 337.236,176.695 336.331,174.885 L328.187,159.501 C327.282,157.691 326.076,157.691 324.567,158.596 C310.089,167.042 298.023,170.964 283.544,170.964 C266.35,170.964 246.744,162.216 244.029,133.862 C244.029,133.56 244.029,132.957 244.934,132.957 L339.348,132.957 C342.364,132.957 342.063,127.829 342.063,123.304 C342.063,74.74 313.105,56.038 280.829,56.038 C243.124,56.038 214.166,81.074 214.166,125.114 L214.166,125.114 Z M495.599,3.25 C495.599,1.742 494.694,0.837 493.186,0.837 L467.848,0.837 C466.339,0.837 465.434,1.742 465.434,3.25 L465.434,62.674 C465.434,63.579 465.133,63.881 464.228,63.579 C453.067,58.753 442.51,56.038 430.444,56.038 C393.04,56.038 365.289,81.376 365.289,124.812 C365.289,173.678 394.548,196 428.031,196 C443.716,196 456.083,191.777 468.753,182.728 L489.566,193.285 C493.186,195.095 495.599,193.285 495.599,189.967 L495.599,3.25 L495.599,3.25 Z M98.335,158.596 C100.145,158.596 101.05,157.993 101.955,156.485 L142.677,80.471 C147.503,71.422 152.329,61.467 154.743,56.641 C155.044,55.736 155.949,56.038 155.949,56.641 L155.949,191.475 C155.949,192.984 156.854,193.889 158.362,193.889 L183.7,193.889 C185.209,193.889 186.113,192.984 186.113,191.475 L186.113,10.188 C186.113,8.68 185.209,7.775 183.7,7.775 L150.52,7.775 C148.408,7.775 147.202,8.68 146.297,10.188 L93.509,113.652 C93.207,114.255 92.906,114.255 92.604,113.652 L39.817,10.188 C38.912,8.68 37.705,7.775 35.594,7.775 L2.413,7.775 C0.905,7.775 0,8.68 0,10.188 L0,191.475 C0,192.984 0.905,193.889 2.413,193.889 L27.751,193.889 C29.259,193.889 30.164,192.984 30.164,191.475 L30.164,56.641 C30.164,56.038 31.069,55.736 31.371,56.641 C33.784,61.467 38.61,71.422 43.436,80.471 L84.158,156.485 C85.063,157.993 85.968,158.596 87.778,158.596 L98.335,158.596 L98.335,158.596 Z" id="Fill-1" fill="#FFFFFF" mask="url(#mask-2)"></path>
        </g>
    </g>
</svg>