<svg width="106px" height="90px" viewBox="0 0 106 90" version="1.1" xmlns="http://www.w3.org/2000/svg">
	<g id="Page-1" stroke="none" strokeWidth="1" fill="none" fillRule="evenodd">
		<g id="Group">
			<path d="M72.898,0.307609431 C71.304,-0.489390569 70,0.316609431 70,2.09860943 L70,72.9876094 L99.089,87.5326094 C102.29,89.1326094 104.885,88.0126094 104.885,85.0306094 L104.885,16.7666094 C104.885,16.4816094 104.723,16.2196094 104.468,16.0916094 L72.898,0.307609431" id="Fill-1" fill="#CCCDC9"></path>
			<path d="M69.186,1.66544462 C70.12,0.147444615 72.188,-0.441555385 73.782,0.355444615 L105.388,16.1574446 C105.593,16.2604446 105.666,16.5164446 105.546,16.7114446 L70.884,73.0354446 L36,55.5934446 L69.186,1.66544462 Z" id="Fill-2" fill="#9EA1A0"></path>
			<path d="M5.76392943,1.59255586 C3.10692943,0.263555861 2.20692943,1.24655586 3.76392943,3.77655586 L35.8189294,55.8645559 L70.7029294,73.3065559 L35.8939294,16.7415559 C35.8449294,16.6615559 35.7739294,16.5975559 35.6899294,16.5555559 L5.76392943,1.59255586" id="Fill-3" fill="#787B7A"></path>
			<g id="Group-8" transform="translate(0.000000, 1.000000)" fill="#515251">
				<path d="M35.504,84.793 C35.504,87.763 33.33,89.106 30.674,87.778 L3.517,74.199 C1.923,73.402 0.619,71.292 0.619,69.51 L0.619,2.941 C0.619,0.565 2.358,-0.51 4.483,0.553 L35.316,15.969 C35.431,16.027 35.504,16.144 35.504,16.272 L35.504,84.793" id="Fill-4"></path>
			</g>
		</g>
	</g>
</svg>
