<?xml version="1.0" encoding="utf-8"?>
<!-- Generator: Adobe Illustrator 19.0.1, SVG Export Plug-In . SVG Version: 6.00 Build 0)  -->
<svg version="1.1" id="Layer_1" xmlns="http://www.w3.org/2000/svg" xmlns:xlink="http://www.w3.org/1999/xlink" x="0px" y="0px"
	 viewBox="0 0 329 69" style="enable-background:new 0 0 329 69;" xml:space="preserve">
<style type="text/css">
	.st0{display:none;}
	.st1{fill:#ACB8D5;}
	.st2{fill:#3E63A6;}
</style>
<g id="DkbEr2.tif" class="st0">
	
		<image style="display:inline;overflow:visible;" width="590" height="98" id="Layer_0_1_" xlink:href="FFB9C50A6CB30530.png"  transform="matrix(1 0 0 1 3 -10)">
	</image>
</g>
<g>
	<path class="st1" d="M82.8,31.9c0,6.6-14,13-31.2,13s-31.2-6.4-31.2-13s14-11.9,31.2-11.9S82.8,25.3,82.8,31.9z"/>
	<rect x="20" y="21" class="st1" width="63" height="11"/>
	<path class="st2" d="M82.8,20.4c0,6.6-14,13.5-31.2,13.5S20.4,27,20.4,20.4S34.3,9,51.6,9S82.8,13.8,82.8,20.4z"/>
	<path class="st2" d="M17.5,31.5c0,0,2.9,16.8,34.1,16.8c32.8,0,33.8-16.8,33.8-16.8s8.1,4.3,7.4,10.4C92.1,48,80.4,59.6,51.6,59.6
		S11,48.1,11,41.6S17.5,31.5,17.5,31.5z"/>
	<g>
		<path class="st2" d="M118,16.8c0-1.1,0.6-1.3,1.3-1.3h11c9.3,0,12.3,2.5,12.3,10.7v0.9c0,8.4-3.2,10.7-12.3,10.7h-7.6v13.7
			c0,0.8-0.5,1.3-1.2,1.3c-1.1,0-3.4-0.3-3.4-0.9V16.8z M122.6,19.6v14.1h7.6c6.1,0,7.6-1.3,7.6-6.6v-0.9c0-5.4-1.5-6.6-7.6-6.6
			H122.6z"/>
		<path class="st2" d="M157.2,28.5c-3.1,0-5.9,1.1-5.9,1.5v21.6c0,0.9-0.6,1.2-1.2,1.2c-0.9,0-3-0.2-3-0.8V28.2
			c0-1.7,4.2-3.6,9.9-3.6c1.2,0,4.7-0.1,4.7,1.4c0,2-0.5,2.9-1,2.9C159.6,28.7,158.7,28.5,157.2,28.5z"/>
		<path class="st2" d="M175.7,52.8c-8.4,0-11.2-3.3-11.2-12.4v-6.5c0-6.6,3.4-9.2,10-9.2h0.7c7,0,9.7,2.7,9.7,7.7v1.2
			c0,6.1-2.6,8.2-16.2,8.2c0,5.3,2,7.4,7.9,7.4c2.8,0,5.7-0.8,7.2-0.8c0.5,0,0.9,0.3,0.9,2.5c0,0.6-0.2,0.8-0.8,0.9
			C181.5,52.5,178.2,52.8,175.7,52.8z M180.7,32.3c0-2.9-1.8-4.3-5.9-4.3c-3.6,0-6.1,1.1-6.1,5.8v4.6c10.4,0,12-0.9,12-5.1V32.3z"/>
		<path class="st2" d="M197.3,49c4,0,6.3-0.9,6.3-3.5c0-6.2-13.5-4.8-13.5-14.1c0-5.7,4.6-6.8,9.3-6.8c3.5,0,5.6,0.2,7.1,0.4
			c0.7,0.1,0.9,0.5,0.9,1.1c0,1.8-0.6,2.8-1.1,2.8c-1.6-0.2-3.5-0.5-5.9-0.5c-3.8,0-6.1,0.8-6.1,3.1c0,5.3,13.5,4.2,13.5,13.9
			c0,5.9-4.3,7.3-9.8,7.3c-2.3,0-5.5-0.2-8-0.7c-0.6-0.2-0.7-0.4-0.7-0.8c0-2.3,0.9-2.8,1.2-2.8h0.2C192.6,48.8,194.7,49,197.3,49z"
			/>
		<path class="st2" d="M220.4,49c4,0,6.3-0.9,6.3-3.5c0-6.2-13.5-4.8-13.5-14.1c0-5.7,4.6-6.8,9.3-6.8c3.5,0,5.6,0.2,7.1,0.4
			c0.7,0.1,0.9,0.5,0.9,1.1c0,1.8-0.6,2.8-1.1,2.8c-1.6-0.2-3.5-0.5-5.9-0.5c-3.8,0-6.1,0.8-6.1,3.1c0,5.3,13.5,4.2,13.5,13.9
			c0,5.9-4.3,7.3-9.8,7.3c-2.3,0-5.5-0.2-8-0.7c-0.6-0.2-0.7-0.4-0.7-0.8c0-2.3,0.9-2.8,1.2-2.8h0.2C215.7,48.8,217.8,49,220.4,49z"
			/>
		<path class="st2" d="M254.9,50c0,1.1-4.8,2.8-10,2.8c-6.9,0-9.9-2.5-9.9-8.4c0-5.4,2.1-7.9,8.4-7.9c2.7,0,5.7,0.6,7.4,1.2v-4.5
			c0-3.6-1.6-4.9-6.6-4.9c-2.3,0-5,0.4-6.6,0.7c-0.9,0-1.1-2.2-1.1-2.5c0-0.6,0.2-0.8,0.5-0.9c1-0.4,4.6-0.9,8.3-0.9
			c6.5,0,9.7,1.7,9.7,8.5V50z M250.7,41c-0.4-0.4-4.1-1.2-6.5-1.2c-3.5,0-5.1,0.9-5.1,4.9c0,3.6,1.6,4.8,5.8,4.8
			c2.1,0,5.4-0.6,5.8-1.1V41z"/>
		<path class="st2" d="M264.5,27c2.1-1.3,4.9-2.3,8.1-2.3c6.6,0,7.6,4.6,7.6,9.4v9.5c0,5-1.5,9.2-9.8,9.2c-2.6,0-6.5-0.2-9.2-1.4
			c-0.7-0.3-1-0.8-1-1.7V14.8c0-0.6,2.1-0.8,3.2-0.8c0.8,0,1.2,0.5,1.2,1.5V27z M264.5,48.3c0,0.3,3,0.9,5.8,0.9
			c5.3,0,5.6-2.9,5.6-5.6v-9.4c0-2.7-0.3-5.7-4.3-5.7c-3.3,0-6.9,1.6-7,2.4V48.3z"/>
		<path class="st2" d="M295.1,51c0,1.6-3.3,1.8-4.5,1.8c-3.8,0-5.9-1.9-5.9-6.9V14.7c0-0.7,2.3-0.8,3.1-0.8c0.7,0,1.2,0.4,1.2,1.2
			v30.1c0,2.2,0.5,3.6,2.7,3.6c0.7,0,1.4-0.2,2.4-0.3C294.6,48.5,295.1,50.2,295.1,51z"/>
		<path class="st2" d="M308.4,52.8c-8.4,0-11.2-3.3-11.2-12.4v-6.5c0-6.6,3.4-9.2,10-9.2h0.7c7,0,9.7,2.7,9.7,7.7v1.2
			c0,6.1-2.6,8.2-16.2,8.2c0,5.3,2,7.4,7.9,7.4c2.8,0,5.7-0.8,7.2-0.8c0.5,0,0.9,0.3,0.9,2.5c0,0.6-0.2,0.8-0.8,0.9
			C314.1,52.5,310.8,52.8,308.4,52.8z M313.4,32.3c0-2.9-1.8-4.3-5.9-4.3c-3.6,0-6.1,1.1-6.1,5.8v4.6c10.4,0,12-0.9,12-5.1V32.3z"/>
	</g>
</g>
</svg>
