<?xml version="1.0" encoding="UTF-8"?>
<svg width="161px" height="96px" viewBox="0 0 161 96" version="1.1" xmlns="http://www.w3.org/2000/svg" xmlns:xlink="http://www.w3.org/1999/xlink">
    <!-- Generator: Sketch 40.3 (33839) - http://www.bohemiancoding.com/sketch -->
    <title>pressable-color</title>
    <desc>Created with Sketch.</desc>
    <defs></defs>
    <g id="Page-1" stroke="none" stroke-width="1" fill="none" fill-rule="evenodd">
        <g id="pressable-color" transform="translate(-1.000000, 0.000000)">
            <path d="M141.31,44.93 C141.31,57.6 114.45,69.86 81.31,69.86 C48.17,69.86 21.31,57.6 21.31,44.93 C21.31,32.26 48.17,21.99 81.31,21.99 C114.45,21.99 141.31,32.26 141.31,44.93 L141.31,44.93 Z" id="Shape" fill="#ACB8D5"></path>
            <rect id="Rectangle-path" fill="#ACB8D5" x="21.31" y="24.48" width="120" height="21"></rect>
            <path d="M141.31,23.93 C141.31,36.6 114.45,48.86 81.31,48.86 C48.17,48.86 21.31,36.6 21.31,23.93 C21.31,11.26 48.17,0.99 81.31,0.99 C114.45,0.99 141.31,11.26 141.31,23.93 L141.31,23.93 Z" id="Shape" fill="#3E63A6"></path>
            <path d="M145.09,43.94 C145.616998,45.1766035 145.892358,46.5058061 145.9,47.85 C145.9,61.49 116.98,74.69 81.3,74.69 C45.62,74.69 16.71,61.48 16.71,47.86 C16.7176424,46.5158061 16.9930015,45.1866035 17.52,43.95 C7.16,49.12 0.99,55.58 0.99,62.6 C0.99,79.6 36.99,95.97 81.3,95.97 C125.61,95.97 161.61,79.55 161.61,62.6 C161.62,55.58 155.45,49.12 145.09,43.94 L145.09,43.94 Z" id="Shape" fill="#3E63A6"></path>
        </g>
    </g>
</svg>