<svg width="31px" height="41px" viewBox="0 0 31 41" version="1.1" xmlns="http://www.w3.org/2000/svg">
	<defs>
		<polygon id="path-1" points="0.00337790289 47.0613934 35.9018795 47.0613934 35.9018795 0.0409852217 0.00337790289 0.0409852217"></polygon>
	</defs>
	<g id="Page-1" stroke="none" strokeWidth="1" fill="none" fillRule="evenodd">
		<g id="tumblr_logo_white_transparent" transform="translate(-2.000000, -3.000000)">
			<g id="Group-4">
				<g id="Clip-2"></g>
				<path d="M25.91133,43.1020408 L25.9107671,43.1020408 C22.5772836,43.1018719 20.2628008,42.0373821 18.6970866,40.5339338 C19.391133,40.579817 20.1140605,40.6026179 20.865475,40.6026179 C24.5320197,40.6026179 28.1649543,39.2972273 29.3667558,37.7156932 L29.6074877,37.3987333 L28.8846165,35.2561858 C29.5710063,35.1048557 30.252836,34.8512315 30.8152006,34.5389444 L32.8237016,40.492273 C31.6707108,42.0098522 28.8015764,43.0551443 26.1757072,43.0998452 C26.0866432,43.1013089 25.9990992,43.1020408 25.91133,43.1020408 M22.1120901,30.5580296 C22.0433498,30.5580296 21.9811963,30.5142294 21.9637438,30.447741 C21.9046305,30.2231105 21.8692752,29.9484307 21.8638142,29.609064 L21.8638142,21.3700211 C21.8638142,21.2853483 21.9324419,21.2167206 22.0171147,21.2167206 L27.9908797,21.2167206 C28.0755524,21.2167206 28.1441802,21.1480929 28.1441802,21.0634201 L28.1441802,16.4625475 L31.4482759,16.4625475 L31.4482759,23.6969458 L25.1679662,23.6969458 L25.1679662,30.5580296 L22.1120901,30.5580296 M25.193582,12.4814075 L22.0427305,12.4814075 C21.958114,12.4814075 21.8894863,12.4127797 21.8894863,12.328107 L21.8894863,7.94043631 L25.193582,7.94043631 L25.193582,12.4814075" id="Fill-1" fill="#BFC0BF" mask="url(#mask-2)"></path>
				<path d="M27.8521605,37.1634061 C26.7078958,38.263589 24.3596341,39.0808726 22.1089374,39.1189303 C22.0239268,39.1203941 21.9405489,39.121126 21.8568332,39.121126 L21.8561013,39.121126 C14.4531457,39.1207319 12.4779733,33.4696692 12.4779733,30.1304433 L12.4779733,19.8692752 C12.4779733,19.7846587 12.4093455,19.716031 12.3247291,19.716031 L8.74505278,19.716031 C8.66038001,19.716031 8.59175229,19.6474032 8.59175229,19.5627305 L8.59175229,14.8883322 C8.59175229,14.8257847 8.63087966,14.7701056 8.68914849,14.7474173 C12.5151302,13.2580436 14.6517664,10.2986629 15.2137931,5.72126671 C15.245095,5.46702322 15.4548628,5.46004222 15.4570584,5.46004222 L20.2354398,5.46004222 C20.3201126,5.46004222 20.3887403,5.52866995 20.3887403,5.61334272 L20.3887403,13.8288529 C20.3887403,13.9134694 20.4573681,13.9820971 20.5420408,13.9820971 L26.4901337,13.9820971 C26.5748065,13.9820971 26.6434342,14.0507811 26.6434342,14.1353976 L26.6434342,19.5627305 C26.6434342,19.6474032 26.5748065,19.716031 26.4901337,19.716031 L20.5164251,19.716031 C20.4317523,19.716031 20.3631246,19.7846587 20.3631246,19.8693315 L20.3632935,29.6211682 C20.3984799,31.8169177 21.4611682,32.929993 23.5218578,32.929993 C24.3522027,32.929993 25.3032512,32.7368332 26.1715412,32.4051232 C26.2526671,32.3741027 26.3422942,32.4154258 26.3700493,32.497734 L27.8895989,37.0022238 C27.9087403,37.0590289 27.8953413,37.1219141 27.8521605,37.1634061 M20.865475,40.6026179 C24.5320197,40.6026179 28.1649543,39.2972273 29.3667558,37.7156932 L29.6074877,37.3987333 L27.3347783,30.6622942 C27.3137227,30.5999719 27.255285,30.5580296 27.1895285,30.5580296 L22.1120901,30.5580296 C22.0433498,30.5580296 21.9811963,30.5142294 21.9637438,30.447741 C21.9046305,30.2231105 21.8692752,29.9484307 21.8638142,29.609064 L21.8638142,21.3700211 C21.8638142,21.2853483 21.9324419,21.2167206 22.0171147,21.2167206 L27.9908797,21.2167206 C28.0755524,21.2167206 28.1441802,21.1480929 28.1441802,21.0634201 L28.1441802,12.634708 C28.1441802,12.5500352 28.0755524,12.4814075 27.9908797,12.4814075 L22.0427305,12.4814075 C21.958114,12.4814075 21.8894863,12.4127797 21.8894863,12.328107 L21.8894863,4.11265306 C21.8894863,4.0279803 21.8208586,3.95935257 21.7361858,3.95935257 L11.3047713,3.95935257 C10.5588177,3.95935257 9.69801548,4.51259676 9.5721323,5.53807178 C9.05131597,9.77897255 7.10637579,12.3231527 3.45131597,13.5446587 L3.0435468,13.6807882 C2.980943,13.7016749 2.93877551,13.7602252 2.93877551,13.8262069 L2.93877551,21.0634201 C2.93877551,21.1480929 3.00740324,21.2167206 3.092076,21.2167206 L6.82499648,21.2167206 L6.82499648,30.1304433 C6.82499648,37.2460521 11.7534694,40.6026179 20.865475,40.6026179" id="Fill-3" fill="#FFFFFF" mask="url(#mask-2)"></path>
			</g>
			<polygon id="Fill-5" fill="#BFC0BF" points="3.88622097 19.6966643 8.03850809 19.6966643 8.03850809 17.2983533 3.88622097 17.2983533"></polygon>
		</g>
	</g>
</svg>
