<?xml version="1.0" encoding="UTF-8" standalone="no"?>
<svg width="175px" height="37px" viewBox="0 0 175 37" version="1.1" xmlns="http://www.w3.org/2000/svg" xmlns:xlink="http://www.w3.org/1999/xlink">
    <!-- Generator: Sketch 3.8.2 (29753) - http://www.bohemiancoding.com/sketch -->
    <title>tumblr_logotype_white_transparent</title>
    <desc>Created with Sketch.</desc>
    <defs>
        <polygon id="path-1" points="0.0375 0.039375 0.0375 36.2499325 175 36.2499325 175 0.039375 87.51875 0.039375"></polygon>
    </defs>
    <g id="Page-1" stroke="none" stroke-width="1" fill="none" fill-rule="evenodd">
        <g id="tumblr_logotype_white_transparent">
            <mask id="mask-2" fill="white">
                <use xlink:href="#path-1"></use>
            </mask>
            <g id="Clip-2"></g>
            <path d="M16,29.851875 C13.125,29.914375 12.5625,27.851875 12.5625,26.414375 L12.5625,16.039375 L19.25,16.039375 L19.25,10.039375 L12.5625,10.039375 L12.5625,1.164375 L7.3125,1.164375 C7.25,1.164375 7.0625,1.226875 7.0625,1.414375 C6.75,4.164375 5.4375,8.976875 0,10.851875 L0,15.976875 L4.125,15.976875 L4.125,26.851875 C4.125,30.789375 6.5625,36.351875 14.375,36.226875 C17,36.164375 19.9375,35.101875 20.5625,34.164375 L18.8125,29.164375 C18.25,29.539375 16.9375,29.789375 16,29.851875 L16,29.851875 Z M48.0625,29.164375 L48.0625,10.039375 L36.25,10.039375 L36.25,15.664375 L38.5,15.664375 C39.25,15.664375 39.5625,15.976875 39.5625,16.664375 L39.5625,25.414375 C39.5625,26.289375 38.9375,29.476875 34.6875,29.539375 C31.75,29.601875 31.125,27.851875 31.125,25.601875 L31.125,10.039375 L22.5,10.039375 L22.5,26.039375 C22.5,30.101875 24.375,36.476875 33,36.226875 C35.8125,36.164375 39.0625,34.726875 40.75,32.601875 L40.8125,35.851875 L50.4375,35.851875 L50.4375,30.351875 C50.4375,30.351875 49.6875,30.289375 49.0625,30.226875 C48.4375,30.289375 48.0625,29.914375 48.0625,29.164375 L48.0625,29.164375 Z M98.1875,21.351875 C98.1875,18.539375 98.125,15.664375 96.3125,13.289375 C94.625,11.101875 91.8125,9.539375 87.5625,9.726875 C84.75,9.851875 81.6875,11.164375 80.0625,13.414375 L79.8125,13.726875 L79.625,13.539375 C77.9375,11.039375 75.1875,9.476875 70.875,9.664375 C68.0625,9.789375 65,11.101875 63.375,13.351875 L63.125,9.976875 L52.625,9.976875 L52.625,15.601875 L55.0625,15.664375 C55.8125,15.664375 56.125,15.976875 56.125,16.664375 L56.125,29.101875 C56.125,29.789375 55.6875,30.226875 55,30.226875 C54.4375,30.289375 53.25,30.351875 53.25,30.351875 L53.25,35.851875 L67.375,35.851875 L67.375,30.351875 C67.375,30.351875 66.25,30.289375 65.625,30.226875 C64.9375,30.164375 64.5,29.789375 64.5,29.101875 L64.5,20.664375 C64.5,19.289375 65.6875,16.351875 69.375,16.351875 C72.375,16.351875 72.9375,18.164375 72.9375,20.289375 L72.9375,29.101875 C72.9375,29.789375 72.5,30.226875 71.8125,30.226875 C71.25,30.289375 70.0625,30.351875 70.0625,30.351875 L70.0625,35.851875 L84.1875,35.851875 L84.1875,30.351875 C84.1875,30.351875 83.0625,30.289375 82.4375,30.226875 C81.75,30.164375 81.3125,29.789375 81.3125,29.101875 L81.3125,20.664375 C81.3125,19.289375 82.375,16.351875 86.0625,16.351875 C89.0625,16.351875 89.75,18.164375 89.75,20.289375 L89.75,29.101875 C89.75,29.789375 89.3125,30.226875 88.625,30.226875 C88.0625,30.289375 86.875,30.351875 86.875,30.351875 L86.875,35.851875 L101,35.851875 L101,30.351875 C101,30.351875 99.875,30.289375 99.25,30.226875 C98.625,30.226875 98.1875,29.851875 98.1875,29.164375 L98.1875,21.351875 Z M116.8125,29.914375 C115.625,29.976875 113.4375,29.789375 112.0625,27.351875 L112.0625,19.539375 C112.0625,17.726875 113.75,16.164375 116.3125,16.039375 C118.9375,15.914375 121.25,17.726875 121.25,22.726875 C121.25,29.539375 118.25,29.789375 116.8125,29.914375 L116.8125,29.914375 Z M118.125,9.726875 C116,9.789375 113.75,10.664375 112.0625,12.039375 L112.0625,0.039375 L109.0625,0.039375 C109.0625,0.039375 104.125,1.789375 100.25,2.289375 L100.125,7.789375 L102.5625,7.789375 C103.3125,7.789375 103.625,8.101875 103.625,8.789375 L103.625,35.914375 L110.5625,35.914375 L111.5625,33.664375 C111.75,33.789375 114.9375,36.789375 120,36.164375 C126.375,35.414375 129.75,30.351875 129.75,22.664375 C129.75,18.664375 128.5,9.226875 118.125,9.726875 L118.125,9.726875 Z M171.3125,14.664375 C171,8.539375 162.75,8.226875 158.375,12.414375 L157.5625,10.039375 L147.5625,10.039375 L147.5625,15.664375 L149.6875,15.664375 C150.4375,15.664375 150.6875,15.976875 150.6875,16.664375 L150.6875,29.101875 C150.6875,29.789375 150.25,30.226875 149.5625,30.226875 C149,30.289375 147.8125,30.351875 147.8125,30.351875 L147.8125,35.851875 L161.9375,35.851875 L161.9375,30.351875 C161.9375,30.351875 160.75,30.289375 160.1875,30.226875 C159.5,30.164375 159.0625,29.789375 159.0625,29.101875 L159.0625,20.664375 C159.0625,19.101875 159.4375,16.414375 162.1875,15.789375 C162.5625,18.414375 165.0625,19.226875 166.3125,19.226875 C169.5625,19.226875 171.3125,16.851875 171.3125,14.664375 L171.3125,14.664375 Z M142.1875,29.101875 L142.1875,0.039375 L139.125,0.039375 C139.125,0.039375 134.0625,1.851875 130.375,2.289375 L130.375,7.789375 L132.6875,7.789375 C133.4375,7.789375 133.75,8.101875 133.75,8.789375 L133.75,29.101875 C133.75,29.789375 133.3125,30.226875 132.625,30.226875 C132.0625,30.289375 130.75,30.351875 130.75,30.351875 L130.75,35.851875 L145.1875,35.851875 L145.1875,30.351875 C145.1875,30.351875 143.875,30.289375 143.3125,30.226875 C142.625,30.226875 142.1875,29.851875 142.1875,29.101875 L142.1875,29.101875 Z M169.9375,26.289375 C167.125,26.289375 164.875,28.539375 164.875,31.226875 C164.875,33.976875 167.125,36.164375 169.9375,36.164375 C172.75,36.164375 175,33.914375 175,31.226875 C175,28.539375 172.75,26.289375 169.9375,26.289375 L169.9375,26.289375 Z" id="Fill-1" fill="#FFFFFF" mask="url(#mask-2)"></path>
        </g>
    </g>
</svg>