<?xml version="1.0" encoding="UTF-8" standalone="no"?>
<svg width="1001px" height="168px" viewBox="0 0 1001 168" version="1.1" xmlns="http://www.w3.org/2000/svg" xmlns:xlink="http://www.w3.org/1999/xlink">
    <!-- Generator: Sketch 39.1 (31720) - http://www.bohemiancoding.com/sketch -->
    <title>wordpress-horizontal</title>
    <desc>Created with Sketch.</desc>
    <defs></defs>
    <g id="Page-1" stroke="none" stroke-width="1" fill="none" fill-rule="evenodd">
        <g id="wordpress-horizontal" fill="#0087BE">
            <g id="Page-1">
                <g id="wpcom-horiz">
                    <path d="M121.3743,148.7482 L144.2613,82.5712 C148.5383,71.8802 149.9613,63.3322 149.9613,55.7312 C149.9613,52.9722 149.7793,50.4112 149.4563,48.0252 C155.3063,58.6972 158.6353,70.9462 158.6353,83.9772 C158.6353,111.6212 143.6533,135.7592 121.3743,148.7482 L121.3743,148.7482 L121.3743,148.7482 Z M94.0263,48.8412 C98.5383,48.6042 102.6033,48.1292 102.6033,48.1292 C106.6403,47.6522 106.1653,41.7172 102.1263,41.9542 C102.1263,41.9542 89.9883,42.9062 82.1523,42.9062 C74.7893,42.9062 62.4163,41.9542 62.4163,41.9542 C58.3753,41.7172 57.9013,47.8902 61.9413,48.1292 C61.9413,48.1292 65.7633,48.6042 69.8003,48.8412 L81.4743,80.8292 L65.0713,130.0132 L37.7863,48.8412 C42.3013,48.6042 46.3613,48.1292 46.3613,48.1292 C50.3983,47.6522 49.9213,41.7172 45.8823,41.9542 C45.8823,41.9542 33.7463,42.9062 25.9113,42.9062 C24.5063,42.9062 22.8483,42.8702 21.0863,42.8152 C34.4873,22.4732 57.5183,9.0392 83.6983,9.0392 C103.2083,9.0392 120.9713,16.4982 134.3023,28.7142 C133.9813,28.6932 133.6653,28.6532 133.3333,28.6532 C125.9713,28.6532 120.7483,35.0652 120.7483,41.9542 C120.7483,48.1292 124.3113,53.3532 128.1093,59.5292 C130.9583,64.5202 134.2873,70.9312 134.2873,80.1952 C134.2873,86.6122 132.3843,94.6812 128.5853,104.4222 L121.1093,129.3962 L94.0263,48.8412 L94.0263,48.8412 Z M83.6983,158.9222 C76.3433,158.9222 69.2433,157.8402 62.5303,155.8692 L85.0163,90.5312 L108.0483,153.6402 C108.1993,154.0072 108.3843,154.3462 108.5853,154.6702 C100.7963,157.4112 92.4263,158.9222 83.6983,158.9222 L83.6983,158.9222 L83.6983,158.9222 Z M8.7633,83.9772 C8.7633,73.1112 11.0943,62.7962 15.2523,53.4782 L50.9983,151.4182 C25.9973,139.2732 8.7633,113.6392 8.7633,83.9772 L8.7633,83.9772 L8.7633,83.9772 Z M83.6983,0.6292 C37.7413,0.6292 0.3513,38.0192 0.3513,83.9772 C0.3513,129.9382 37.7413,167.3312 83.6983,167.3312 C129.6563,167.3312 167.0483,129.9382 167.0483,83.9772 C167.0483,38.0192 129.6563,0.6292 83.6983,0.6292 L83.6983,0.6292 L83.6983,0.6292 Z" id="Fill-1"></path>
                    <path d="M270.3503,125.6699 L260.7673,125.6699 L243.9373,69.8209 C243.1383,67.3499 242.2443,64.2299 241.2563,60.4649 C240.2663,56.6999 239.7543,54.4379 239.7163,53.6769 C238.8783,58.6959 237.5483,64.1929 235.7233,70.1629 L219.4063,125.6699 L209.8233,125.6699 L187.6313,42.2679 L197.9003,42.2679 L211.0783,93.7809 C212.9033,101.0069 214.2353,107.5489 215.0713,113.4049 C216.0993,106.4449 217.6193,99.6379 219.6343,92.9819 L234.5823,42.2679 L244.8513,42.2679 L260.5373,93.4379 C262.3643,99.3339 263.9043,105.9889 265.1593,113.4049 C265.8803,108.0049 267.2493,101.4249 269.2663,93.6659 L282.3873,42.2679 L292.6563,42.2679 L270.3503,125.6699 L270.3503,125.6699 Z" id="Fill-3"></path>
                    <path d="M304.1993,94.3515 C304.1993,102.3375 305.7983,108.4235 308.9923,112.6065 C312.1863,116.7905 316.8843,118.8815 323.0833,118.8815 C329.2803,118.8815 333.9863,116.7995 337.2023,112.6345 C340.4153,108.4705 342.0223,102.3765 342.0223,94.3515 C342.0223,86.4035 340.4153,80.3655 337.2023,76.2385 C333.9863,72.1125 329.2433,70.0495 322.9693,70.0495 C316.7683,70.0495 312.0913,72.0845 308.9353,76.1535 C305.7783,80.2225 304.1993,86.2885 304.1993,94.3515 M351.8353,94.3515 C351.8353,104.5435 349.2683,112.5015 344.1333,118.2255 C338.9993,123.9495 331.9043,126.8115 322.8553,126.8115 C317.2633,126.8115 312.3013,125.4985 307.9643,122.8745 C303.6293,120.2505 300.2823,116.4855 297.9253,111.5795 C295.5663,106.6735 294.3883,100.9315 294.3883,94.3515 C294.3883,84.1595 296.9353,76.2195 302.0323,70.5335 C307.1283,64.8495 314.2013,62.0055 323.2543,62.0055 C332.0003,62.0055 338.9503,64.9145 344.1043,70.7335 C349.2583,76.5525 351.8353,84.4245 351.8353,94.3515" id="Fill-5"></path>
                    <path d="M392.8679,62.0059 C395.6439,62.0059 398.1359,62.2339 400.3419,62.6909 L399.0299,71.4759 C396.4429,70.9049 394.1609,70.6199 392.1839,70.6199 C387.1249,70.6199 382.7989,72.6739 379.2049,76.7809 C375.6119,80.8879 373.8149,86.0039 373.8149,92.1259 L373.8149,125.6699 L364.3459,125.6699 L364.3459,63.1459 L372.1609,63.1459 L373.2439,74.7269 L373.7009,74.7269 C376.0189,70.6579 378.8159,67.5209 382.0859,65.3149 C385.3569,63.1089 388.9509,62.0059 392.8679,62.0059" id="Fill-7"></path>
                    <path d="M432.7336,118.8816 C439.1976,118.8816 443.8846,117.1226 446.7956,113.6046 C449.7046,110.0866 451.1586,104.4116 451.1586,96.5756 L451.1586,94.5796 C451.1586,85.7176 449.6846,79.3956 446.7386,75.6116 C443.7906,71.8266 439.0836,69.9356 432.6176,69.9356 C427.0656,69.9356 422.8146,72.0936 419.8686,76.4096 C416.9216,80.7266 415.4466,86.8206 415.4466,94.6936 C415.4466,102.6796 416.9106,108.7076 419.8406,112.7766 C422.7676,116.8476 427.0656,118.8816 432.7336,118.8816 L432.7336,118.8816 L432.7336,118.8816 Z M451.6726,117.2836 L451.1586,117.2836 C446.7856,123.6356 440.2436,126.8116 431.5356,126.8116 C423.3566,126.8116 416.9966,124.0156 412.4536,118.4246 C407.9076,112.8346 405.6356,104.8866 405.6356,94.5796 C405.6356,84.2736 407.9176,76.2676 412.4806,70.5626 C417.0456,64.8576 423.3956,62.0056 431.5356,62.0056 C440.0156,62.0056 446.5186,65.0856 451.0446,71.2476 L451.7866,71.2476 L451.3876,66.7406 L451.1586,62.3476 L451.1586,36.9046 L460.6296,36.9046 L460.6296,125.6696 L452.9276,125.6696 L451.6726,117.2836 L451.6726,117.2836 Z" id="Fill-9"></path>
                    <path d="M488.3282,84.5393 L497.0572,84.5393 C505.6512,84.5393 511.8692,83.1513 515.7112,80.3743 C519.5512,77.5983 521.4722,73.1493 521.4722,67.0253 C521.4722,61.5113 519.6652,57.4043 516.0532,54.7033 C512.4392,52.0033 506.8112,50.6533 499.1672,50.6533 L488.3282,50.6533 L488.3282,84.5393 L488.3282,84.5393 Z M531.5132,66.5693 C531.5132,75.0123 528.6322,81.5063 522.8702,86.0513 C517.1082,90.5963 508.8662,92.8673 498.1392,92.8673 L488.3282,92.8673 L488.3282,125.6703 L478.6312,125.6703 L478.6312,42.2673 L500.2512,42.2673 C521.0912,42.2673 531.5132,50.3683 531.5132,66.5693 L531.5132,66.5693 L531.5132,66.5693 Z" id="Fill-11"></path>
                    <path d="M571.978,62.0059 C574.754,62.0059 577.246,62.2339 579.452,62.6909 L578.14,71.4759 C575.553,70.9049 573.271,70.6199 571.294,70.6199 C566.235,70.6199 561.909,72.6739 558.315,76.7809 C554.722,80.8879 552.925,86.0039 552.925,92.1259 L552.925,125.6699 L543.455,125.6699 L543.455,63.1459 L551.271,63.1459 L552.354,74.7269 L552.811,74.7269 C555.129,70.6579 557.926,67.5209 561.196,65.3149 C564.467,63.1089 568.061,62.0059 571.978,62.0059" id="Fill-13"></path>
                    <path d="M611.4872,69.9354 C606.4672,69.9354 602.4642,71.5704 599.4782,74.8414 C596.4922,78.1124 594.7332,82.6384 594.2022,88.4184 L626.8892,88.4184 C626.8892,82.4484 625.5572,77.8744 622.8952,74.6984 C620.2342,71.5234 616.4292,69.9354 611.4872,69.9354 M614.0542,126.8114 C604.8132,126.8114 597.5202,123.9964 592.1772,118.3684 C586.8322,112.7394 584.1612,104.9244 584.1612,94.9214 C584.1612,84.8434 586.6422,76.8374 591.6052,70.9044 C596.5692,64.9724 603.2342,62.0054 611.6012,62.0054 C619.4342,62.0054 625.6332,64.5824 630.1982,69.7354 C634.7612,74.8894 637.0432,81.6864 637.0432,90.1294 L637.0432,96.1194 L593.9722,96.1194 C594.1632,103.4594 596.0172,109.0324 599.5352,112.8344 C603.0532,116.6374 608.0072,118.5394 614.3962,118.5394 C621.1282,118.5394 627.7822,117.1324 634.3622,114.3174 L634.3622,122.7604 C631.0152,124.2064 627.8492,125.2414 624.8642,125.8694 C621.8782,126.4974 618.2752,126.8114 614.0542,126.8114" id="Fill-15"></path>
                    <path d="M692.3517,108.6128 C692.3517,114.4318 690.1847,118.9198 685.8487,122.0768 C681.5127,125.2328 675.4277,126.8108 667.5927,126.8108 C659.3017,126.8108 652.8377,125.4988 648.1977,122.8748 L648.1977,114.0888 C651.2017,115.6108 654.4247,116.8098 657.8677,117.6838 C661.3097,118.5588 664.6267,118.9958 667.8227,118.9958 C672.7647,118.9958 676.5687,118.2068 679.2307,116.6278 C681.8927,115.0508 683.2237,112.6448 683.2237,109.4108 C683.2237,106.9788 682.1687,104.8968 680.0577,103.1648 C677.9477,101.4348 673.8307,99.3908 667.7067,97.0328 C661.8887,94.8648 657.7527,92.9738 655.3007,91.3558 C652.8477,89.7408 651.0207,87.9048 649.8227,85.8518 C648.6267,83.7978 648.0267,81.3448 648.0267,78.4918 C648.0267,73.3968 650.0997,69.3748 654.2437,66.4268 C658.3887,63.4798 664.0747,62.0058 671.3017,62.0058 C678.0327,62.0058 684.6127,63.3748 691.0397,66.1128 L687.6747,73.8138 C681.3987,71.2288 675.7127,69.9358 670.6177,69.9358 C666.1297,69.9358 662.7447,70.6398 660.4627,72.0458 C658.1807,73.4538 657.0387,75.3928 657.0387,77.8648 C657.0387,79.5388 657.4677,80.9648 658.3237,82.1428 C659.1797,83.3228 660.5567,84.4448 662.4597,85.5088 C664.3597,86.5738 668.0117,88.1138 673.4127,90.1298 C680.8277,92.8298 685.8387,95.5488 688.4447,98.2868 C691.0497,101.0258 692.3517,104.4678 692.3517,108.6128" id="Fill-17"></path>
                    <path d="M746.9174,108.6128 C746.9174,114.4318 744.7504,118.9198 740.4144,122.0768 C736.0784,125.2328 729.9934,126.8108 722.1584,126.8108 C713.8674,126.8108 707.4034,125.4988 702.7634,122.8748 L702.7634,114.0888 C705.7674,115.6108 708.9904,116.8098 712.4334,117.6838 C715.8754,118.5588 719.1924,118.9958 722.3884,118.9958 C727.3304,118.9958 731.1344,118.2068 733.7964,116.6278 C736.4584,115.0508 737.7894,112.6448 737.7894,109.4108 C737.7894,106.9788 736.7354,104.8968 734.6234,103.1648 C732.5134,101.4348 728.3964,99.3908 722.2724,97.0328 C716.4544,94.8648 712.3184,92.9738 709.8664,91.3558 C707.4134,89.7408 705.5864,87.9048 704.3884,85.8518 C703.1924,83.7978 702.5924,81.3448 702.5924,78.4918 C702.5924,73.3968 704.6654,69.3748 708.8094,66.4268 C712.9544,63.4798 718.6404,62.0058 725.8674,62.0058 C732.5984,62.0058 739.1784,63.3748 745.6054,66.1128 L742.2404,73.8138 C735.9644,71.2288 730.2784,69.9358 725.1834,69.9358 C720.6954,69.9358 717.3104,70.6398 715.0284,72.0458 C712.7464,73.4538 711.6054,75.3928 711.6054,77.8648 C711.6054,79.5388 712.0334,80.9648 712.8894,82.1428 C713.7454,83.3228 715.1224,84.4448 717.0254,85.5088 C718.9254,86.5738 722.5774,88.1138 727.9784,90.1298 C735.3934,92.8298 740.4044,95.5488 743.0104,98.2868 C745.6154,101.0258 746.9174,104.4678 746.9174,108.6128" id="Fill-19"></path>
                    <path d="M762.1204,119.6231 C762.1204,117.0751 762.6984,115.1451 763.8594,113.8331 C765.0194,112.5201 766.6834,111.8641 768.8514,111.8641 C771.0564,111.8641 772.7784,112.5201 774.0134,113.8331 C775.2494,115.1451 775.8684,117.0751 775.8684,119.6231 C775.8684,122.0961 775.2414,123.9961 773.9864,125.3271 C772.7314,126.6581 771.0184,127.3251 768.8514,127.3251 C766.9114,127.3251 765.3044,126.7261 764.0314,125.5271 C762.7574,124.3291 762.1204,122.3611 762.1204,119.6231" id="Fill-21"></path>
                    <path d="M816.4126,126.8111 C807.3596,126.8111 800.3536,124.0261 795.3896,118.4531 C790.4266,112.8831 787.9456,105.0001 787.9456,94.8071 C787.9456,84.3491 790.4636,76.2671 795.5036,70.5621 C800.5436,64.8581 807.7216,62.0061 817.0396,62.0061 C820.0426,62.0061 823.0476,62.3291 826.0526,62.9751 C829.0566,63.6221 831.4156,64.3831 833.1266,65.2571 L830.2176,73.3011 C828.1256,72.4641 825.8426,71.7701 823.3716,71.2181 C820.8986,70.6681 818.7126,70.3911 816.8116,70.3911 C804.1086,70.3911 797.7566,78.4921 797.7566,94.6931 C797.7566,102.3761 799.3066,108.2711 802.4056,112.3781 C805.5056,116.4851 810.0976,118.5391 816.1826,118.5391 C821.3936,118.5391 826.7366,117.4181 832.2146,115.1731 L832.2146,123.5591 C828.0296,125.7271 822.7626,126.8111 816.4126,126.8111" id="Fill-23"></path>
                    <path d="M851.6257,94.3515 C851.6257,102.3375 853.2247,108.4235 856.4187,112.6065 C859.6127,116.7905 864.3107,118.8815 870.5097,118.8815 C876.7067,118.8815 881.4127,116.7995 884.6287,112.6345 C887.8417,108.4705 889.4487,102.3765 889.4487,94.3515 C889.4487,86.4035 887.8417,80.3655 884.6287,76.2385 C881.4127,72.1125 876.6697,70.0495 870.3957,70.0495 C864.1947,70.0495 859.5177,72.0845 856.3617,76.1535 C853.2047,80.2225 851.6257,86.2885 851.6257,94.3515 M899.2617,94.3515 C899.2617,104.5435 896.6947,112.5015 891.5597,118.2255 C886.4257,123.9495 879.3307,126.8115 870.2817,126.8115 C864.6897,126.8115 859.7277,125.4985 855.3907,122.8745 C851.0557,120.2505 847.7087,116.4855 845.3517,111.5795 C842.9927,106.6735 841.8147,100.9315 841.8147,94.3515 C841.8147,84.1595 844.3617,76.2195 849.4587,70.5335 C854.5547,64.8495 861.6277,62.0055 870.6807,62.0055 C879.4267,62.0055 886.3767,64.9145 891.5307,70.7335 C896.6847,76.5525 899.2617,84.4245 899.2617,94.3515" id="Fill-25"></path>
                    <path d="M990.8815,125.6699 L990.8815,84.9949 C990.8815,80.0139 989.8165,76.2769 987.6875,73.7849 C985.5565,71.2959 982.2475,70.0489 977.7605,70.0489 C971.8655,70.0489 967.5115,71.7419 964.6965,75.1259 C961.8815,78.5119 960.4755,83.7209 960.4755,90.7569 L960.4755,125.6699 L951.0065,125.6699 L951.0065,84.9949 C951.0065,80.0139 949.9395,76.2769 947.8105,73.7849 C945.6815,71.2959 942.3535,70.0489 937.8285,70.0489 C931.8945,70.0489 927.5495,71.8269 924.7915,75.3829 C922.0345,78.9389 920.6575,84.7669 920.6575,92.8679 L920.6575,125.6699 L911.1875,125.6699 L911.1875,63.1459 L918.8875,63.1459 L920.4295,71.7029 L920.8845,71.7029 C922.6725,68.6619 925.1925,66.2839 928.4435,64.5719 C931.6955,62.8609 935.3355,62.0059 939.3685,62.0059 C949.1425,62.0059 955.5315,65.5429 958.5355,72.6169 L958.9925,72.6169 C960.8545,69.3459 963.5555,66.7599 967.0925,64.8579 C970.6305,62.9569 974.6615,62.0059 979.1865,62.0059 C986.2595,62.0059 991.5555,63.8219 995.0745,67.4539 C998.5915,71.0859 1000.3505,76.8949 1000.3505,84.8809 L1000.3505,125.6699 L990.8815,125.6699 L990.8815,125.6699 Z" id="Fill-27"></path>
                </g>
            </g>
        </g>
    </g>
</svg>