<?xml version="1.0" encoding="UTF-8"?>
<svg width="20px" height="20px" viewBox="0 0 20 20" version="1.1" xmlns="http://www.w3.org/2000/svg" xmlns:xlink="http://www.w3.org/1999/xlink">
    <!-- Generator: Sketch 40.3 (33839) - http://www.bohemiancoding.com/sketch -->
    <title>Shape</title>
    <desc>Created with Sketch.</desc>
    <defs></defs>
    <g id="Page-1" stroke="none" stroke-width="1" fill="none" fill-rule="evenodd">
        <path d="M10,0 C4.477,0 0,4.477 0,10 C0,15.523 4.477,20 10,20 C15.523,20 20,15.523 20,10 C20,4.477 15.523,0 10,0 L10,0 Z M1.5,10 C1.5,8.768 1.764,7.598 2.236,6.541 L6.291,17.65 C3.455,16.272 1.5,13.365 1.5,10 L1.5,10 Z M10,18.501 C9.166,18.501 8.36,18.379 7.599,18.155 L10.15,10.744 L12.763,17.902 C12.78,17.944 12.801,17.983 12.824,18.019 C11.939,18.33 10.99,18.501 10,18.501 L10,18.501 Z M11.172,6.015 C11.684,5.988 12.145,5.934 12.145,5.934 C12.603,5.88 12.549,5.207 12.091,5.233 C12.091,5.233 10.714,5.341 9.825,5.341 C8.99,5.341 7.586,5.233 7.586,5.233 C7.127,5.207 7.074,5.907 7.532,5.934 C7.532,5.934 7.966,5.988 8.424,6.015 L9.748,9.644 L7.888,15.223 L4.792,6.015 C5.304,5.988 5.765,5.934 5.765,5.934 C6.223,5.88 6.168,5.207 5.71,5.233 C5.71,5.233 4.334,5.341 3.445,5.341 C3.285,5.341 3.098,5.337 2.898,5.331 C4.418,3.024 7.03,1.5 10,1.5 C12.213,1.5 14.228,2.346 15.74,3.732 C15.703,3.73 15.668,3.725 15.63,3.725 C14.795,3.725 14.203,4.452 14.203,5.234 C14.203,5.935 14.607,6.527 15.038,7.228 C15.361,7.794 15.739,8.521 15.739,9.572 C15.739,10.299 15.459,11.144 15.092,12.32 L14.244,15.153 L11.172,6.015 L11.172,6.015 Z M14.273,17.347 L16.869,9.841 C17.354,8.628 17.515,7.659 17.515,6.796 C17.515,6.483 17.494,6.193 17.458,5.922 C18.122,7.133 18.5,8.522 18.5,10 C18.5,13.136 16.801,15.874 14.273,17.347 L14.273,17.347 Z" id="Shape" fill="#0087BE"></path>
    </g>
</svg>