<?xml version="1.0" encoding="UTF-8"?>
<svg width="101px" height="83px" viewBox="0 0 101 83" version="1.1" xmlns="http://www.w3.org/2000/svg" xmlns:xlink="http://www.w3.org/1999/xlink">
    <!-- Generator: Sketch 40.1 (33804) - http://www.bohemiancoding.com/sketch -->
    <title>404-browser</title>
    <desc>Created with Sketch.</desc>
    <defs></defs>
    <g id="Page-1" stroke="none" stroke-width="1" fill="none" fill-rule="evenodd">
        <g id="404-browser" transform="translate(1.000000, 1.000000)">
            <g id="Page-1">
                <g id="Group">
                    <path d="M0.4948,21 L0.4998,6.5 C0.4998,3.2 3.1998,0.5 6.4998,0.5 L92.4998,0.5 C95.7998,0.5 98.4998,3.2 98.4998,6.5 L98.5048,21 L0.4948,21 Z" id="Fill-1" fill="#E15C4D"></path>
                    <path d="M7.3,79.6 L91.7,79.6 C95.4,79.6 98.5,76.6 98.5,72.8 L98.5,7.3 C98.5,3.6 95.5,0.5 91.7,0.5 L7.3,0.5 C3.6,0.5 0.5,3.5 0.5,7.3 L0.5,72.8 C0.5,76.6 3.6,79.6 7.3,79.6 L7.3,79.6 L7.3,79.6 Z" id="Stroke-3" stroke="#374555" stroke-width="3"></path>
                    <path d="M9,12.425 C8.7,12.125 8.5,11.625 8.5,11.225 C8.5,10.825 8.7,10.325 9,10.025 C9.6,9.325 10.8,9.325 11.5,10.025 C11.8,10.325 12,10.825 12,11.225 C12,11.625 11.8,12.125 11.5,12.425 C11.2,12.725 10.7,12.925 10.3,12.925 C9.8,12.925 9.3,12.725 9,12.425" id="Fill-5" fill="#FEFEFE"></path>
                    <path d="M19,12.425 C18.7,12.125 18.5,11.625 18.5,11.225 C18.5,10.825 18.7,10.325 19,10.025 C19.6,9.325 20.8,9.325 21.5,10.025 C21.8,10.325 22,10.825 22,11.225 C22,11.625 21.8,12.125 21.5,12.425 C21.2,12.725 20.7,12.925 20.3,12.925 C19.9,12.925 19.4,12.725 19,12.425" id="Fill-7" fill="#FEFEFE"></path>
                    <path d="M28,12.425 C27.7,12.125 27.5,11.625 27.5,11.225 C27.5,10.825 27.7,10.325 28,10.025 C28.6,9.325 29.8,9.325 30.5,10.025 C30.8,10.325 31,10.825 31,11.225 C31,11.625 30.8,12.125 30.5,12.425 C30.2,12.725 29.7,12.925 29.3,12.925 C28.7,12.925 28.3,12.725 28,12.425" id="Fill-9" fill="#FEFEFE"></path>
                    <path d="M1,21 L98,21" id="Stroke-11" stroke="#374555" stroke-width="3"></path>
                    <path d="M31.2516,60.6822 C35.1056,60.6822 35.1056,65.3092 38.9596,65.3092 C42.8156,65.3092 42.8156,60.6822 46.6706,60.6822 C50.5246,60.6822 50.5246,65.3092 54.3796,65.3092 C58.2356,65.3092 58.2356,60.6822 62.0926,60.6822 C65.9496,60.6822 65.9496,65.3092 69.8066,65.3092" id="Stroke-13" stroke="#374555" stroke-width="2" stroke-linecap="round" stroke-linejoin="round"></path>
                    <path d="M37.5832,45.249 C37.5832,47.067 36.1092,48.541 34.2912,48.541 C32.4732,48.541 31.0002,47.067 31.0002,45.249 C31.0002,43.431 32.4732,41.957 34.2912,41.957 C36.1092,41.957 37.5832,43.431 37.5832,45.249 L37.5832,45.249 L37.5832,45.249 Z" id="Stroke-15" stroke="#374555" stroke-width="2"></path>
                    <path d="M69.6088,42.0294 C69.6088,45.6254 66.6938,48.5404 63.0978,48.5404 C59.5018,48.5404 56.5868,45.6254 56.5868,42.0294 C56.5868,38.4334 59.5018,35.5184 63.0978,35.5184 C66.6938,35.5184 69.6088,38.4334 69.6088,42.0294 L69.6088,42.0294 L69.6088,42.0294 Z" id="Stroke-17" stroke="#374555" stroke-width="2"></path>
                    <path d="M8.5,42.0432 L8.5,69.1732" id="Stroke-19" stroke="#374555" stroke-width="2" stroke-linecap="round" stroke-linejoin="round"></path>
                </g>
            </g>
        </g>
    </g>
</svg>