<?xml version="1.0" encoding="UTF-8" standalone="no"?>
<svg width="58px" height="39px" viewBox="0 0 58 39" version="1.1" xmlns="http://www.w3.org/2000/svg" xmlns:xlink="http://www.w3.org/1999/xlink">
    <!-- Generator: Sketch 39.1 (31720) - http://www.bohemiancoding.com/sketch -->
    <title>card-blue</title>
    <desc>Created with Sketch.</desc>
    <defs>
        <rect id="path-1" x="0" y="0" width="58" height="39" rx="3"></rect>
        <mask id="mask-2" maskContentUnits="userSpaceOnUse" maskUnits="objectBoundingBox" x="0" y="0" width="58" height="39" fill="white">
            <use xlink:href="#path-1"></use>
        </mask>
    </defs>
    <g id="Page-1" stroke="none" stroke-width="1" fill="none" fill-rule="evenodd">
        <g id="checkout">
            <g id="card-blue">
                <use id="Rectangle" stroke="#26AFFC" mask="url(#mask-2)" stroke-width="4" xlink:href="#path-1"></use>
                <rect id="Rectangle-2" fill="#26AFFC" x="2" y="5" width="54" height="9"></rect>
                <path d="M46.426,21.952 C46.367,21.952 46.309,21.965 46.248,21.967 C46.225,21.964 46.203,21.952 46.178,21.952 C44.99,21.952 43.846,22.318 42.869,22.981 C41.89,22.318 40.746,21.952 39.558,21.952 C39.533,21.952 39.511,21.964 39.488,21.967 C39.427,21.965 39.371,21.952 39.31,21.952 C36.033,21.952 33.367,24.616 33.367,27.892 C33.367,31.167 36.033,33.831 39.31,33.831 C39.371,33.831 39.427,33.818 39.488,33.816 C39.511,33.818 39.533,33.831 39.558,33.831 C40.746,33.831 41.89,33.465 42.869,32.802 C43.846,33.465 44.99,33.831 46.178,33.831 C46.203,33.831 46.225,33.819 46.248,33.816 C46.309,33.818 46.367,33.831 46.426,33.831 C49.703,33.831 52.369,31.167 52.369,27.892 C52.369,24.616 49.703,21.952 46.426,21.952 L46.426,21.952 L46.426,21.952 Z M46.426,31.979 C45.389,31.979 44.397,31.581 43.631,30.857 C43.416,30.658 43.137,30.591 42.869,30.628 C42.599,30.59 42.32,30.657 42.107,30.857 C41.339,31.581 40.347,31.979 39.31,31.979 C37.054,31.979 35.22,30.145 35.22,27.892 C35.22,25.638 37.054,23.804 39.31,23.804 C40.347,23.804 41.339,24.203 42.107,24.926 C42.32,25.126 42.599,25.192 42.869,25.155 C43.137,25.193 43.416,25.126 43.631,24.926 C44.397,24.203 45.389,23.804 46.426,23.804 C48.682,23.804 50.516,25.638 50.516,27.892 C50.516,30.145 48.682,31.979 46.426,31.979 L46.426,31.979 L46.426,31.979 Z" id="Shape" fill="#26AFFC"></path>
                <path d="M23.5,27 L6.5,27" id="Line" stroke="#26AFFC" stroke-width="2" stroke-linecap="round"></path>
                <path d="M28.5,31 L6.5,31" id="Line" stroke="#26AFFC" stroke-width="2" stroke-linecap="round"></path>
            </g>
        </g>
    </g>
</svg>