<?xml version="1.0" encoding="UTF-8" standalone="no"?>
<svg width="72px" height="46px" viewBox="0 0 72 46" version="1.1" xmlns="http://www.w3.org/2000/svg" xmlns:xlink="http://www.w3.org/1999/xlink">
    <!-- Generator: Sketch 39.1 (31720) - http://www.bohemiancoding.com/sketch -->
    <title>checkout-error</title>
    <desc>Created with Sketch.</desc>
    <defs></defs>
    <g id="Page-1" stroke="none" stroke-width="1" fill="none" fill-rule="evenodd">
        <g id="checkout-error">
            <path d="M60.426,22.952 C60.367,22.952 60.309,22.965 60.248,22.967 C60.225,22.964 60.203,22.952 60.178,22.952 C58.99,22.952 57.846,23.318 56.869,23.981 C55.89,23.318 54.746,22.952 53.558,22.952 C53.533,22.952 53.511,22.964 53.488,22.967 C53.427,22.965 53.371,22.952 53.31,22.952 C50.033,22.952 47.367,25.616 47.367,28.892 C47.367,32.167 50.033,34.831 53.31,34.831 C53.371,34.831 53.427,34.818 53.488,34.816 C53.511,34.818 53.533,34.831 53.558,34.831 C54.746,34.831 55.89,34.465 56.869,33.802 C57.846,34.465 58.99,34.831 60.178,34.831 C60.203,34.831 60.225,34.819 60.248,34.816 C60.309,34.818 60.367,34.831 60.426,34.831 C63.703,34.831 66.369,32.167 66.369,28.892 C66.369,25.616 63.703,22.952 60.426,22.952 L60.426,22.952 Z M60.426,32.979 C59.389,32.979 58.397,32.581 57.631,31.857 C57.416,31.658 57.137,31.591 56.869,31.628 C56.599,31.59 56.32,31.657 56.107,31.857 C55.339,32.581 54.347,32.979 53.31,32.979 C51.054,32.979 49.22,31.145 49.22,28.892 C49.22,26.638 51.054,24.804 53.31,24.804 C54.347,24.804 55.339,25.203 56.107,25.926 C56.32,26.126 56.599,26.192 56.869,26.155 C57.137,26.193 57.416,26.126 57.631,25.926 C58.397,25.203 59.389,24.804 60.426,24.804 C62.682,24.804 64.516,26.638 64.516,28.892 C64.516,31.145 62.682,32.979 60.426,32.979 L60.426,32.979 Z" id="Shape" fill="#C93E30"></path>
            <path d="M15.426,45.204 C6.967,45.204 0.086,38.322 0.086,29.864 C0.086,21.406 6.967,14.524 15.426,14.524 C23.883,14.524 30.766,21.406 30.766,29.864 C30.766,38.322 23.883,45.204 15.426,45.204 L15.426,45.204 Z M15.426,16.375 C7.988,16.375 1.938,22.426 1.938,29.863 C1.938,37.3 7.989,43.351 15.426,43.351 C22.863,43.351 28.914,37.3 28.914,29.863 C28.914,22.426 22.863,16.375 15.426,16.375 L15.426,16.375 Z" id="Shape" fill="#C93E30"></path>
            <path d="M69.137,2.648 L17.277,2.648 C16.767,2.648 16.351,3.063 16.351,3.574 L16.351,5.636 L70.062,5.636 L70.062,3.574 C70.063,3.063 69.646,2.648 69.137,2.648 L69.137,2.648 Z" id="Shape"></path>
            <path d="M69.137,0.796 L17.277,0.796 C15.746,0.796 14.5,2.042 14.5,3.574 L14.5,6.562 L14.5,13.373 C14.809,13.355 15.113,13.326 15.426,13.326 C17.987,13.326 20.405,13.925 22.569,14.965 L70.063,14.965 L70.063,36.912 C70.063,37.423 69.647,37.838 69.137,37.838 L29.912,37.838 C29.557,38.486 29.144,39.099 28.707,39.69 L69.137,39.69 C70.666,39.69 71.914,38.444 71.914,36.912 L71.914,14.039 L71.914,6.561 L71.914,3.573 C71.914,2.042 70.666,0.796 69.137,0.796 L69.137,0.796 Z M70.063,5.636 L16.352,5.636 L16.352,3.574 C16.352,3.063 16.768,2.648 17.278,2.648 L69.137,2.648 C69.647,2.648 70.063,3.063 70.063,3.574 L70.063,5.636 L70.063,5.636 Z" id="Shape" fill="#C93E30"></path>
            <path d="M44.133,32.665 C44.133,32.153 43.719,31.739 43.207,31.739 L31.852,31.739 C31.78,32.368 31.666,32.985 31.528,33.591 L43.208,33.591 C43.719,33.59 44.133,33.176 44.133,32.665 L44.133,32.665 Z" id="Shape" fill="#C93E30"></path>
            <path d="M38.672,28.892 C38.672,28.38 38.258,27.965 37.748,27.965 L31.848,27.965 C31.918,28.574 31.959,29.191 31.961,29.818 L37.748,29.818 C38.258,29.818 38.672,29.403 38.672,28.892 L38.672,28.892 Z" id="Shape" fill="#C93E30"></path>
            <path d="M22.445,23.913 C22.445,23.625 22.334,23.356 22.131,23.154 C21.727,22.75 21.018,22.75 20.613,23.154 L15.425,28.343 L10.237,23.154 C9.829,22.748 9.124,22.748 8.719,23.154 C8.518,23.357 8.405,23.625 8.405,23.913 C8.405,24.2 8.518,24.468 8.719,24.671 L13.907,29.859 L8.719,35.047 C8.301,35.464 8.301,36.144 8.719,36.564 C8.922,36.766 9.192,36.877 9.479,36.877 C9.764,36.877 10.034,36.766 10.237,36.564 L15.425,31.375 L20.611,36.562 C21.017,36.967 21.724,36.967 22.129,36.562 C22.332,36.36 22.445,36.09 22.445,35.805 C22.441,35.519 22.332,35.249 22.129,35.047 L16.941,29.86 L22.129,24.672 C22.334,24.47 22.445,24.2 22.445,23.913 L22.445,23.913 Z" id="Shape" fill="#C93E30"></path>
        </g>
    </g>
</svg>