<?xml version="1.0" encoding="UTF-8" standalone="no"?>
<svg width="87px" height="99px" viewBox="0 0 87 99" version="1.1" xmlns="http://www.w3.org/2000/svg" xmlns:xlink="http://www.w3.org/1999/xlink">
    <!-- Generator: Sketch 39.1 (31720) - http://www.bohemiancoding.com/sketch -->
    <title>click-email-color</title>
    <desc>Created with Sketch.</desc>
    <defs></defs>
    <g id="Page-1" stroke="none" stroke-width="1" fill="none" fill-rule="evenodd">
        <g id="click-email-color" transform="translate(1.000000, 1.000000)">
            <polygon id="Shape" fill="#E9EFF2" points="62.9 37.6 37.8 54.1 12.8 37.6 12.8 10.8 62.9 10.8"></polygon>
            <g id="Group" stroke-width="2" stroke-linecap="round" stroke-linejoin="round">
                <polyline id="Shape" stroke="#374555" points="75.1 66.7 75.1 32.5 37.8 57.5 0.6 32.5 0.6 76.3 59.1 76.3"></polyline>
                <g stroke="#374555" id="Shape">
                    <polyline points="28.9 7.8 37.8 0 46.8 7.8"></polyline>
                    <path d="M9.8,24.5 L0.6,32.5"></path>
                    <path d="M75.1,32.5 L65.9,24.5"></path>
                    <polyline points="9.8 24.5 9.8 7.8 28.9 7.8"></polyline>
                    <polyline points="65.9 24.5 65.9 7.8 46.8 7.8"></polyline>
                    <path d="M28.9,7.8 L46.8,7.8"></path>
                    <path d="M65.9,38.6 L65.9,24.5"></path>
                    <path d="M9.8,24.5 L9.8,38.6"></path>
                </g>
                <polygon id="Shape" stroke="#374555" points="85 80.1 63 65.1 67 91.4 73.1 87.6 78.8 96.3 84.2 92.9 78.5 84.2"></polygon>
                <path d="M70.2,64.9 C70.2,61.1 67.1,58 63.3,58 C59.5,58 56.4,61.1 56.4,64.9 C56.4,67.3 57.7,69.5 59.6,70.7" id="Shape" stroke="#4CA9DF"></path>
                <path d="M67.4,51.7 L67.7,50.7 C67.7,50.7 67.8,50.6 67.4,51.7 C67,52.8 66.8,53.6 66.8,53.6 C66.8,53.6 67.1,52.7 67.4,51.7 L67.4,51.7 Z" id="Shape" stroke="#4CA9DF"></path>
                <path d="M51.5,71.2 L52.5,70.7 C52.5,70.7 52.5,70.7 51.5,71.2 C50.5,71.7 49.8,72.1 49.8,72.1 C49.8,72.1 50.6,71.7 51.5,71.2 L51.5,71.2 Z" id="Shape" stroke="#4CA9DF"></path>
                <path d="M50.6,61.1 L51.6,61.4 C51.6,61.4 51.6,61.4 50.6,61.1 C49.6,60.8 48.7,60.5 48.7,60.5 C48.7,60.5 49.5,60.8 50.6,61.1 L50.6,61.1 Z" id="Shape" stroke="#4CA9DF"></path>
                <path d="M57,53.1 L57.5,54.1 C57.5,54.1 57.5,54.1 57,53.1 C56.5,52.1 56.1,51.4 56.1,51.4 C56.1,51.4 56.5,52.2 57,53.1 L57,53.1 Z" id="Shape" stroke="#4CA9DF"></path>
            </g>
        </g>
    </g>
</svg>