<svg id="6a3647d3-aba5-44cf-baf9-14bc9d116135" data-name="Layer 1" xmlns="http://www.w3.org/2000/svg" viewBox="0 0 100 100"><defs><style>.\32 0beeb17-37ed-4a61-80fb-61a298ab6c2f{fill:#e9eff2;}.\34 0a638ad-c4e9-4448-878a-ac89eece741d,.\34 4ed3c47-04ed-4d6f-aa60-0036c94f4095{fill:none;stroke-linecap:round;stroke-linejoin:round;stroke-width:2px;}.\34 4ed3c47-04ed-4d6f-aa60-0036c94f4095{stroke:#374555;}.\34 0a638ad-c4e9-4448-878a-ac89eece741d{stroke:#4ca9df;}</style></defs><title>click-email</title><polygon class="20beeb17-37ed-4a61-80fb-61a298ab6c2f" points="71.9 39.6 46.8 56.1 21.8 39.6 21.8 12.8 71.9 12.8 71.9 39.6"/><polyline class="44ed3c47-04ed-4d6f-aa60-0036c94f4095" points="84.1 68.7 84.1 34.5 46.8 59.5 9.6 34.5 9.6 78.3 68.1 78.3"/><polyline class="44ed3c47-04ed-4d6f-aa60-0036c94f4095" points="37.9 9.8 46.8 2 55.8 9.8"/><line class="44ed3c47-04ed-4d6f-aa60-0036c94f4095" x1="18.8" y1="26.5" x2="9.6" y2="34.5"/><line class="44ed3c47-04ed-4d6f-aa60-0036c94f4095" x1="84.1" y1="34.5" x2="74.9" y2="26.5"/><polyline class="44ed3c47-04ed-4d6f-aa60-0036c94f4095" points="18.8 26.5 18.8 9.8 37.9 9.8"/><polyline class="44ed3c47-04ed-4d6f-aa60-0036c94f4095" points="74.9 26.5 74.9 9.8 55.8 9.8"/><line class="44ed3c47-04ed-4d6f-aa60-0036c94f4095" x1="37.9" y1="9.8" x2="55.8" y2="9.8"/><line class="44ed3c47-04ed-4d6f-aa60-0036c94f4095" x1="74.9" y1="40.6" x2="74.9" y2="26.5"/><line class="44ed3c47-04ed-4d6f-aa60-0036c94f4095" x1="18.8" y1="26.5" x2="18.8" y2="40.6"/><polygon class="44ed3c47-04ed-4d6f-aa60-0036c94f4095" points="94 82.1 72 67.1 76 93.4 82.1 89.6 87.8 98.3 93.2 94.9 87.5 86.2 94 82.1"/><path class="40a638ad-c4e9-4448-878a-ac89eece741d" d="M79.2,66.9a6.9,6.9,0,1,0-10.6,5.8"/><path class="40a638ad-c4e9-4448-878a-ac89eece741d" d="M76.4,53.7l0.3-1s0.1-.1-0.3,1-0.6,1.9-.6,1.9S76.1,54.7,76.4,53.7Z"/><path class="40a638ad-c4e9-4448-878a-ac89eece741d" d="M60.5,73.2l1-.5-1,.5c-1,.5-1.7.9-1.7,0.9S59.6,73.7,60.5,73.2Z"/><path class="40a638ad-c4e9-4448-878a-ac89eece741d" d="M59.6,63.1l1,0.3-1-.3c-1-.3-1.9-0.6-1.9-0.6S58.5,62.8,59.6,63.1Z"/><path class="40a638ad-c4e9-4448-878a-ac89eece741d" d="M66,55.1l0.5,1-0.5-1c-0.5-1-.9-1.7-0.9-1.7S65.5,54.2,66,55.1Z"/></svg>