<?xml version="1.0" encoding="utf-8"?>
<!-- Generator: Adobe Illustrator 19.2.1, SVG Export Plug-In . SVG Version: 6.00 Build 0)  -->
<svg version="1.1" id="Layer_1" xmlns="http://www.w3.org/2000/svg" xmlns:xlink="http://www.w3.org/1999/xlink" x="0px" y="0px"
	 viewBox="0 0 100 100" style="enable-background:new 0 0 100 100;" xml:space="preserve">
<style type="text/css">
	.st0{fill:#E9EFF2;}
	.st1{fill:none;stroke:#374555;stroke-width:2;stroke-linecap:round;stroke-linejoin:round;stroke-miterlimit:10;}
	.st2{fill:none;stroke:#4CA9DF;stroke-width:2;stroke-linecap:round;stroke-linejoin:round;stroke-miterlimit:10;}
</style>
<polygon class="st0" points="71.9,39.6 46.8,56.1 21.8,39.6 21.8,12.8 71.9,12.8 "/>
<g>
	<g>
		<defs>
			<rect id="SVGID_1_" x="-462" y="-620" width="1024" height="1340"/>
		</defs>
		<clipPath id="SVGID_2_">
			<use xlink:href="#SVGID_1_"  style="overflow:visible;"/>
		</clipPath>
	</g>
</g>
<g>
	<g>
		<g>
			<defs>
				<rect id="SVGID_3_" x="-462" y="-620" width="1024" height="1340"/>
			</defs>
			<clipPath id="SVGID_4_">
				<use xlink:href="#SVGID_3_"  style="overflow:visible;"/>
			</clipPath>
		</g>
	</g>
</g>
<g>
	<g>
		<defs>
			<rect id="SVGID_5_" x="-462" y="-620" width="1024" height="1340"/>
		</defs>
		<clipPath id="SVGID_6_">
			<use xlink:href="#SVGID_5_"  style="overflow:visible;"/>
		</clipPath>
	</g>
</g>
<g>
	<g>
		<defs>
			<rect id="SVGID_7_" x="-462" y="-620" width="1024" height="1340"/>
		</defs>
		<clipPath id="SVGID_8_">
			<use xlink:href="#SVGID_7_"  style="overflow:visible;"/>
		</clipPath>
	</g>
</g>
<g>
	<g>
		<defs>
			<rect id="SVGID_9_" x="-462" y="-620" width="1024" height="1340"/>
		</defs>
		<clipPath id="SVGID_10_">
			<use xlink:href="#SVGID_9_"  style="overflow:visible;"/>
		</clipPath>
	</g>
</g>
<g>
	<g>
		<defs>
			<rect id="SVGID_11_" x="-462" y="-620" width="1024" height="1340"/>
		</defs>
		<clipPath id="SVGID_12_">
			<use xlink:href="#SVGID_11_"  style="overflow:visible;"/>
		</clipPath>
	</g>
</g>
<g>
	<g>
		<defs>
			<rect id="SVGID_13_" x="-462" y="-620" width="1024" height="1340"/>
		</defs>
		<clipPath id="SVGID_14_">
			<use xlink:href="#SVGID_13_"  style="overflow:visible;"/>
		</clipPath>
	</g>
</g>
<g>
	<g>
		<defs>
			<rect id="SVGID_15_" x="-462" y="-620" width="1024" height="1340"/>
		</defs>
		<clipPath id="SVGID_16_">
			<use xlink:href="#SVGID_15_"  style="overflow:visible;"/>
		</clipPath>
	</g>
</g>
<g>
	<g>
		<defs>
			<rect id="SVGID_17_" x="-462" y="-620" width="1024" height="1340"/>
		</defs>
		<clipPath id="SVGID_18_">
			<use xlink:href="#SVGID_17_"  style="overflow:visible;"/>
		</clipPath>
	</g>
</g>
<g>
	<g>
		<defs>
			<rect id="SVGID_19_" x="-462" y="-620" width="1024" height="1340"/>
		</defs>
		<clipPath id="SVGID_20_">
			<use xlink:href="#SVGID_19_"  style="overflow:visible;"/>
		</clipPath>
	</g>
</g>
<g>
	<g>
		<defs>
			<rect id="SVGID_21_" x="-462" y="-620" width="1024" height="1340"/>
		</defs>
		<clipPath id="SVGID_22_">
			<use xlink:href="#SVGID_21_"  style="overflow:visible;"/>
		</clipPath>
	</g>
</g>
<g>
	<g>
		<defs>
			<rect id="SVGID_23_" x="-462" y="-620" width="1024" height="1340"/>
		</defs>
		<clipPath id="SVGID_24_">
			<use xlink:href="#SVGID_23_"  style="overflow:visible;"/>
		</clipPath>
	</g>
</g>
<g>
	<polyline class="st1" points="84.1,68.7 84.1,34.5 46.8,59.5 9.6,34.5 9.6,78.3 68.1,78.3 	"/>
	<g>
		<polyline class="st1" points="37.9,9.8 46.8,2 55.8,9.8 		"/>
		<line class="st1" x1="18.8" y1="26.5" x2="9.6" y2="34.5"/>
		<line class="st1" x1="84.1" y1="34.5" x2="74.9" y2="26.5"/>
		<polyline class="st1" points="18.8,26.5 18.8,9.8 37.9,9.8 		"/>
		<polyline class="st1" points="74.9,26.5 74.9,9.8 55.8,9.8 		"/>
		<line class="st1" x1="37.9" y1="9.8" x2="55.8" y2="9.8"/>
		<line class="st1" x1="74.9" y1="40.6" x2="74.9" y2="26.5"/>
		<line class="st1" x1="18.8" y1="26.5" x2="18.8" y2="40.6"/>
	</g>
	<polygon class="st1" points="94,82.1 72,67.1 76,93.4 82.1,89.6 87.8,98.3 93.2,94.9 87.5,86.2 	"/>
	<path class="st2" d="M79.2,66.9c0-3.8-3.1-6.9-6.9-6.9c-3.8,0-6.9,3.1-6.9,6.9c0,2.4,1.3,4.6,3.2,5.8"/>
	<path class="st2" d="M76.4,53.7c0.3-1,0.3-1,0.3-1S76.8,52.6,76.4,53.7s-0.6,1.9-0.6,1.9S76.1,54.7,76.4,53.7z"/>
	<path class="st2" d="M60.5,73.2c1-0.5,1-0.5,1-0.5S61.5,72.7,60.5,73.2s-1.7,0.9-1.7,0.9S59.6,73.7,60.5,73.2z"/>
	<path class="st2" d="M59.6,63.1c1,0.3,1,0.3,1,0.3S60.6,63.4,59.6,63.1c-1-0.3-1.9-0.6-1.9-0.6S58.5,62.8,59.6,63.1z"/>
	<path class="st2" d="M66,55.1c0.5,1,0.5,1,0.5,1S66.5,56.1,66,55.1s-0.9-1.7-0.9-1.7S65.5,54.2,66,55.1z"/>
</g>
</svg>
