<?xml version="1.0" encoding="UTF-8" standalone="no"?>
<svg width="22px" height="22px" viewBox="0 0 22 22" version="1.1" xmlns="http://www.w3.org/2000/svg" xmlns:xlink="http://www.w3.org/1999/xlink">
    <!-- Generator: Sketch 39.1 (31720) - http://www.bohemiancoding.com/sketch -->
    <title>Page 1</title>
    <desc>Created with Sketch.</desc>
    <defs></defs>
    <g id="Page-1" stroke="none" stroke-width="1" fill="none" fill-rule="evenodd">
        <g id="Artboard" transform="translate(-1960.000000, -27.000000)">
            <g id="Page-1" transform="translate(1961.000000, 28.000000)">
                <path d="M17.7043851,9.88505747 C17.7043851,9.33149425 17.6416149,8.79325287 17.5328793,8.27181609 L19.592431,7.08264368 L17.1211667,2.80241379 L15.0586494,3.99356322 C14.2569713,3.27788506 13.3119598,2.71987356 12.2676034,2.37636782 L12.2676034,0 L7.32507471,0 L7.32507471,2.37636782 C6.28071839,2.71987356 5.3357069,3.27689655 4.53452299,3.99356322 L2.47151149,2.80241379 L0.000247126437,7.08264368 L2.05485632,8.26885057 C1.94612069,8.79078161 1.8882931,9.331 1.8882931,9.88505747 C1.8882931,10.4386207 1.95106322,10.9768621 2.05979885,11.4982989 L0.000247126437,12.6874713 L2.47151149,16.9677011 L4.53402874,15.7765517 C5.3357069,16.4922299 6.28071839,17.0502414 7.32507471,17.3937471 L7.32507471,19.7701149 L12.2676034,19.7701149 L12.2676034,17.3937471 C13.3119598,17.0502414 14.2569713,16.4932184 15.0581552,15.7765517 L17.1211667,16.9677011 L19.592431,12.6874713 L17.5378218,11.5012644 C17.6465575,10.9793333 17.7043851,10.4391149 17.7043851,9.88505747" id="Fill-1" fill="#F2F5F7"></path>
                <path d="M17.5328793,8.27181609 L19.592431,7.08264368 L17.1211667,2.80241379 L15.0586494,3.99356322 C14.2569713,3.27788506 13.3119598,2.71987356 12.2676034,2.37636782 L12.2676034,0 L7.32507471,0 L7.32507471,2.37636782 C6.28071839,2.71987356 5.3357069,3.27689655 4.53452299,3.99356322 L2.47151149,2.80241379 L0.000247126437,7.08264368 L2.05485632,8.26885057 C1.94612069,8.79078161 1.8882931,9.331 1.8882931,9.88505747 C1.8882931,10.4386207 1.95106322,10.9768621 2.05979885,11.4982989 L0.000247126437,12.6874713 L2.47151149,16.9677011 L4.53402874,15.7765517 C5.3357069,16.4922299 6.28071839,17.0502414 7.32507471,17.3937471 L7.32507471,19.7701149 L12.2676034,19.7701149 L12.2676034,17.3937471 C13.3119598,17.0502414 14.2569713,16.4932184 15.0581552,15.7765517 L17.1211667,16.9677011 L19.592431,12.6874713 L17.5378218,11.5012644 C17.6465575,10.9793333 17.7043851,10.4391149 17.7043851,9.88505747 C17.7043851,9.33149425 17.6416149,8.79325287 17.5328793,8.27181609 Z" id="Stroke-3" stroke="#364555" stroke-linecap="round" stroke-linejoin="round"></path>
                <path d="M12.2676034,10.1826471 C12.2676034,11.5472793 11.1609713,12.6539115 9.79633908,12.6539115 C8.4317069,12.6539115 7.32507471,11.5472793 7.32507471,10.1826471 C7.32507471,8.81801494 8.4317069,7.71138276 9.79633908,7.71138276 C11.1609713,7.71138276 12.2676034,8.81801494 12.2676034,10.1826471" id="Fill-5" fill="#FFFFFF"></path>
                <path d="M12.4425287,9.97126437 C12.4425287,11.3358966 11.3358966,12.4425287 9.97126437,12.4425287 C8.60663218,12.4425287 7.5,11.3358966 7.5,9.97126437 C7.5,8.60663218 8.60663218,7.5 9.97126437,7.5 C11.3358966,7.5 12.4425287,8.60663218 12.4425287,9.97126437 L12.4425287,9.97126437 Z" id="Stroke-7" stroke="#364555" stroke-linecap="round" stroke-linejoin="round"></path>
            </g>
        </g>
    </g>
</svg>