<?xml version="1.0" encoding="UTF-8" standalone="no"?>
<svg width="86px" height="24px" viewBox="0 0 86 24" version="1.1" xmlns="http://www.w3.org/2000/svg" xmlns:xlink="http://www.w3.org/1999/xlink">
    <title>get-dot-blog-logo</title>
    <defs></defs>
    <g id="Page-1" stroke="none" stroke-width="1" fill="none" fill-rule="evenodd">
        <g id="SMD-Upload" transform="translate(-469.000000, -24.000000)">
            <g id="get-dot-blog-logo" transform="translate(469.000000, 24.000000)">
                <g id="Page-1">
                    <g id="Sign-in">
                        <g id="Group-5">
                            <path d="M52.8896405,12.5117188 C52.8896405,14.4023532 52.4653312,15.9140568 51.6166998,17.046875 C50.7680684,18.1796932 49.5422858,18.7460938 47.9393154,18.7460938 C47.1928341,18.7460938 46.5445837,18.5917984 45.9945448,18.2832031 C45.4445059,17.9746078 44.9809087,17.5273467 44.6037392,16.9414062 L44.3562229,18.5 L41.3860278,18.5 L41.3860278,2.6328125 L39.5591221,2.28125 L39.5591221,0.21875 L44.815896,0.21875 L44.815896,7.16796875 C45.1852078,6.66015371 45.6271967,6.26953262 46.1418759,5.99609375 C46.6565551,5.72265488 47.2478381,5.5859375 47.9157424,5.5859375 C49.5344283,5.5859375 50.7680684,6.1933533 51.6166998,7.40820312 C52.4653312,8.62305295 52.8896405,10.2421774 52.8896405,12.265625 L52.8896405,12.5117188 L52.8896405,12.5117188 Z M49.4597724,12.265625 C49.4597724,11.0312438 49.2770837,10.052738 48.9117007,9.33007812 C48.5463177,8.60741826 47.9236045,8.24609375 47.0435423,8.24609375 C46.5092188,8.24609375 46.0574079,8.35742076 45.6880961,8.58007812 C45.3187843,8.80273549 45.0280538,9.12109168 44.815896,9.53515625 L44.815896,14.890625 C45.0280538,15.281252 45.3207487,15.578124 45.6939893,15.78125 C46.06723,15.984376 46.5249341,16.0859375 47.0671152,16.0859375 C47.9550352,16.0859375 48.575784,15.7753937 48.9293804,15.1542969 C49.2829768,14.5332 49.4597724,13.6523495 49.4597724,12.5117188 L49.4597724,12.265625 L49.4597724,12.265625 Z M53.4103414,2.28125 L53.4103414,0.21875 L58.6906882,0.21875 L58.6906882,16.0976562 L60.3525831,16.4492188 L60.3525831,18.5 L53.5871387,18.5 L53.5871387,16.4492188 L55.2490336,16.0976562 L55.2490336,2.6328125 L53.4103414,2.28125 L53.4103414,2.28125 Z M60.7672056,12.0429688 C60.7672056,10.1523343 61.2995566,8.60352166 62.3642747,7.39648438 C63.4289929,6.18944709 64.9003248,5.5859375 66.7783147,5.5859375 C68.6641622,5.5859375 70.139423,6.18749398 71.2041411,7.390625 C72.2688592,8.59375602 72.8012103,10.1445218 72.8012103,12.0429688 L72.8012103,12.2890625 C72.8012103,14.195322 72.2688592,15.7480409 71.2041411,16.9472656 C70.139423,18.1464904 68.6720198,18.7460938 66.8018876,18.7460938 C64.9081824,18.7460938 63.4289929,18.1464904 62.3642747,16.9472656 C61.2995566,15.7480409 60.7672056,14.195322 60.7672056,12.2890625 L60.7672056,12.0429688 L60.7672056,12.0429688 Z M64.2088602,12.2890625 C64.2088602,13.4453183 64.4131573,14.3730434 64.8217576,15.0722656 C65.2303579,15.7714879 65.8903946,16.1210938 66.8018876,16.1210938 C67.6898075,16.1210938 68.3400223,15.7695348 68.7525515,15.0664062 C69.1650806,14.3632777 69.3713421,13.4375057 69.3713421,12.2890625 L69.3713421,12.0429688 C69.3713421,10.9179631 69.1631162,10.0000036 68.7466582,9.2890625 C68.3302002,8.57812145 67.6740923,8.22265625 66.7783147,8.22265625 C65.8825371,8.22265625 65.2303579,8.57812145 64.8217576,9.2890625 C64.4131573,10.0000036 64.2088602,10.9179631 64.2088602,12.0429688 L64.2088602,12.2890625 L64.2088602,12.2890625 Z M74.0408869,12.265625 C74.0408869,10.265615 74.478947,8.65234988 75.3550804,7.42578125 C76.2312137,6.19921262 77.4589607,5.5859375 79.038358,5.5859375 C79.7534086,5.5859375 80.382015,5.74413904 80.9241962,6.06054688 C81.4663773,6.37695471 81.9299746,6.82812207 82.3150018,7.4140625 L82.5625181,5.8203125 L85.5562861,5.8203125 L85.5562861,18.125 C85.5562861,19.7968834 85.0278638,21.1308544 83.9710034,22.1269531 C82.914143,23.1230519 81.462455,23.6210938 79.615896,23.6210938 C78.9715647,23.6210938 78.2879552,23.533204 77.565047,23.3574219 C76.8421387,23.1816397 76.1742444,22.9414078 75.5613439,22.6367188 L76.1978143,20.234375 C76.7478532,20.4687512 77.2978838,20.6542962 77.8479227,20.7910156 C78.3979616,20.9277351 78.9794225,20.9960938 79.592323,20.9960938 C80.4330967,20.9960938 81.0617031,20.74219 81.4781611,20.234375 C81.8946191,19.72656 82.102845,19.0195358 82.102845,18.1132812 L82.102845,17.28125 C81.7256755,17.7578149 81.2817222,18.1210925 80.7709718,18.3710938 C80.2602214,18.621095 79.6748317,18.7460938 79.014785,18.7460938 C77.4511031,18.7460938 76.2312137,18.1738338 75.3550804,17.0292969 C74.478947,15.8847599 74.0408869,14.3789156 74.0408869,12.5117188 L74.0408869,12.265625 L74.0408869,12.265625 Z M77.4825415,12.5117188 C77.4825415,13.6210993 77.6711235,14.4941374 78.048293,15.1308594 C78.4254625,15.7675813 79.0383538,16.0859375 79.8869852,16.0859375 C80.413451,16.0859375 80.8593687,15.9902353 81.2247516,15.7988281 C81.5901346,15.6074209 81.8828295,15.3281268 82.102845,14.9609375 L82.102845,9.453125 C81.8828295,9.07031059 81.5901346,8.77343855 81.2247516,8.5625 C80.8593687,8.35156145 80.4213085,8.24609375 79.9105582,8.24609375 C79.0697845,8.24609375 78.4549288,8.61718379 78.0659727,9.359375 C77.6770167,10.1015662 77.4825415,11.0703065 77.4825415,12.265625 L77.4825415,12.5117188 L77.4825415,12.5117188 Z" id="blog" fill="#FFFFFF"></path>
                            <polygon id="." fill="#FFFFFF" points="38.0653811 18.5 34.635513 18.5 34.635513 15.5 38.0653811 15.5"></polygon>
                            <path d="M0.434292784,12.265625 C0.434292784,10.2421774 0.8684241,8.62305295 1.73669976,7.40820312 C2.60497541,6.1933533 3.80914961,5.5859375 5.34925846,5.5859375 C6.25289376,5.5859375 7.03668741,5.78320115 7.70066291,6.17773438 C8.36463841,6.5722676 8.91270464,7.12890266 9.34487804,7.84765625 L9.50988888,5.8203125 L10.7003242,5.8203125 L10.7003242,18.3359375 C10.7003242,19.9687582 10.2563709,21.2578078 9.36845102,22.203125 C8.48053112,23.1484422 7.24296221,23.6210938 5.65570716,23.6210938 C5.0428067,23.6210938 4.38866313,23.5468757 3.69325684,23.3984375 C2.99785054,23.2499993 2.39085246,23.0468763 1.87224437,22.7890625 L2.249412,21.6054688 C2.76016239,21.8476575 3.29644225,22.0351556 3.85826768,22.1679688 C4.4200931,22.3007819 5.01137602,22.3671875 5.63213419,22.3671875 C6.84221972,22.3671875 7.75369904,22.0117223 8.3665995,21.3007812 C8.97949997,20.5898402 9.2859456,19.6015688 9.2859456,18.3359375 L9.2859456,16.7304688 C8.8537722,17.3789095 8.30767036,17.8769514 7.64762371,18.2246094 C6.98757706,18.5722674 6.21360539,18.7460938 5.32568549,18.7460938 C3.79343433,18.7460938 2.59515332,18.1796932 1.73080651,17.046875 C0.866459705,15.9140568 0.434292784,14.4023532 0.434292784,12.5117188 L0.434292784,12.265625 L0.434292784,12.265625 Z M1.8486714,12.5117188 C1.8486714,14.0351639 2.16101022,15.2519486 2.78569723,16.1621094 C3.41038424,17.0722702 4.34347191,17.5273438 5.58498823,17.5273438 C6.50433893,17.5273438 7.26848862,17.3203146 7.87746023,16.90625 C8.48643185,16.4921854 8.95592228,15.9218786 9.2859456,15.1953125 L9.2859456,9.3125 C8.97163767,8.57030879 8.5198268,7.9667992 7.93049943,7.50195312 C7.34117206,7.03710705 6.5672004,6.8046875 5.60856121,6.8046875 C4.36704489,6.8046875 3.43002843,7.31249492 2.79748372,8.328125 C2.16493901,9.34375508 1.8486714,10.656242 1.8486714,12.265625 L1.8486714,12.5117188 L1.8486714,12.5117188 Z M18.8092711,18.7460938 C17.2063007,18.7460938 15.8783696,18.1621152 14.825438,16.9941406 C13.7725065,15.826166 13.2460486,14.3398528 13.2460486,12.5351562 L13.2460486,11.890625 C13.2460486,10.0781159 13.7705421,8.57422473 14.8195448,7.37890625 C15.8685475,6.18358777 17.1355824,5.5859375 18.6206873,5.5859375 C20.1843693,5.5859375 21.4140806,6.07812008 22.3098582,7.0625 C23.2056358,8.04687992 23.6535179,9.3593668 23.6535179,11 L23.6535179,12.1953125 L14.6486407,12.1953125 L14.6486407,12.5351562 C14.6486407,13.9570384 15.0316978,15.1503858 15.7978233,16.1152344 C16.5639489,17.0800829 17.5677548,17.5625 18.8092711,17.5625 C19.6814756,17.5625 20.4279458,17.4414075 21.0487039,17.1992188 C21.6694621,16.95703 22.1998488,16.6093773 22.6398799,16.15625 L23.2409908,17.1171875 C22.7616712,17.61719 22.1566375,18.0136704 21.4258716,18.3066406 C20.6951056,18.5996108 19.8229142,18.7460938 18.8092711,18.7460938 L18.8092711,18.7460938 L18.8092711,18.7460938 Z M18.6206873,6.78125 C17.5834712,6.78125 16.7093153,7.17773041 15.9981936,7.97070312 C15.287072,8.76367584 14.8725846,9.75780652 14.7547191,10.953125 L14.7782921,11.0117188 L22.2509258,11.0117188 L22.2509258,10.6601562 C22.2509258,9.55858824 21.9248362,8.63672246 21.2726472,7.89453125 C20.6204583,7.15234004 19.7364805,6.78125 18.6206873,6.78125 L18.6206873,6.78125 L18.6206873,6.78125 Z M28.6979778,2.57421875 L28.6979778,5.8203125 L31.5031621,5.8203125 L31.5031621,6.96875 L28.6979778,6.96875 L28.6979778,15.2304688 C28.6979778,16.0585979 28.8492362,16.6464826 29.1517576,16.9941406 C29.454279,17.3417986 29.85698,17.515625 30.3598727,17.515625 C30.5877459,17.515625 30.8097226,17.5058595 31.0258093,17.4863281 C31.241896,17.4667968 31.4913742,17.433594 31.7742513,17.3867188 L31.9864081,18.4296875 C31.7506771,18.5312505 31.4638755,18.6093747 31.1259944,18.6640625 C30.7881134,18.7187503 30.4502374,18.7460938 30.1123564,18.7460938 C29.2165788,18.7460938 28.5192186,18.4648466 28.0202547,17.9023438 C27.5212909,17.3398409 27.2718127,16.4492248 27.2718127,15.2304688 L27.2718127,6.96875 L25.0795259,6.96875 L25.0795259,5.8203125 L27.2718127,5.8203125 L27.2718127,2.57421875 L28.6979778,2.57421875 L28.6979778,2.57421875 Z" id="get" fill="#C8D7E1"></path>
                        </g>
                    </g>
                </g>
            </g>
        </g>
    </g>
</svg>