<?xml version="1.0" encoding="UTF-8" standalone="no"?>
<svg width="70px" height="20px" viewBox="0 0 70 20" version="1.1" xmlns="http://www.w3.org/2000/svg" xmlns:xlink="http://www.w3.org/1999/xlink">
    <!-- Generator: Sketch 39.1 (31720) - http://www.bohemiancoding.com/sketch -->
    <title>get-dot-blog-logo copy 2</title>
    <desc>Created with Sketch.</desc>
    <defs></defs>
    <g id="Page-1" stroke="none" stroke-width="1" fill="none" fill-rule="evenodd">
        <g id="New-blog---pressable-Copy" transform="translate(-477.000000, -27.000000)" fill="#374555">
            <g id="get-dot-blog-logo-copy-2" transform="translate(477.000000, 27.000000)">
                <g id="Page-1">
                    <g id="Sign-in">
                        <g id="Group-5">
                            <path d="M43.0497074,10.3671912 C43.0497074,11.933768 42.7043393,13.1863634 42.0135929,14.1250148 C41.3228464,15.0636662 40.3251163,15.5329849 39.020373,15.5329849 C38.4127719,15.5329849 37.8851263,15.405136 37.4374202,15.1494344 C36.9897141,14.8937328 36.6123675,14.5231329 36.3053691,14.0376235 L36.1039024,15.329072 L33.6863017,15.329072 L33.6863017,2.18154445 L32.1992854,1.89024029 L32.1992854,0.181255919 L36.4780549,0.181255919 L36.4780549,5.93936805 C36.7786575,5.51859327 37.1384159,5.19492523 37.5573408,4.9683542 C37.9762658,4.74178316 38.4575426,4.62849935 39.0011857,4.62849935 C40.3187207,4.62849935 41.3228464,5.13180316 42.0135929,6.13842588 C42.7043393,7.14504861 43.0497074,8.48665268 43.0497074,10.1632783 L43.0497074,10.3671912 L43.0497074,10.3671912 Z M40.2579543,10.1632783 C40.2579543,9.1404719 40.1092542,8.32968348 39.8118494,7.73088859 C39.5144446,7.13209373 39.0075851,6.83270079 38.2912554,6.83270079 C37.8563409,6.83270079 37.4885878,6.92494618 37.1879852,7.10943973 C36.8873826,7.29393329 36.6507415,7.55772275 36.4780549,7.90081602 L36.4780549,12.3383493 C36.6507415,12.6620223 36.8889815,12.9080099 37.192782,13.0763198 C37.4965826,13.2446297 37.8691324,13.3287834 38.3104426,13.3287834 C39.0331682,13.3287834 39.5384288,13.0714673 39.8262399,12.5568275 C40.1140509,12.0421875 40.2579543,11.3123161 40.2579543,10.3671912 L40.2579543,10.1632783 L40.2579543,10.1632783 Z M43.4735337,1.89024029 L43.4735337,0.181255919 L47.7714904,0.181255919 L47.7714904,13.3384935 L49.1241955,13.6297978 L49.1241955,15.329072 L43.6174385,15.329072 L43.6174385,13.6297978 L44.9701436,13.3384935 L44.9701436,2.18154445 L43.4735337,1.89024029 L43.4735337,1.89024029 Z M49.461679,9.9787857 C49.461679,8.41220882 49.8949879,7.12886501 50.7616189,6.12871575 C51.62825,5.12856648 52.8258458,4.62849935 54.3544422,4.62849935 C55.8894343,4.62849935 57.090228,5.12694814 57.956859,6.12386068 C58.82349,7.12077322 59.2567991,8.40573539 59.2567991,9.9787857 L59.2567991,10.1826986 C59.2567991,11.7622223 58.82349,13.0488028 57.956859,14.0424786 C57.090228,15.0361545 55.8958301,15.5329849 54.3736294,15.5329849 C52.8322415,15.5329849 51.62825,15.0361545 50.7616189,14.0424786 C49.8949879,13.0488028 49.461679,11.7622223 49.461679,10.1826986 L49.461679,9.9787857 L49.461679,9.9787857 Z M52.2630257,10.1826986 C52.2630257,11.1407704 52.4293141,11.909482 52.7618957,12.4888564 C53.0944774,13.068231 53.6317165,13.3579139 54.3736294,13.3579139 C55.0963549,13.3579139 55.6255995,13.0666126 55.9613791,12.4840013 C56.2971586,11.9013901 56.4650459,11.1342969 56.4650459,10.1826986 L56.4650459,9.9787857 C56.4650459,9.04660768 56.2955597,8.28598783 55.9565823,7.69690311 C55.6176048,7.10781844 55.0835635,6.81328051 54.3544422,6.81328051 C53.6253209,6.81328051 53.0944774,7.10781844 52.7618957,7.69690311 C52.4293141,8.28598783 52.2630257,9.04660768 52.2630257,9.9787857 L52.2630257,10.1826986 L52.2630257,10.1826986 Z M60.2658382,10.1632783 C60.2658382,8.50607304 60.6223987,7.169324 61.3355306,6.15299109 C62.0486623,5.13665818 63.0479913,4.62849935 64.3335472,4.62849935 C64.9155651,4.62849935 65.4272215,4.75958491 65.8685318,5.02175996 C66.309842,5.28393501 66.6871886,5.6577716 67.0005829,6.14328095 L67.2020496,4.82270212 L69.6388375,4.82270212 L69.6388375,15.0183475 C69.6388375,16.4036676 69.2087263,17.5089939 68.3484911,18.3343598 C67.4882559,19.1597258 66.3066494,19.5724025 64.8036363,19.5724025 C64.2791806,19.5724025 63.7227542,19.4995772 63.1343406,19.3539244 C62.5459268,19.2082715 62.002292,19.0092157 61.5034195,18.7567509 L62.0214768,16.7661725 C62.4691828,16.9603762 62.9168822,17.1141185 63.3645882,17.227404 C63.8122943,17.3406896 64.2855765,17.3973315 64.784449,17.3973315 C65.4687996,17.3973315 65.980456,17.1869472 66.3194335,16.7661725 C66.6584109,16.3453977 66.8278971,15.7595585 66.8278971,15.0086374 L66.8278971,14.3192176 C66.5208987,14.7140985 66.1595413,15.0151098 65.7438143,15.2222605 C65.3280872,15.4294111 64.8516072,15.5329849 64.3143599,15.5329849 C63.0415955,15.5329849 62.0486623,15.0588112 61.3355306,14.1104496 C60.6223987,13.162088 60.2658382,11.9143477 60.2658382,10.3671912 L60.2658382,10.1632783 L60.2658382,10.1632783 Z M63.0671849,10.3671912 C63.0671849,11.2864222 63.2206819,12.0098203 63.5276803,12.5374072 C63.8346788,13.064994 64.3335438,13.3287834 65.0242903,13.3287834 C65.452809,13.3287834 65.8157652,13.2494847 66.1131699,13.090885 C66.4105747,12.9322853 66.6488147,12.7008626 66.8278971,12.3966101 L66.8278971,7.83284505 C66.6488147,7.51564561 66.4105747,7.26965789 66.1131699,7.09487453 C65.8157652,6.92009116 65.4592046,6.83270079 65.0434776,6.83270079 C64.3591269,6.83270079 63.858663,7.14018543 63.5420708,7.75516394 C63.2254787,8.37014245 63.0671849,9.17283919 63.0671849,10.1632783 L63.0671849,10.3671912 L63.0671849,10.3671912 Z" id="blog"></path>
                            <polygon id="." points="30.9834497 15.329072 28.1916966 15.329072 28.1916966 12.8432765 30.9834497 12.8432765"></polygon>
                            <path d="M0.353494127,10.1632783 C0.353494127,8.48665268 0.706856826,7.14504861 1.41359283,6.13842588 C2.12032882,5.13180316 3.10047061,4.62849935 4.35404758,4.62849935 C5.08956469,4.62849935 5.72753626,4.79195171 6.26798144,5.11886135 C6.80842661,5.44577098 7.25452703,5.90699794 7.60629608,6.50255608 L7.74060723,4.82270212 L8.70956621,4.82270212 L8.70956621,15.19313 C8.70956621,16.5460828 8.34820887,17.6141873 7.62548339,18.3974757 C6.90275789,19.1807641 5.89543436,19.5724025 4.60348257,19.5724025 C4.1046101,19.5724025 3.57216766,19.5109055 3.00613929,19.3879099 C2.4401109,19.2649142 1.9460427,19.0966068 1.52391984,18.8829827 L1.83091674,17.9022587 C2.24664381,18.1029359 2.68315067,18.2582965 3.14045044,18.3683454 C3.5977502,18.4783941 4.07902699,18.5334177 4.58429527,18.5334177 C5.56924861,18.5334177 6.31115038,18.2388797 6.81002285,17.649795 C7.30889532,17.0607104 7.55832781,16.2418302 7.55832781,15.19313 L7.55832781,13.8628411 C7.20655877,14.4001381 6.76205727,14.8128148 6.22481,15.1008837 C5.68756272,15.3889526 5.05758578,15.5329849 4.33486028,15.5329849 C3.08767911,15.5329849 2.1123341,15.0636662 1.408796,14.1250148 C0.705257899,13.1863634 0.353494127,11.933768 0.353494127,10.3671912 L0.353494127,10.1632783 L0.353494127,10.1632783 Z M1.50473253,10.3671912 C1.50473253,11.6295155 1.75896181,12.6377415 2.26742798,13.3918994 C2.77589415,14.1460572 3.53538411,14.5231305 4.54592065,14.5231305 C5.29422936,14.5231305 5.91621167,14.3515864 6.41188623,14.0084931 C6.90756081,13.6653998 7.28970418,13.1928445 7.55832781,12.5908129 L7.55832781,7.71632339 C7.30249578,7.10134488 6.93474274,6.60127775 6.45505768,6.21610699 C5.97537261,5.83093624 5.34539567,5.63835375 4.56510796,5.63835375 C3.55457142,5.63835375 2.79188361,6.05912221 2.27702163,6.90067176 C1.76215966,7.7422213 1.50473253,8.82974598 1.50473253,10.1632783 L1.50473253,10.3671912 L1.50473253,10.3671912 Z M15.3098718,15.5329849 C14.0051285,15.5329849 12.9242543,15.0491011 12.067217,14.0813192 C11.2101797,13.1135372 10.7816675,11.8819803 10.7816675,10.3866114 L10.7816675,9.85255386 C10.7816675,8.35071156 11.2085808,7.10458962 12.0624202,6.11415054 C12.9162596,5.12371146 13.9475671,4.62849935 15.1563734,4.62849935 C16.4291378,4.62849935 17.4300656,5.03632109 18.1591869,5.8519768 C18.8883082,6.66763251 19.2528634,7.75515715 19.2528634,9.11458333 L19.2528634,10.1050175 L11.9233122,10.1050175 L11.9233122,10.3866114 C11.9233122,11.5647809 12.2351029,12.5535867 12.8586934,13.3530588 C13.482284,14.1525308 14.2993353,14.5522609 15.3098718,14.5522609 C16.0198057,14.5522609 16.6273977,14.4519238 17.132666,14.2512466 C17.6379343,14.0505694 18.0696444,13.7625049 18.4278092,13.3870443 L18.9170855,14.1832756 C18.5269417,14.5975769 18.0344724,14.9261 17.4396629,15.1688547 C16.8448534,15.4116093 16.1349302,15.5329849 15.3098718,15.5329849 L15.3098718,15.5329849 L15.3098718,15.5329849 Z M15.1563734,5.61893348 C14.3121277,5.61893348 13.6006055,5.94745654 13.0217855,6.60451253 C12.4429656,7.26156852 12.1055921,8.0853037 12.0096551,9.07574278 L12.0288424,9.12429351 L18.1112187,9.12429351 L18.1112187,8.83298928 C18.1112187,7.92023173 17.8457969,7.15637514 17.3149454,6.54139663 C16.784094,5.92641812 16.0645772,5.61893348 15.1563734,5.61893348 L15.1563734,5.61893348 L15.1563734,5.61893348 Z M23.3588191,2.13299376 L23.3588191,4.82270212 L25.6421087,4.82270212 L25.6421087,5.77429569 L23.3588191,5.77429569 L23.3588191,12.6199434 C23.3588191,13.3061299 23.4819364,13.7932503 23.7281748,14.0813192 C23.9744131,14.369388 24.302193,14.5134203 24.7115243,14.5134203 C24.8970025,14.5134203 25.0776812,14.5053287 25.2535657,14.489145 C25.4294502,14.4729614 25.6325139,14.4454496 25.8627627,14.4066089 L26.0354485,15.2708111 C25.8435744,15.3549661 25.6101312,15.4196997 25.3351117,15.4650139 C25.0600923,15.5103281 24.785077,15.5329849 24.5100575,15.5329849 C23.7809362,15.5329849 23.2133175,15.2999439 22.8071841,14.8338549 C22.4010507,14.3677659 22.1979871,13.6298027 22.1979871,12.6199434 L22.1979871,5.77429569 L20.4135676,5.77429569 L20.4135676,4.82270212 L22.1979871,4.82270212 L22.1979871,2.13299376 L23.3588191,2.13299376 L23.3588191,2.13299376 Z" id="get"></path>
                        </g>
                    </g>
                </g>
            </g>
        </g>
    </g>
</svg>