<svg id="ca13bfa2-efb6-4f41-b855-296e5772f6c0" data-name="Illo" xmlns="http://www.w3.org/2000/svg" viewBox="0 0 994 405.03"><defs><style>.cba2a956-4a27-4dea-a6c8-9688b12c0e1a{fill:#fcca7a;}.\34 03a1afd-c19f-43f6-9c22-60cfeb9615a8,.\36 62ac4c2-68d3-4b92-bfc4-96826805066e,.\39 734587f-76b3-4f4f-9e23-ec38eea03658,.e4bcfa10-66d7-4dd4-a843-580c4fbd0874,.fb29b23a-ece3-4c15-91cd-fa7c61ace9af{fill:#364555;}.\33 1fbca1e-e7c7-47c1-9402-d29ba132c6c7,.\36 62ac4c2-68d3-4b92-bfc4-96826805066e,.fb29b23a-ece3-4c15-91cd-fa7c61ace9af{opacity:0.1;}.ccf9f37f-6f54-4809-966c-10c8a941734b{fill:#ba91f3;}.b45dac72-e80b-472b-bf0a-d21afb9de66c{fill:#ff6e6e;}.\39 734587f-76b3-4f4f-9e23-ec38eea03658{opacity:0.15;}.ef6cfcc3-6672-4764-8753-cc6bab73bc47{fill:#83c3f8;}.\32 a118b0e-cd25-4f2d-91c1-5fa6c724902c,.\33 72b427e-f8bf-4239-8c52-368ee7bf57fb{fill:#fff;}.\31 d97c331-4628-428b-8814-c6b1718b1639,.\33 72b427e-f8bf-4239-8c52-368ee7bf57fb,.\34 03a1afd-c19f-43f6-9c22-60cfeb9615a8,.\35 2ca7411-ba8c-4c7e-bcf4-56f7f4f2b020,.\35 a6b5de1-55cf-4c0f-ac47-4900954c6b04,.ee0b1f6f-bb06-4f56-bac5-c6d10b51db6b,.fb29b23a-ece3-4c15-91cd-fa7c61ace9af{stroke:#364555;stroke-linecap:round;stroke-linejoin:round;stroke-width:2px;}.ee0b1f6f-bb06-4f56-bac5-c6d10b51db6b{fill:#f3f6f8;}.\31 d97c331-4628-428b-8814-c6b1718b1639,.\35 2ca7411-ba8c-4c7e-bcf4-56f7f4f2b020,.\35 a6b5de1-55cf-4c0f-ac47-4900954c6b04{fill:none;}.\32 25735a1-e926-49f5-bb31-0a5484217b35{fill:#00c08c;}.\33 9ae4a08-a14b-4b04-bb52-02ad157f36d4{opacity:0.2;}.\35 a6b5de1-55cf-4c0f-ac47-4900954c6b04{stroke-dasharray:7.72 5.79;}.\35 2ca7411-ba8c-4c7e-bcf4-56f7f4f2b020{stroke-dasharray:8.33 6.25;}</style></defs><title>A8C_Homepage</title><path class="cba2a956-4a27-4dea-a6c8-9688b12c0e1a" d="M500.42,165.07s-5.05-23.94-36.53-27.88c1.29,3.19,4.19,10.74,4.19,10.74s17.24,0.7,23.58,17.7A12.3,12.3,0,0,0,500.42,165.07Z"/><path class="662ac4c2-68d3-4b92-bfc4-96826805066e" d="M491.81,163.75c-5.57-16.21-21.41-18.65-24.95-19l1.22,3.15s16.06,0.66,22.88,16A2.4,2.4,0,0,0,491.81,163.75Z"/><path class="ccf9f37f-6f54-4809-966c-10c8a941734b" d="M183.87,294.94s-3.77,4.52-2.39,5.68,5.64-3.77,5.64-3.77l-1.1-3.68Z"/><path class="ccf9f37f-6f54-4809-966c-10c8a941734b" d="M196,295.77a51.91,51.91,0,0,0-42.37-32.11c1.34,3.33,6,11.11,6,11.11s20.66,3.86,27.26,21.57A12.81,12.81,0,0,0,196,295.77Z"/><path class="662ac4c2-68d3-4b92-bfc4-96826805066e" d="M160.06,272.62c0.27,0.7.66,1.62,1,2.5,3.76,1,14,4.31,20.93,12.79a28,28,0,0,1,4.14,6.67,4.78,4.78,0,0,0,1.18-.28C181.55,277.4,163.75,273,160.06,272.62Z"/><path class="ccf9f37f-6f54-4809-966c-10c8a941734b" d="M88,279.72s-3.08-26.58,39.17-18.12c-1.34,3.33-5.11,11.13-5.11,11.13S100.76,261.32,96,280C90.73,281.5,88,279.72,88,279.72Z"/><path class="662ac4c2-68d3-4b92-bfc4-96826805066e" d="M94.61,278.29c-0.26.62,0.75,1.09,1.53,1.35C101,261.48,122,272.73,122,272.73s0.49-1,1.19-2.48a25.75,25.75,0,0,0-2.58-1.16C108.23,264.22,100.05,265.45,94.61,278.29Z"/><path class="ccf9f37f-6f54-4809-966c-10c8a941734b" d="M124.08,291.86s-16.52-59.54-1.05-63.51C136,225,150.48,244.23,154.9,250.63a2,2,0,0,1-.86,3l-7.6,3.26S157.37,265.11,169,284A88.05,88.05,0,0,1,124.08,291.86Z"/><path class="662ac4c2-68d3-4b92-bfc4-96826805066e" d="M127,229.35a12.67,12.67,0,0,1,4.63-.29,14.28,14.28,0,0,0-8.63-.71c-15.47,4,1.05,63.51,1.05,63.51s1.38,0.19,3.81.3C126.1,285.49,112.55,233.07,127,229.35Z"/><path class="cba2a956-4a27-4dea-a6c8-9688b12c0e1a" d="M433.09,142.62c-14.17,4-24.73,6.57-27.35-1.93,0,0-9-8.06-8.54-4.69,0.67,17,11.48,22.38,35.89,15.13S433.09,142.62,433.09,142.62Z"/><path class="662ac4c2-68d3-4b92-bfc4-96826805066e" d="M434.09,145.11s0.46-1.58.74-2.36c-1-.09-1.74-0.13-1.74-0.13-14.08,4-24.59,6.54-27.3-1.78l-1.8,1.23C409.68,153.86,422.63,150.24,434.09,145.11Z"/><path class="cba2a956-4a27-4dea-a6c8-9688b12c0e1a" d="M397.19,135.45s0.15-5.64,1.88-5.61,1.68,6.29,1.68,6.29l-3.12,2Z"/><path class="cba2a956-4a27-4dea-a6c8-9688b12c0e1a" d="M474.93,167.72s-20.33-65.45-34.58-65.45c-12.21,0-14.13,25.82-14.43,33.22a2,2,0,0,0,1.89,2.07l6.54,0.36s-5,16.84-5,29.8h45.56Z"/><path class="662ac4c2-68d3-4b92-bfc4-96826805066e" d="M439,103.27c13.21,0,27.55,56.25,29.57,64.45h6.32s-20.33-65.45-34.58-65.45a8.21,8.21,0,0,0-5.46,2.11A8.37,8.37,0,0,1,439,103.27Z"/><path class="cba2a956-4a27-4dea-a6c8-9688b12c0e1a" d="M486.65,168.18c1.28,1.07,5.41-3.62,5.41-3.62L491,161S485.32,167.07,486.65,168.18Z"/><path class="b45dac72-e80b-472b-bf0a-d21afb9de66c" d="M756.78,133.11s-3.42,8.08.2,28.82c-6.15,1.51-6.11,7.06-5.82,9.51a1,1,0,0,0,1.28.84l16.71-4.91a1,1,0,0,0,.69-1.2c-1-4.15-4.79-21.56.24-36.69Z"/><path class="b45dac72-e80b-472b-bf0a-d21afb9de66c" d="M756.78,133.11s-3.42,8.08.2,28.82c-6.15,1.51-6.11,7.06-5.82,9.51a1,1,0,0,0,1.28.84l16.71-4.91a1,1,0,0,0,.69-1.2c-1-4.15-4.79-21.56.24-36.69Z"/><path class="9734587f-76b3-4f4f-9e23-ec38eea03658" d="M768,138.7q0.1-.78.22-1.56c0-.17.06-0.34,0.09-0.51,0.06-.38.13-0.76,0.2-1.14l0.12-.62q0.11-.54.23-1.07l0.13-.59c0.1-.41.2-0.82,0.31-1.23,0.17-.64.35-1.29,0.56-1.92l-2.08,0-1.49.41h0l-9.55,2.61a22.53,22.53,0,0,0-1.17,5.73,27.27,27.27,0,0,1,8.48-.41c-1.32,12.87,3.18,29.49,3.18,29.49l1.88-.55a1,1,0,0,0,.69-1.2C769,162.85,766.45,151,768,138.7Z"/><path class="ef6cfcc3-6672-4764-8753-cc6bab73bc47" d="M841.57,272.06c-1-.23-10.09-1.32-18.86-12.8l-6,5s7.53,14.58,22.32,18S841.57,272.06,841.57,272.06Z"/><path class="662ac4c2-68d3-4b92-bfc4-96826805066e" d="M846.32,280.15c-17.72.13-25.31-14.07-27.07-18l-2.52,2.11s7.53,14.58,22.32,18C845,283.66,846.56,282.29,846.32,280.15Z"/><path class="ef6cfcc3-6672-4764-8753-cc6bab73bc47" d="M864.49,273.26s15.05-1.63,22.33-21.86c5.87,1,9.3,0,9.3,0s-4.38,25.83-31.64,30.78C856.77,278.91,864.49,273.26,864.49,273.26Z"/><path class="ef6cfcc3-6672-4764-8753-cc6bab73bc47" d="M886.82,251.4s-3.61-4.34-2.29-5.45,5.41,3.62,5.41,3.62l-1.06,3.53Z"/><path class="ef6cfcc3-6672-4764-8753-cc6bab73bc47" d="M888.38,252.48s-1.93-12.83.36-12.82,2.12,12.18,2.12,12.18Z"/><path class="ef6cfcc3-6672-4764-8753-cc6bab73bc47" d="M890.14,252.23s-0.06-13,2.47-12.58,0.38,12.41.38,12.41Z"/><path class="ef6cfcc3-6672-4764-8753-cc6bab73bc47" d="M892.48,253.77s1.62-14.53,3.66-14.18,0,11.91,0,11.91Z"/><path class="662ac4c2-68d3-4b92-bfc4-96826805066e" d="M896.12,251.4h0c-9.41,26.38-33.54,27.33-33.54,27.33l-0.94,1.44a6.52,6.52,0,0,0,2.84,2C891.74,277.23,896.12,251.4,896.12,251.4Z"/><path class="ef6cfcc3-6672-4764-8753-cc6bab73bc47" d="M859.22,315.53s9.53,14.28,27,4.7c2.41,2.87,6.52,3,8.72,2.85a1,1,0,0,0,.79-1.48l-6.27-11.39a1,1,0,0,0-1.48-.32c-3.18,2.42-14.06,9.72-21.26,2.73C859.86,311,859.22,315.53,859.22,315.53Z"/><path class="662ac4c2-68d3-4b92-bfc4-96826805066e" d="M866.76,312.62c-6.9-1.57-7.54,2.91-7.54,2.91a18.58,18.58,0,0,0,3.17,3.39,16.23,16.23,0,0,0,7.23-4.31A10.43,10.43,0,0,1,866.76,312.62Z"/><polygon class="372b427e-f8bf-4239-8c52-368ee7bf57fb" points="168.96 283.99 129.09 283.99 119.09 299.71 178.96 299.71 168.96 283.99"/><polygon class="ee0b1f6f-bb06-4f56-bac5-c6d10b51db6b" points="161.71 291.85 136.33 291.85 131.33 299.71 166.71 299.71 161.71 291.85"/><polygon class="fb29b23a-ece3-4c15-91cd-fa7c61ace9af" points="137.43 294.85 160.62 294.85 163.44 299.71 166.71 299.71 161.71 291.85 136.33 291.85 131.33 299.71 134.6 299.71 137.43 294.85"/><path class="1d97c331-4628-428b-8814-c6b1718b1639" d="M82.46,291.85H102.6a2,2,0,0,1,2,2v5.86a0,0,0,0,1,0,0H80.46a0,0,0,0,1,0,0v-5.86A2,2,0,0,1,82.46,291.85Z"/><path class="ef6cfcc3-6672-4764-8753-cc6bab73bc47" d="M844.64,317.61s-1.69,10.2,5.16,22.77a7.94,7.94,0,0,0-5.63,4.93,1,1,0,0,0,.93,1.37h13.52a1,1,0,0,0,.91-1.42c-2-4.39-7.87-18.06-6.6-28.39Z"/><path class="662ac4c2-68d3-4b92-bfc4-96826805066e" d="M852.78,319.61a25,25,0,0,1,.16-2.75l-8.3.75a17.78,17.78,0,0,0-.16,2A21.91,21.91,0,0,0,852.78,319.61Z"/><path class="ef6cfcc3-6672-4764-8753-cc6bab73bc47" d="M810.84,254.41l8.37-7s-5.1-3.39-8.27-.51C808,249.52,810.84,254.41,810.84,254.41Z"/><path class="ef6cfcc3-6672-4764-8753-cc6bab73bc47" d="M816.48,246.12s2.58-3.11,5.4-1L817.32,249Z"/><path class="372b427e-f8bf-4239-8c52-368ee7bf57fb" d="M729.43,330.56H749a3,3,0,0,1,3,3v10.69a0,0,0,0,1,0,0H726.43a0,0,0,0,1,0,0V333.56A3,3,0,0,1,729.43,330.56Z"/><rect class="ee0b1f6f-bb06-4f56-bac5-c6d10b51db6b" x="694.32" y="337.41" width="89.81" height="66.59" rx="6" ry="6"/><path class="fb29b23a-ece3-4c15-91cd-fa7c61ace9af" d="M781.11,338.21c0,0.07,0,.13,0,0.2V397a4,4,0,0,1-4,4H695.32l-0.2,0a6,6,0,0,0,5.2,3h77.81a6,6,0,0,0,6-6V343.41A6,6,0,0,0,781.11,338.21Z"/><rect class="ee0b1f6f-bb06-4f56-bac5-c6d10b51db6b" x="330.38" y="187.72" width="333.24" height="216.28"/><path class="372b427e-f8bf-4239-8c52-368ee7bf57fb" d="M663.62,175.72a8,8,0,0,0-8-8H338.38a8,8,0,0,0-8,8v12H663.62v-12Z"/><path class="225735a1-e926-49f5-bb31-0a5484217b35" d="M345.68,370.1s4.51,5.6,3.63,26.07c5.5,1.91,4.87,7.82,4.87,7.82H342.09a1,1,0,0,1-1-1.05c0.29-5,1.16-26.8-4.88-34.61Z"/><path class="9734587f-76b3-4f4f-9e23-ec38eea03658" d="M341.09,402.95a1,1,0,0,0,1,1.05h1.43c1.78-22.81-1.9-28.42-2.83-30.25a18.15,18.15,0,0,0,6.32-.92,10.69,10.69,0,0,0-1.33-2.73l-9.46-1.76C342.25,376.15,341.38,397.91,341.09,402.95Z"/><line class="1d97c331-4628-428b-8814-c6b1718b1639" x1="330.38" y1="187.72" x2="663.62" y2="187.72"/><rect class="372b427e-f8bf-4239-8c52-368ee7bf57fb" x="369.5" y="187.72" width="255" height="216.28"/><rect class="fb29b23a-ece3-4c15-91cd-fa7c61ace9af" x="624.5" y="187.72" width="4" height="216.28" transform="translate(1253 591.72) rotate(180)"/><rect class="fb29b23a-ece3-4c15-91cd-fa7c61ace9af" x="365.5" y="187.72" width="4" height="216.28" transform="translate(735 591.72) rotate(180)"/><circle class="1d97c331-4628-428b-8814-c6b1718b1639" cx="246.5" cy="63.15" r="39.12"/><path class="fb29b23a-ece3-4c15-91cd-fa7c61ace9af" d="M246.5,24a39.41,39.41,0,0,0-5.5.39,39.12,39.12,0,0,1,0,77.46A39.12,39.12,0,1,0,246.5,24Z"/><path class="1d97c331-4628-428b-8814-c6b1718b1639" d="M273.83,184.16a12.43,12.43,0,0,0-20.24-9.67,21.5,21.5,0,0,0-38.44,0,12.43,12.43,0,0,0-20.24,9.67h78.92Z"/><path class="1d97c331-4628-428b-8814-c6b1718b1639" d="M330.38,359.92C296.65,345.45,254.25,333,208.21,333c-110,0-199.13,71-199.13,71"/><rect class="ee0b1f6f-bb06-4f56-bac5-c6d10b51db6b" x="73.61" y="299.47" width="148.2" height="104.29"/><polygon class="fb29b23a-ece3-4c15-91cd-fa7c61ace9af" points="218.16 299.23 218.16 400.11 73.61 400.11 73.61 403.76 221.81 403.76 221.81 400.11 221.81 299.23 218.16 299.23"/><rect class="372b427e-f8bf-4239-8c52-368ee7bf57fb" x="488.16" y="369" width="159.11" height="35"/><rect class="372b427e-f8bf-4239-8c52-368ee7bf57fb" x="509.58" y="346.67" width="131.18" height="22.33"/><rect class="fb29b23a-ece3-4c15-91cd-fa7c61ace9af" x="640.76" y="346.67" width="4" height="21.83" transform="translate(1285.52 715.17) rotate(180)"/><rect class="fb29b23a-ece3-4c15-91cd-fa7c61ace9af" x="647.27" y="368.5" width="4" height="35.5" transform="translate(1298.54 772.5) rotate(180)"/><line class="1d97c331-4628-428b-8814-c6b1718b1639" x1="630.08" y1="357.59" x2="520.26" y2="357.59"/><polygon class="1d97c331-4628-428b-8814-c6b1718b1639" points="533.62 275.43 595.98 275.43 616.73 296.17 616.73 346.67 533.62 346.67 533.62 275.43"/><rect class="ee0b1f6f-bb06-4f56-bac5-c6d10b51db6b" x="502.6" y="369" width="13.96" height="35"/><rect class="ee0b1f6f-bb06-4f56-bac5-c6d10b51db6b" x="618.87" y="369" width="13.96" height="35" transform="translate(1251.7 773) rotate(-180)"/><polygon class="1d97c331-4628-428b-8814-c6b1718b1639" points="595.98 296.17 616.73 296.17 595.98 275.43 595.98 296.17"/><polygon class="fb29b23a-ece3-4c15-91cd-fa7c61ace9af" points="595.98 296.17 616.73 296.17 616.73 305.47 595.98 296.17"/><rect class="372b427e-f8bf-4239-8c52-368ee7bf57fb" x="186.91" y="307.71" width="24.49" height="15.7"/><rect class="372b427e-f8bf-4239-8c52-368ee7bf57fb" x="186.91" y="307.71" width="24.49" height="7.85"/><polygon class="372b427e-f8bf-4239-8c52-368ee7bf57fb" points="211.4 291.86 215.64 303.32 227.1 307.56 215.64 311.8 211.4 323.26 207.16 311.8 195.7 307.56 207.16 303.32 211.4 291.86"/><rect class="372b427e-f8bf-4239-8c52-368ee7bf57fb" x="97.04" y="328.92" width="51.98" height="45.88" rx="2" ry="2"/><path class="fb29b23a-ece3-4c15-91cd-fa7c61ace9af" d="M111.26,351.86v4a37.77,37.77,0,1,0,75.53,0v-4H111.26Z"/><circle class="372b427e-f8bf-4239-8c52-368ee7bf57fb" cx="149.02" cy="351.86" r="37.77"/><circle class="372b427e-f8bf-4239-8c52-368ee7bf57fb" cx="149.02" cy="351.86" r="28.8"/><path class="fb29b23a-ece3-4c15-91cd-fa7c61ace9af" d="M149,323.06a28.8,28.8,0,1,0,28.8,28.8A28.8,28.8,0,0,0,149,323.06Zm0,55.5a26.7,26.7,0,1,1,26.7-26.7A26.7,26.7,0,0,1,149,378.56Z"/><path class="372b427e-f8bf-4239-8c52-368ee7bf57fb" d="M128.55,340.85a23.29,23.29,0,0,1,14.08-11.34"/><path class="372b427e-f8bf-4239-8c52-368ee7bf57fb" d="M125.79,351.86a23.28,23.28,0,0,1,.72-5.77"/><circle class="372b427e-f8bf-4239-8c52-368ee7bf57fb" cx="207.41" cy="387.79" r="3.99"/><rect class="ee0b1f6f-bb06-4f56-bac5-c6d10b51db6b" x="221.81" y="357.89" width="58.24" height="45.87"/><rect class="372b427e-f8bf-4239-8c52-368ee7bf57fb" x="221.81" y="364.45" width="58.24" height="32.76"/><rect class="372b427e-f8bf-4239-8c52-368ee7bf57fb" x="233.6" y="364.45" width="35.98" height="32.76"/><path class="372b427e-f8bf-4239-8c52-368ee7bf57fb" d="M33.52,372.5s-21.46-17.92-21.46-31.83a21.46,21.46,0,0,1,42.92,0C55,354.58,33.52,372.5,33.52,372.5Z"/><path class="fb29b23a-ece3-4c15-91cd-fa7c61ace9af" d="M33.52,319.21a21.52,21.52,0,0,0-3.08.25A21.46,21.46,0,0,1,51,338.31c1.68,13.8-17.45,34.19-17.45,34.19S55,354.58,55,340.67A21.46,21.46,0,0,0,33.52,319.21Z"/><line class="1d97c331-4628-428b-8814-c6b1718b1639" x1="33.52" y1="334.54" x2="33.52" y2="387.07"/><line class="1d97c331-4628-428b-8814-c6b1718b1639" x1="33.52" y1="348.86" x2="39.99" y2="342.4"/><line class="1d97c331-4628-428b-8814-c6b1718b1639" x1="33.52" y1="359.54" x2="23.98" y2="349.99"/><path class="372b427e-f8bf-4239-8c52-368ee7bf57fb" d="M270.89,325.22s-21.46-17.92-21.46-31.83a21.46,21.46,0,0,1,42.92,0C292.35,307.29,270.89,325.22,270.89,325.22Z"/><line class="1d97c331-4628-428b-8814-c6b1718b1639" x1="270.89" y1="287.25" x2="270.89" y2="339.78"/><line class="1d97c331-4628-428b-8814-c6b1718b1639" x1="270.89" y1="301.58" x2="264.42" y2="295.11"/><line class="1d97c331-4628-428b-8814-c6b1718b1639" x1="270.89" y1="312.25" x2="280.43" y2="302.71"/><path class="1d97c331-4628-428b-8814-c6b1718b1639" d="M727.86,58.83a34.13,34.13,0,0,1,19.87-31,34.13,34.13,0,1,0,0,62A34.13,34.13,0,0,1,727.86,58.83Z"/><path class="fb29b23a-ece3-4c15-91cd-fa7c61ace9af" d="M738.81,90.29a34.13,34.13,0,0,1-17.88-63.2,34.13,34.13,0,1,0,26.8,62.75c-0.33-.15-0.65-0.33-1-0.49A34,34,0,0,1,738.81,90.29Z"/><line class="1d97c331-4628-428b-8814-c6b1718b1639" x1="726.61" y1="206.79" x2="726.61" y2="214.31"/><line class="1d97c331-4628-428b-8814-c6b1718b1639" x1="730.36" y1="210.55" x2="722.85" y2="210.55"/><line class="1d97c331-4628-428b-8814-c6b1718b1639" x1="563.96" y1="54.48" x2="563.96" y2="61.99"/><line class="1d97c331-4628-428b-8814-c6b1718b1639" x1="567.71" y1="58.23" x2="560.2" y2="58.23"/><line class="1d97c331-4628-428b-8814-c6b1718b1639" x1="859.52" y1="64.01" x2="859.52" y2="71.53"/><line class="1d97c331-4628-428b-8814-c6b1718b1639" x1="863.27" y1="67.77" x2="855.76" y2="67.77"/><g class="39ae4a08-a14b-4b04-bb52-02ad157f36d4"><rect class="2a118b0e-cd25-4f2d-91c1-5fa6c724902c" x="397.01" y="240.48" width="94.91" height="116.32"/><polyline class="1d97c331-4628-428b-8814-c6b1718b1639" points="491.91 352.8 491.91 356.8 487.91 356.8"/><line class="5a6b5de1-55cf-4c0f-ac47-4900954c6b04" x1="482.12" y1="356.8" x2="403.9" y2="356.8"/><polyline class="1d97c331-4628-428b-8814-c6b1718b1639" points="401 356.8 397 356.8 397 352.8"/><line class="52ca7411-ba8c-4c7e-bcf4-56f7f4f2b020" x1="397.01" y1="346.55" x2="397.01" y2="247.6"/><polyline class="1d97c331-4628-428b-8814-c6b1718b1639" points="397 244.48 397 240.48 401 240.48"/><line class="5a6b5de1-55cf-4c0f-ac47-4900954c6b04" x1="406.8" y1="240.48" x2="485.01" y2="240.48"/><polyline class="1d97c331-4628-428b-8814-c6b1718b1639" points="487.91 240.48 491.91 240.48 491.91 244.48"/><line class="52ca7411-ba8c-4c7e-bcf4-56f7f4f2b020" x1="491.91" y1="250.73" x2="491.91" y2="349.68"/></g><path class="1d97c331-4628-428b-8814-c6b1718b1639" d="M638.3,121.2l-1.18,2.49h-38a15.47,15.47,0,0,0-14.24,9.42h62.87V115.23A10.43,10.43,0,0,0,638.3,121.2Z"/><path class="fb29b23a-ece3-4c15-91cd-fa7c61ace9af" d="M584.86,133.11h62.87v-3H586.55A15.46,15.46,0,0,0,584.86,133.11Z"/><line class="1d97c331-4628-428b-8814-c6b1718b1639" x1="704.06" y1="133.11" x2="652.73" y2="133.11"/><polygon class="ee0b1f6f-bb06-4f56-bac5-c6d10b51db6b" points="630.22 101.92 620.44 101.92 607.44 133.11 622.22 133.11 630.22 101.92"/><polygon class="fb29b23a-ece3-4c15-91cd-fa7c61ace9af" points="630.22 101.92 628.56 101.92 617.01 133.11 622.22 133.11 630.22 101.92"/><path class="372b427e-f8bf-4239-8c52-368ee7bf57fb" d="M952.39,166.23a10.83,10.83,0,0,0-17.51-8.54A11.75,11.75,0,0,0,915,153.37c0-.34.05-0.68,0.05-1a13.89,13.89,0,1,0-26.88,4.86,10.31,10.31,0,0,0-15.31,9h79.49Z"/><path class="fb29b23a-ece3-4c15-91cd-fa7c61ace9af" d="M261.39,171.72a12.45,12.45,0,0,0-2,.17,12.43,12.43,0,0,1,10.46,12.26h4A12.43,12.43,0,0,0,261.39,171.72Z"/><path class="fb29b23a-ece3-4c15-91cd-fa7c61ace9af" d="M250.6,176.26a12.47,12.47,0,0,1,3-1.78c-3.81-6-11.54-11.86-19.22-11.86-0.68,0-1.34,0-2,.1C239.92,163.43,247.34,169.8,250.6,176.26Z"/><g class="31fbca1e-e7c7-47c1-9402-d29ba132c6c7"><path class="403a1afd-c19f-43f6-9c22-60cfeb9615a8" d="M931.61,159.44a10.88,10.88,0,0,1,3.27-1.75c-2-3.78-6.63-8.12-11.19-8.12a11.71,11.71,0,0,0-2,.18C926,150.5,930.27,155.35,931.61,159.44Z"/><path class="403a1afd-c19f-43f6-9c22-60cfeb9615a8" d="M911.09,152.34c0,0.35,0,3.5,0,3.84a11.85,11.85,0,0,1,3.93-2.81c-0.88-6.83-6.77-14.92-13.84-14.92a13.92,13.92,0,0,0-2,.16A13.88,13.88,0,0,1,911.09,152.34Z"/><path class="403a1afd-c19f-43f6-9c22-60cfeb9615a8" d="M941.54,155.38a10.79,10.79,0,0,0-2,.19,10.84,10.84,0,0,1,8.85,10.65h4A10.85,10.85,0,0,0,941.54,155.38Z"/></g><path class="225735a1-e926-49f5-bb31-0a5484217b35" d="M333,372.44s-2.18,16.69-12.53,22.74a6.57,6.57,0,0,1-.53,8.72l-8.37-9.18a1,1,0,0,1,.09-1.44c3.16-2.63,14.46-12.72,13.29-21.57A6.66,6.66,0,0,1,333,372.44Z"/><path class="9734587f-76b3-4f4f-9e23-ec38eea03658" d="M324.94,371.72c1.17,8.85-10.13,18.94-13.29,21.57a1,1,0,0,0-.09,1.44l1.06,1.16c11.51-8.38,13.18-16.64,14.27-20.77a18.18,18.18,0,0,0,5.6,0c0.36-1.65.5-2.69,0.5-2.69A6.66,6.66,0,0,0,324.94,371.72Z"/><path class="225735a1-e926-49f5-bb31-0a5484217b35" d="M345.68,370.1s-10.5,5-25.81,3.32a2,2,0,0,1-1.75-1.7c-2-13.52-1.79-26.91,2.21-33.93a2.92,2.92,0,0,0-.09-3.14c-3.82-5.44-11.49-17.17-4.2-23.66,11.65-8,29.64,14.22,29.64,14.22V370.1Z"/><rect class="372b427e-f8bf-4239-8c52-368ee7bf57fb" x="329.01" y="243.48" width="94.91" height="116.32" transform="translate(-65.24 107.71) rotate(-15)"/><rect class="fb29b23a-ece3-4c15-91cd-fa7c61ace9af" x="344.67" y="357.74" width="94.91" height="4.76" transform="translate(-79.84 113.76) rotate(-15)"/><rect class="372b427e-f8bf-4239-8c52-368ee7bf57fb" x="333.67" y="250.57" width="81.29" height="86.18" transform="translate(-63.25 106.89) rotate(-15)"/><rect class="1d97c331-4628-428b-8814-c6b1718b1639" x="390.35" y="255.61" width="25.28" height="73.67" transform="translate(-61.96 114.27) rotate(-15)"/><path class="ee0b1f6f-bb06-4f56-bac5-c6d10b51db6b" d="M424.73,324.76l-13.1-48.9c-8.83,5.35-16.2-3.61-24.79,5.15l13.48,50.29Z"/><path class="1d97c331-4628-428b-8814-c6b1718b1639" d="M386.84,281c8.59-8.76,16,.2,24.79-5.15"/><path class="1d97c331-4628-428b-8814-c6b1718b1639" d="M362.52,316.33L356.24,315l7.68-44a4.92,4.92,0,0,1,5.88-4h0a4.92,4.92,0,0,1,3.74,6Z"/><path class="372b427e-f8bf-4239-8c52-368ee7bf57fb" d="M381.5,304.31l-43.3,11.6,8,29.89C367.18,340.18,381.34,322.74,381.5,304.31Z"/><path class="fb29b23a-ece3-4c15-91cd-fa7c61ace9af" d="M372.63,306.69c-0.16,18.43-13.88,35.76-26.42,39.12,21-5.62,35.13-23.06,35.29-41.49Z"/><path class="1d97c331-4628-428b-8814-c6b1718b1639" d="M102,98.27a27.55,27.55,0,0,0-27.55,27.55c0,14.56,14.84,24.71,22.9,36.8h9.31c8.06-12.08,22.9-22.24,22.9-36.8A27.55,27.55,0,0,0,102,98.27Z"/><path class="fb29b23a-ece3-4c15-91cd-fa7c61ace9af" d="M129.56,125.83A27.55,27.55,0,0,0,94.75,99.25,27.55,27.55,0,0,1,125,123.37c1.72,14.46-11.8,26.3-18.38,39.25C114.72,150.54,129.56,140.38,129.56,125.83Z"/><path class="1d97c331-4628-428b-8814-c6b1718b1639" d="M102,162.62s-25.25-38.76-7.87-63.2"/><path class="1d97c331-4628-428b-8814-c6b1718b1639" d="M102,162.62s25.25-38.76,7.87-63.2"/><rect class="1d97c331-4628-428b-8814-c6b1718b1639" x="97.35" y="162.62" width="9.31" height="8.98"/><path class="ee0b1f6f-bb06-4f56-bac5-c6d10b51db6b" d="M106.66,171.6H97.35v4.78a2,2,0,0,0,2,2h5.31a2,2,0,0,0,2-2V171.6Z"/><path class="372b427e-f8bf-4239-8c52-368ee7bf57fb" d="M789.46,378.75s-4.85-23.56,6.1-23.56c11.73,0,20.24,9.8,20.24,23.24a37.42,37.42,0,0,1-9.73,25.4H792.43C800.32,387.12,789.46,378.75,789.46,378.75Z"/><path class="fb29b23a-ece3-4c15-91cd-fa7c61ace9af" d="M795.57,355.2c-11,0-6.1,23.56-6.1,23.56a13.56,13.56,0,0,1,2.29,2.47,112.08,112.08,0,0,0,10.42-24.9A19.46,19.46,0,0,0,795.57,355.2Z"/><path class="372b427e-f8bf-4239-8c52-368ee7bf57fb" d="M754.74,378.75s4.85-23.56-6.1-23.56c-11.73,0-20.24,9.8-20.24,23.24a37.42,37.42,0,0,0,9.73,25.4h13.65C743.88,387.12,754.74,378.75,754.74,378.75Z"/><path class="fb29b23a-ece3-4c15-91cd-fa7c61ace9af" d="M748.63,355.2c11,0,6.1,23.56,6.1,23.56a13.56,13.56,0,0,0-2.29,2.47A112.08,112.08,0,0,1,742,356.33,19.46,19.46,0,0,1,748.63,355.2Z"/><path class="372b427e-f8bf-4239-8c52-368ee7bf57fb" d="M793.62,276.26a127,127,0,0,0-21.52-30.5c-20.06,21.06-32.16,48.31-32.16,78.09a109.74,109.74,0,0,0,14.8,54.9h34.72a109.74,109.74,0,0,0,14.8-54.9,108.5,108.5,0,0,0-4-29.34"/><path class="fb29b23a-ece3-4c15-91cd-fa7c61ace9af" d="M772.1,245.76a123.23,123.23,0,0,1,16.35,28.52,3.62,3.62,0,0,0,4.05,2.21l0.84-.17A119.58,119.58,0,0,0,772.1,245.76Z"/><path class="fb29b23a-ece3-4c15-91cd-fa7c61ace9af" d="M799.9,294.69a4.53,4.53,0,0,0-2.28,4.78,133.21,133.21,0,0,1,2.24,24.38c0,19.77-6.09,38.43-13.73,54.9h3.34a109.74,109.74,0,0,0,14.8-54.9,108.49,108.49,0,0,0-4-29.34Z"/><circle class="ee0b1f6f-bb06-4f56-bac5-c6d10b51db6b" cx="772.1" cy="293.33" r="9.56"/><path class="fb29b23a-ece3-4c15-91cd-fa7c61ace9af" d="M772.1,283.78a9.58,9.58,0,0,0-2,.21,9.55,9.55,0,0,1,0,18.69A9.56,9.56,0,1,0,772.1,283.78Z"/><line class="1d97c331-4628-428b-8814-c6b1718b1639" x1="764.84" y1="314.4" x2="779.36" y2="314.4"/><line class="1d97c331-4628-428b-8814-c6b1718b1639" x1="764.84" y1="325.9" x2="779.36" y2="325.9"/><line class="1d97c331-4628-428b-8814-c6b1718b1639" x1="764.84" y1="337.41" x2="779.36" y2="337.41"/><rect class="372b427e-f8bf-4239-8c52-368ee7bf57fb" x="767.81" y="358" width="8.58" height="46"/><rect class="fb29b23a-ece3-4c15-91cd-fa7c61ace9af" x="774.11" y="358" width="2.28" height="46"/><rect class="372b427e-f8bf-4239-8c52-368ee7bf57fb" x="707.35" y="337.41" width="9.31" height="66.09"/><polygon class="ee0b1f6f-bb06-4f56-bac5-c6d10b51db6b" points="889.78 384.56 889.78 365.61 866.21 365.61 866.21 346.67 842.63 346.67 842.63 403.98 913.35 403.98 913.35 384.56 889.78 384.56"/><rect class="fb29b23a-ece3-4c15-91cd-fa7c61ace9af" x="842.64" y="400.98" width="70.72" height="3"/><path class="372b427e-f8bf-4239-8c52-368ee7bf57fb" d="M827.18,360.47h23.53a6,6,0,0,1,6,6V398a6,6,0,0,1-6,6H827.18a0,0,0,0,1,0,0V360.47A0,0,0,0,1,827.18,360.47Z"/><path class="fb29b23a-ece3-4c15-91cd-fa7c61ace9af" d="M850.71,360.47h-3a6,6,0,0,1,6,6V398a6,6,0,0,1-6,6h3a6,6,0,0,0,6-6V366.47A6,6,0,0,0,850.71,360.47Z"/><circle class="372b427e-f8bf-4239-8c52-368ee7bf57fb" cx="841.94" cy="374.92" r="8.29"/><ellipse class="372b427e-f8bf-4239-8c52-368ee7bf57fb" cx="841.94" cy="374.92" rx="3.12" ry="8.29"/><line class="1d97c331-4628-428b-8814-c6b1718b1639" x1="850.23" y1="374.92" x2="833.65" y2="374.92"/><polygon class="1d97c331-4628-428b-8814-c6b1718b1639" points="851.8 234.84 844.51 226.16 804.26 259.93 804.26 259.93 804.26 259.93 793.62 276.26 811.55 268.62 811.55 268.62 811.55 268.62 851.8 234.84"/><polygon class="ee0b1f6f-bb06-4f56-bac5-c6d10b51db6b" points="804.26 259.93 804.26 259.93 804.26 259.93 793.62 276.26 811.55 268.62 811.55 268.62 811.55 268.62 811.55 268.62 804.26 259.93 804.26 259.93"/><rect class="403a1afd-c19f-43f6-9c22-60cfeb9615a8" x="844.91" y="225.3" width="11.34" height="6.33" transform="translate(478.85 -569.98) rotate(50)"/><path class="1d97c331-4628-428b-8814-c6b1718b1639" d="M853.1,218.36h7.34a2,2,0,0,1,2,2v7.82a0,0,0,0,1,0,0H851.1a0,0,0,0,1,0,0v-7.82A2,2,0,0,1,853.1,218.36Z" transform="translate(477.09 -576.57) rotate(50)"/><line class="1d97c331-4628-428b-8814-c6b1718b1639" x1="807.91" y1="264.27" x2="848.16" y2="230.5"/><polygon class="403a1afd-c19f-43f6-9c22-60cfeb9615a8" points="800.22 273.45 797.54 270.25 793.62 276.26 800.22 273.45"/><polygon class="372b427e-f8bf-4239-8c52-368ee7bf57fb" points="935.16 295.96 913.35 376.19 956.97 376.19 935.16 295.96"/><polygon class="fb29b23a-ece3-4c15-91cd-fa7c61ace9af" points="956.97 376.19 935.16 295.96 951.89 376.19 956.97 376.19"/><line class="1d97c331-4628-428b-8814-c6b1718b1639" x1="935.16" y1="404" x2="935.16" y2="338.17"/><line class="1d97c331-4628-428b-8814-c6b1718b1639" x1="935.16" y1="353.18" x2="940.06" y2="348.28"/><line class="1d97c331-4628-428b-8814-c6b1718b1639" x1="935.16" y1="365.58" x2="927.67" y2="358.09"/><polygon class="372b427e-f8bf-4239-8c52-368ee7bf57fb" points="974.16 348.78 962.73 390.84 985.6 390.84 974.16 348.78"/><polygon class="fb29b23a-ece3-4c15-91cd-fa7c61ace9af" points="974.16 348.78 981.69 390.84 985.6 390.84 974.16 348.78"/><line class="1d97c331-4628-428b-8814-c6b1718b1639" x1="974.16" y1="404" x2="974.16" y2="370.91"/><line class="1d97c331-4628-428b-8814-c6b1718b1639" x1="974.16" y1="378.78" x2="976.73" y2="376.21"/><line class="1d97c331-4628-428b-8814-c6b1718b1639" x1="974.16" y1="385.28" x2="970.23" y2="381.35"/><line class="1d97c331-4628-428b-8814-c6b1718b1639" x1="595.98" y1="256.85" x2="509.58" y2="256.85"/><line class="1d97c331-4628-428b-8814-c6b1718b1639" x1="595.98" y1="233.48" x2="509.58" y2="233.48"/><line class="1d97c331-4628-428b-8814-c6b1718b1639" x1="595.98" y1="210.11" x2="393.23" y2="210.11"/><line class="1d97c331-4628-428b-8814-c6b1718b1639" x1="488.16" y1="386" x2="393.23" y2="386"/><polygon class="1d97c331-4628-428b-8814-c6b1718b1639" points="363.51 48.37 385.97 96.85 408.43 48.37 385.97 21.89 363.51 48.37"/><polygon class="fb29b23a-ece3-4c15-91cd-fa7c61ace9af" points="404.37 48.37 385.97 96.85 408.43 48.37 385.97 21.89 404.37 48.37"/><line class="1d97c331-4628-428b-8814-c6b1718b1639" x1="408.43" y1="48.37" x2="363.51" y2="48.37"/><path class="1d97c331-4628-428b-8814-c6b1718b1639" d="M386,21.89v75c0,48.88,48.11,47,48.38,80.14"/><line class="1d97c331-4628-428b-8814-c6b1718b1639" x1="80.46" y1="286.34" x2="80.46" y2="282.94"/><line class="1d97c331-4628-428b-8814-c6b1718b1639" x1="76.56" y1="287.95" x2="74.16" y2="285.55"/><line class="1d97c331-4628-428b-8814-c6b1718b1639" x1="74.95" y1="291.85" x2="71.55" y2="291.85"/><line class="1d97c331-4628-428b-8814-c6b1718b1639" x1="804.26" y1="259.93" x2="811.56" y2="268.62"/><path class="ef6cfcc3-6672-4764-8753-cc6bab73bc47" d="M838.38,316.18c-1.58-5.36-6.26-25.84,5.84-50l-5.79-4.74a1,1,0,0,1-.13-1.42c3.11-3.66,22.37-20.32,28-15.65s-12.22,35.23,7,63.4a2,2,0,0,1-.35,2.67c-3,2.52-11.93,7.78-32.79,7.13A2,2,0,0,1,838.38,316.18Z"/><path class="662ac4c2-68d3-4b92-bfc4-96826805066e" d="M873.37,307.79c-19.24-28.17-1.34-58.73-7-63.4a3.72,3.72,0,0,0-2-.78c2.42,7.56-12.4,35.61,5,62.18a2,2,0,0,1-.4,2.67c-3,2.39-11.48,7.22-30.89,6.61,0.11,0.42.22,0.79,0.31,1.11a2,2,0,0,0,1.84,1.42C861.08,318.24,870,313,873,310.47A2,2,0,0,0,873.37,307.79Z"/><path class="1d97c331-4628-428b-8814-c6b1718b1639" d="M835,303.62a45.44,45.44,0,0,0,34.28-5.83"/><path class="1d97c331-4628-428b-8814-c6b1718b1639" d="M843.4,267.31s3.78,3.35,10.23,0"/><ellipse class="e4bcfa10-66d7-4dd4-a843-580c4fbd0874" cx="855.87" cy="257.25" rx="2.48" ry="1.24" transform="translate(247.66 912.06) rotate(-63.84)"/><ellipse class="e4bcfa10-66d7-4dd4-a843-580c4fbd0874" cx="851.81" cy="255.01" rx="2.48" ry="1.24" transform="translate(247.4 907.16) rotate(-63.84)"/><g class="31fbca1e-e7c7-47c1-9402-d29ba132c6c7"><path class="e4bcfa10-66d7-4dd4-a843-580c4fbd0874" d="M814.46,256.76c0.55-.4.45-1.3,0.2-2.27,0.74,2.95-.57-1.06.48-0.33a1.57,1.57,0,0,0,1.9.21,1.51,1.51,0,0,0,.63-2A0.25,0.25,0,0,1,818,252a1.52,1.52,0,0,0,1.87-.26c0.82-.74-0.34-2.21-1.77-3.53l-6.73,6.24C812.44,256,813.63,257.37,814.46,256.76Z"/></g><path class="ef6cfcc3-6672-4764-8753-cc6bab73bc47" d="M813.46,255.76c0.52-.38.45-1.22,0.23-2.14a0.37,0.37,0,0,1,.57-0.38,1.58,1.58,0,0,0,2.42-1.9A0.25,0.25,0,0,1,817,251a1.52,1.52,0,0,0,1.87-.26c0.82-.74-0.34-2.21-1.77-3.53l-6.73,6.24C811.44,255,812.63,256.37,813.46,255.76Z"/><path class="372b427e-f8bf-4239-8c52-368ee7bf57fb" d="M231.82,77.89a7.36,7.36,0,0,0-13.48-4.09,11.73,11.73,0,0,0-20.67-2.57,18.42,18.42,0,0,0-35.59,6.66h69.74Z"/><g class="31fbca1e-e7c7-47c1-9402-d29ba132c6c7"><path class="403a1afd-c19f-43f6-9c22-60cfeb9615a8" d="M215.6,76.24a7.39,7.39,0,0,1,2.74-2.44c-2.11-3.14-6.93-7.65-11-7.65a11.72,11.72,0,0,0-2,.18C209.53,67.06,214.17,72.39,215.6,76.24Z"/><path class="403a1afd-c19f-43f6-9c22-60cfeb9615a8" d="M224.46,70.53a7.34,7.34,0,0,0-2,.28,7.36,7.36,0,0,1,5.36,7.08h4A7.36,7.36,0,0,0,224.46,70.53Z"/><path class="403a1afd-c19f-43f6-9c22-60cfeb9615a8" d="M195,74a11.82,11.82,0,0,1,2.66-2.74c-3.21-5.4-10.43-11.77-17.17-11.77a18.59,18.59,0,0,0-2,.12C185.44,60.33,192.58,67.68,195,74Z"/></g><rect class="fb29b23a-ece3-4c15-91cd-fa7c61ace9af" x="495" y="23.1" width="4" height="333.24" transform="translate(307.28 686.72) rotate(-90)"/><line class="1d97c331-4628-428b-8814-c6b1718b1639" x1="544.22" y1="290.41" x2="587.72" y2="290.41"/><line class="1d97c331-4628-428b-8814-c6b1718b1639" x1="544.22" y1="308.22" x2="605.25" y2="308.22"/><line class="1d97c331-4628-428b-8814-c6b1718b1639" x1="544.22" y1="326.03" x2="605.25" y2="326.03"/><rect class="fb29b23a-ece3-4c15-91cd-fa7c61ace9af" x="509.58" y="365.17" width="131.18" height="3.33"/><rect class="fb29b23a-ece3-4c15-91cd-fa7c61ace9af" x="533.62" y="344.34" width="83.11" height="2.33"/><rect class="fb29b23a-ece3-4c15-91cd-fa7c61ace9af" x="223.12" y="357.89" width="4.11" height="45.63"/><path class="fb29b23a-ece3-4c15-91cd-fa7c61ace9af" d="M270.89,271.92a21.52,21.52,0,0,0-3.08.25A21.46,21.46,0,0,1,288.34,291c1.68,13.8-17.45,34.19-17.45,34.19s21.46-17.92,21.46-31.83A21.46,21.46,0,0,0,270.89,271.92Z"/><path class="225735a1-e926-49f5-bb31-0a5484217b35" d="M316,311c7.06-4.85,16.45,1.39,22.75,7.07a1,1,0,0,1,.18,1.26,32.17,32.17,0,0,1-9.63,9.6C322.86,325.22,316,311,316,311Z"/><path class="9734587f-76b3-4f4f-9e23-ec38eea03658" d="M321,370.53c-1.78-13.11-1.51-25.91,2.37-32.73a2.92,2.92,0,0,0-.09-3.14c-3.82-5.44-11.49-17.17-4.2-23.66a9.68,9.68,0,0,1,4.26-1.63A10.14,10.14,0,0,0,316,311c-7.29,6.49.38,18.22,4.2,23.66a2.92,2.92,0,0,1,.09,3.14c-3.79,6.65-4.14,19-2.5,31.8q0.12,1,.29,2.13a2,2,0,0,0,1.75,1.7c0.62,0.07,1.23.12,1.83,0.16l0.43,0,1.65,0.09h0.1q0.93,0,1.84,0h0.1c12,0.05,19.85-3.65,19.85-3.65v-3S335.67,371.82,321,370.53Z"/><path class="225735a1-e926-49f5-bb31-0a5484217b35" d="M353.38,320.81s0.77-4.72,2.22-4.49,0.69,5.47.69,5.47l-2.85,1.28Z"/><path class="225735a1-e926-49f5-bb31-0a5484217b35" d="M353.56,322.41s7.14-8.36,8.41-6.88-6.62,8.12-6.62,8.12Z"/><path class="225735a1-e926-49f5-bb31-0a5484217b35" d="M354.7,323.39s8.3-7.26,9.43-5.4-7.74,7.13-7.74,7.13Z"/><path class="225735a1-e926-49f5-bb31-0a5484217b35" d="M354.87,325.52s9.06-6.42,10.06-4.77-6.67,6.19-6.67,6.19Z"/><path class="225735a1-e926-49f5-bb31-0a5484217b35" d="M353.38,320.81s-3.23,8.54-19.44,16.61c0.74,7.65,1.47,9.12,1.47,9.12s15.24-7.4,23-19.73C357.84,321.41,353.38,320.81,353.38,320.81Z"/><path class="1d97c331-4628-428b-8814-c6b1718b1639" d="M334.77,325.9s-2.32,3.19-9.16,1.79"/><ellipse class="e4bcfa10-66d7-4dd4-a843-580c4fbd0874" cx="326.99" cy="315.36" rx="1.12" ry="2.23" transform="translate(-126.79 336.79) rotate(-46.67)"/><ellipse class="e4bcfa10-66d7-4dd4-a843-580c4fbd0874" cx="323.98" cy="318.25" rx="1.12" ry="2.23" transform="translate(-129.84 335.51) rotate(-46.67)"/><path class="1d97c331-4628-428b-8814-c6b1718b1639" d="M343.23,361s-9.37,5.58-27.72,0"/><path class="b45dac72-e80b-472b-bf0a-d21afb9de66c" d="M759.09,135.54l31.67-.53c11.64-5.43,23.29-31.81,17.19-56.14,7.19-15.78,2.28-25.18-.74-26.2-7.47-2.54-21.47,16.81-23,20.28a2,2,0,0,0,.9,2.59l7.72,4S760.67,105.77,759.09,135.54Z"/><path class="9734587f-76b3-4f4f-9e23-ec38eea03658" d="M807.21,52.67a4.17,4.17,0,0,0-.44-0.11c1.45,4.42,1.57,11.67-2.82,21.31,6.1,24.32-5.55,50.7-17.19,56.14l-9.43.16v5.07l13.43-.23c11.64-5.43,23.29-31.81,17.19-56.14C815.14,63.09,810.23,53.69,807.21,52.67Z"/><path class="1d97c331-4628-428b-8814-c6b1718b1639" d="M803.91,120.51c-30.7,4.24-39.89-6.76-39.89-6.76"/><path class="662ac4c2-68d3-4b92-bfc4-96826805066e" d="M769,107.07c6.23-.44,15.7-2.46,21.73-9.95a71.31,71.31,0,0,1-18,4.29C771.45,103.23,770.18,105.11,769,107.07Z"/><line class="1d97c331-4628-428b-8814-c6b1718b1639" x1="767.94" y1="135.54" x2="801.75" y2="135.54"/><line class="1d97c331-4628-428b-8814-c6b1718b1639" x1="777.33" x2="777.33" y2="135.54"/><path class="b45dac72-e80b-472b-bf0a-d21afb9de66c" d="M770.46,121.65s-25.44-2.93-40.36,19.13c-4.63-1.52-9.71-.81-12.11,4a1,1,0,0,0,.44,1.35c6.15,3.18,10.85,5.57,12.54,6.43a1,1,0,0,0,1.19-.22c2.69-3,15.67-16.83,26.93-16.83Z"/><path class="b45dac72-e80b-472b-bf0a-d21afb9de66c" d="M784.81,87s-15.68,11.88-34.3,1.31c-3.69,4.67-6.93,6.21-6.93,6.21S767.94,110,791.88,96C795.44,88.41,784.81,87,784.81,87Z"/><path class="b45dac72-e80b-472b-bf0a-d21afb9de66c" d="M750.51,88.36s-2.63-5-4.16-4.2,1.27,6.38,1.27,6.38l3.67,0.37Z"/><path class="b45dac72-e80b-472b-bf0a-d21afb9de66c" d="M750.79,89.86s-9.61-8.72-10.87-6.8,9,8.51,9,8.51Z"/><path class="b45dac72-e80b-472b-bf0a-d21afb9de66c" d="M749.61,91.18s-10.8-7.26-11.84-4.91,10.12,7.19,10.12,7.19Z"/><path class="b45dac72-e80b-472b-bf0a-d21afb9de66c" d="M749.6,94s-13-6.7-13.83-4.81,9.93,6.57,9.93,6.57Z"/><path class="9734587f-76b3-4f4f-9e23-ec38eea03658" d="M777.44,135.54c-0.07-2.31-.1-3.25-0.1-6.32-36-1-48,22.52-48,22.52L731,152.6a1,1,0,0,0,1.19-.22c2.69-3,15.67-16.83,26.93-16.83h18.34Z"/><path class="1d97c331-4628-428b-8814-c6b1718b1639" d="M790.52,79.54a9.26,9.26,0,0,0,10.23-.67"/><ellipse class="e4bcfa10-66d7-4dd4-a843-580c4fbd0874" cx="800.73" cy="67.14" rx="2.78" ry="1.39" transform="translate(462.71 796.13) rotate(-69.92)"/><ellipse class="e4bcfa10-66d7-4dd4-a843-580c4fbd0874" cx="795.92" cy="65.12" rx="2.78" ry="1.39" transform="translate(461.45 790.28) rotate(-69.92)"/><path class="cba2a956-4a27-4dea-a6c8-9688b12c0e1a" d="M490.56,164.46s-2.47,8,.46,8,2.71-7.6,2.71-7.6Z"/><path class="cba2a956-4a27-4dea-a6c8-9688b12c0e1a" d="M492.8,164.62s-0.08,8.12,3.16,7.85,1.34-7.6,1.34-7.6Z"/><path class="cba2a956-4a27-4dea-a6c8-9688b12c0e1a" d="M495.78,163.65s2.07,9.07,4.67,8.85,0-7.43,0-7.43Z"/><path class="cba2a956-4a27-4dea-a6c8-9688b12c0e1a" d="M398.87,135.4s4.28-7.66,6.16-5.92S401.2,137,401.2,137Z"/><path class="cba2a956-4a27-4dea-a6c8-9688b12c0e1a" d="M400.42,136.59s5.9-6.34,7.79-4.23-4.7,6.68-4.7,6.68Z"/><path class="cba2a956-4a27-4dea-a6c8-9688b12c0e1a" d="M401.64,139.1s8-5.81,9.49-4.11-5.47,5.74-5.47,5.74Z"/><ellipse class="e4bcfa10-66d7-4dd4-a843-580c4fbd0874" cx="442.53" cy="117.85" rx="1.39" ry="2.78" transform="translate(-9.63 45.24) rotate(-5.79)"/><ellipse class="e4bcfa10-66d7-4dd4-a843-580c4fbd0874" cx="437.32" cy="118.12" rx="1.39" ry="2.78" transform="translate(-9.69 44.72) rotate(-5.79)"/><path class="1d97c331-4628-428b-8814-c6b1718b1639" d="M433.45,139.43a14,14,0,0,0,14.73-4.74"/><path class="ccf9f37f-6f54-4809-966c-10c8a941734b" d="M185.75,295.14s-2.57,8.35.48,8.34,2.82-7.92,2.82-7.92Z"/><path class="ccf9f37f-6f54-4809-966c-10c8a941734b" d="M188.09,295.3s-0.08,8.47,3.29,8.18,1.4-7.92,1.4-7.92Z"/><path class="ccf9f37f-6f54-4809-966c-10c8a941734b" d="M191.2,294.29s2.15,9.45,4.87,9.22,0-7.75,0-7.75Z"/><ellipse class="e4bcfa10-66d7-4dd4-a843-580c4fbd0874" cx="133.87" cy="244" rx="1.39" ry="2.78" transform="translate(-60.79 45.09) rotate(-15.63)"/><ellipse class="e4bcfa10-66d7-4dd4-a843-580c4fbd0874" cx="138.82" cy="242.35" rx="1.39" ry="2.78" transform="translate(-60.16 46.36) rotate(-15.63)"/><path class="1d97c331-4628-428b-8814-c6b1718b1639" d="M148.64,257a11.7,11.7,0,0,1-12.95-.36"/><path class="ccf9f37f-6f54-4809-966c-10c8a941734b" d="M88,279.72s-0.29,6.19,2,5.51,0.58-6,.58-6Z"/><path class="ccf9f37f-6f54-4809-966c-10c8a941734b" d="M90.11,279.32s-0.24,6,2.43,5.86,1.27-5.56,1.27-5.56Z"/><path class="ccf9f37f-6f54-4809-966c-10c8a941734b" d="M93.58,279.87s-0.23,10.36,1.87,10.8,1.5-10.8,1.5-10.8H93.58Z"/><path class="ccf9f37f-6f54-4809-966c-10c8a941734b" d="M96.65,278s3,5.36,1.53,6.2-4.61-4.59-4.61-4.59l1.72-3.26Z"/><circle class="e4bcfa10-66d7-4dd4-a843-580c4fbd0874" cx="340.45" cy="177.72" r="1.72"/><circle class="e4bcfa10-66d7-4dd4-a843-580c4fbd0874" cx="347.9" cy="177.72" r="1.72"/><circle class="e4bcfa10-66d7-4dd4-a843-580c4fbd0874" cx="355.36" cy="177.72" r="1.72"/><rect class="fb29b23a-ece3-4c15-91cd-fa7c61ace9af" x="488.16" y="399.17" width="159.11" height="4.33"/></svg>