<svg id="9e5cd67b-bfea-42ec-9201-73840551986d" data-name="Illo" xmlns="http://www.w3.org/2000/svg" viewBox="0 0 982.67 449.01"><defs><style>.\33 1de44d1-e53f-4a9c-8c6e-64f5ce4d4fbd{fill:#fcca7a;}.\30 6225a79-07ce-4afb-831d-936f597dd57d,.\34 bdab784-d9f4-48ed-87fa-0ed14818c2df,.\37 7ac21c0-8968-465b-8b52-4dfdbca738c4,.dc086241-d29a-4c62-b12f-510e6e8bc521,.fca8da2b-3a8e-473f-8795-b479e6beb81b{fill:#364555;}.\30 6225a79-07ce-4afb-831d-936f597dd57d,.\37 7ac21c0-8968-465b-8b52-4dfdbca738c4,.b9faec34-d25f-446d-b744-77784286f27d{opacity:0.1;}.bb171e68-da25-49ac-bf69-30c9c631abf0{fill:#ba91f3;}.\35 6eaa8c6-7e04-45a7-a2b0-bcb9ee759b67{fill:#83c3f8;}.\36 f1adb3d-f7e3-4d1f-b155-991ac50308e8,.deba8e6a-1b59-4cdc-9e9f-36dcdfe92801{fill:#fff;}.\30 6225a79-07ce-4afb-831d-936f597dd57d,.\30 7d3a9d6-b05a-4c2f-84c7-6b570bca19da,.\36 b1cb1e3-162c-4515-a847-13abd6e34b06,.\36 f1adb3d-f7e3-4d1f-b155-991ac50308e8,.\38 eaacaad-a881-417c-b20e-6b5b27e25e3c,.b382f218-c023-4a77-8bd2-c1b196119f87,.dc086241-d29a-4c62-b12f-510e6e8bc521{stroke:#364555;stroke-linecap:round;stroke-linejoin:round;stroke-width:2px;}.\30 7d3a9d6-b05a-4c2f-84c7-6b570bca19da{fill:#f3f6f8;}.\36 b1cb1e3-162c-4515-a847-13abd6e34b06,.\38 eaacaad-a881-417c-b20e-6b5b27e25e3c,.b382f218-c023-4a77-8bd2-c1b196119f87{fill:none;}.\39 753a4ac-47f2-4b96-a960-3cbb9eb3f5b6{fill:#00c08c;}.\34 bdab784-d9f4-48ed-87fa-0ed14818c2df{opacity:0.15;}.\30 1cb2646-6065-4ed3-a2c1-13c03dd7c1d6{opacity:0.2;}.b382f218-c023-4a77-8bd2-c1b196119f87{stroke-dasharray:7.72 5.79;}.\36 b1cb1e3-162c-4515-a847-13abd6e34b06{stroke-dasharray:8.33 6.25;}</style></defs><title>homepage-scene-480</title><path class="31de44d1-e53f-4a9c-8c6e-64f5ce4d4fbd" d="M493.75,211.07s-5.05-23.94-36.53-27.88c1.29,3.19,4.19,10.74,4.19,10.74s17.24,0.7,23.58,17.7A12.3,12.3,0,0,0,493.75,211.07Z"/><path class="77ac21c0-8968-465b-8b52-4dfdbca738c4" d="M485.15,209.75c-5.57-16.21-21.41-18.65-24.95-19l1.22,3.15s16.06,0.66,22.88,16A2.4,2.4,0,0,0,485.15,209.75Z"/><path class="bb171e68-da25-49ac-bf69-30c9c631abf0" d="M177.2,340.94s-3.77,4.52-2.39,5.68,5.64-3.77,5.64-3.77l-1.1-3.68Z"/><path class="bb171e68-da25-49ac-bf69-30c9c631abf0" d="M189.36,341.77A51.91,51.91,0,0,0,147,309.66c1.34,3.33,6,11.11,6,11.11s20.66,3.86,27.26,21.57A12.81,12.81,0,0,0,189.36,341.77Z"/><path class="77ac21c0-8968-465b-8b52-4dfdbca738c4" d="M153.4,318.62c0.27,0.7.66,1.62,1,2.5,3.76,1,14,4.31,20.93,12.79a28,28,0,0,1,4.14,6.67,4.78,4.78,0,0,0,1.18-.28C174.88,323.4,157.08,319,153.4,318.62Z"/><path class="bb171e68-da25-49ac-bf69-30c9c631abf0" d="M81.3,325.72s-3.08-26.58,39.17-18.12c-1.34,3.33-5.11,11.13-5.11,11.13s-21.26-11.41-26,7.25C84.06,327.5,81.3,325.72,81.3,325.72Z"/><path class="77ac21c0-8968-465b-8b52-4dfdbca738c4" d="M87.95,324.29c-0.26.62,0.75,1.09,1.53,1.35,4.91-18.16,25.88-6.91,25.88-6.91s0.49-1,1.19-2.48a25.75,25.75,0,0,0-2.58-1.16C101.57,310.22,93.39,311.45,87.95,324.29Z"/><path class="bb171e68-da25-49ac-bf69-30c9c631abf0" d="M117.41,337.86s-16.52-59.54-1.05-63.51c12.92-3.32,27.45,15.88,31.87,22.27a2,2,0,0,1-.86,3l-7.6,3.26s10.93,8.25,22.52,27.14A88.05,88.05,0,0,1,117.41,337.86Z"/><path class="77ac21c0-8968-465b-8b52-4dfdbca738c4" d="M120.36,275.35a12.67,12.67,0,0,1,4.63-.29,14.28,14.28,0,0,0-8.63-.71c-15.47,4,1.05,63.51,1.05,63.51s1.38,0.19,3.81.3C119.44,331.49,105.88,279.07,120.36,275.35Z"/><path class="31de44d1-e53f-4a9c-8c6e-64f5ce4d4fbd" d="M426.43,188.62c-14.17,4-24.73,6.57-27.35-1.93,0,0-9-8.06-8.54-4.69,0.67,17,11.48,22.38,35.89,15.13S426.43,188.62,426.43,188.62Z"/><path class="77ac21c0-8968-465b-8b52-4dfdbca738c4" d="M427.43,191.11s0.46-1.58.74-2.36c-1-.09-1.74-0.13-1.74-0.13-14.08,4-24.59,6.54-27.3-1.78l-1.8,1.23C403,199.86,416,196.24,427.43,191.11Z"/><path class="31de44d1-e53f-4a9c-8c6e-64f5ce4d4fbd" d="M390.52,181.45s0.15-5.64,1.88-5.61,1.68,6.29,1.68,6.29l-3.12,2Z"/><path class="31de44d1-e53f-4a9c-8c6e-64f5ce4d4fbd" d="M468.26,213.72s-20.33-65.45-34.58-65.45c-12.21,0-14.13,25.82-14.43,33.22a2,2,0,0,0,1.89,2.07l6.54,0.36s-5,16.84-5,29.8h45.56Z"/><path class="77ac21c0-8968-465b-8b52-4dfdbca738c4" d="M432.36,149.27c13.21,0,27.55,56.25,29.57,64.45h6.32s-20.33-65.45-34.58-65.45a8.21,8.21,0,0,0-5.46,2.11A8.37,8.37,0,0,1,432.36,149.27Z"/><path class="31de44d1-e53f-4a9c-8c6e-64f5ce4d4fbd" d="M480,214.18c1.28,1.07,5.41-3.62,5.41-3.62L484.33,207S478.66,213.07,480,214.18Z"/><path class="56eaa8c6-7e04-45a7-a2b0-bcb9ee759b67" d="M834.9,318.06c-1-.23-10.09-1.32-18.86-12.8l-6,5s7.53,14.58,22.32,18S834.9,318.06,834.9,318.06Z"/><path class="77ac21c0-8968-465b-8b52-4dfdbca738c4" d="M839.65,326.15c-17.72.13-25.31-14.07-27.07-18l-2.52,2.11s7.53,14.58,22.32,18C838.31,329.66,839.89,328.29,839.65,326.15Z"/><path class="56eaa8c6-7e04-45a7-a2b0-bcb9ee759b67" d="M857.82,319.26s15.05-1.63,22.33-21.86c5.87,1,9.3,0,9.3,0s-4.38,25.83-31.64,30.78C850.11,324.91,857.82,319.26,857.82,319.26Z"/><path class="56eaa8c6-7e04-45a7-a2b0-bcb9ee759b67" d="M880.15,297.4s-3.61-4.34-2.29-5.45,5.41,3.62,5.41,3.62l-1.06,3.53Z"/><path class="56eaa8c6-7e04-45a7-a2b0-bcb9ee759b67" d="M881.72,298.48s-1.93-12.83.36-12.82,2.12,12.18,2.12,12.18Z"/><path class="56eaa8c6-7e04-45a7-a2b0-bcb9ee759b67" d="M883.47,298.23s-0.06-13,2.47-12.58,0.38,12.41.38,12.41Z"/><path class="56eaa8c6-7e04-45a7-a2b0-bcb9ee759b67" d="M885.81,299.77s1.62-14.53,3.66-14.18,0,11.91,0,11.91Z"/><path class="77ac21c0-8968-465b-8b52-4dfdbca738c4" d="M889.46,297.4h0c-9.41,26.38-33.54,27.33-33.54,27.33L855,326.17a6.52,6.52,0,0,0,2.84,2C885.07,323.23,889.46,297.4,889.46,297.4Z"/><path class="56eaa8c6-7e04-45a7-a2b0-bcb9ee759b67" d="M852.56,361.53s9.53,14.28,27,4.7c2.41,2.87,6.52,3,8.72,2.85a1,1,0,0,0,.79-1.48l-6.27-11.39a1,1,0,0,0-1.48-.32c-3.18,2.42-14.06,9.72-21.26,2.73C853.19,357,852.56,361.53,852.56,361.53Z"/><path class="77ac21c0-8968-465b-8b52-4dfdbca738c4" d="M860.1,358.62c-6.9-1.57-7.54,2.91-7.54,2.91a18.58,18.58,0,0,0,3.17,3.39,16.23,16.23,0,0,0,7.23-4.31A10.43,10.43,0,0,1,860.1,358.62Z"/><polygon class="6f1adb3d-f7e3-4d1f-b155-991ac50308e8" points="162.29 329.99 122.42 329.99 112.42 345.71 172.29 345.71 162.29 329.99"/><polygon class="07d3a9d6-b05a-4c2f-84c7-6b570bca19da" points="155.05 337.85 129.67 337.85 124.67 345.71 160.05 345.71 155.05 337.85"/><polygon class="06225a79-07ce-4afb-831d-936f597dd57d" points="130.76 340.85 153.95 340.85 156.78 345.71 160.05 345.71 155.05 337.85 129.67 337.85 124.67 345.71 127.94 345.71 130.76 340.85"/><path class="8eaacaad-a881-417c-b20e-6b5b27e25e3c" d="M75.79,337.85H95.93a2,2,0,0,1,2,2v5.86a0,0,0,0,1,0,0H73.79a0,0,0,0,1,0,0v-5.86A2,2,0,0,1,75.79,337.85Z"/><path class="56eaa8c6-7e04-45a7-a2b0-bcb9ee759b67" d="M838,363.61s-1.69,10.2,5.16,22.77a7.94,7.94,0,0,0-5.63,4.93,1,1,0,0,0,.93,1.37H852a1,1,0,0,0,.91-1.42c-2-4.39-7.87-18.06-6.6-28.39Z"/><path class="77ac21c0-8968-465b-8b52-4dfdbca738c4" d="M846.11,365.61a25,25,0,0,1,.16-2.75l-8.3.75a17.78,17.78,0,0,0-.16,2A21.91,21.91,0,0,0,846.11,365.61Z"/><path class="56eaa8c6-7e04-45a7-a2b0-bcb9ee759b67" d="M804.17,300.41l8.37-7s-5.1-3.39-8.27-.51C801.36,295.52,804.17,300.41,804.17,300.41Z"/><path class="56eaa8c6-7e04-45a7-a2b0-bcb9ee759b67" d="M809.81,292.12s2.58-3.11,5.4-1L810.66,295Z"/><path class="6f1adb3d-f7e3-4d1f-b155-991ac50308e8" d="M722.76,376.56h19.59a3,3,0,0,1,3,3v10.69a0,0,0,0,1,0,0H719.76a0,0,0,0,1,0,0V379.56A3,3,0,0,1,722.76,376.56Z"/><rect class="07d3a9d6-b05a-4c2f-84c7-6b570bca19da" x="687.65" y="383.41" width="89.81" height="66.59" rx="6" ry="6"/><path class="06225a79-07ce-4afb-831d-936f597dd57d" d="M774.44,384.21c0,0.07,0,.13,0,0.2V443a4,4,0,0,1-4,4H688.65l-0.2,0a6,6,0,0,0,5.2,3h77.81a6,6,0,0,0,6-6V389.41A6,6,0,0,0,774.44,384.21Z"/><rect class="07d3a9d6-b05a-4c2f-84c7-6b570bca19da" x="323.71" y="233.72" width="333.24" height="216.28"/><path class="6f1adb3d-f7e3-4d1f-b155-991ac50308e8" d="M657,221.72a8,8,0,0,0-8-8H331.71a8,8,0,0,0-8,8v12H657v-12Z"/><path class="9753a4ac-47f2-4b96-a960-3cbb9eb3f5b6" d="M339,415.1s4.51,5.6,3.63,26.07c5.5,1.91,4.87,7.82,4.87,7.82H335.42a1,1,0,0,1-1-1.05c0.29-5,1.16-26.8-4.88-34.61Z"/><path class="4bdab784-d9f4-48ed-87fa-0ed14818c2df" d="M334.42,448.95a1,1,0,0,0,1,1.05h1.43c1.78-22.81-1.9-28.42-2.83-30.25a18.15,18.15,0,0,0,6.32-.92A10.69,10.69,0,0,0,339,416.1l-9.46-1.76C335.58,422.15,334.71,443.91,334.42,448.95Z"/><line class="8eaacaad-a881-417c-b20e-6b5b27e25e3c" x1="323.71" y1="233.72" x2="656.95" y2="233.72"/><rect class="6f1adb3d-f7e3-4d1f-b155-991ac50308e8" x="362.83" y="233.72" width="255" height="216.28"/><rect class="06225a79-07ce-4afb-831d-936f597dd57d" x="617.83" y="233.72" width="4" height="216.28" transform="translate(1239.67 683.72) rotate(180)"/><rect class="06225a79-07ce-4afb-831d-936f597dd57d" x="358.83" y="233.72" width="4" height="216.28" transform="translate(721.67 683.72) rotate(180)"/><circle class="8eaacaad-a881-417c-b20e-6b5b27e25e3c" cx="239.83" cy="109.15" r="39.12"/><path class="06225a79-07ce-4afb-831d-936f597dd57d" d="M239.83,70a39.41,39.41,0,0,0-5.5.39,39.12,39.12,0,0,1,0,77.46A39.12,39.12,0,1,0,239.83,70Z"/><path class="8eaacaad-a881-417c-b20e-6b5b27e25e3c" d="M267.16,230.16a12.43,12.43,0,0,0-20.24-9.67,21.5,21.5,0,0,0-38.44,0,12.43,12.43,0,0,0-20.24,9.67h78.92Z"/><path class="8eaacaad-a881-417c-b20e-6b5b27e25e3c" d="M323.71,405.92C290,391.45,247.59,379,201.54,379c-110,0-199.13,71-199.13,71"/><rect class="07d3a9d6-b05a-4c2f-84c7-6b570bca19da" x="66.94" y="345.47" width="148.2" height="104.29"/><polygon class="06225a79-07ce-4afb-831d-936f597dd57d" points="211.5 345.47 211.5 446.35 66.94 446.35 66.94 450 215.14 450 215.14 446.35 215.14 345.47 211.5 345.47"/><rect class="6f1adb3d-f7e3-4d1f-b155-991ac50308e8" x="481.49" y="414.5" width="159.11" height="35.5"/><rect class="6f1adb3d-f7e3-4d1f-b155-991ac50308e8" x="502.91" y="392.67" width="131.18" height="21.83"/><rect class="06225a79-07ce-4afb-831d-936f597dd57d" x="634.1" y="392.67" width="4" height="21.83" transform="translate(1272.19 807.17) rotate(180)"/><rect class="06225a79-07ce-4afb-831d-936f597dd57d" x="640.6" y="414.5" width="4" height="35.5" transform="translate(1285.2 864.5) rotate(180)"/><line class="8eaacaad-a881-417c-b20e-6b5b27e25e3c" x1="623.41" y1="403.59" x2="513.59" y2="403.59"/><polygon class="8eaacaad-a881-417c-b20e-6b5b27e25e3c" points="526.95 321.43 589.31 321.43 610.06 342.17 610.06 392.67 526.95 392.67 526.95 321.43"/><rect class="07d3a9d6-b05a-4c2f-84c7-6b570bca19da" x="495.93" y="414.5" width="13.96" height="35.5"/><rect class="07d3a9d6-b05a-4c2f-84c7-6b570bca19da" x="612.2" y="414.5" width="13.96" height="35.5" transform="translate(1238.37 864.5) rotate(-180)"/><polygon class="8eaacaad-a881-417c-b20e-6b5b27e25e3c" points="589.31 342.17 610.06 342.17 589.31 321.43 589.31 342.17"/><polygon class="06225a79-07ce-4afb-831d-936f597dd57d" points="589.31 342.17 610.06 342.17 610.06 351.47 589.31 342.17"/><rect class="6f1adb3d-f7e3-4d1f-b155-991ac50308e8" x="180.24" y="353.71" width="24.49" height="15.7"/><rect class="6f1adb3d-f7e3-4d1f-b155-991ac50308e8" x="180.24" y="353.71" width="24.49" height="7.85"/><polygon class="6f1adb3d-f7e3-4d1f-b155-991ac50308e8" points="204.73 337.86 208.97 349.32 220.43 353.56 208.97 357.8 204.73 369.26 200.49 357.8 189.03 353.56 200.49 349.32 204.73 337.86"/><rect class="6f1adb3d-f7e3-4d1f-b155-991ac50308e8" x="90.37" y="374.92" width="51.98" height="45.88" rx="2" ry="2"/><path class="06225a79-07ce-4afb-831d-936f597dd57d" d="M104.59,397.86v4a37.77,37.77,0,1,0,75.53,0v-4H104.59Z"/><circle class="6f1adb3d-f7e3-4d1f-b155-991ac50308e8" cx="142.36" cy="397.86" r="37.77"/><circle class="6f1adb3d-f7e3-4d1f-b155-991ac50308e8" cx="142.36" cy="397.86" r="28.8"/><path class="06225a79-07ce-4afb-831d-936f597dd57d" d="M142.36,369.06a28.8,28.8,0,1,0,28.8,28.8A28.8,28.8,0,0,0,142.36,369.06Zm0,55.5a26.7,26.7,0,1,1,26.7-26.7A26.7,26.7,0,0,1,142.36,424.56Z"/><path class="6f1adb3d-f7e3-4d1f-b155-991ac50308e8" d="M121.89,386.85A23.29,23.29,0,0,1,136,375.51"/><path class="6f1adb3d-f7e3-4d1f-b155-991ac50308e8" d="M119.12,397.86a23.28,23.28,0,0,1,.72-5.77"/><circle class="6f1adb3d-f7e3-4d1f-b155-991ac50308e8" cx="200.75" cy="433.79" r="3.99"/><rect class="07d3a9d6-b05a-4c2f-84c7-6b570bca19da" x="215.14" y="404.13" width="58.24" height="45.63"/><rect class="6f1adb3d-f7e3-4d1f-b155-991ac50308e8" x="215.14" y="410.69" width="58.24" height="32.76"/><rect class="6f1adb3d-f7e3-4d1f-b155-991ac50308e8" x="226.93" y="410.69" width="35.98" height="32.76"/><path class="6f1adb3d-f7e3-4d1f-b155-991ac50308e8" d="M26.86,418.5S5.4,400.58,5.4,386.67a21.46,21.46,0,0,1,42.92,0C48.32,400.58,26.86,418.5,26.86,418.5Z"/><path class="06225a79-07ce-4afb-831d-936f597dd57d" d="M26.86,365.21a21.52,21.52,0,0,0-3.08.25,21.46,21.46,0,0,1,20.54,18.85C46,398.11,26.86,418.5,26.86,418.5s21.46-17.92,21.46-31.83A21.46,21.46,0,0,0,26.86,365.21Z"/><line class="8eaacaad-a881-417c-b20e-6b5b27e25e3c" x1="26.86" y1="380.54" x2="26.86" y2="433.07"/><line class="8eaacaad-a881-417c-b20e-6b5b27e25e3c" x1="26.86" y1="394.86" x2="33.32" y2="388.4"/><line class="8eaacaad-a881-417c-b20e-6b5b27e25e3c" x1="26.86" y1="405.54" x2="17.31" y2="395.99"/><path class="6f1adb3d-f7e3-4d1f-b155-991ac50308e8" d="M264.22,371.22s-21.46-17.92-21.46-31.83a21.46,21.46,0,0,1,42.92,0C285.68,353.29,264.22,371.22,264.22,371.22Z"/><line class="8eaacaad-a881-417c-b20e-6b5b27e25e3c" x1="264.22" y1="333.25" x2="264.22" y2="385.78"/><line class="8eaacaad-a881-417c-b20e-6b5b27e25e3c" x1="264.22" y1="347.58" x2="257.75" y2="341.11"/><line class="8eaacaad-a881-417c-b20e-6b5b27e25e3c" x1="264.22" y1="358.25" x2="273.77" y2="348.71"/><path class="8eaacaad-a881-417c-b20e-6b5b27e25e3c" d="M721.19,104.83a34.13,34.13,0,0,1,19.87-31,34.13,34.13,0,1,0,0,62A34.13,34.13,0,0,1,721.19,104.83Z"/><path class="06225a79-07ce-4afb-831d-936f597dd57d" d="M732.15,136.29a34.13,34.13,0,0,1-17.88-63.2,34.13,34.13,0,1,0,26.8,62.75c-0.33-.15-0.65-0.33-1-0.49A34,34,0,0,1,732.15,136.29Z"/><line class="8eaacaad-a881-417c-b20e-6b5b27e25e3c" x1="719.94" y1="252.79" x2="719.94" y2="260.31"/><line class="8eaacaad-a881-417c-b20e-6b5b27e25e3c" x1="723.7" y1="256.55" x2="716.18" y2="256.55"/><line class="8eaacaad-a881-417c-b20e-6b5b27e25e3c" x1="557.29" y1="100.48" x2="557.29" y2="107.99"/><line class="8eaacaad-a881-417c-b20e-6b5b27e25e3c" x1="561.05" y1="104.23" x2="553.53" y2="104.23"/><line class="8eaacaad-a881-417c-b20e-6b5b27e25e3c" x1="852.85" y1="110.01" x2="852.85" y2="117.53"/><line class="8eaacaad-a881-417c-b20e-6b5b27e25e3c" x1="856.61" y1="113.77" x2="849.09" y2="113.77"/><g class="01cb2646-6065-4ed3-a2c1-13c03dd7c1d6"><rect class="deba8e6a-1b59-4cdc-9e9f-36dcdfe92801" x="390.34" y="286.48" width="94.91" height="116.32"/><polyline class="8eaacaad-a881-417c-b20e-6b5b27e25e3c" points="485.24 398.8 485.24 402.8 481.24 402.8"/><line class="b382f218-c023-4a77-8bd2-c1b196119f87" x1="475.45" y1="402.8" x2="397.24" y2="402.8"/><polyline class="8eaacaad-a881-417c-b20e-6b5b27e25e3c" points="394.34 402.8 390.34 402.8 390.34 398.8"/><line class="6b1cb1e3-162c-4515-a847-13abd6e34b06" x1="390.34" y1="392.55" x2="390.34" y2="293.6"/><polyline class="8eaacaad-a881-417c-b20e-6b5b27e25e3c" points="390.34 290.48 390.34 286.48 394.34 286.48"/><line class="b382f218-c023-4a77-8bd2-c1b196119f87" x1="400.13" y1="286.48" x2="478.35" y2="286.48"/><polyline class="8eaacaad-a881-417c-b20e-6b5b27e25e3c" points="481.24 286.48 485.24 286.48 485.24 290.48"/><line class="6b1cb1e3-162c-4515-a847-13abd6e34b06" x1="485.24" y1="296.73" x2="485.24" y2="395.68"/></g><path class="8eaacaad-a881-417c-b20e-6b5b27e25e3c" d="M631.63,167.2l-1.18,2.49h-38a15.47,15.47,0,0,0-14.24,9.42h62.87V161.23A10.43,10.43,0,0,0,631.63,167.2Z"/><path class="06225a79-07ce-4afb-831d-936f597dd57d" d="M578.19,179.11h62.87v-3H579.88A15.46,15.46,0,0,0,578.19,179.11Z"/><line class="8eaacaad-a881-417c-b20e-6b5b27e25e3c" x1="697.39" y1="179.11" x2="646.06" y2="179.11"/><polygon class="07d3a9d6-b05a-4c2f-84c7-6b570bca19da" points="623.55 147.92 613.77 147.92 600.77 179.11 615.55 179.11 623.55 147.92"/><polygon class="06225a79-07ce-4afb-831d-936f597dd57d" points="623.55 147.92 621.89 147.92 610.35 179.11 615.55 179.11 623.55 147.92"/><path class="6f1adb3d-f7e3-4d1f-b155-991ac50308e8" d="M945.72,212.23a10.83,10.83,0,0,0-17.51-8.54,11.75,11.75,0,0,0-19.84-4.32c0-.34.05-0.68,0.05-1a13.89,13.89,0,1,0-26.88,4.86,10.31,10.31,0,0,0-15.31,9h79.49Z"/><path class="06225a79-07ce-4afb-831d-936f597dd57d" d="M254.72,217.72a12.45,12.45,0,0,0-2,.17,12.43,12.43,0,0,1,10.46,12.26h4A12.43,12.43,0,0,0,254.72,217.72Z"/><path class="06225a79-07ce-4afb-831d-936f597dd57d" d="M243.94,222.26a12.47,12.47,0,0,1,3-1.78c-3.81-6-11.54-11.86-19.22-11.86-0.68,0-1.34,0-2,.1C233.25,209.43,240.68,215.8,243.94,222.26Z"/><g class="b9faec34-d25f-446d-b744-77784286f27d"><path class="dc086241-d29a-4c62-b12f-510e6e8bc521" d="M924.94,205.44a10.88,10.88,0,0,1,3.27-1.75c-2-3.78-6.63-8.12-11.19-8.12a11.71,11.71,0,0,0-2,.18C919.37,196.5,923.61,201.35,924.94,205.44Z"/><path class="dc086241-d29a-4c62-b12f-510e6e8bc521" d="M904.42,198.34c0,0.35,0,3.5,0,3.84a11.85,11.85,0,0,1,3.93-2.81c-0.88-6.83-6.77-14.92-13.84-14.92a13.92,13.92,0,0,0-2,.16A13.88,13.88,0,0,1,904.42,198.34Z"/><path class="dc086241-d29a-4c62-b12f-510e6e8bc521" d="M934.87,201.38a10.79,10.79,0,0,0-2,.19,10.84,10.84,0,0,1,8.85,10.65h4A10.85,10.85,0,0,0,934.87,201.38Z"/></g><path class="9753a4ac-47f2-4b96-a960-3cbb9eb3f5b6" d="M326.32,417.44s-2.18,16.69-12.53,22.74a6.57,6.57,0,0,1-.53,8.72l-8.37-9.18a1,1,0,0,1,.09-1.44c3.16-2.63,14.46-12.72,13.29-21.57A6.66,6.66,0,0,1,326.32,417.44Z"/><path class="4bdab784-d9f4-48ed-87fa-0ed14818c2df" d="M318.27,416.72c1.17,8.85-10.13,18.94-13.29,21.57a1,1,0,0,0-.09,1.44l1.06,1.16c11.51-8.38,13.18-15.64,14.27-19.77a18.18,18.18,0,0,0,5.6,0,29.46,29.46,0,0,0,.5-3.69A6.66,6.66,0,0,0,318.27,416.72Z"/><path class="9753a4ac-47f2-4b96-a960-3cbb9eb3f5b6" d="M339,416.1s-10.5,5-25.81,3.32a2,2,0,0,1-1.75-1.7c-2-13.52-1.79-26.91,2.21-33.93a2.92,2.92,0,0,0-.09-3.14c-3.82-5.44-11.49-17.17-4.2-23.66C321,349,339,371.22,339,371.22V416.1Z"/><rect class="6f1adb3d-f7e3-4d1f-b155-991ac50308e8" x="322.34" y="289.48" width="94.91" height="116.32" transform="translate(-77.38 107.55) rotate(-15)"/><rect class="06225a79-07ce-4afb-831d-936f597dd57d" x="338.01" y="403.74" width="94.91" height="4.76" transform="translate(-91.98 113.6) rotate(-15)"/><rect class="6f1adb3d-f7e3-4d1f-b155-991ac50308e8" x="327.01" y="296.57" width="81.29" height="86.18" transform="translate(-75.38 106.73) rotate(-15)"/><rect class="8eaacaad-a881-417c-b20e-6b5b27e25e3c" x="383.69" y="301.61" width="25.28" height="73.67" transform="translate(-74.09 114.11) rotate(-15)"/><path class="07d3a9d6-b05a-4c2f-84c7-6b570bca19da" d="M418.07,370.76L405,321.86c-8.83,5.35-16.2-3.61-24.79,5.15l13.48,50.29Z"/><path class="8eaacaad-a881-417c-b20e-6b5b27e25e3c" d="M380.17,327c8.59-8.76,16,.2,24.79-5.15"/><path class="8eaacaad-a881-417c-b20e-6b5b27e25e3c" d="M355.85,362.33L349.57,361l7.68-44a4.92,4.92,0,0,1,5.88-4h0a4.92,4.92,0,0,1,3.74,6Z"/><path class="6f1adb3d-f7e3-4d1f-b155-991ac50308e8" d="M374.84,350.31l-43.3,11.6,8,29.89C360.51,386.18,374.67,368.74,374.84,350.31Z"/><path class="06225a79-07ce-4afb-831d-936f597dd57d" d="M366,352.69c-0.16,18.43-13.88,35.76-26.42,39.12,21-5.62,35.13-23.06,35.29-41.49Z"/><path class="8eaacaad-a881-417c-b20e-6b5b27e25e3c" d="M95.34,144.27a27.55,27.55,0,0,0-27.55,27.55c0,14.56,14.84,24.71,22.9,36.8H100c8.06-12.08,22.9-22.24,22.9-36.8A27.55,27.55,0,0,0,95.34,144.27Z"/><path class="06225a79-07ce-4afb-831d-936f597dd57d" d="M122.89,171.83a27.55,27.55,0,0,0-34.81-26.58,27.55,27.55,0,0,1,30.29,24.13c1.72,14.46-11.8,26.3-18.38,39.25C108.06,196.54,122.89,186.38,122.89,171.83Z"/><path class="8eaacaad-a881-417c-b20e-6b5b27e25e3c" d="M95.34,208.62s-25.25-38.76-7.87-63.2"/><path class="8eaacaad-a881-417c-b20e-6b5b27e25e3c" d="M95.34,208.62s25.25-38.76,7.87-63.2"/><rect class="8eaacaad-a881-417c-b20e-6b5b27e25e3c" x="90.69" y="208.62" width="9.31" height="8.98"/><path class="07d3a9d6-b05a-4c2f-84c7-6b570bca19da" d="M100,217.6H90.69v4.78a2,2,0,0,0,2,2H98a2,2,0,0,0,2-2V217.6Z"/><path class="6f1adb3d-f7e3-4d1f-b155-991ac50308e8" d="M782.8,424.75s-4.85-23.56,6.1-23.56c11.73,0,20.24,9.8,20.24,23.24a37.42,37.42,0,0,1-9.73,25.4H785.76C793.65,433.12,782.8,424.75,782.8,424.75Z"/><path class="06225a79-07ce-4afb-831d-936f597dd57d" d="M788.9,401.2c-11,0-6.1,23.56-6.1,23.56a13.56,13.56,0,0,1,2.29,2.47,112.08,112.08,0,0,0,10.42-24.9A19.46,19.46,0,0,0,788.9,401.2Z"/><path class="6f1adb3d-f7e3-4d1f-b155-991ac50308e8" d="M748.07,424.75s4.85-23.56-6.1-23.56c-11.73,0-20.24,9.8-20.24,23.24a37.42,37.42,0,0,0,9.73,25.4h13.65C737.22,433.12,748.07,424.75,748.07,424.75Z"/><path class="06225a79-07ce-4afb-831d-936f597dd57d" d="M742,401.2c11,0,6.1,23.56,6.1,23.56a13.56,13.56,0,0,0-2.29,2.47,112.08,112.08,0,0,1-10.42-24.9A19.46,19.46,0,0,1,742,401.2Z"/><path class="6f1adb3d-f7e3-4d1f-b155-991ac50308e8" d="M787,322.26a127,127,0,0,0-21.52-30.5c-20.06,21.06-32.16,48.31-32.16,78.09a109.74,109.74,0,0,0,14.8,54.9H782.8a109.74,109.74,0,0,0,14.8-54.9,108.5,108.5,0,0,0-4-29.34"/><path class="06225a79-07ce-4afb-831d-936f597dd57d" d="M765.43,291.76a123.23,123.23,0,0,1,16.35,28.52,3.62,3.62,0,0,0,4.05,2.21l0.84-.17A119.58,119.58,0,0,0,765.43,291.76Z"/><path class="06225a79-07ce-4afb-831d-936f597dd57d" d="M793.23,340.69a4.53,4.53,0,0,0-2.28,4.78,133.21,133.21,0,0,1,2.24,24.38c0,19.77-6.09,38.43-13.73,54.9h3.34a109.74,109.74,0,0,0,14.8-54.9,108.49,108.49,0,0,0-4-29.34Z"/><circle class="07d3a9d6-b05a-4c2f-84c7-6b570bca19da" cx="765.43" cy="339.33" r="9.56"/><path class="06225a79-07ce-4afb-831d-936f597dd57d" d="M765.43,329.78a9.58,9.58,0,0,0-2,.21,9.55,9.55,0,0,1,0,18.69A9.56,9.56,0,1,0,765.43,329.78Z"/><line class="8eaacaad-a881-417c-b20e-6b5b27e25e3c" x1="758.17" y1="360.4" x2="772.69" y2="360.4"/><line class="8eaacaad-a881-417c-b20e-6b5b27e25e3c" x1="758.17" y1="371.9" x2="772.69" y2="371.9"/><line class="8eaacaad-a881-417c-b20e-6b5b27e25e3c" x1="758.17" y1="383.41" x2="772.69" y2="383.41"/><rect class="6f1adb3d-f7e3-4d1f-b155-991ac50308e8" x="761.14" y="404" width="8.58" height="46"/><rect class="06225a79-07ce-4afb-831d-936f597dd57d" x="767.44" y="404" width="2.28" height="46"/><rect class="6f1adb3d-f7e3-4d1f-b155-991ac50308e8" x="700.68" y="383.41" width="9.31" height="66.09"/><polygon class="07d3a9d6-b05a-4c2f-84c7-6b570bca19da" points="883.11 430.56 883.11 411.61 859.54 411.61 859.54 392.67 835.97 392.67 835.97 449.98 906.69 449.98 906.69 430.56 883.11 430.56"/><rect class="06225a79-07ce-4afb-831d-936f597dd57d" x="835.97" y="446.98" width="70.72" height="3"/><path class="6f1adb3d-f7e3-4d1f-b155-991ac50308e8" d="M820.51,406.47H844a6,6,0,0,1,6,6V444a6,6,0,0,1-6,6H820.51a0,0,0,0,1,0,0V406.47A0,0,0,0,1,820.51,406.47Z"/><path class="06225a79-07ce-4afb-831d-936f597dd57d" d="M844,406.47h-3a6,6,0,0,1,6,6V444a6,6,0,0,1-6,6h3a6,6,0,0,0,6-6V412.47A6,6,0,0,0,844,406.47Z"/><circle class="6f1adb3d-f7e3-4d1f-b155-991ac50308e8" cx="835.28" cy="420.92" r="8.29"/><ellipse class="6f1adb3d-f7e3-4d1f-b155-991ac50308e8" cx="835.28" cy="420.92" rx="3.12" ry="8.29"/><line class="8eaacaad-a881-417c-b20e-6b5b27e25e3c" x1="843.57" y1="420.92" x2="826.99" y2="420.92"/><polygon class="8eaacaad-a881-417c-b20e-6b5b27e25e3c" points="845.14 280.84 837.85 272.15 797.6 305.93 797.6 305.93 797.6 305.93 786.96 322.26 804.89 314.62 804.89 314.62 804.89 314.62 845.14 280.84"/><polygon class="07d3a9d6-b05a-4c2f-84c7-6b570bca19da" points="797.6 305.93 797.6 305.93 797.6 305.93 786.96 322.26 804.89 314.62 804.89 314.62 804.89 314.62 804.89 314.62 797.6 305.93 797.6 305.93"/><rect class="dc086241-d29a-4c62-b12f-510e6e8bc521" x="838.25" y="271.3" width="11.34" height="6.33" transform="translate(511.71 -548.44) rotate(50)"/><path class="8eaacaad-a881-417c-b20e-6b5b27e25e3c" d="M846.43,264.36h7.34a2,2,0,0,1,2,2v7.82a0,0,0,0,1,0,0H844.43a0,0,0,0,1,0,0v-7.82A2,2,0,0,1,846.43,264.36Z" transform="translate(509.94 -555.03) rotate(50)"/><line class="8eaacaad-a881-417c-b20e-6b5b27e25e3c" x1="801.24" y1="310.27" x2="841.49" y2="276.5"/><polygon class="dc086241-d29a-4c62-b12f-510e6e8bc521" points="793.55 319.45 790.87 316.25 786.96 322.26 793.55 319.45"/><polygon class="6f1adb3d-f7e3-4d1f-b155-991ac50308e8" points="928.49 341.96 906.69 422.19 950.3 422.19 928.49 341.96"/><polygon class="06225a79-07ce-4afb-831d-936f597dd57d" points="950.3 422.19 928.49 341.96 945.22 422.19 950.3 422.19"/><line class="8eaacaad-a881-417c-b20e-6b5b27e25e3c" x1="928.49" y1="450" x2="928.49" y2="384.17"/><line class="8eaacaad-a881-417c-b20e-6b5b27e25e3c" x1="928.49" y1="399.18" x2="933.4" y2="394.28"/><line class="8eaacaad-a881-417c-b20e-6b5b27e25e3c" x1="928.49" y1="411.58" x2="921" y2="404.09"/><polygon class="6f1adb3d-f7e3-4d1f-b155-991ac50308e8" points="967.49 394.78 956.06 436.84 978.93 436.84 967.49 394.78"/><polygon class="06225a79-07ce-4afb-831d-936f597dd57d" points="967.49 394.78 975.02 436.84 978.93 436.84 967.49 394.78"/><line class="8eaacaad-a881-417c-b20e-6b5b27e25e3c" x1="967.49" y1="450" x2="967.49" y2="416.91"/><line class="8eaacaad-a881-417c-b20e-6b5b27e25e3c" x1="967.49" y1="424.78" x2="970.06" y2="422.21"/><line class="8eaacaad-a881-417c-b20e-6b5b27e25e3c" x1="967.49" y1="431.28" x2="963.56" y2="427.35"/><line class="8eaacaad-a881-417c-b20e-6b5b27e25e3c" x1="589.31" y1="302.85" x2="502.91" y2="302.85"/><line class="8eaacaad-a881-417c-b20e-6b5b27e25e3c" x1="589.31" y1="279.48" x2="502.91" y2="279.48"/><line class="8eaacaad-a881-417c-b20e-6b5b27e25e3c" x1="589.31" y1="256.11" x2="386.56" y2="256.11"/><line class="8eaacaad-a881-417c-b20e-6b5b27e25e3c" x1="481.49" y1="432" x2="386.56" y2="432"/><polygon class="8eaacaad-a881-417c-b20e-6b5b27e25e3c" points="356.84 94.37 379.3 142.85 401.77 94.37 379.3 67.89 356.84 94.37"/><polygon class="06225a79-07ce-4afb-831d-936f597dd57d" points="397.7 94.37 379.3 142.85 401.77 94.37 379.3 67.89 397.7 94.37"/><line class="8eaacaad-a881-417c-b20e-6b5b27e25e3c" x1="401.77" y1="94.37" x2="356.84" y2="94.37"/><path class="8eaacaad-a881-417c-b20e-6b5b27e25e3c" d="M379.3,67.89v75c0,48.88,48.11,47,48.38,80.14"/><line class="8eaacaad-a881-417c-b20e-6b5b27e25e3c" x1="73.79" y1="332.34" x2="73.79" y2="328.94"/><line class="8eaacaad-a881-417c-b20e-6b5b27e25e3c" x1="69.89" y1="333.95" x2="67.49" y2="331.55"/><line class="8eaacaad-a881-417c-b20e-6b5b27e25e3c" x1="68.28" y1="337.85" x2="64.88" y2="337.85"/><line class="8eaacaad-a881-417c-b20e-6b5b27e25e3c" x1="797.6" y1="305.93" x2="804.89" y2="314.62"/><path class="56eaa8c6-7e04-45a7-a2b0-bcb9ee759b67" d="M831.72,362.18c-1.58-5.36-6.26-25.84,5.84-50l-5.79-4.74a1,1,0,0,1-.13-1.42c3.11-3.66,22.37-20.32,28-15.65s-12.22,35.23,7,63.4a2,2,0,0,1-.35,2.67c-3,2.52-11.93,7.78-32.79,7.13A2,2,0,0,1,831.72,362.18Z"/><path class="77ac21c0-8968-465b-8b52-4dfdbca738c4" d="M866.7,353.79c-19.24-28.17-1.34-58.73-7-63.4a3.72,3.72,0,0,0-2-.78c2.42,7.56-12.4,35.61,5,62.18a2,2,0,0,1-.4,2.67c-3,2.39-11.48,7.22-30.89,6.61,0.11,0.42.22,0.79,0.31,1.11a2,2,0,0,0,1.84,1.42c20.86,0.65,29.75-4.61,32.79-7.13A2,2,0,0,0,866.7,353.79Z"/><path class="8eaacaad-a881-417c-b20e-6b5b27e25e3c" d="M828.37,349.62a45.44,45.44,0,0,0,34.28-5.83"/><path class="8eaacaad-a881-417c-b20e-6b5b27e25e3c" d="M836.74,313.31s3.78,3.35,10.23,0"/><ellipse class="fca8da2b-3a8e-473f-8795-b479e6beb81b" cx="849.21" cy="303.25" rx="2.48" ry="1.24" transform="translate(202.64 931.8) rotate(-63.84)"/><ellipse class="fca8da2b-3a8e-473f-8795-b479e6beb81b" cx="845.14" cy="301.01" rx="2.48" ry="1.24" transform="translate(202.38 926.89) rotate(-63.84)"/><g class="b9faec34-d25f-446d-b744-77784286f27d"><path class="fca8da2b-3a8e-473f-8795-b479e6beb81b" d="M807.79,302.76c0.55-.4.45-1.3,0.2-2.27,0.74,2.95-.57-1.06.48-0.33a1.57,1.57,0,0,0,1.9.21,1.51,1.51,0,0,0,.63-2,0.25,0.25,0,0,1,.35-0.32,1.52,1.52,0,0,0,1.87-.26c0.82-.74-0.34-2.21-1.77-3.53l-6.73,6.24C805.77,302,807,303.37,807.79,302.76Z"/></g><path class="56eaa8c6-7e04-45a7-a2b0-bcb9ee759b67" d="M806.79,301.76c0.52-.38.45-1.22,0.23-2.14a0.37,0.37,0,0,1,.57-0.38,1.58,1.58,0,0,0,2.42-1.9,0.25,0.25,0,0,1,.35-0.32,1.52,1.52,0,0,0,1.87-.26c0.82-.74-0.34-2.21-1.77-3.53l-6.73,6.24C804.77,301,806,302.37,806.79,301.76Z"/><path class="6f1adb3d-f7e3-4d1f-b155-991ac50308e8" d="M225.16,123.89a7.36,7.36,0,0,0-13.48-4.09A11.73,11.73,0,0,0,191,117.23a18.42,18.42,0,0,0-35.59,6.66h69.74Z"/><g class="b9faec34-d25f-446d-b744-77784286f27d"><path class="dc086241-d29a-4c62-b12f-510e6e8bc521" d="M208.94,122.24a7.39,7.39,0,0,1,2.74-2.44c-2.11-3.14-6.93-7.65-11-7.65a11.72,11.72,0,0,0-2,.18C202.86,113.06,207.5,118.39,208.94,122.24Z"/><path class="dc086241-d29a-4c62-b12f-510e6e8bc521" d="M217.8,116.53a7.34,7.34,0,0,0-2,.28,7.36,7.36,0,0,1,5.36,7.08h4A7.36,7.36,0,0,0,217.8,116.53Z"/><path class="dc086241-d29a-4c62-b12f-510e6e8bc521" d="M188.36,120a11.82,11.82,0,0,1,2.66-2.74c-3.21-5.4-10.43-11.77-17.17-11.77a18.59,18.59,0,0,0-2,.12C178.78,106.33,185.91,113.68,188.36,120Z"/></g><rect class="06225a79-07ce-4afb-831d-936f597dd57d" x="488.33" y="69.1" width="4" height="333.24" transform="translate(254.61 726.06) rotate(-90)"/><line class="8eaacaad-a881-417c-b20e-6b5b27e25e3c" x1="537.56" y1="336.41" x2="581.05" y2="336.41"/><line class="8eaacaad-a881-417c-b20e-6b5b27e25e3c" x1="537.56" y1="354.22" x2="598.58" y2="354.22"/><line class="8eaacaad-a881-417c-b20e-6b5b27e25e3c" x1="537.56" y1="372.03" x2="598.58" y2="372.03"/><rect class="06225a79-07ce-4afb-831d-936f597dd57d" x="502.91" y="411.17" width="131.18" height="3.33"/><rect class="06225a79-07ce-4afb-831d-936f597dd57d" x="526.95" y="390.34" width="83.11" height="2.33"/><rect class="06225a79-07ce-4afb-831d-936f597dd57d" x="216.46" y="404.13" width="4.11" height="45.53"/><path class="06225a79-07ce-4afb-831d-936f597dd57d" d="M264.22,317.92a21.52,21.52,0,0,0-3.08.25A21.46,21.46,0,0,1,281.67,337c1.68,13.8-17.45,34.19-17.45,34.19s21.46-17.92,21.46-31.83A21.46,21.46,0,0,0,264.22,317.92Z"/><path class="9753a4ac-47f2-4b96-a960-3cbb9eb3f5b6" d="M309.37,357c7.06-4.85,16.45,1.39,22.75,7.07a1,1,0,0,1,.18,1.26,32.17,32.17,0,0,1-9.63,9.6C316.2,371.22,309.37,357,309.37,357Z"/><path class="4bdab784-d9f4-48ed-87fa-0ed14818c2df" d="M314.29,416.53c-1.78-13.11-1.51-25.91,2.37-32.73a2.92,2.92,0,0,0-.09-3.14c-3.82-5.44-11.49-17.17-4.2-23.66a9.68,9.68,0,0,1,4.26-1.63,10.14,10.14,0,0,0-7.26,1.63c-7.29,6.49.38,18.22,4.2,23.66a2.92,2.92,0,0,1,.09,3.14c-3.79,6.65-4.14,19-2.5,31.8q0.12,1,.29,2.13a2,2,0,0,0,1.75,1.7c0.62,0.07,1.23.12,1.83,0.16l0.43,0,1.65,0.09h0.1q0.93,0,1.84,0h0.1c12,0.05,19.85-3.65,19.85-3.65v-3S329,417.82,314.29,416.53Z"/><path class="9753a4ac-47f2-4b96-a960-3cbb9eb3f5b6" d="M346.72,366.81s0.77-4.72,2.22-4.49,0.69,5.47.69,5.47l-2.85,1.28Z"/><path class="9753a4ac-47f2-4b96-a960-3cbb9eb3f5b6" d="M346.9,368.41s7.14-8.36,8.41-6.88-6.62,8.12-6.62,8.12Z"/><path class="9753a4ac-47f2-4b96-a960-3cbb9eb3f5b6" d="M348,369.39s8.3-7.26,9.43-5.4-7.74,7.13-7.74,7.13Z"/><path class="9753a4ac-47f2-4b96-a960-3cbb9eb3f5b6" d="M348.2,371.52s9.06-6.42,10.06-4.77-6.67,6.19-6.67,6.19Z"/><path class="9753a4ac-47f2-4b96-a960-3cbb9eb3f5b6" d="M346.72,366.81s-3.23,8.54-19.44,16.61c0.74,7.65,1.47,9.12,1.47,9.12s15.24-7.4,23-19.73C351.17,367.41,346.72,366.81,346.72,366.81Z"/><line class="8eaacaad-a881-417c-b20e-6b5b27e25e3c" x1="1190.33" y1="450" x2="-209.67" y2="450"/><path class="8eaacaad-a881-417c-b20e-6b5b27e25e3c" d="M328.1,371.9s-2.32,3.19-9.16,1.79"/><ellipse class="fca8da2b-3a8e-473f-8795-b479e6beb81b" cx="320.32" cy="361.36" rx="1.12" ry="2.23" transform="translate(-162.34 346.38) rotate(-46.67)"/><ellipse class="fca8da2b-3a8e-473f-8795-b479e6beb81b" cx="317.31" cy="364.25" rx="1.12" ry="2.23" transform="translate(-165.39 345.1) rotate(-46.67)"/><path class="8eaacaad-a881-417c-b20e-6b5b27e25e3c" d="M336.56,407s-9.37,5.58-27.72,0"/><path class="31de44d1-e53f-4a9c-8c6e-64f5ce4d4fbd" d="M483.89,210.46s-2.47,8,.46,8,2.71-7.6,2.71-7.6Z"/><path class="31de44d1-e53f-4a9c-8c6e-64f5ce4d4fbd" d="M486.13,210.62s-0.08,8.12,3.16,7.85,1.34-7.6,1.34-7.6Z"/><path class="31de44d1-e53f-4a9c-8c6e-64f5ce4d4fbd" d="M489.12,209.65s2.07,9.07,4.67,8.85,0-7.43,0-7.43Z"/><path class="31de44d1-e53f-4a9c-8c6e-64f5ce4d4fbd" d="M392.2,181.4s4.28-7.66,6.16-5.92-3.83,7.48-3.83,7.48Z"/><path class="31de44d1-e53f-4a9c-8c6e-64f5ce4d4fbd" d="M393.76,182.59s5.9-6.34,7.79-4.23-4.7,6.68-4.7,6.68Z"/><path class="31de44d1-e53f-4a9c-8c6e-64f5ce4d4fbd" d="M395,185.1s8-5.81,9.49-4.11-5.47,5.74-5.47,5.74Z"/><ellipse class="fca8da2b-3a8e-473f-8795-b479e6beb81b" cx="435.87" cy="163.85" rx="1.39" ry="2.78" transform="translate(-14.31 44.81) rotate(-5.79)"/><ellipse class="fca8da2b-3a8e-473f-8795-b479e6beb81b" cx="430.66" cy="164.12" rx="1.39" ry="2.78" transform="translate(-14.36 44.28) rotate(-5.79)"/><path class="8eaacaad-a881-417c-b20e-6b5b27e25e3c" d="M426.79,185.43a14,14,0,0,0,14.73-4.74"/><path class="bb171e68-da25-49ac-bf69-30c9c631abf0" d="M179.09,341.14s-2.57,8.35.48,8.34,2.82-7.92,2.82-7.92Z"/><path class="bb171e68-da25-49ac-bf69-30c9c631abf0" d="M181.42,341.3s-0.08,8.47,3.29,8.18,1.4-7.92,1.4-7.92Z"/><path class="bb171e68-da25-49ac-bf69-30c9c631abf0" d="M184.53,340.29s2.15,9.45,4.87,9.22,0-7.75,0-7.75Z"/><ellipse class="fca8da2b-3a8e-473f-8795-b479e6beb81b" cx="127.21" cy="290" rx="1.39" ry="2.78" transform="translate(-73.43 44.99) rotate(-15.63)"/><ellipse class="fca8da2b-3a8e-473f-8795-b479e6beb81b" cx="132.15" cy="288.35" rx="1.39" ry="2.78" transform="translate(-72.8 46.27) rotate(-15.63)"/><path class="8eaacaad-a881-417c-b20e-6b5b27e25e3c" d="M142,303a11.7,11.7,0,0,1-12.95-.36"/><path class="bb171e68-da25-49ac-bf69-30c9c631abf0" d="M81.3,325.72s-0.29,6.19,2,5.51,0.58-6,.58-6Z"/><path class="bb171e68-da25-49ac-bf69-30c9c631abf0" d="M83.45,325.32s-0.24,6,2.43,5.86,1.27-5.56,1.27-5.56Z"/><path class="bb171e68-da25-49ac-bf69-30c9c631abf0" d="M86.91,325.87s-0.23,10.36,1.87,10.8,1.5-10.8,1.5-10.8H86.91Z"/><path class="bb171e68-da25-49ac-bf69-30c9c631abf0" d="M90,324s3,5.36,1.53,6.2-4.61-4.59-4.61-4.59l1.72-3.26Z"/><circle class="fca8da2b-3a8e-473f-8795-b479e6beb81b" cx="333.78" cy="223.72" r="1.72"/><circle class="fca8da2b-3a8e-473f-8795-b479e6beb81b" cx="341.24" cy="223.72" r="1.72"/><circle class="fca8da2b-3a8e-473f-8795-b479e6beb81b" cx="348.69" cy="223.72" r="1.72"/><rect class="06225a79-07ce-4afb-831d-936f597dd57d" x="481.49" y="445.17" width="159.11" height="4.33"/></svg>