<svg id="b9aca360-ca46-4142-8fee-079531722409" data-name="Illo" xmlns="http://www.w3.org/2000/svg" viewBox="0 0 982.67 406"><defs><style>.\36 7c2ad56-5693-4b56-99c2-ef80f8fc37f2,.\37 09dc4ec-6072-48a9-b5a7-371761d489e1{fill:#fff;}.\39 3c84af3-94b2-4ded-a9dd-ef62f3ea7baf{fill:#fcca7a;}.\30 cb26078-55bf-49e7-a3b5-64152536df84,.\31 1515e84-837f-4f20-9668-3292d15feb6c,.\34 288acdd-204c-40f9-8c7c-d291b98b6f9f,.\38 41dbc39-7696-4218-87a1-1acda53d02ff,.c96d091f-9755-4e19-b308-d972b14202a3{fill:#364555;}.\31 1515e84-837f-4f20-9668-3292d15feb6c,.\38 41dbc39-7696-4218-87a1-1acda53d02ff,.\39 6be444a-13b3-4cfd-af34-59a55c80cd1f{opacity:0.1;}.\37 9c00310-931f-48ea-93fc-5bc24343a376{fill:#ba91f3;}.\31 d640b33-1f8d-4aa1-9b3e-c04d7c71cddb{fill:#ff6e6e;}.\30 cb26078-55bf-49e7-a3b5-64152536df84{opacity:0.15;}.\33 177c9f0-a419-44ff-a994-50d24e595c1f{fill:#83c3f8;}.\31 1515e84-837f-4f20-9668-3292d15feb6c,.\31 c799462-f667-4a26-86f4-f0db843e371d,.\37 09dc4ec-6072-48a9-b5a7-371761d489e1,.\38 8ca4182-d375-452b-9f4f-756954f1ce0f,.c96d091f-9755-4e19-b308-d972b14202a3,.e2d3853a-021c-4f3b-a128-2070e8965dbc,.ed6bb5b5-b3ba-4da0-86ba-4d2adbfab603,.f2680700-f5fc-44e3-9c18-c370f08c5c0e{stroke:#364555;stroke-linejoin:round;stroke-width:2px;}.\31 1515e84-837f-4f20-9668-3292d15feb6c,.\31 c799462-f667-4a26-86f4-f0db843e371d,.\37 09dc4ec-6072-48a9-b5a7-371761d489e1,.c96d091f-9755-4e19-b308-d972b14202a3,.e2d3853a-021c-4f3b-a128-2070e8965dbc,.ed6bb5b5-b3ba-4da0-86ba-4d2adbfab603,.f2680700-f5fc-44e3-9c18-c370f08c5c0e{stroke-linecap:round;}.ed6bb5b5-b3ba-4da0-86ba-4d2adbfab603{fill:#f3f6f8;}.\31 c799462-f667-4a26-86f4-f0db843e371d,.\38 8ca4182-d375-452b-9f4f-756954f1ce0f,.e2d3853a-021c-4f3b-a128-2070e8965dbc,.f2680700-f5fc-44e3-9c18-c370f08c5c0e{fill:none;}.\35 be71ef6-b788-4119-8f56-cbe6cf36a9f4{fill:#00c08c;}.\38 055eeaf-8d6d-4bcf-b0aa-3699f4640fb1{opacity:0.2;}.\31 c799462-f667-4a26-86f4-f0db843e371d{stroke-dasharray:7.72 5.79;}.e2d3853a-021c-4f3b-a128-2070e8965dbc{stroke-dasharray:8.33 6.25;}</style></defs><title>homepage-scene</title><rect class="67c2ad56-5693-4b56-99c2-ef80f8fc37f2" width="982.67" height="406.99"/><path class="93c84af3-94b2-4ded-a9dd-ef62f3ea7baf" d="M493.75,168.06s-5.05-23.94-36.53-27.88c1.29,3.19,4.19,10.74,4.19,10.74s17.24,0.7,23.58,17.7A12.3,12.3,0,0,0,493.75,168.06Z"/><path class="841dbc39-7696-4218-87a1-1acda53d02ff" d="M485.15,166.74c-5.57-16.21-21.41-18.65-24.95-19l1.22,3.15s16.06,0.66,22.88,16A2.4,2.4,0,0,0,485.15,166.74Z"/><path class="79c00310-931f-48ea-93fc-5bc24343a376" d="M177.2,297.93s-3.77,4.52-2.39,5.68,5.64-3.77,5.64-3.77l-1.1-3.68Z"/><path class="79c00310-931f-48ea-93fc-5bc24343a376" d="M189.36,298.76A51.91,51.91,0,0,0,147,266.66c1.34,3.33,6,11.11,6,11.11s20.66,3.86,27.26,21.57A12.81,12.81,0,0,0,189.36,298.76Z"/><path class="841dbc39-7696-4218-87a1-1acda53d02ff" d="M153.4,275.61c0.27,0.7.66,1.62,1,2.5,3.76,1,14,4.31,20.93,12.79a28,28,0,0,1,4.14,6.67,4.78,4.78,0,0,0,1.18-.28C174.88,280.4,157.08,276,153.4,275.61Z"/><path class="79c00310-931f-48ea-93fc-5bc24343a376" d="M81.3,282.71s-3.08-26.58,39.17-18.12c-1.34,3.33-5.11,11.13-5.11,11.13s-21.26-11.41-26,7.25C84.06,284.5,81.3,282.71,81.3,282.71Z"/><path class="841dbc39-7696-4218-87a1-1acda53d02ff" d="M87.95,281.29c-0.26.62,0.75,1.09,1.53,1.35,4.91-18.16,25.88-6.91,25.88-6.91s0.49-1,1.19-2.48a25.75,25.75,0,0,0-2.58-1.16C101.57,267.22,93.39,268.44,87.95,281.29Z"/><path class="79c00310-931f-48ea-93fc-5bc24343a376" d="M117.41,294.85s-16.52-59.54-1.05-63.51c12.92-3.32,27.45,15.88,31.87,22.27a2,2,0,0,1-.86,3l-7.6,3.26S150.7,268.1,162.29,287A88.05,88.05,0,0,1,117.41,294.85Z"/><path class="841dbc39-7696-4218-87a1-1acda53d02ff" d="M120.36,232.35a12.67,12.67,0,0,1,4.63-.29,14.28,14.28,0,0,0-8.63-.71c-15.47,4,1.05,63.51,1.05,63.51s1.38,0.19,3.81.3C119.44,288.48,105.88,236.06,120.36,232.35Z"/><path class="93c84af3-94b2-4ded-a9dd-ef62f3ea7baf" d="M426.43,145.61c-14.17,4-24.73,6.57-27.35-1.93,0,0-9-8.06-8.54-4.69,0.67,17,11.48,22.38,35.89,15.13S426.43,145.61,426.43,145.61Z"/><path class="841dbc39-7696-4218-87a1-1acda53d02ff" d="M427.43,148.1s0.46-1.58.74-2.36c-1-.09-1.74-0.13-1.74-0.13-14.08,4-24.59,6.54-27.3-1.78l-1.8,1.23C403,156.85,416,153.24,427.43,148.1Z"/><path class="93c84af3-94b2-4ded-a9dd-ef62f3ea7baf" d="M390.52,138.45s0.15-5.64,1.88-5.61,1.68,6.29,1.68,6.29l-3.12,2Z"/><path class="93c84af3-94b2-4ded-a9dd-ef62f3ea7baf" d="M468.26,170.72s-20.33-65.45-34.58-65.45c-12.21,0-14.13,25.82-14.43,33.22a2,2,0,0,0,1.89,2.07l6.54,0.36s-5,16.84-5,29.8h45.56Z"/><path class="841dbc39-7696-4218-87a1-1acda53d02ff" d="M432.36,106.27c13.21,0,27.55,56.25,29.57,64.45h6.32s-20.33-65.45-34.58-65.45a8.21,8.21,0,0,0-5.46,2.11A8.37,8.37,0,0,1,432.36,106.27Z"/><path class="93c84af3-94b2-4ded-a9dd-ef62f3ea7baf" d="M480,171.17c1.28,1.07,5.41-3.62,5.41-3.62L484.33,164S478.66,170.06,480,171.17Z"/><path class="1d640b33-1f8d-4aa1-9b3e-c04d7c71cddb" d="M750.11,136.1s-3.42,8.08.2,28.82c-6.15,1.51-6.11,7.06-5.82,9.51a1,1,0,0,0,1.28.84l16.71-4.91a1,1,0,0,0,.69-1.2c-1-4.15-4.79-21.56.24-36.69Z"/><path class="1d640b33-1f8d-4aa1-9b3e-c04d7c71cddb" d="M750.11,136.1s-3.42,8.08.2,28.82c-6.15,1.51-6.11,7.06-5.82,9.51a1,1,0,0,0,1.28.84l16.71-4.91a1,1,0,0,0,.69-1.2c-1-4.15-4.79-21.56.24-36.69Z"/><path class="0cb26078-55bf-49e7-a3b5-64152536df84" d="M761.36,141.7q0.1-.78.22-1.56c0-.17.06-0.34,0.09-0.51,0.06-.38.13-0.76,0.2-1.14l0.12-.62q0.11-.54.23-1.07l0.13-.59c0.1-.41.2-0.82,0.31-1.23,0.17-.64.35-1.29,0.56-1.92l-2.08,0-1.49.41h0l-9.55,2.61a22.53,22.53,0,0,0-1.17,5.73,27.27,27.27,0,0,1,8.48-.41c-1.32,12.87,3.18,29.49,3.18,29.49l1.88-.55a1,1,0,0,0,.69-1.2C762.35,165.84,759.78,154,761.36,141.7Z"/><path class="3177c9f0-a419-44ff-a994-50d24e595c1f" d="M834.9,275.05c-1-.23-10.09-1.32-18.86-12.8l-6,5s7.53,14.58,22.32,18S834.9,275.05,834.9,275.05Z"/><path class="841dbc39-7696-4218-87a1-1acda53d02ff" d="M839.65,283.15c-17.72.13-25.31-14.07-27.07-18l-2.52,2.11s7.53,14.58,22.32,18C838.31,286.66,839.89,285.28,839.65,283.15Z"/><path class="3177c9f0-a419-44ff-a994-50d24e595c1f" d="M857.82,276.25s15.05-1.63,22.33-21.86c5.87,1,9.3,0,9.3,0s-4.38,25.83-31.64,30.78C850.11,281.9,857.82,276.25,857.82,276.25Z"/><path class="3177c9f0-a419-44ff-a994-50d24e595c1f" d="M880.15,254.39s-3.61-4.34-2.29-5.45,5.41,3.62,5.41,3.62l-1.06,3.53Z"/><path class="3177c9f0-a419-44ff-a994-50d24e595c1f" d="M881.72,255.47s-1.93-12.83.36-12.82,2.12,12.18,2.12,12.18Z"/><path class="3177c9f0-a419-44ff-a994-50d24e595c1f" d="M883.47,255.22s-0.06-13,2.47-12.58,0.38,12.41.38,12.41Z"/><path class="3177c9f0-a419-44ff-a994-50d24e595c1f" d="M885.81,256.77s1.62-14.53,3.66-14.18,0,11.91,0,11.91Z"/><path class="841dbc39-7696-4218-87a1-1acda53d02ff" d="M889.46,254.39h0c-9.41,26.38-33.54,27.33-33.54,27.33L855,283.16a6.52,6.52,0,0,0,2.84,2C885.07,280.22,889.46,254.39,889.46,254.39Z"/><path class="3177c9f0-a419-44ff-a994-50d24e595c1f" d="M852.56,318.52s9.53,14.28,27,4.7c2.41,2.87,6.52,3,8.72,2.85a1,1,0,0,0,.79-1.48l-6.27-11.39a1,1,0,0,0-1.48-.32c-3.18,2.42-14.06,9.72-21.26,2.73C853.19,314,852.56,318.52,852.56,318.52Z"/><path class="841dbc39-7696-4218-87a1-1acda53d02ff" d="M860.1,315.61c-6.9-1.57-7.54,2.91-7.54,2.91a18.58,18.58,0,0,0,3.17,3.39,16.23,16.23,0,0,0,7.23-4.31A10.43,10.43,0,0,1,860.1,315.61Z"/><polygon class="709dc4ec-6072-48a9-b5a7-371761d489e1" points="162.29 286.99 122.42 286.99 112.42 302.71 172.29 302.71 162.29 286.99"/><polygon class="ed6bb5b5-b3ba-4da0-86ba-4d2adbfab603" points="155.05 294.85 129.67 294.85 124.67 302.71 160.05 302.71 155.05 294.85"/><polygon class="11515e84-837f-4f20-9668-3292d15feb6c" points="130.76 297.85 153.95 297.85 156.78 302.71 160.05 302.71 155.05 294.85 129.67 294.85 124.67 302.71 127.94 302.71 130.76 297.85"/><path class="f2680700-f5fc-44e3-9c18-c370f08c5c0e" d="M75.79,294.85H95.93a2,2,0,0,1,2,2v5.86a0,0,0,0,1,0,0H73.79a0,0,0,0,1,0,0v-5.86A2,2,0,0,1,75.79,294.85Z"/><path class="3177c9f0-a419-44ff-a994-50d24e595c1f" d="M838,320.6s-1.69,10.2,5.16,22.77a7.94,7.94,0,0,0-5.63,4.93,1,1,0,0,0,.93,1.37H852a1,1,0,0,0,.91-1.42c-2-4.39-7.87-18.06-6.6-28.39Z"/><path class="841dbc39-7696-4218-87a1-1acda53d02ff" d="M846.11,322.6a25,25,0,0,1,.16-2.75l-8.3.75a17.78,17.78,0,0,0-.16,2A21.91,21.91,0,0,0,846.11,322.6Z"/><path class="3177c9f0-a419-44ff-a994-50d24e595c1f" d="M804.17,257.4l8.37-7s-5.1-3.39-8.27-.51C801.36,252.51,804.17,257.4,804.17,257.4Z"/><path class="3177c9f0-a419-44ff-a994-50d24e595c1f" d="M809.81,249.11s2.58-3.11,5.4-1L810.66,252Z"/><path class="709dc4ec-6072-48a9-b5a7-371761d489e1" d="M722.76,333.55h19.59a3,3,0,0,1,3,3v10.69a0,0,0,0,1,0,0H719.76a0,0,0,0,1,0,0V336.55A3,3,0,0,1,722.76,333.55Z"/><rect class="ed6bb5b5-b3ba-4da0-86ba-4d2adbfab603" x="687.65" y="340.4" width="89.81" height="66.59" rx="6" ry="6"/><path class="11515e84-837f-4f20-9668-3292d15feb6c" d="M774.44,341.2c0,0.07,0,.13,0,0.2V400a4,4,0,0,1-4,4H688.65l-0.2,0a6,6,0,0,0,5.2,3h77.81a6,6,0,0,0,6-6V346.4A6,6,0,0,0,774.44,341.2Z"/><rect class="ed6bb5b5-b3ba-4da0-86ba-4d2adbfab603" x="323.71" y="190.72" width="333.24" height="216.28"/><path class="709dc4ec-6072-48a9-b5a7-371761d489e1" d="M657,178.72a8,8,0,0,0-8-8H331.71a8,8,0,0,0-8,8v12H657v-12Z"/><path class="5be71ef6-b788-4119-8f56-cbe6cf36a9f4" d="M339,372.09s4.51,5.6,3.63,26.07c5.5,1.91,4.87,7.82,4.87,7.82H335.42a1,1,0,0,1-1-1.05c0.29-5,1.16-26.8-4.88-34.61Z"/><path class="0cb26078-55bf-49e7-a3b5-64152536df84" d="M334.42,405.94a1,1,0,0,0,1,1.05h1.43c1.78-22.81-1.9-28.42-2.83-30.25a18.15,18.15,0,0,0,6.32-.92,10.69,10.69,0,0,0-1.33-2.73l-9.46-1.76C335.58,379.14,334.71,400.9,334.42,405.94Z"/><line class="f2680700-f5fc-44e3-9c18-c370f08c5c0e" x1="323.71" y1="190.72" x2="656.95" y2="190.72"/><rect class="709dc4ec-6072-48a9-b5a7-371761d489e1" x="362.83" y="190.72" width="255" height="216.28"/><rect class="11515e84-837f-4f20-9668-3292d15feb6c" x="617.83" y="190.72" width="4" height="216.28" transform="translate(1239.67 597.71) rotate(180)"/><rect class="11515e84-837f-4f20-9668-3292d15feb6c" x="358.83" y="190.72" width="4" height="216.28" transform="translate(721.67 597.71) rotate(180)"/><circle class="f2680700-f5fc-44e3-9c18-c370f08c5c0e" cx="239.83" cy="66.14" r="39.12"/><path class="11515e84-837f-4f20-9668-3292d15feb6c" d="M239.83,27a39.41,39.41,0,0,0-5.5.39,39.12,39.12,0,0,1,0,77.46A39.12,39.12,0,1,0,239.83,27Z"/><path class="f2680700-f5fc-44e3-9c18-c370f08c5c0e" d="M267.16,187.15a12.43,12.43,0,0,0-20.24-9.67,21.5,21.5,0,0,0-38.44,0,12.43,12.43,0,0,0-20.24,9.67h78.92Z"/><path class="f2680700-f5fc-44e3-9c18-c370f08c5c0e" d="M323.71,362.91C290,348.44,247.59,336,201.54,336c-110,0-199.13,71-199.13,71"/><rect class="ed6bb5b5-b3ba-4da0-86ba-4d2adbfab603" x="66.94" y="302.46" width="148.2" height="104.29"/><polygon class="11515e84-837f-4f20-9668-3292d15feb6c" points="211.5 302.46 211.5 403.35 66.94 403.35 66.94 406.99 215.14 406.99 215.14 403.35 215.14 302.46 211.5 302.46"/><rect class="709dc4ec-6072-48a9-b5a7-371761d489e1" x="481.49" y="371.49" width="159.11" height="35.5"/><rect class="709dc4ec-6072-48a9-b5a7-371761d489e1" x="502.91" y="349.67" width="131.18" height="21.83"/><rect class="11515e84-837f-4f20-9668-3292d15feb6c" x="634.1" y="349.67" width="4" height="21.83" transform="translate(1272.19 721.16) rotate(180)"/><rect class="11515e84-837f-4f20-9668-3292d15feb6c" x="640.6" y="371.49" width="4" height="35.5" transform="translate(1285.2 778.49) rotate(180)"/><line class="f2680700-f5fc-44e3-9c18-c370f08c5c0e" x1="623.41" y1="360.58" x2="513.59" y2="360.58"/><polygon class="f2680700-f5fc-44e3-9c18-c370f08c5c0e" points="526.95 278.42 589.31 278.42 610.06 299.17 610.06 349.67 526.95 349.67 526.95 278.42"/><rect class="ed6bb5b5-b3ba-4da0-86ba-4d2adbfab603" x="495.93" y="371.49" width="13.96" height="35.5"/><rect class="ed6bb5b5-b3ba-4da0-86ba-4d2adbfab603" x="612.2" y="371.49" width="13.96" height="35.5" transform="translate(1238.37 778.49) rotate(-180)"/><polygon class="f2680700-f5fc-44e3-9c18-c370f08c5c0e" points="589.31 299.17 610.06 299.17 589.31 278.42 589.31 299.17"/><polygon class="11515e84-837f-4f20-9668-3292d15feb6c" points="589.31 299.17 610.06 299.17 610.06 308.46 589.31 299.17"/><rect class="709dc4ec-6072-48a9-b5a7-371761d489e1" x="180.24" y="310.71" width="24.49" height="15.7"/><rect class="709dc4ec-6072-48a9-b5a7-371761d489e1" x="180.24" y="310.71" width="24.49" height="7.85"/><polygon class="709dc4ec-6072-48a9-b5a7-371761d489e1" points="204.73 294.85 208.97 306.31 220.43 310.55 208.97 314.8 204.73 326.25 200.49 314.8 189.03 310.55 200.49 306.31 204.73 294.85"/><rect class="709dc4ec-6072-48a9-b5a7-371761d489e1" x="90.37" y="331.91" width="51.98" height="45.88" rx="2" ry="2"/><path class="11515e84-837f-4f20-9668-3292d15feb6c" d="M104.59,354.85v4a37.77,37.77,0,1,0,75.53,0v-4H104.59Z"/><circle class="709dc4ec-6072-48a9-b5a7-371761d489e1" cx="142.36" cy="354.85" r="37.77"/><circle class="709dc4ec-6072-48a9-b5a7-371761d489e1" cx="142.36" cy="354.85" r="28.8"/><path class="11515e84-837f-4f20-9668-3292d15feb6c" d="M142.36,326.05a28.8,28.8,0,1,0,28.8,28.8A28.8,28.8,0,0,0,142.36,326.05Zm0,55.5a26.7,26.7,0,1,1,26.7-26.7A26.7,26.7,0,0,1,142.36,381.55Z"/><path class="709dc4ec-6072-48a9-b5a7-371761d489e1" d="M121.89,343.85A23.29,23.29,0,0,1,136,332.5"/><path class="709dc4ec-6072-48a9-b5a7-371761d489e1" d="M119.12,354.85a23.28,23.28,0,0,1,.72-5.77"/><circle class="709dc4ec-6072-48a9-b5a7-371761d489e1" cx="200.75" cy="390.78" r="3.99"/><rect class="ed6bb5b5-b3ba-4da0-86ba-4d2adbfab603" x="215.14" y="361.12" width="58.24" height="45.63"/><rect class="709dc4ec-6072-48a9-b5a7-371761d489e1" x="215.14" y="367.68" width="58.24" height="32.76"/><rect class="709dc4ec-6072-48a9-b5a7-371761d489e1" x="226.93" y="367.68" width="35.98" height="32.76"/><path class="709dc4ec-6072-48a9-b5a7-371761d489e1" d="M26.86,375.49S5.4,357.57,5.4,343.66a21.46,21.46,0,1,1,42.92,0C48.32,357.57,26.86,375.49,26.86,375.49Z"/><path class="11515e84-837f-4f20-9668-3292d15feb6c" d="M26.86,322.2a21.52,21.52,0,0,0-3.08.25A21.46,21.46,0,0,1,44.31,341.3c1.68,13.8-17.45,34.19-17.45,34.19s21.46-17.92,21.46-31.83A21.46,21.46,0,0,0,26.86,322.2Z"/><line class="f2680700-f5fc-44e3-9c18-c370f08c5c0e" x1="26.86" y1="337.53" x2="26.86" y2="390.06"/><line class="f2680700-f5fc-44e3-9c18-c370f08c5c0e" x1="26.86" y1="351.86" x2="33.32" y2="345.39"/><line class="f2680700-f5fc-44e3-9c18-c370f08c5c0e" x1="26.86" y1="362.53" x2="17.31" y2="352.99"/><path class="709dc4ec-6072-48a9-b5a7-371761d489e1" d="M264.22,328.21s-21.46-17.92-21.46-31.83a21.46,21.46,0,0,1,42.92,0C285.68,310.28,264.22,328.21,264.22,328.21Z"/><line class="f2680700-f5fc-44e3-9c18-c370f08c5c0e" x1="264.22" y1="290.25" x2="264.22" y2="342.78"/><line class="f2680700-f5fc-44e3-9c18-c370f08c5c0e" x1="264.22" y1="304.57" x2="257.75" y2="298.1"/><line class="f2680700-f5fc-44e3-9c18-c370f08c5c0e" x1="264.22" y1="315.25" x2="273.77" y2="305.7"/><path class="f2680700-f5fc-44e3-9c18-c370f08c5c0e" d="M721.19,61.83a34.13,34.13,0,0,1,19.87-31,34.13,34.13,0,1,0,0,62A34.13,34.13,0,0,1,721.19,61.83Z"/><path class="11515e84-837f-4f20-9668-3292d15feb6c" d="M732.15,93.28a34.13,34.13,0,0,1-17.88-63.2,34.13,34.13,0,1,0,26.8,62.75c-0.33-.15-0.65-0.33-1-0.49A34,34,0,0,1,732.15,93.28Z"/><line class="f2680700-f5fc-44e3-9c18-c370f08c5c0e" x1="719.94" y1="209.78" x2="719.94" y2="217.3"/><line class="f2680700-f5fc-44e3-9c18-c370f08c5c0e" x1="723.7" y1="213.54" x2="716.18" y2="213.54"/><line class="f2680700-f5fc-44e3-9c18-c370f08c5c0e" x1="557.29" y1="57.47" x2="557.29" y2="64.98"/><line class="f2680700-f5fc-44e3-9c18-c370f08c5c0e" x1="561.05" y1="61.23" x2="553.53" y2="61.23"/><line class="f2680700-f5fc-44e3-9c18-c370f08c5c0e" x1="852.85" y1="67.01" x2="852.85" y2="74.52"/><line class="f2680700-f5fc-44e3-9c18-c370f08c5c0e" x1="856.61" y1="70.76" x2="849.09" y2="70.76"/><g class="8055eeaf-8d6d-4bcf-b0aa-3699f4640fb1"><rect class="67c2ad56-5693-4b56-99c2-ef80f8fc37f2" x="390.34" y="243.47" width="94.91" height="116.32"/><polyline class="f2680700-f5fc-44e3-9c18-c370f08c5c0e" points="485.24 355.8 485.24 359.8 481.24 359.8"/><line class="1c799462-f667-4a26-86f4-f0db843e371d" x1="475.45" y1="359.79" x2="397.24" y2="359.79"/><polyline class="f2680700-f5fc-44e3-9c18-c370f08c5c0e" points="394.34 359.8 390.34 359.8 390.34 355.8"/><line class="e2d3853a-021c-4f3b-a128-2070e8965dbc" x1="390.34" y1="349.55" x2="390.34" y2="250.6"/><polyline class="f2680700-f5fc-44e3-9c18-c370f08c5c0e" points="390.34 247.47 390.34 243.47 394.34 243.47"/><line class="1c799462-f667-4a26-86f4-f0db843e371d" x1="400.13" y1="243.47" x2="478.35" y2="243.47"/><polyline class="f2680700-f5fc-44e3-9c18-c370f08c5c0e" points="481.24 243.47 485.24 243.47 485.24 247.47"/><line class="e2d3853a-021c-4f3b-a128-2070e8965dbc" x1="485.24" y1="253.72" x2="485.24" y2="352.67"/></g><path class="f2680700-f5fc-44e3-9c18-c370f08c5c0e" d="M631.63,124.2l-1.18,2.49h-38a15.47,15.47,0,0,0-14.24,9.42h62.87V118.23A10.43,10.43,0,0,0,631.63,124.2Z"/><path class="11515e84-837f-4f20-9668-3292d15feb6c" d="M578.19,136.1h62.87v-3H579.88A15.46,15.46,0,0,0,578.19,136.1Z"/><line class="f2680700-f5fc-44e3-9c18-c370f08c5c0e" x1="697.39" y1="136.1" x2="646.06" y2="136.1"/><polygon class="ed6bb5b5-b3ba-4da0-86ba-4d2adbfab603" points="623.55 104.91 613.77 104.91 600.77 136.1 615.55 136.1 623.55 104.91"/><polygon class="11515e84-837f-4f20-9668-3292d15feb6c" points="623.55 104.91 621.89 104.91 610.35 136.1 615.55 136.1 623.55 104.91"/><path class="709dc4ec-6072-48a9-b5a7-371761d489e1" d="M945.72,169.22a10.83,10.83,0,0,0-17.51-8.54,11.75,11.75,0,0,0-19.84-4.32c0-.34.05-0.68,0.05-1a13.89,13.89,0,1,0-26.88,4.86,10.31,10.31,0,0,0-15.31,9h79.49Z"/><path class="11515e84-837f-4f20-9668-3292d15feb6c" d="M254.72,174.71a12.45,12.45,0,0,0-2,.17,12.43,12.43,0,0,1,10.46,12.26h4A12.43,12.43,0,0,0,254.72,174.71Z"/><path class="11515e84-837f-4f20-9668-3292d15feb6c" d="M243.94,179.25a12.47,12.47,0,0,1,3-1.78c-3.81-6-11.54-11.86-19.22-11.86-0.68,0-1.34,0-2,.1C233.25,166.42,240.68,172.79,243.94,179.25Z"/><g class="96be444a-13b3-4cfd-af34-59a55c80cd1f"><path class="c96d091f-9755-4e19-b308-d972b14202a3" d="M924.94,162.43a10.88,10.88,0,0,1,3.27-1.75c-2-3.78-6.63-8.12-11.19-8.12a11.71,11.71,0,0,0-2,.18C919.37,153.49,923.61,158.34,924.94,162.43Z"/><path class="c96d091f-9755-4e19-b308-d972b14202a3" d="M904.42,155.34c0,0.35,0,3.5,0,3.84a11.85,11.85,0,0,1,3.93-2.81c-0.88-6.83-6.77-14.92-13.84-14.92a13.92,13.92,0,0,0-2,.16A13.88,13.88,0,0,1,904.42,155.34Z"/><path class="c96d091f-9755-4e19-b308-d972b14202a3" d="M934.87,158.38a10.79,10.79,0,0,0-2,.19,10.84,10.84,0,0,1,8.85,10.65h4A10.85,10.85,0,0,0,934.87,158.38Z"/></g><path class="5be71ef6-b788-4119-8f56-cbe6cf36a9f4" d="M326.32,374.43s-2.18,16.69-12.53,22.74a6.57,6.57,0,0,1-.53,8.72l-8.37-9.18a1,1,0,0,1,.09-1.44c3.16-2.63,14.46-12.72,13.29-21.57A6.66,6.66,0,0,1,326.32,374.43Z"/><path class="0cb26078-55bf-49e7-a3b5-64152536df84" d="M318.27,373.71c1.17,8.85-10.13,18.94-13.29,21.57a1,1,0,0,0-.09,1.44l1.06,1.16c11.51-8.38,13.18-15.64,14.27-19.77a18.18,18.18,0,0,0,5.6,0,29.46,29.46,0,0,0,.5-3.69A6.66,6.66,0,0,0,318.27,373.71Z"/><path class="5be71ef6-b788-4119-8f56-cbe6cf36a9f4" d="M339,373.09s-10.5,5-25.81,3.32a2,2,0,0,1-1.75-1.7c-2-13.52-1.79-26.91,2.21-33.93a2.92,2.92,0,0,0-.09-3.14c-3.82-5.44-11.49-17.17-4.2-23.66C321,306,339,328.21,339,328.21v44.89Z"/><rect class="709dc4ec-6072-48a9-b5a7-371761d489e1" x="322.34" y="246.47" width="94.91" height="116.32" transform="translate(-66.24 106.09) rotate(-15)"/><rect class="11515e84-837f-4f20-9668-3292d15feb6c" x="338.01" y="360.73" width="94.91" height="4.76" transform="translate(-80.85 112.14) rotate(-15)"/><rect class="709dc4ec-6072-48a9-b5a7-371761d489e1" x="327.01" y="253.56" width="81.29" height="86.18" transform="translate(-64.25 105.26) rotate(-15)"/><rect class="f2680700-f5fc-44e3-9c18-c370f08c5c0e" x="383.69" y="258.61" width="25.28" height="73.67" transform="translate(-62.96 112.64) rotate(-15)"/><path class="ed6bb5b5-b3ba-4da0-86ba-4d2adbfab603" d="M418.07,327.75L405,278.85c-8.83,5.35-16.2-3.61-24.79,5.15l13.48,50.29Z"/><path class="f2680700-f5fc-44e3-9c18-c370f08c5c0e" d="M380.17,284c8.59-8.76,16,.2,24.79-5.15"/><path class="f2680700-f5fc-44e3-9c18-c370f08c5c0e" d="M355.85,319.32L349.57,318l7.68-44a4.92,4.92,0,0,1,5.88-4h0a4.92,4.92,0,0,1,3.74,6Z"/><path class="709dc4ec-6072-48a9-b5a7-371761d489e1" d="M374.84,307.3l-43.3,11.6,8,29.89C360.51,343.18,374.67,325.73,374.84,307.3Z"/><path class="11515e84-837f-4f20-9668-3292d15feb6c" d="M366,309.68c-0.16,18.43-13.88,35.76-26.42,39.12,21-5.62,35.13-23.06,35.29-41.49Z"/><path class="f2680700-f5fc-44e3-9c18-c370f08c5c0e" d="M95.34,101.27a27.55,27.55,0,0,0-27.55,27.55c0,14.56,14.84,24.71,22.9,36.8H100c8.06-12.08,22.9-22.24,22.9-36.8A27.55,27.55,0,0,0,95.34,101.27Z"/><path class="11515e84-837f-4f20-9668-3292d15feb6c" d="M122.89,128.82a27.55,27.55,0,0,0-34.81-26.58,27.55,27.55,0,0,1,30.29,24.13c1.72,14.46-11.8,26.3-18.38,39.25C108.06,153.53,122.89,143.38,122.89,128.82Z"/><path class="f2680700-f5fc-44e3-9c18-c370f08c5c0e" d="M95.34,165.62s-25.25-38.76-7.87-63.2"/><path class="f2680700-f5fc-44e3-9c18-c370f08c5c0e" d="M95.34,165.62s25.25-38.76,7.87-63.2"/><rect class="f2680700-f5fc-44e3-9c18-c370f08c5c0e" x="90.69" y="165.62" width="9.31" height="8.98"/><path class="ed6bb5b5-b3ba-4da0-86ba-4d2adbfab603" d="M100,174.6H90.69v4.78a2,2,0,0,0,2,2H98a2,2,0,0,0,2-2V174.6Z"/><path class="709dc4ec-6072-48a9-b5a7-371761d489e1" d="M782.8,381.75s-4.85-23.56,6.1-23.56c11.73,0,20.24,9.8,20.24,23.24a37.42,37.42,0,0,1-9.73,25.4H785.76C793.65,390.12,782.8,381.75,782.8,381.75Z"/><path class="11515e84-837f-4f20-9668-3292d15feb6c" d="M788.9,358.19c-11,0-6.1,23.56-6.1,23.56a13.56,13.56,0,0,1,2.29,2.47,112.08,112.08,0,0,0,10.42-24.9A19.46,19.46,0,0,0,788.9,358.19Z"/><path class="709dc4ec-6072-48a9-b5a7-371761d489e1" d="M748.07,381.75s4.85-23.56-6.1-23.56c-11.73,0-20.24,9.8-20.24,23.24a37.42,37.42,0,0,0,9.73,25.4h13.65C737.22,390.12,748.07,381.75,748.07,381.75Z"/><path class="11515e84-837f-4f20-9668-3292d15feb6c" d="M742,358.19c11,0,6.1,23.56,6.1,23.56a13.56,13.56,0,0,0-2.29,2.47,112.08,112.08,0,0,1-10.42-24.9A19.46,19.46,0,0,1,742,358.19Z"/><path class="709dc4ec-6072-48a9-b5a7-371761d489e1" d="M787,279.25a127,127,0,0,0-21.52-30.5c-20.06,21.06-32.16,48.31-32.16,78.09a109.74,109.74,0,0,0,14.8,54.9H782.8a109.74,109.74,0,0,0,14.8-54.9,108.5,108.5,0,0,0-4-29.34"/><path class="11515e84-837f-4f20-9668-3292d15feb6c" d="M765.43,248.76a123.23,123.23,0,0,1,16.35,28.52,3.62,3.62,0,0,0,4.05,2.21l0.84-.17A119.58,119.58,0,0,0,765.43,248.76Z"/><path class="11515e84-837f-4f20-9668-3292d15feb6c" d="M793.23,297.69a4.53,4.53,0,0,0-2.28,4.78,133.21,133.21,0,0,1,2.24,24.38c0,19.77-6.09,38.43-13.73,54.9h3.34a109.74,109.74,0,0,0,14.8-54.9,108.49,108.49,0,0,0-4-29.34Z"/><circle class="ed6bb5b5-b3ba-4da0-86ba-4d2adbfab603" cx="765.43" cy="296.33" r="9.56"/><path class="11515e84-837f-4f20-9668-3292d15feb6c" d="M765.43,286.77a9.58,9.58,0,0,0-2,.21,9.55,9.55,0,0,1,0,18.69A9.56,9.56,0,1,0,765.43,286.77Z"/><line class="f2680700-f5fc-44e3-9c18-c370f08c5c0e" x1="758.17" y1="317.39" x2="772.69" y2="317.39"/><line class="f2680700-f5fc-44e3-9c18-c370f08c5c0e" x1="758.17" y1="328.9" x2="772.69" y2="328.9"/><line class="f2680700-f5fc-44e3-9c18-c370f08c5c0e" x1="758.17" y1="340.4" x2="772.69" y2="340.4"/><rect class="709dc4ec-6072-48a9-b5a7-371761d489e1" x="761.14" y="360.99" width="8.58" height="46"/><rect class="11515e84-837f-4f20-9668-3292d15feb6c" x="767.44" y="360.99" width="2.28" height="46"/><rect class="709dc4ec-6072-48a9-b5a7-371761d489e1" x="700.68" y="340.4" width="9.31" height="66.09"/><polygon class="ed6bb5b5-b3ba-4da0-86ba-4d2adbfab603" points="883.11 387.55 883.11 368.61 859.54 368.61 859.54 349.67 835.97 349.67 835.97 406.97 906.69 406.97 906.69 387.55 883.11 387.55"/><rect class="11515e84-837f-4f20-9668-3292d15feb6c" x="835.97" y="403.97" width="70.72" height="3"/><path class="709dc4ec-6072-48a9-b5a7-371761d489e1" d="M820.51,363.46H844a6,6,0,0,1,6,6V401a6,6,0,0,1-6,6H820.51a0,0,0,0,1,0,0V363.46A0,0,0,0,1,820.51,363.46Z"/><path class="11515e84-837f-4f20-9668-3292d15feb6c" d="M844,363.46h-3a6,6,0,0,1,6,6V401a6,6,0,0,1-6,6h3a6,6,0,0,0,6-6V369.46A6,6,0,0,0,844,363.46Z"/><circle class="709dc4ec-6072-48a9-b5a7-371761d489e1" cx="835.28" cy="377.91" r="8.29"/><ellipse class="709dc4ec-6072-48a9-b5a7-371761d489e1" cx="835.28" cy="377.91" rx="3.12" ry="8.29"/><line class="f2680700-f5fc-44e3-9c18-c370f08c5c0e" x1="843.57" y1="377.91" x2="826.99" y2="377.91"/><polygon class="f2680700-f5fc-44e3-9c18-c370f08c5c0e" points="845.14 237.84 837.85 229.15 797.6 262.92 797.6 262.92 797.6 262.92 786.96 279.25 804.89 271.61 804.89 271.61 804.89 271.61 845.14 237.84"/><polygon class="ed6bb5b5-b3ba-4da0-86ba-4d2adbfab603" points="797.6 262.92 797.6 262.92 797.6 262.92 786.96 279.25 804.89 271.61 804.89 271.61 804.89 271.61 804.89 271.61 797.6 262.92 797.6 262.92"/><rect class="c96d091f-9755-4e19-b308-d972b14202a3" x="838.25" y="228.29" width="11.34" height="6.33" transform="translate(478.76 -563.8) rotate(50)"/><path class="f2680700-f5fc-44e3-9c18-c370f08c5c0e" d="M846.43,221.35h7.34a2,2,0,0,1,2,2v7.82a0,0,0,0,1,0,0H844.43a0,0,0,0,1,0,0v-7.82A2,2,0,0,1,846.43,221.35Z" transform="translate(477 -570.39) rotate(50)"/><line class="f2680700-f5fc-44e3-9c18-c370f08c5c0e" x1="801.24" y1="267.27" x2="841.49" y2="233.49"/><polygon class="c96d091f-9755-4e19-b308-d972b14202a3" points="793.55 276.44 790.87 273.25 786.96 279.25 793.55 276.44"/><polygon class="709dc4ec-6072-48a9-b5a7-371761d489e1" points="928.49 298.95 906.69 379.18 950.3 379.18 928.49 298.95"/><polygon class="11515e84-837f-4f20-9668-3292d15feb6c" points="950.3 379.18 928.49 298.95 945.22 379.18 950.3 379.18"/><line class="f2680700-f5fc-44e3-9c18-c370f08c5c0e" x1="928.49" y1="406.99" x2="928.49" y2="341.17"/><line class="f2680700-f5fc-44e3-9c18-c370f08c5c0e" x1="928.49" y1="356.17" x2="933.4" y2="351.27"/><line class="f2680700-f5fc-44e3-9c18-c370f08c5c0e" x1="928.49" y1="368.57" x2="921" y2="361.08"/><polygon class="709dc4ec-6072-48a9-b5a7-371761d489e1" points="967.49 351.77 956.06 393.83 978.93 393.83 967.49 351.77"/><polygon class="11515e84-837f-4f20-9668-3292d15feb6c" points="967.49 351.77 975.02 393.83 978.93 393.83 967.49 351.77"/><line class="f2680700-f5fc-44e3-9c18-c370f08c5c0e" x1="967.49" y1="406.99" x2="967.49" y2="373.9"/><line class="f2680700-f5fc-44e3-9c18-c370f08c5c0e" x1="967.49" y1="381.77" x2="970.06" y2="379.2"/><line class="f2680700-f5fc-44e3-9c18-c370f08c5c0e" x1="967.49" y1="388.28" x2="963.56" y2="384.35"/><line class="f2680700-f5fc-44e3-9c18-c370f08c5c0e" x1="589.31" y1="259.85" x2="502.91" y2="259.85"/><line class="f2680700-f5fc-44e3-9c18-c370f08c5c0e" x1="589.31" y1="236.48" x2="502.91" y2="236.48"/><line class="f2680700-f5fc-44e3-9c18-c370f08c5c0e" x1="589.31" y1="213.1" x2="386.56" y2="213.1"/><line class="f2680700-f5fc-44e3-9c18-c370f08c5c0e" x1="481.49" y1="388.99" x2="386.56" y2="388.99"/><polygon class="f2680700-f5fc-44e3-9c18-c370f08c5c0e" points="356.84 51.36 379.3 99.84 401.77 51.36 379.3 24.88 356.84 51.36"/><polygon class="11515e84-837f-4f20-9668-3292d15feb6c" points="397.7 51.36 379.3 99.84 401.77 51.36 379.3 24.88 397.7 51.36"/><line class="f2680700-f5fc-44e3-9c18-c370f08c5c0e" x1="401.77" y1="51.36" x2="356.84" y2="51.36"/><path class="f2680700-f5fc-44e3-9c18-c370f08c5c0e" d="M379.3,24.88v75c0,48.88,48.11,47,48.38,80.14"/><line class="f2680700-f5fc-44e3-9c18-c370f08c5c0e" x1="73.79" y1="289.33" x2="73.79" y2="285.93"/><line class="f2680700-f5fc-44e3-9c18-c370f08c5c0e" x1="69.89" y1="290.94" x2="67.49" y2="288.54"/><line class="f2680700-f5fc-44e3-9c18-c370f08c5c0e" x1="68.28" y1="294.85" x2="64.88" y2="294.85"/><line class="f2680700-f5fc-44e3-9c18-c370f08c5c0e" x1="797.6" y1="262.92" x2="804.89" y2="271.61"/><path class="3177c9f0-a419-44ff-a994-50d24e595c1f" d="M831.72,319.17c-1.58-5.36-6.26-25.84,5.84-50l-5.79-4.74a1,1,0,0,1-.13-1.42c3.11-3.66,22.37-20.32,28-15.65s-12.22,35.23,7,63.4a2,2,0,0,1-.35,2.67c-3,2.52-11.93,7.78-32.79,7.13A2,2,0,0,1,831.72,319.17Z"/><path class="841dbc39-7696-4218-87a1-1acda53d02ff" d="M866.7,310.79c-19.24-28.17-1.34-58.73-7-63.4a3.72,3.72,0,0,0-2-.78c2.42,7.56-12.4,35.61,5,62.18a2,2,0,0,1-.4,2.67c-3,2.39-11.48,7.22-30.89,6.61,0.11,0.42.22,0.79,0.31,1.11a2,2,0,0,0,1.84,1.42c20.86,0.65,29.75-4.61,32.79-7.13A2,2,0,0,0,866.7,310.79Z"/><path class="f2680700-f5fc-44e3-9c18-c370f08c5c0e" d="M828.37,306.61a45.44,45.44,0,0,0,34.28-5.83"/><path class="f2680700-f5fc-44e3-9c18-c370f08c5c0e" d="M836.74,270.3s3.78,3.35,10.23,0"/><ellipse class="4288acdd-204c-40f9-8c7c-d291b98b6f9f" cx="849.21" cy="260.24" rx="2.48" ry="1.24" transform="translate(241.24 907.75) rotate(-63.84)"/><ellipse class="4288acdd-204c-40f9-8c7c-d291b98b6f9f" cx="845.14" cy="258" rx="2.48" ry="1.24" transform="translate(240.99 902.85) rotate(-63.84)"/><g class="96be444a-13b3-4cfd-af34-59a55c80cd1f"><path class="4288acdd-204c-40f9-8c7c-d291b98b6f9f" d="M807.79,259.76c0.55-.4.45-1.3,0.2-2.27,0.74,2.95-.57-1.06.48-0.33a1.57,1.57,0,0,0,1.9.21,1.51,1.51,0,0,0,.63-2,0.25,0.25,0,0,1,.35-0.32,1.52,1.52,0,0,0,1.87-.26c0.82-.74-0.34-2.21-1.77-3.53l-6.73,6.24C805.77,259,807,260.36,807.79,259.76Z"/></g><path class="3177c9f0-a419-44ff-a994-50d24e595c1f" d="M806.79,258.76c0.52-.38.45-1.22,0.23-2.14a0.37,0.37,0,0,1,.57-0.38,1.58,1.58,0,0,0,2.42-1.9,0.25,0.25,0,0,1,.35-0.32,1.52,1.52,0,0,0,1.87-.26c0.82-.74-0.34-2.21-1.77-3.53l-6.73,6.24C804.77,258,806,259.36,806.79,258.76Z"/><path class="709dc4ec-6072-48a9-b5a7-371761d489e1" d="M225.16,80.89a7.36,7.36,0,0,0-13.48-4.09A11.73,11.73,0,0,0,191,74.23a18.42,18.42,0,0,0-35.59,6.66h69.74Z"/><g class="96be444a-13b3-4cfd-af34-59a55c80cd1f"><path class="c96d091f-9755-4e19-b308-d972b14202a3" d="M208.94,79.23a7.39,7.39,0,0,1,2.74-2.44c-2.11-3.14-6.93-7.65-11-7.65a11.72,11.72,0,0,0-2,.18C202.86,70.05,207.5,75.39,208.94,79.23Z"/><path class="c96d091f-9755-4e19-b308-d972b14202a3" d="M217.8,73.53a7.34,7.34,0,0,0-2,.28,7.36,7.36,0,0,1,5.36,7.08h4A7.36,7.36,0,0,0,217.8,73.53Z"/><path class="c96d091f-9755-4e19-b308-d972b14202a3" d="M188.36,77A11.82,11.82,0,0,1,191,74.23c-3.21-5.4-10.43-11.77-17.17-11.77a18.59,18.59,0,0,0-2,.12C178.78,63.32,185.91,70.67,188.36,77Z"/></g><rect class="11515e84-837f-4f20-9668-3292d15feb6c" x="488.33" y="26.1" width="4" height="333.24" transform="translate(297.62 683.05) rotate(-90)"/><line class="f2680700-f5fc-44e3-9c18-c370f08c5c0e" x1="537.56" y1="293.4" x2="581.05" y2="293.4"/><line class="f2680700-f5fc-44e3-9c18-c370f08c5c0e" x1="537.56" y1="311.21" x2="598.58" y2="311.21"/><line class="f2680700-f5fc-44e3-9c18-c370f08c5c0e" x1="537.56" y1="329.02" x2="598.58" y2="329.02"/><rect class="11515e84-837f-4f20-9668-3292d15feb6c" x="502.91" y="368.16" width="131.18" height="3.33"/><rect class="11515e84-837f-4f20-9668-3292d15feb6c" x="526.95" y="347.34" width="83.11" height="2.33"/><rect class="11515e84-837f-4f20-9668-3292d15feb6c" x="216.46" y="361.12" width="4.11" height="45.53"/><path class="11515e84-837f-4f20-9668-3292d15feb6c" d="M264.22,274.92a21.52,21.52,0,0,0-3.08.25A21.46,21.46,0,0,1,281.67,294c1.68,13.8-17.45,34.19-17.45,34.19s21.46-17.92,21.46-31.83A21.46,21.46,0,0,0,264.22,274.92Z"/><path class="5be71ef6-b788-4119-8f56-cbe6cf36a9f4" d="M309.37,314c7.06-4.85,16.45,1.39,22.75,7.07a1,1,0,0,1,.18,1.26,32.17,32.17,0,0,1-9.63,9.6C316.2,328.21,309.37,314,309.37,314Z"/><path class="0cb26078-55bf-49e7-a3b5-64152536df84" d="M314.29,373.52c-1.78-13.11-1.51-25.91,2.37-32.73a2.92,2.92,0,0,0-.09-3.14c-3.82-5.44-11.49-17.17-4.2-23.66a9.68,9.68,0,0,1,4.26-1.63,10.14,10.14,0,0,0-7.26,1.63c-7.29,6.49.38,18.22,4.2,23.66a2.92,2.92,0,0,1,.09,3.14c-3.79,6.65-4.14,19-2.5,31.8q0.12,1,.29,2.13a2,2,0,0,0,1.75,1.7c0.62,0.07,1.23.12,1.83,0.16l0.43,0,1.65,0.09h0.1q0.93,0,1.84,0h0.1c12,0.05,19.85-3.65,19.85-3.65v-3S329,374.81,314.29,373.52Z"/><path class="5be71ef6-b788-4119-8f56-cbe6cf36a9f4" d="M346.72,323.8s0.77-4.72,2.22-4.49,0.69,5.47.69,5.47l-2.85,1.28Z"/><path class="5be71ef6-b788-4119-8f56-cbe6cf36a9f4" d="M346.9,325.4s7.14-8.36,8.41-6.88-6.62,8.12-6.62,8.12Z"/><path class="5be71ef6-b788-4119-8f56-cbe6cf36a9f4" d="M348,326.39s8.3-7.26,9.43-5.4-7.74,7.13-7.74,7.13Z"/><path class="5be71ef6-b788-4119-8f56-cbe6cf36a9f4" d="M348.2,328.52s9.06-6.42,10.06-4.77-6.67,6.19-6.67,6.19Z"/><path class="5be71ef6-b788-4119-8f56-cbe6cf36a9f4" d="M346.72,323.8s-3.23,8.54-19.44,16.61c0.74,7.65,1.47,9.12,1.47,9.12s15.24-7.4,23-19.73C351.17,324.4,346.72,323.8,346.72,323.8Z"/><line class="f2680700-f5fc-44e3-9c18-c370f08c5c0e" x1="1190.33" y1="406.99" x2="-209.67" y2="406.99"/><path class="f2680700-f5fc-44e3-9c18-c370f08c5c0e" d="M328.1,328.89s-2.32,3.19-9.16,1.79"/><ellipse class="4288acdd-204c-40f9-8c7c-d291b98b6f9f" cx="320.32" cy="318.35" rx="1.12" ry="2.23" transform="translate(-131.05 332.88) rotate(-46.67)"/><ellipse class="4288acdd-204c-40f9-8c7c-d291b98b6f9f" cx="317.31" cy="321.25" rx="1.12" ry="2.23" transform="translate(-134.11 331.6) rotate(-46.67)"/><path class="f2680700-f5fc-44e3-9c18-c370f08c5c0e" d="M336.56,364s-9.37,5.58-27.72,0"/><path class="1d640b33-1f8d-4aa1-9b3e-c04d7c71cddb" d="M752.43,138.54l31.67-.53c11.64-5.43,23.29-31.81,17.19-56.14,7.19-15.78,2.28-25.18-.74-26.2-7.47-2.54-21.47,16.81-23,20.28a2,2,0,0,0,.9,2.59l7.72,4S754,108.76,752.43,138.54Z"/><path class="0cb26078-55bf-49e7-a3b5-64152536df84" d="M800.54,55.66a4.17,4.17,0,0,0-.44-0.11c1.45,4.42,1.57,11.67-2.82,21.31,6.1,24.32-5.55,50.7-17.19,56.14l-9.43.16v5.07l13.43-.23c11.64-5.43,23.29-31.81,17.19-56.14C808.48,66.09,803.57,56.69,800.54,55.66Z"/><path class="f2680700-f5fc-44e3-9c18-c370f08c5c0e" d="M797.24,123.5c-30.7,4.24-39.89-6.76-39.89-6.76"/><path class="841dbc39-7696-4218-87a1-1acda53d02ff" d="M762.31,110.06c6.23-.44,15.7-2.46,21.73-9.95a71.31,71.31,0,0,1-18,4.29C764.78,106.22,763.52,108.1,762.31,110.06Z"/><line class="f2680700-f5fc-44e3-9c18-c370f08c5c0e" x1="761.27" y1="138.54" x2="795.08" y2="138.54"/><line class="88ca4182-d375-452b-9f4f-756954f1ce0f" x1="770.66" x2="770.66" y2="138.54"/><path class="1d640b33-1f8d-4aa1-9b3e-c04d7c71cddb" d="M763.8,124.64s-25.44-2.93-40.36,19.13c-4.63-1.52-9.71-.81-12.11,4a1,1,0,0,0,.44,1.35c6.15,3.18,10.85,5.57,12.54,6.43a1,1,0,0,0,1.19-.22c2.69-3,15.67-16.83,26.93-16.83Z"/><path class="1d640b33-1f8d-4aa1-9b3e-c04d7c71cddb" d="M778.14,90s-15.68,11.88-34.3,1.31c-3.69,4.67-6.93,6.21-6.93,6.21S761.27,113,785.21,99C788.77,91.41,778.14,90,778.14,90Z"/><path class="1d640b33-1f8d-4aa1-9b3e-c04d7c71cddb" d="M743.84,91.35s-2.63-5-4.16-4.2S741,93.53,741,93.53l3.67,0.37Z"/><path class="1d640b33-1f8d-4aa1-9b3e-c04d7c71cddb" d="M744.12,92.85s-9.61-8.72-10.87-6.8,9,8.51,9,8.51Z"/><path class="1d640b33-1f8d-4aa1-9b3e-c04d7c71cddb" d="M742.94,94.17s-10.8-7.26-11.84-4.91,10.12,7.19,10.12,7.19Z"/><path class="1d640b33-1f8d-4aa1-9b3e-c04d7c71cddb" d="M742.94,97s-13-6.7-13.83-4.81S739,98.74,739,98.74Z"/><path class="0cb26078-55bf-49e7-a3b5-64152536df84" d="M770.77,138.54c-0.07-2.31-.1-3.25-0.1-6.32-36-1-48,22.52-48,22.52l1.68,0.85a1,1,0,0,0,1.19-.22c2.69-3,15.67-16.83,26.93-16.83h18.34Z"/><path class="f2680700-f5fc-44e3-9c18-c370f08c5c0e" d="M783.86,82.54a9.26,9.26,0,0,0,10.23-.67"/><ellipse class="4288acdd-204c-40f9-8c7c-d291b98b6f9f" cx="794.06" cy="70.14" rx="2.78" ry="1.39" transform="translate(455.52 791.83) rotate(-69.92)"/><ellipse class="4288acdd-204c-40f9-8c7c-d291b98b6f9f" cx="789.26" cy="68.11" rx="2.78" ry="1.39" transform="translate(454.26 785.99) rotate(-69.92)"/><path class="93c84af3-94b2-4ded-a9dd-ef62f3ea7baf" d="M483.89,167.45s-2.47,8,.46,8,2.71-7.6,2.71-7.6Z"/><path class="93c84af3-94b2-4ded-a9dd-ef62f3ea7baf" d="M486.13,167.61s-0.08,8.12,3.16,7.85,1.34-7.6,1.34-7.6Z"/><path class="93c84af3-94b2-4ded-a9dd-ef62f3ea7baf" d="M489.12,166.65s2.07,9.07,4.67,8.85,0-7.43,0-7.43Z"/><path class="93c84af3-94b2-4ded-a9dd-ef62f3ea7baf" d="M392.2,138.39s4.28-7.66,6.16-5.92-3.83,7.48-3.83,7.48Z"/><path class="93c84af3-94b2-4ded-a9dd-ef62f3ea7baf" d="M393.76,139.58s5.9-6.34,7.79-4.23-4.7,6.68-4.7,6.68Z"/><path class="93c84af3-94b2-4ded-a9dd-ef62f3ea7baf" d="M395,142.09s8-5.81,9.49-4.11-5.47,5.74-5.47,5.74Z"/><ellipse class="4288acdd-204c-40f9-8c7c-d291b98b6f9f" cx="435.87" cy="120.84" rx="1.39" ry="2.78" transform="translate(-9.97 44.59) rotate(-5.79)"/><ellipse class="4288acdd-204c-40f9-8c7c-d291b98b6f9f" cx="430.66" cy="121.12" rx="1.39" ry="2.78" transform="translate(-10.02 44.06) rotate(-5.79)"/><path class="f2680700-f5fc-44e3-9c18-c370f08c5c0e" d="M426.79,142.42a14,14,0,0,0,14.73-4.74"/><path class="79c00310-931f-48ea-93fc-5bc24343a376" d="M179.09,298.13s-2.57,8.35.48,8.34,2.82-7.92,2.82-7.92Z"/><path class="79c00310-931f-48ea-93fc-5bc24343a376" d="M181.42,298.29s-0.08,8.47,3.29,8.18,1.4-7.92,1.4-7.92Z"/><path class="79c00310-931f-48ea-93fc-5bc24343a376" d="M184.53,297.29s2.15,9.45,4.87,9.22,0-7.75,0-7.75Z"/><ellipse class="4288acdd-204c-40f9-8c7c-d291b98b6f9f" cx="127.21" cy="246.99" rx="1.39" ry="2.78" transform="translate(-61.84 43.4) rotate(-15.63)"/><ellipse class="4288acdd-204c-40f9-8c7c-d291b98b6f9f" cx="132.15" cy="245.35" rx="1.39" ry="2.78" transform="translate(-61.21 44.68) rotate(-15.63)"/><path class="f2680700-f5fc-44e3-9c18-c370f08c5c0e" d="M142,260a11.7,11.7,0,0,1-12.95-.36"/><path class="79c00310-931f-48ea-93fc-5bc24343a376" d="M81.3,282.71s-0.29,6.19,2,5.51,0.58-6,.58-6Z"/><path class="79c00310-931f-48ea-93fc-5bc24343a376" d="M83.45,282.32s-0.24,6,2.43,5.86,1.27-5.56,1.27-5.56Z"/><path class="79c00310-931f-48ea-93fc-5bc24343a376" d="M86.91,282.87s-0.23,10.36,1.87,10.8,1.5-10.8,1.5-10.8H86.91Z"/><path class="79c00310-931f-48ea-93fc-5bc24343a376" d="M90,281s3,5.36,1.53,6.2-4.61-4.59-4.61-4.59l1.72-3.26Z"/><circle class="4288acdd-204c-40f9-8c7c-d291b98b6f9f" cx="333.78" cy="180.72" r="1.72"/><circle class="4288acdd-204c-40f9-8c7c-d291b98b6f9f" cx="341.24" cy="180.72" r="1.72"/><circle class="4288acdd-204c-40f9-8c7c-d291b98b6f9f" cx="348.69" cy="180.72" r="1.72"/><rect class="11515e84-837f-4f20-9668-3292d15feb6c" x="481.49" y="402.16" width="159.11" height="4.33"/></svg>