<svg xmlns="http://www.w3.org/2000/svg" width="20" height="10" viewBox="0 0 20 10">
<g>
   <path id="svg_3" d="m15.0625,6.0625l-10,0l0,-2l10,0l0,2zm1,-6l-1,0c-1.63,0 -3.065,0.792 -3.977,2l4.977,0c1.103,0 2,0.897 2,2l0,2c0,1.103 -0.897,2 -2,2l-4.977,0c0.913,1.208 2.347,2 3.977,2l1,0c2.21,0 4,-1.79 4,-4l0,-2c0,-2.21 -1.79,-4 -4,-4zm-16,4l0,2c0,2.21 1.79,4 4,4l1,0c1.63,0 3.065,-0.792 3.977,-2l-4.977,0c-1.103,0 -2,-0.897 -2,-2l0,-2c0,-1.103 0.897,-2 2,-2l4.977,0c-0.912,-1.208 -2.347,-2 -3.977,-2l-1,0c-2.21,0 -4,1.79 -4,4z"/>
</g>
</svg>
