<?xml version="1.0" encoding="UTF-8" standalone="no"?>
<svg width="32px" height="26px" viewBox="0 0 32 26" version="1.1" xmlns="http://www.w3.org/2000/svg" xmlns:xlink="http://www.w3.org/1999/xlink">
    <!-- Generator: Sketch 39.1 (31720) - http://www.bohemiancoding.com/sketch -->
    <title>Group 2</title>
    <desc>Created with Sketch.</desc>
    <defs></defs>
    <g id="Page-1" stroke="none" stroke-width="1" fill="none" fill-rule="evenodd">
        <g id="Artboard" transform="translate(-1805.000000, -23.000000)">
            <g id="Group-2" transform="translate(1806.000000, 24.000000)">
                <g id="Page-1-Copy">
                    <polygon id="Fill-1" fill="#F2F5F7" points="0 20.2941176 26.4103558 20.2941176 26.4103558 1.66888475 0 1.66888475"></polygon>
                    <g id="Group-11" transform="translate(0.000000, 0.022093)">
                        <polygon id="Stroke-2" stroke="#364555" stroke-linecap="round" stroke-linejoin="round" points="0 20.2941176 26.4103558 20.2941176 26.4103558 5.29411765 0 5.29411765"></polygon>
                        <path d="M26.4103954,2.15209761 C26.4103954,0.995310564 26.1265102,0.0574175824 25.7763693,0.0574175824 L0.634065692,0.0574175824 C0.283845544,0.0574175824 3.96266293e-05,0.995310564 3.96266293e-05,2.15209761 L3.96266293e-05,5.29411765 L26.4103954,5.29411765 L26.4103954,2.15209761 Z" id="Fill-4" fill="#FEFEFE"></path>
                        <path d="M24.4315465,0.0574175824 L1.89546481,0.0574175824 C0.587230034,0.0574175824 3.96266293e-05,0.995310564 3.96266293e-05,2.15209761 L3.96266293e-05,5.29411765 L26.4103954,5.29411765 L26.4103954,2.15209761 C26.4103954,0.995310564 26.1890359,0.0574175824 24.4315465,0.0574175824 Z" id="Stroke-5" stroke="#364555" stroke-linecap="round" stroke-linejoin="round"></path>
                    </g>
                </g>
                <g id="Page-1-Copy-2" transform="translate(3.529412, 3.529412)">
                    <polygon id="Fill-1" fill="#F2F5F7" points="0 20.2941176 26.4103558 20.2941176 26.4103558 1.66888475 0 1.66888475"></polygon>
                    <g id="Group-11" transform="translate(0.000000, 0.022093)">
                        <polygon id="Stroke-2" stroke="#364555" stroke-linecap="round" stroke-linejoin="round" points="0 20.2941176 26.4103558 20.2941176 26.4103558 5.29411765 0 5.29411765"></polygon>
                        <path d="M26.4103954,2.15209761 C26.4103954,0.995310564 26.1265102,0.0574175824 25.7763693,0.0574175824 L0.634065692,0.0574175824 C0.283845544,0.0574175824 3.96266293e-05,0.995310564 3.96266293e-05,2.15209761 L3.96266293e-05,5.29411765 L26.4103954,5.29411765 L26.4103954,2.15209761 Z" id="Fill-4" fill="#FEFEFE"></path>
                        <path d="M24.4315465,0.0574175824 L1.89546481,0.0574175824 C0.587230034,0.0574175824 3.96266293e-05,0.995310564 3.96266293e-05,2.15209761 L3.96266293e-05,5.29411765 L26.4103954,5.29411765 L26.4103954,2.15209761 C26.4103954,0.995310564 26.1890359,0.0574175824 24.4315465,0.0574175824 Z" id="Stroke-5" stroke="#364555" stroke-linecap="round" stroke-linejoin="round"></path>
                        <path d="M2.74930362,3.73930416 C2.20542512,3.73930416 1.76470588,3.29737573 1.76470588,2.75200502 C1.76470588,2.20663431 2.20542512,1.76470588 2.74930362,1.76470588 C3.29318211,1.76470588 3.73390135,2.20663431 3.73390135,2.75200502 C3.73390135,3.29737573 3.29318211,3.73930416 2.74930362,3.73930416 Z" id="Fill-10" fill="#364555"></path>
                        <path d="M6.27871538,3.73930416 C5.73483689,3.73930416 5.29411765,3.29737573 5.29411765,2.75200502 C5.29411765,2.20663431 5.73483689,1.76470588 6.27871538,1.76470588 C6.82259387,1.76470588 7.26331311,2.20663431 7.26331311,2.75200502 C7.26331311,3.29737573 6.82259387,3.73930416 6.27871538,3.73930416 Z" id="Fill-10-Copy" fill="#364555"></path>
                        <path d="M9.80812715,3.73930416 C9.26424865,3.73930416 8.82352941,3.29737573 8.82352941,2.75200502 C8.82352941,2.20663431 9.26424865,1.76470588 9.80812715,1.76470588 C10.3520056,1.76470588 10.7927249,2.20663431 10.7927249,2.75200502 C10.7927249,3.29737573 10.3520056,3.73930416 9.80812715,3.73930416 Z" id="Fill-10-Copy-2" fill="#364555"></path>
                    </g>
                </g>
            </g>
        </g>
    </g>
</svg>