<?xml version="1.0" encoding="UTF-8"?>
<svg width="101px" height="49px" viewBox="0 0 101 49" version="1.1" xmlns="http://www.w3.org/2000/svg" xmlns:xlink="http://www.w3.org/1999/xlink">
    <!-- Generator: Sketch 41 (35326) - http://www.bohemiancoding.com/sketch -->
    <title>servers</title>
    <desc>Created with Sketch.</desc>
    <defs>
        <polygon id="path-1" points="0 19 97 19 97 0 0 0"></polygon>
        <mask id="mask-2" maskContentUnits="userSpaceOnUse" maskUnits="objectBoundingBox" x="-2" y="-2" width="101" height="23">
            <rect x="-2" y="-2" width="101" height="23" fill="white"></rect>
            <use xlink:href="#path-1" fill="black"></use>
        </mask>
        <polygon id="path-3" points="0 44.02 97 44.02 97 25.02 0 25.02"></polygon>
        <mask id="mask-4" maskContentUnits="userSpaceOnUse" maskUnits="objectBoundingBox" x="-2" y="-2" width="101" height="23">
            <rect x="-2" y="23.02" width="101" height="23" fill="white"></rect>
            <use xlink:href="#path-3" fill="black"></use>
        </mask>
    </defs>
    <g id="Page-1" stroke="none" stroke-width="1" fill="none" fill-rule="evenodd">
        <g id="My-Domains" transform="translate(-573.000000, -809.000000)">
            <g id="domain-copy" transform="translate(437.000000, 701.000000)">
                <g id="servers" transform="translate(138.000000, 110.000000)">
                    <use id="Path" stroke="#929EA7" mask="url(#mask-2)" stroke-width="4" stroke-linejoin="round" xlink:href="#path-1"></use>
                    <path d="M8.2914,7.545 C8.2914,8.373 7.6194,9.045 6.7914,9.045 C5.9634,9.045 5.2914,8.373 5.2914,7.545 C5.2914,6.717 5.9634,6.045 6.7914,6.045 C7.6194,6.045 8.2914,6.717 8.2914,7.545 Z" id="Stroke-4" fill="#929EA7"></path>
                    <path d="M14.2961,7.545 C14.2961,8.373 13.6241,9.045 12.7961,9.045 C11.9681,9.045 11.2961,8.373 11.2961,7.545 C11.2961,6.717 11.9681,6.045 12.7961,6.045 C13.6241,6.045 14.2961,6.717 14.2961,7.545 Z" id="Stroke-6" fill="#929EA7"></path>
                    <path d="M20.3009,7.545 C20.3009,8.373 19.6289,9.045 18.8009,9.045 C17.9729,9.045 17.3009,8.373 17.3009,7.545 C17.3009,6.717 17.9729,6.045 18.8009,6.045 C19.6289,6.045 20.3009,6.717 20.3009,7.545 Z" id="Stroke-8" fill="#929EA7"></path>
                    <path d="M66.7947,6.0048 L91.7947,6.0048" id="Stroke-10" stroke="#929EA7" stroke-width="2" stroke-linecap="round" stroke-linejoin="round"></path>
                    <path d="M66.7947,12.9952 L91.7947,12.9952" id="Stroke-12" stroke="#929EA7" stroke-width="2" stroke-linecap="round" stroke-linejoin="round"></path>
                    <use id="Path" stroke="#929EA7" mask="url(#mask-4)" stroke-width="4" stroke-linecap="round" stroke-linejoin="round" xlink:href="#path-3"></use>
                    <path d="M8.2914,32.565 C8.2914,33.393 7.6194,34.065 6.7914,34.065 C5.9634,34.065 5.2914,33.393 5.2914,32.565 C5.2914,31.737 5.9634,31.065 6.7914,31.065 C7.6194,31.065 8.2914,31.737 8.2914,32.565 Z" id="Stroke-16" fill="#929EA7"></path>
                    <path d="M14.2961,32.565 C14.2961,33.393 13.6241,34.065 12.7961,34.065 C11.9681,34.065 11.2961,33.393 11.2961,32.565 C11.2961,31.737 11.9681,31.065 12.7961,31.065 C13.6241,31.065 14.2961,31.737 14.2961,32.565 Z" id="Stroke-18" fill="#929EA7"></path>
                    <path d="M20.3009,32.565 C20.3009,33.393 19.6289,34.065 18.8009,34.065 C17.9729,34.065 17.3009,33.393 17.3009,32.565 C17.3009,31.737 17.9729,31.065 18.8009,31.065 C19.6289,31.065 20.3009,31.737 20.3009,32.565 Z" id="Stroke-20" fill="#929EA7"></path>
                    <path d="M66.7947,31.0248 L91.7947,31.0248" id="Stroke-22" stroke="#929EA7" stroke-width="2" stroke-linecap="round" stroke-linejoin="round"></path>
                    <path d="M66.7947,38.0152 L91.7947,38.0152" id="Stroke-24" stroke="#929EA7" stroke-width="2" stroke-linecap="round" stroke-linejoin="round"></path>
                </g>
            </g>
        </g>
    </g>
</svg>