<?xml version="1.0" encoding="UTF-8"?>
<svg width="121px" height="99px" viewBox="0 0 121 99" version="1.1" xmlns="http://www.w3.org/2000/svg" xmlns:xlink="http://www.w3.org/1999/xlink">
    <!-- Generator: Sketch 40.3 (33839) - http://www.bohemiancoding.com/sketch -->
    <title>concierge</title>
    <desc>Created with Sketch.</desc>
    <defs>
        <polygon id="path-1" points="0 98.5668 120.675 98.5668 120.675 -0.0002 0 -0.0002"></polygon>
    </defs>
    <g id="Page-1" stroke="none" stroke-width="1" fill="none" fill-rule="evenodd">
        <g id="My-Domains" transform="translate(-703.000000, -489.000000)">
            <g id="domain" transform="translate(437.000000, 420.000000)">
                <g id="concierge" transform="translate(266.000000, 69.000000)">
                    <path d="M58.09,23.2769 C58.09,27.3739 54.768,30.6939 50.673,30.6939 C46.577,30.6939 43.257,27.3739 43.257,23.2769 C43.257,19.1809 46.577,15.8599 50.673,15.8599 C54.768,15.8599 58.09,19.1809 58.09,23.2769 L58.09,23.2769 Z" id="Stroke-1" stroke="#009ED3" stroke-width="2" stroke-linecap="round" stroke-linejoin="round"></path>
                    <path d="M66.9988,26.991 L72.9238,26.217 L72.9238,20.283 L66.9768,19.505 C66.5438,17.636 65.7968,15.89 64.7908,14.32 L68.4078,9.516 L64.2898,5.424 L59.4768,9.09 C57.9238,8.13 56.2078,7.412 54.3728,6.998 L53.6398,1 L47.7068,1 L46.9258,7.003 C45.0528,7.429 43.3058,8.167 41.7318,9.159 L36.9408,5.515 L32.8488,9.633 L36.5228,14.332 C35.5168,15.906 34.7698,17.658 34.3368,19.532 L28.4238,20.283 L28.4238,26.217 L34.3108,26.949 C34.7308,28.825 35.4718,30.576 36.4648,32.156 L32.9388,36.985 L37.0598,41.075 L41.8258,37.479 C43.3818,38.445 45.1008,39.165 46.9418,39.581 L47.7068,45.5 L53.6398,45.5 L54.4298,39.568 C56.2828,39.143 58.0128,38.412 59.5768,37.43 L64.4088,40.985 L68.4998,36.867 L64.8778,32.12 C65.8528,30.562 66.5798,28.836 66.9988,26.991 L66.9988,26.991 Z" id="Stroke-3" stroke="#374555" stroke-width="2" stroke-linecap="round" stroke-linejoin="round"></path>
                    <polyline id="Stroke-5" stroke="#374555" stroke-width="2" stroke-linecap="round" stroke-linejoin="round" points="119.6598 52.8208 96.2768 52.8208 96.2768 97.5668 119.6748 97.5668"></polyline>
                    <path d="M106.5286,88.2811 L108.0026,86.8071" id="Stroke-7" stroke="#28B789" stroke-width="2" stroke-linecap="round" stroke-linejoin="round"></path>
                    <path d="M108.0023,88.2811 L106.5283,86.8071" id="Stroke-9" stroke="#28B789" stroke-width="2" stroke-linecap="round" stroke-linejoin="round"></path>
                    <mask id="mask-2" fill="white">
                        <use xlink:href="#path-1"></use>
                    </mask>
                    <g id="Clip-12"></g>
                    <polygon id="Fill-11" fill="#E2E9EE" mask="url(#mask-2)" points="83.853 88.5208 96.277 88.5208 96.277 52.8208 83.853 52.8208"></polygon>
                    <polygon id="Stroke-13" stroke="#374555" stroke-width="2" stroke-linecap="round" stroke-linejoin="round" mask="url(#mask-2)" points="83.853 88.5208 96.277 88.5208 96.277 52.8208 83.853 52.8208"></polygon>
                    <path d="M59.3704,59.9368 L35.0074,59.9368 L13.7804,47.6348 C13.7804,47.6348 6.7844,43.4138 2.9254,46.0668 C-0.9346,48.7198 2.2014,50.7708 2.2014,50.7708 C20.4134,64.0378 28.3734,68.3798 28.3734,68.3798 C28.3734,68.3798 58.8884,79.3548 62.6264,81.0438 C66.3654,82.7318 69.8634,82.6108 69.8634,82.6108 L83.7324,82.6108 L83.8524,60.9028 L78.0644,60.9028 L68.8984,52.4598 C68.8984,52.4598 68.0544,51.0128 63.3504,51.0128 L39.6624,51.0128 C39.6624,51.0128 35.7314,51.9778 40.4344,59.8178" id="Stroke-14" stroke="#374555" stroke-width="2" stroke-linecap="round" stroke-linejoin="round" mask="url(#mask-2)"></path>
                    <path d="M13.4348,47.4537 C13.4348,47.4537 12.0628,44.5427 16.3898,42.7497 C20.7168,40.9567 34.7828,59.5747 34.7828,59.5747" id="Stroke-15" stroke="#374555" stroke-width="2" stroke-linecap="round" stroke-linejoin="round" mask="url(#mask-2)"></path>
                </g>
            </g>
        </g>
    </g>
</svg>