<?xml version="1.0" encoding="UTF-8"?>
<svg width="101px" height="82px" viewBox="0 0 101 82" version="1.1" xmlns="http://www.w3.org/2000/svg" xmlns:xlink="http://www.w3.org/1999/xlink">
    <!-- Generator: Sketch 41 (35326) - http://www.bohemiancoding.com/sketch -->
    <title>browser</title>
    <desc>Created with Sketch.</desc>
    <defs></defs>
    <g id="Page-1" stroke="none" stroke-width="1" fill="none" fill-rule="evenodd">
        <g id="My-Domains" transform="translate(-1116.000000, -773.000000)">
            <g id="domain" transform="translate(848.000000, 701.000000)">
                <g id="browser" transform="translate(269.000000, 73.000000)">
                    <path d="M0.4948,21 L0.4998,6.5 C0.4998,3.2 3.1998,0.5 6.4998,0.5 L92.4998,0.5 C95.7998,0.5 98.4998,3.2 98.4998,6.5 L98.5048,21 L0.4948,21 Z" id="Fill-1" fill="#E3EAEF"></path>
                    <path d="M7.3,79.6 L91.7,79.6 C95.4,79.6 98.5,76.6 98.5,72.8 L98.5,7.3 C98.5,3.6 95.5,0.5 91.7,0.5 L7.3,0.5 C3.6,0.5 0.5,3.5 0.5,7.3 L0.5,72.8 C0.5,76.6 3.6,79.6 7.3,79.6 L7.3,79.6 L7.3,79.6 Z" id="Stroke-3" stroke="#374555" stroke-width="2"></path>
                    <path d="M9,12.425 C8.7,12.125 8.5,11.625 8.5,11.225 C8.5,10.825 8.7,10.325 9,10.025 C9.6,9.325 10.8,9.325 11.5,10.025 C11.8,10.325 12,10.825 12,11.225 C12,11.625 11.8,12.125 11.5,12.425 C11.2,12.725 10.7,12.925 10.3,12.925 C9.8,12.925 9.3,12.725 9,12.425" id="Fill-5" fill="#009FD4"></path>
                    <path d="M19,12.425 C18.7,12.125 18.5,11.625 18.5,11.225 C18.5,10.825 18.7,10.325 19,10.025 C19.6,9.325 20.8,9.325 21.5,10.025 C21.8,10.325 22,10.825 22,11.225 C22,11.625 21.8,12.125 21.5,12.425 C21.2,12.725 20.7,12.925 20.3,12.925 C19.9,12.925 19.4,12.725 19,12.425" id="Fill-7" fill="#009FD4"></path>
                    <path d="M28,12.425 C27.7,12.125 27.5,11.625 27.5,11.225 C27.5,10.825 27.7,10.325 28,10.025 C28.6,9.325 29.8,9.325 30.5,10.025 C30.8,10.325 31,10.825 31,11.225 C31,11.625 30.8,12.125 30.5,12.425 C30.2,12.725 29.7,12.925 29.3,12.925 C28.7,12.925 28.3,12.725 28,12.425" id="Fill-9" fill="#009FD4"></path>
                    <path d="M1,21 L98,21" id="Stroke-11" stroke="#374555" stroke-width="2"></path>
                </g>
            </g>
        </g>
    </g>
</svg>