<?xml version="1.0" encoding="UTF-8"?>
<svg width="36px" height="35px" viewBox="0 0 36 35" version="1.1" xmlns="http://www.w3.org/2000/svg" xmlns:xlink="http://www.w3.org/1999/xlink">
    <!-- Generator: Sketch 41 (35326) - http://www.bohemiancoding.com/sketch -->
    <title>gear</title>
    <desc>Created with Sketch.</desc>
    <defs></defs>
    <g id="Page-1" stroke="none" stroke-width="1" fill="none" fill-rule="evenodd">
        <g id="My-Domains" transform="translate(-654.000000, -828.000000)">
            <g id="domain-copy" transform="translate(437.000000, 701.000000)">
                <g id="gear" transform="translate(217.000000, 127.000000)">
                    <path d="M15.8851778,33.5926933 C15.2136191,33.5926933 14.6475339,33.108686 14.5614195,32.4611803 L14.1655604,29.483173 C13.4405975,29.2664727 12.7376638,28.9842433 12.0614323,28.6410263 L9.58280675,30.459622 C9.34248755,30.6347989 9.06011249,30.7210898 8.77840498,30.7210898 C8.43661768,30.7210898 8.09616548,30.5939243 7.83782234,30.3447838 L5.08683505,27.691827 C4.61821261,27.2402599 4.55946792,26.5233322 4.94865151,26.006236 L6.78909605,23.5544082 C6.41726884,22.8744623 6.11486718,22.1679154 5.88522884,21.4393093 L2.84786117,21.0714378 C2.17964028,20.9909862 1.67764018,20.4388546 1.67764018,19.784212 L1.67764018,15.934213 C1.67764018,15.2808681 2.17763762,14.7293852 2.8445234,14.6469872 L5.90659054,14.2693837 C6.1388991,13.5459679 6.44130076,12.8465579 6.80912265,12.1782905 L4.91527384,9.82443202 C4.50072322,9.30863337 4.54611685,8.574188 5.02007972,8.11094242 L7.7510404,5.43787268 C8.01071865,5.18419058 8.35384106,5.05507872 8.69896614,5.05507872 C8.98200875,5.05507872 9.26638647,5.14201836 9.50670567,5.31979048 L11.9980147,7.16174314 C12.6889324,6.80490131 13.4105576,6.51423741 14.1555471,6.29040026 L14.5614195,3.25594707 C14.6475339,2.60973895 15.2142867,2.12573167 15.8851778,2.12573167 L19.8464393,2.12573167 C20.5206681,2.12573167 21.0894236,2.61492938 21.1715326,3.26567912 L21.5513705,6.28780505 C22.2683227,6.50320776 22.9639133,6.78154439 23.6348044,7.12086853 L26.1468076,5.26139818 C26.3871268,5.08362606 26.6721721,4.99603761 26.9552147,4.99603761 C27.2976696,4.99603761 27.6381218,5.12320307 27.8971325,5.37299235 L30.6461171,8.02789559 C31.1187448,8.48465314 31.1728167,9.21131287 30.7716171,9.72905793 L28.8917869,12.1542848 C29.2649492,12.826445 29.5693536,13.5284502 29.8036648,14.2544612 L32.892434,14.647636 C33.5566496,14.7326292 34.0539768,15.2828145 34.0539768,15.934213 L34.0539768,19.784212 C34.0539768,20.4356105 33.5566496,20.9857958 32.8917665,21.070789 L29.8216887,21.4607198 C29.5967232,22.1679154 29.3050024,22.8530518 28.9471938,23.5122359 L30.827024,25.9063202 C31.2315614,26.4214701 31.18283,27.1481298 30.7128724,27.6074826 L27.9819117,30.2799035 C27.722901,30.5329368 27.3797786,30.6626975 27.033986,30.6626975 C26.7576189,30.6626975 26.4805843,30.5796507 26.2436028,30.4109618 L23.7209188,28.6066397 C23.0353415,28.9602375 22.3197244,29.2502526 21.5794077,29.473441 L21.16953,32.4663707 C21.0814129,33.1112813 20.5159952,33.5926933 19.8464393,33.5926933 L15.8851778,33.5926933 Z" id="Fill-38" fill="#FEFEFE"></path>
                    <path d="M19.8463057,0.828125 L15.8857118,0.828125 C14.5439296,0.828125 13.4104241,1.79549077 13.2375277,3.08855581 L12.9384638,5.32562971 C12.6721101,5.42359901 12.4097616,5.52935395 12.1500834,5.64354334 L10.3156468,4.28689557 C9.8350084,3.93200015 9.26625296,3.75747205 8.69950018,3.75747205 C8.00925003,3.75747205 7.32300521,4.01634458 6.80498382,4.52370879 L4.07268803,7.19548091 C3.12409474,8.12326968 3.03464259,9.59280923 3.86374383,10.6231089 L5.24090636,12.3353009 C5.12541963,12.5811974 5.01794355,12.8309867 4.91781055,13.0833712 L2.67616645,13.3597614 C1.34239489,13.5245574 0.3424,14.6275231 0.3424,15.934213 L0.3424,19.784212 C0.3424,21.0934971 1.34640021,22.1977604 2.68350954,22.3593124 L4.89311107,22.6266194 C4.99791695,22.895224 5.11206857,23.1612333 5.23489838,23.4233499 L3.87041937,25.240648 C3.09205218,26.2767869 3.20954157,27.7093447 4.14611889,28.6131278 L6.89710618,31.2660846 C7.41446001,31.7643655 8.09469686,32.0193453 8.77893903,32.0193453 C9.34235404,32.0193453 9.90777171,31.8467636 10.3864075,31.495761 L12.214836,30.1546845 C12.4564903,30.2591418 12.7008149,30.3571111 12.9478096,30.4485924 L13.2375277,32.6279228 C13.4090889,33.9216366 14.5432621,34.8903 15.8857118,34.8903 L19.8463057,34.8903 C21.1847502,34.8903 22.3169206,33.9268271 22.4931547,32.6376548 L22.7942213,30.4382115 C23.0599075,30.3395934 23.3229235,30.2331897 23.5819342,30.1190003 L25.4524186,31.456184 C25.9263815,31.7948593 26.4817859,31.960953 27.0338525,31.960953 C27.7247702,31.960953 28.4116826,31.7014316 28.9297039,31.1947162 L31.6599971,28.5222953 C32.5999122,27.602941 32.697375,26.1502703 31.8889679,25.1193218 L30.5078,23.360416 C30.6172788,23.1242516 30.7194144,22.8848431 30.814207,22.6434883 L33.0651968,22.357366 C34.3949631,22.1886771 35.38895,21.0870091 35.38895,19.784212 L35.38895,15.934213 C35.38895,14.6314159 34.3949631,13.5303967 33.0658644,13.361059 L30.7921777,13.0716927 C30.688707,12.8095762 30.5758905,12.5500548 30.4550633,12.2944263 L31.8382338,10.5095683 C32.6406329,9.47407822 32.5331568,8.02140756 31.5872338,7.10789246 L28.8375816,4.45234042 C28.3208953,3.95341066 27.6393234,3.69843095 26.9550812,3.69843095 C26.3876609,3.69843095 25.8182379,3.87295904 25.3375995,4.22915207 L23.4764608,5.60656155 C23.2454873,5.50664584 23.0118436,5.41321816 22.7755298,5.32562971 L22.4964925,3.10866872 C22.3329419,1.80652043 21.1960986,0.828125 19.8463057,0.828125 M19.8463057,3.42333833 L20.3356223,7.31486073 C21.5605827,7.58346531 22.7054367,8.0493061 23.742147,8.6721573 L26.9557487,6.29364428 L29.7047334,8.94854752 L27.290193,12.0653987 C27.9610841,13.08402 28.460414,14.2168306 28.7494645,15.429444 L32.7187367,15.934213 L32.7187367,19.784212 L28.7641507,20.2863858 C28.4844459,21.4834279 27.9991346,22.6032625 27.3482701,23.6140981 L29.7654807,26.6939675 L27.0351876,29.3657396 L23.8089023,27.0592438 C22.7655165,27.6963686 21.6099816,28.1706439 20.3730053,28.4463853 L19.8463057,32.2950867 L15.8857118,32.2950867 L15.3750335,28.4548197 C14.1460678,28.1849176 12.9978761,27.7177792 11.9598307,27.0910351 L8.77827147,29.4241319 L6.02661663,26.7705263 L8.38040969,23.637455 C7.71819678,22.6123457 7.22287221,21.4762911 6.94249981,20.259136 L3.01261333,19.784212 L3.01261333,15.934213 L6.95985619,15.4469617 C7.24890679,14.2311043 7.74823668,13.0944008 8.41912778,12.0731844 L5.96720439,9.02445751 L8.69883263,6.35268538 L11.8964131,8.71692473 C12.9478096,8.07331182 14.1140253,7.59449496 15.3643527,7.31810474 L15.8857118,3.42333833 L19.8463057,3.42333833" id="Fill-40" fill="#F3F6F8"></path>
                    <path d="M28.7640172,20.2863858 L32.7192707,19.784212 L32.7192707,15.934213 L28.749331,15.429444 C28.4602804,14.2168306 27.9616181,13.08402 27.2900594,12.0653987 L29.7045999,8.94854752 L26.9556152,6.29364428 L23.742681,8.6721573 C22.7059707,8.0493061 21.5604492,7.58346531 20.3354888,7.31486073 L19.8461722,3.42333833 L15.8855783,3.42333833 L15.3642191,7.31810474 C14.1138918,7.59449496 12.9476761,8.07331182 11.8969471,8.71692473 L8.69869912,6.35268538 L5.96707088,9.02445751 L8.41966182,12.0731844 C7.74810317,13.0944008 7.24944083,14.2311043 6.96039024,15.4469617 L3.01314738,15.934213 L3.01314738,19.784212 L6.94303385,20.259136 C7.22340625,21.4762911 7.71806327,22.6123457 8.38094373,23.637455 L6.02715068,26.7705263 L8.77813796,29.4241319 L11.9596971,27.0910351 C12.9984101,27.7177792 14.1459343,28.1849176 15.3749,28.4548197 L15.8855783,32.2950867 L19.8461722,32.2950867 L20.3735394,28.4463853 C21.6105157,28.1706439 22.765383,27.6963686 23.8094364,27.0592438 L27.0350541,29.3657396 L29.7660148,26.6939675 L27.3481366,23.6140981 C27.9990011,22.6032625 28.4843124,21.4834279 28.7640172,20.2863858" id="Fill-42" fill="#F3F6F8"></path>
                    <path d="M28.7640172,20.2863858 L32.7192707,19.784212 L32.7192707,15.934213 L28.749331,15.429444 C28.4602804,14.2168306 27.9616181,13.08402 27.2900594,12.0653987 L29.7045999,8.94854752 L26.9556152,6.29364428 L23.742681,8.6721573 C22.7059707,8.0493061 21.5604492,7.58346531 20.3354888,7.31486073 L19.8461722,3.42333833 L15.8855783,3.42333833 L15.3642191,7.31810474 C14.1138918,7.59449496 12.9476761,8.07331182 11.8969471,8.71692473 L8.69869912,6.35268538 L5.96707088,9.02445751 L8.41966182,12.0731844 C7.74810317,13.0944008 7.24944083,14.2311043 6.96039024,15.4469617 L3.01314738,15.934213 L3.01314738,19.784212 L6.94303385,20.259136 C7.22340625,21.4762911 7.71806327,22.6123457 8.38094373,23.637455 L6.02715068,26.7705263 L8.77813796,29.4241319 L11.9596971,27.0910351 C12.9984101,27.7177792 14.1459343,28.1849176 15.3749,28.4548197 L15.8855783,32.2950867 L19.8461722,32.2950867 L20.3735394,28.4463853 C21.6105157,28.1706439 22.765383,27.6963686 23.8094364,27.0592438 L27.0350541,29.3657396 L29.7660148,26.6939675 L27.3481366,23.6140981 C27.9990011,22.6032625 28.4843124,21.4834279 28.7640172,20.2863858 Z" id="Stroke-44" stroke="#374555" stroke-width="2" stroke-linecap="round" stroke-linejoin="round"></path>
                    <path d="M22.8169848,17.8766004 C22.8169848,20.5347477 20.5993727,22.6887748 17.8657418,22.6887748 C15.1314433,22.6887748 12.9151662,20.5347477 12.9151662,17.8766004 C12.9151662,15.219102 15.1314433,13.0644261 17.8657418,13.0644261 C20.5993727,13.0644261 22.8169848,15.219102 22.8169848,17.8766004 Z" id="Stroke-46" stroke="#009FD4" stroke-width="2" stroke-linecap="round" stroke-linejoin="round"></path>
                </g>
            </g>
        </g>
    </g>
</svg>