<?xml version="1.0" encoding="UTF-8"?>
<svg width="46px" height="46px" viewBox="0 0 46 46" version="1.1" xmlns="http://www.w3.org/2000/svg" xmlns:xlink="http://www.w3.org/1999/xlink">
    <!-- Generator: Sketch 40.3 (33839) - http://www.bohemiancoding.com/sketch -->
    <title>icon</title>
    <desc>Created with Sketch.</desc>
    <defs>
        <rect id="path-1" x="0" y="5" width="10" height="6" rx="2"></rect>
        <mask id="mask-2" maskContentUnits="userSpaceOnUse" maskUnits="objectBoundingBox" x="0" y="0" width="10" height="6" fill="white">
            <use xlink:href="#path-1"></use>
        </mask>
        <rect id="path-3" x="12" y="28" width="10" height="6" rx="2"></rect>
        <mask id="mask-4" maskContentUnits="userSpaceOnUse" maskUnits="objectBoundingBox" x="0" y="0" width="10" height="6" fill="white">
            <use xlink:href="#path-3"></use>
        </mask>
        <rect id="path-5" x="24" y="15" width="10" height="6" rx="2"></rect>
        <mask id="mask-6" maskContentUnits="userSpaceOnUse" maskUnits="objectBoundingBox" x="0" y="0" width="10" height="6" fill="white">
            <use xlink:href="#path-5"></use>
        </mask>
        <rect id="path-7" x="36" y="35" width="10" height="6" rx="2"></rect>
        <mask id="mask-8" maskContentUnits="userSpaceOnUse" maskUnits="objectBoundingBox" x="0" y="0" width="10" height="6" fill="white">
            <use xlink:href="#path-7"></use>
        </mask>
    </defs>
    <g id="Page-1" stroke="none" stroke-width="1" fill="none" fill-rule="evenodd">
        <g id="My-Domains" transform="translate(-608.000000, -234.000000)">
            <g id="domain" transform="translate(437.000000, 139.000000)">
                <g id="icon" transform="translate(171.000000, 95.000000)">
                    <path d="M2,11 L4,11 L4,45 C4,45.552 4.447,46 5,46 C5.553,46 6,45.552 6,45 L6,11 L8,11 C9.103,11 10,10.103 10,9 L10,7 C10,5.897 9.103,5 8,5 L6,5 L6,1 C6,0.448 5.553,0 5,0 C4.447,0 4,0.448 4,1 L4,5 L2,5 C0.897,5 0,5.897 0,7 L0,9 C0,10.103 0.897,11 2,11 L2,11 Z M2,7 L8,7 L8.001,9 L2,9 L2,7 L2,7 Z" id="Shape" fill="#929EA7"></path>
                    <path d="M14,34 L16,34 L16,45 C16,45.552 16.447,46 17,46 C17.553,46 18,45.552 18,45 L18,34 L20,34 C21.103,34 22,33.103 22,32 L22,30 C22,28.897 21.103,28 20,28 L18,28 L18,1 C18,0.448 17.553,0 17,0 C16.447,0 16,0.448 16,1 L16,28 L14,28 C12.897,28 12,28.897 12,30 L12,32 C12,33.103 12.897,34 14,34 L14,34 Z M20,30 L20.001,32 L14,32 L14,30 L20,30 Z" id="Shape" fill="#929EA7"></path>
                    <path d="M26,21 L28,21 L28,45 C28,45.552 28.447,46 29,46 C29.553,46 30,45.552 30,45 L30,21 L32,21 C33.103,21 34,20.103 34,19 L34,17 C34,15.897 33.103,15 32,15 L30,15 L30,1 C30,0.448 29.553,0 29,0 C28.447,0 28,0.448 28,1 L28,15 L26,15 C24.897,15 24,15.897 24,17 L24,19 C24,20.103 24.897,21 26,21 L26,21 Z M26,17 L32,17 L32.001,19 L26,19 L26,17 L26,17 Z" id="Shape" fill="#929EA7"></path>
                    <path d="M40,41 L40,45 C40,45.552 40.447,46 41,46 C41.553,46 42,45.552 42,45 L42,41 L44,41 C45.103,41 46,40.103 46,39 L46,37 C46,35.897 45.103,35 44,35 L42,35 L42,1 C42,0.448 41.553,0 41,0 C40.447,0 40,0.448 40,1 L40,35 L38,35 C36.897,35 36,35.897 36,37 L36,39 C36,40.103 36.897,41 38,41 L40,41 Z M38,37 L44,37 L44.001,39 L38,39 L38,37 L38,37 Z" id="Shape" fill="#929EA7"></path>
                    <use id="Rectangle-2" stroke="#009FD4" mask="url(#mask-2)" stroke-width="4" xlink:href="#path-1"></use>
                    <use id="Rectangle-2" stroke="#009FD4" mask="url(#mask-4)" stroke-width="4" xlink:href="#path-3"></use>
                    <use id="Rectangle-2" stroke="#009FD4" mask="url(#mask-6)" stroke-width="4" xlink:href="#path-5"></use>
                    <use id="Rectangle-2" stroke="#009FD4" mask="url(#mask-8)" stroke-width="4" xlink:href="#path-7"></use>
                </g>
            </g>
        </g>
    </g>
</svg>