<?xml version="1.0" encoding="UTF-8" standalone="no"?>
<svg width="35px" height="33px" viewBox="0 0 35 33" version="1.1" xmlns="http://www.w3.org/2000/svg" xmlns:xlink="http://www.w3.org/1999/xlink">
    <!-- Generator: Sketch 39.1 (31720) - http://www.bohemiancoding.com/sketch -->
    <title>noun_600489</title>
    <desc>Created with Sketch.</desc>
    <defs></defs>
    <g id="Page-1" stroke="none" stroke-width="1" fill="none" fill-rule="evenodd">
        <g id="New-blog-success" transform="translate(-608.000000, -107.000000)">
            <g id="progress" transform="translate(268.000000, 107.000000)">
                <g id="noun_600489" transform="translate(340.000000, 0.000000)">
                    <path d="M34.814786,31.4153053 C32.6466926,25.8110947 30.481096,20.2068842 28.3179961,14.6026737 C28.2618523,14.4320731 28.1790748,14.2718422 28.0728599,14.1281684 C26.9779183,12.8178947 25.6153696,12.0766105 23.8912451,12.0939789 C23.5575875,12.1245474 23.2205253,12.1321895 22.8916342,12.1884632 C18.5336576,12.9353053 14.5590467,16.8188842 13.6581712,21.2360211 C13.0650778,24.1441895 14.2567121,27.0106737 17.4414397,27.6936 C17.5565175,27.7186105 17.6675097,27.7630737 17.7819066,27.7978105 C23.0023995,29.4744421 28.2228923,31.1522316 33.4433852,32.8311789 C33.8859922,32.9736 34.3006809,33.0069474 34.6520428,32.6436 C35.0034047,32.2802526 34.989786,31.8668842 34.814786,31.4153053 L34.814786,31.4153053 Z M15.5021401,22.44 C15.6464981,18.5640632 20.0535019,14.1649895 23.8483463,14.1295579 C26.0225681,14.1094105 27.2182879,15.6579789 26.8533074,18.0200842 C26.2928988,21.6473053 22.6553502,25.2884211 19.0661479,25.7309684 C16.9681907,25.9894105 15.4122568,24.8583789 15.5021401,22.44 L15.5021401,22.44 Z M21.9376459,27.0252632 C25.5234436,24.8771368 26.2425097,24.1122316 28.3690661,20.2050316 L32.2789883,30.3481895 L21.9376459,27.0252632 Z" id="Shape" fill="#00BF8C"></path>
                    <path d="M18.0392996,7.47050526 C18.261284,7.66989474 18.5016537,7.84983158 18.7093385,8.06381053 C19.322179,8.69393684 19.4004864,9.23027368 19.0164397,10.0250526 C18.735214,10.6072421 18.8611868,11.1560842 19.3412451,11.4464842 C19.8437743,11.7500842 20.4082685,11.5764 20.7439689,10.9921263 C21.1063746,10.3635562 21.2628538,9.63344438 21.1906615,8.90791579 C21.0851167,7.72061053 20.4416342,6.87025263 19.5611868,6.15050526 C18.2844358,5.10214737 18.2047665,3.64111579 19.3569066,2.44130526 C19.5884241,2.20023158 19.8832685,2.02446316 20.1447471,1.80978947 C20.506323,1.51661053 20.6493191,1.13450526 20.4974708,0.685705263 C20.3456226,0.236905263 20.0208171,0.00833684211 19.4692607,0.00138947368 C19.342941,0.0254048102 19.2200876,0.0655521395 19.1035992,0.120884211 C16.4241245,1.66250526 15.6104086,5.28416842 18.0392996,7.47050526 L18.0392996,7.47050526 Z" id="Shape" fill="#26AFFC"></path>
                    <path d="M8.55865759,5.19802105 C9.18375486,5.61486316 9.2709144,6.15745263 9.12655642,6.81884211 C8.93861868,7.6824 8.75544747,8.54665263 8.72344358,9.43522105 C8.71050584,10.3710316 8.95836576,11.22 9.52558366,11.9647579 C10.3644942,13.0659158 11.4928016,13.7398105 12.7477626,14.2170947 C13.3701362,14.454 13.9393969,14.2170947 14.1307393,13.6856211 C14.3418288,13.0992632 14.0735409,12.6108632 13.3980545,12.3336632 C12.6626459,12.0321474 11.9680934,11.6639368 11.3927043,11.0907789 C10.9160506,10.6169684 10.6593385,10.0674316 10.7035992,9.36783158 C10.747179,8.68421053 10.8949416,8.01726316 11.0311284,7.34892632 C11.3818093,5.60374737 10.9671206,4.41783158 9.72577821,3.59734737 C9.20350195,3.24997895 8.63628405,3.32501053 8.30466926,3.77936842 C7.96692607,4.24484211 8.03093385,4.84787368 8.55865759,5.19802105 L8.55865759,5.19802105 Z" id="Shape" fill="#26AFFC"></path>
                    <path d="M8.83035019,16.9411579 C7.80894942,16.3659158 6.71945525,16.4270526 5.87645914,17.2433684 C5.17645914,17.9200421 4.4635214,17.9179579 3.65116732,17.5956 C3.15068093,17.3969053 2.70466926,17.1092842 2.26410506,16.8029053 C1.70301556,16.4145474 1.1385214,16.4555368 0.796011673,16.9112842 C0.442607004,17.3816211 0.561770428,17.9936842 1.11060311,18.4299789 C1.71557658,18.9146505 2.39503117,19.2937777 3.12140078,19.5519789 C4.56702335,20.0591368 5.91322957,19.9910526 7.06264591,18.8252842 C7.36702335,18.5168211 7.68774319,18.5355789 8.01595331,18.7822105 C8.42042802,19.0837263 8.71799611,19.4769474 8.99173152,19.9021263 C9.26546693,20.3273053 9.67266537,20.4440211 10.1316148,20.2925684 C10.5469844,20.1536211 10.7444553,19.8159789 10.8064202,19.3053474 C10.7642023,19.1823789 10.7287938,18.9774316 10.6307393,18.8120842 C10.1772374,18.0450947 9.61138132,17.3823158 8.83035019,16.9411579 L8.83035019,16.9411579 Z" id="Shape" fill="#26AFFC"></path>
                    <path d="M2.89805447,9.02463158 C2.90171346,8.63902212 2.75022173,8.26875192 2.47893638,8.00023947 C2.20765104,7.73172701 1.84030921,7.58846679 1.46264591,7.60389474 C0.949559435,7.60376854 0.477096542,7.88865101 0.229753797,8.34729566 C-0.0175889481,8.80594032 -0.000579929854,9.36560045 0.274138837,9.80772901 C0.548857604,10.2498576 1.03771233,10.5043275 1.54980545,10.4717684 C1.91735518,10.4643381 2.26671203,10.3071772 2.51998871,10.0353238 C2.77326539,9.76347047 2.90940448,9.3995266 2.89805447,9.02463158 L2.89805447,9.02463158 Z" id="Shape" fill="#00BF8C"></path>
                    <path d="M15.554572,10.0841053 C15.852346,10.0932947 16.1411171,9.97928855 16.3552683,9.76799215 C16.5694196,9.55669575 16.690765,9.26605272 16.6917315,8.96210526 C16.697639,8.64887397 16.5789887,8.34654859 16.3628253,8.12404014 C16.1466619,7.90153169 15.8514063,7.77780165 15.544358,7.78105263 C14.9278173,7.80668689 14.437647,8.31806239 14.4262646,8.94751579 C14.4303882,9.57919034 14.9354453,10.0879547 15.554572,10.0841053 L15.554572,10.0841053 Z" id="Shape" fill="#00BF8C"></path>
                    <path d="M6.07733463,23.0082947 C5.65055416,22.9795585 5.24977181,23.2193534 5.0659956,23.6133961 C4.88221939,24.0074388 4.95263654,24.4759946 5.24368709,24.7957553 C5.53473763,25.1155161 5.98752734,25.2217781 6.38626211,25.0638982 C6.78499688,24.9060184 7.04899252,24.5159436 7.05243191,24.0795789 C7.06103733,23.5136818 6.63110874,23.0413436 6.07733463,23.0082947 L6.07733463,23.0082947 Z" id="Shape" fill="#00BF8C"></path>
                    <polygon id="Shape" fill="#FFFFFF" points="4.99601167 12.5893263 5.2118677 13.0353474 5.69464981 13.1076 5.34533074 13.4549684 5.42772374 13.9454526 4.99601167 13.7141053 4.56429961 13.9454526 4.64669261 13.4549684 4.29669261 13.1076 4.78015564 13.0353474"></polygon>
                    <polygon id="Shape" fill="#FFFFFF" points="13.5110895 4.72004211 13.732393 5.17787368 14.226751 5.25082105 13.8685798 5.60722105 13.9536965 6.11021053 13.5110895 5.87261053 13.0678016 6.11021053 13.1529183 5.60722105 12.7947471 5.25082105 13.2891051 5.17787368"></polygon>
                    <polygon id="Shape" fill="#FFFFFF" points="3.20038911 21.1846105 3.34202335 21.4770947 3.65865759 21.5236421 3.42918288 21.7515158 3.48365759 22.0731789 3.20038911 21.9217263 2.91712062 22.0731789 2.97159533 21.7515158 2.74212062 21.5236421 3.05875486 21.4770947"></polygon>
                    <polygon id="Shape" fill="#FFFFFF" points="21.9376459 4.90762105 22.0840467 5.20983158 22.4108949 5.25846316 22.17393 5.49328421 22.2297665 5.82536842 21.9376459 5.66835789 21.6455253 5.82536842 21.7013619 5.49328421 21.4650778 5.25846316 21.7919261 5.20983158"></polygon>
                    <polygon id="Shape" fill="#FFFFFF" points="4.29669261 4.11909474 4.41108949 4.35530526 4.66712062 4.39282105 4.48190661 4.57692632 4.52548638 4.83675789 4.29669261 4.71448421 4.06857977 4.83675789 4.11215953 4.57692632 3.92694553 4.39282105 4.18297665 4.35530526"></polygon>
                </g>
            </g>
        </g>
    </g>
</svg>