<?xml version="1.0" encoding="UTF-8"?>
<svg width="261px" height="132px" viewBox="0 0 261 132" version="1.1" xmlns="http://www.w3.org/2000/svg" xmlns:xlink="http://www.w3.org/1999/xlink">
    <!-- Generator: Sketch 40.1 (33804) - http://www.bohemiancoding.com/sketch -->
    <title>rocket-launch</title>
    <desc>Created with Sketch.</desc>
    <defs></defs>
    <g id="Page-1" stroke="none" stroke-width="1" fill="none" fill-rule="evenodd">
        <g id="rocket-launch" transform="translate(1.000000, 1.000000)">
            <g id="Page-1">
                <g id="Magic-Link-Clicked">
                    <g id="Page-1">
                        <path d="M156.552,101.8674 C160.579,99.0264 164.377,95.8414 167.917,92.3024 C182.25,77.9694 190.814,59.4134 193.991,38.4514 C173.028,41.6284 154.473,50.1914 140.139,64.5254 C136.6,68.0644 133.416,71.8634 130.574,75.8894 M130.574,75.8894 C127.43,80.3464 124.796,84.9324 122.491,89.9154 L142.367,110.0274 C147.35,107.7224 152.095,105.0124 156.552,101.8674" id="Stroke-1" stroke="#374555" stroke-width="2" stroke-linecap="round" stroke-linejoin="round"></path>
                        <polyline id="Stroke-3" stroke="#374555" stroke-width="2" stroke-linecap="round" stroke-linejoin="round" points="130.5743 75.8897 121.6683 66.9837 103.6663 71.3257 122.4143 90.0747"></polyline>
                        <polyline id="Stroke-5" stroke="#374555" stroke-width="2" stroke-linecap="round" stroke-linejoin="round" points="142.367 110.0269 161.115 128.7749 165.458 110.7739 156.552 101.8669"></polyline>
                        <path d="M142.367,110.0269 L122.415,90.0749" id="Stroke-7" stroke="#374555" stroke-width="2" stroke-linecap="round" stroke-linejoin="round"></path>
                        <path d="M171.6505,45.5844 L180.7185,54.6524" id="Stroke-9" stroke="#374555" stroke-width="2" stroke-linecap="round" stroke-linejoin="round"></path>
                        <path d="M163.6826,48.9993 L169.3356,54.6523" id="Stroke-11" stroke="#374555" stroke-width="2" stroke-linecap="round" stroke-linejoin="round"></path>
                        <path d="M163.0948,81.5533 C159.7238,84.9243 154.2588,84.9243 150.8888,81.5533 C147.5178,78.1823 147.5178,72.7173 150.8888,69.3473 C154.2588,65.9763 159.7238,65.9763 163.0948,69.3473 C166.4658,72.7173 166.4658,78.1823 163.0948,81.5533" id="Fill-13" fill="#23B688"></path>
                        <path d="M163.0948,81.5533 C159.7238,84.9243 154.2588,84.9243 150.8888,81.5533 C147.5178,78.1823 147.5178,72.7173 150.8888,69.3473 C154.2588,65.9763 159.7238,65.9763 163.0948,69.3473 C166.4658,72.7173 166.4658,78.1823 163.0948,81.5533 L163.0948,81.5533 L163.0948,81.5533 Z" id="Stroke-15" stroke="#374555" stroke-width="2" stroke-linecap="round" stroke-linejoin="round"></path>
                        <path d="M123.4737,108.874 L114.8707,117.477" id="Stroke-17" stroke="#374555" stroke-width="2" stroke-linecap="round" stroke-linejoin="round"></path>
                        <path d="M131.4416,114.5654 L127.0446,125.9094" id="Stroke-19" stroke="#374555" stroke-width="2" stroke-linecap="round" stroke-linejoin="round"></path>
                        <path d="M117.8409,100.9648 L106.4969,105.3618" id="Stroke-21" stroke="#374555" stroke-width="2" stroke-linecap="round" stroke-linejoin="round"></path>
                        <path d="M99.1888,6.067 L99.1888,12.72" id="Stroke-23" stroke="#87A6BC" stroke-width="2" stroke-linecap="round" stroke-linejoin="round"></path>
                        <path d="M95.8622,9.3936 L102.5152,9.3936" id="Stroke-25" stroke="#87A6BC" stroke-width="2" stroke-linecap="round" stroke-linejoin="round"></path>
                        <path d="M66.901,47.8422 L66.901,54.4952" id="Stroke-27" stroke="#CED7DF" stroke-width="2" stroke-linecap="round" stroke-linejoin="round"></path>
                        <path d="M63.5744,51.1688 L70.2274,51.1688" id="Stroke-29" stroke="#CED7DF" stroke-width="2" stroke-linecap="round" stroke-linejoin="round"></path>
                        <path d="M97.8628,38.3554 L97.8628,45.0084" id="Stroke-31" stroke="#87A6BC" stroke-width="2" stroke-linecap="round" stroke-linejoin="round"></path>
                        <path d="M94.5362,41.682 L101.1892,41.682" id="Stroke-33" stroke="#87A6BC" stroke-width="2" stroke-linecap="round" stroke-linejoin="round"></path>
                        <path d="M77.0017,19.7796 L80.2967,23.0746" id="Stroke-35" stroke="#CED7DF" stroke-width="2" stroke-linecap="round" stroke-linejoin="round"></path>
                        <path d="M77.0017,23.0741 L80.2967,19.7791" id="Stroke-37" stroke="#CED7DF" stroke-width="2" stroke-linecap="round" stroke-linejoin="round"></path>
                        <path d="M108.9174,45.5184 L112.2124,48.8134" id="Stroke-39" stroke="#CED7DF" stroke-width="2" stroke-linecap="round" stroke-linejoin="round"></path>
                        <path d="M108.9174,48.813 L112.2124,45.518" id="Stroke-41" stroke="#CED7DF" stroke-width="2" stroke-linecap="round" stroke-linejoin="round"></path>
                        <path d="M167.9793,0.0001 L171.2743,3.2951" id="Stroke-43" stroke="#CED7DF" stroke-width="2" stroke-linecap="round" stroke-linejoin="round"></path>
                        <path d="M167.9793,3.2947 L171.2743,-0.0003" id="Stroke-45" stroke="#CED7DF" stroke-width="2" stroke-linecap="round" stroke-linejoin="round"></path>
                        <path d="M150.0439,15.1975 L150.0439,21.8505" id="Stroke-47" stroke="#87A6BC" stroke-width="2" stroke-linecap="round" stroke-linejoin="round"></path>
                        <path d="M146.7173,18.5241 L153.3703,18.5241" id="Stroke-49" stroke="#87A6BC" stroke-width="2" stroke-linecap="round" stroke-linejoin="round"></path>
                        <path d="M137.8452,30.1094 C130.9412,30.1094 125.3452,24.5134 125.3452,17.6094 C125.3452,14.5544 126.4422,11.7564 128.2632,9.5844 C121.0382,9.5854 115.1812,15.4424 115.1812,22.6674 C115.1812,29.8924 121.0392,35.7504 128.2642,35.7504 C132.7502,35.7504 136.7082,33.4914 139.0652,30.0494 C138.6632,30.0884 138.2572,30.1094 137.8452,30.1094" id="Fill-51" fill="#F8CE5E"></path>
                        <path d="M137.8452,30.1094 C130.9412,30.1094 125.3452,24.5134 125.3452,17.6094 C125.3452,14.5544 126.4422,11.7564 128.2632,9.5844 C121.0382,9.5854 115.1812,15.4424 115.1812,22.6674 C115.1812,29.8924 121.0392,35.7504 128.2642,35.7504 C132.7502,35.7504 136.7082,33.4914 139.0652,30.0494 C138.6632,30.0884 138.2572,30.1094 137.8452,30.1094 L137.8452,30.1094 L137.8452,30.1094 Z" id="Stroke-53" stroke="#374555" stroke-width="2" stroke-linecap="round" stroke-linejoin="round"></path>
                        <path d="M84.6019,111.3871 C84.6849,111.0071 84.7309,110.6141 84.7309,110.2101 C84.7309,107.1611 82.2589,104.6891 79.2099,104.6891 C77.6849,104.6891 76.3039,105.3081 75.3049,106.3081 C73.2409,102.8781 69.6059,100.5121 65.3899,100.2071 C63.3259,91.5281 55.5289,85.0701 46.2179,85.0701 C35.3319,85.0701 26.5069,93.8951 26.5069,104.7811 C26.5069,107.0991 26.9099,109.3221 27.6449,111.3871 L84.6019,111.3871 L84.6019,111.3871 L84.6019,111.3871 Z" id="Stroke-55" stroke="#87A6BC" stroke-width="2" stroke-linecap="round" stroke-linejoin="round"></path>
                        <path d="M47.7724,85.1895 C47.7724,77.5045 41.5424,71.2755 33.8584,71.2755 C29.5894,71.2755 25.7744,73.2015 23.2214,76.2275 C21.9244,75.8275 20.5464,75.6105 19.1174,75.6105 C11.4324,75.6105 5.2024,81.8405 5.2024,89.5255 C5.2024,90.0125 5.2284,90.4935 5.2774,90.9675 C2.2564,91.6595 0.0004,94.3585 0.0004,97.5895 C0.0004,97.5975 0.0014,97.6045 0.0014,97.6125 L27.6284,97.6125" id="Stroke-57" stroke="#87A6BC" stroke-width="2" stroke-linecap="round" stroke-linejoin="round"></path>
                        <path d="M46.1153,91.4843 C38.7903,91.4843 32.8523,97.4223 32.8523,104.7473" id="Stroke-59" stroke="#87A6BC" stroke-width="2" stroke-linecap="round" stroke-linejoin="round"></path>
                        <path d="M211.7795,129.73 C211.7785,129.668 211.7685,129.609 211.7685,129.547 C211.7685,127.46 212.3445,125.546 213.3005,124.043 C211.1015,122.347 209.6795,119.694 209.6795,116.702 C209.6795,111.58 213.8315,107.428 218.9535,107.428 C222.6905,107.428 225.9025,109.643 227.3715,112.827 C229.7005,111.07 232.5905,110.015 235.7335,110.015 C243.1815,110.015 249.2445,115.872 249.6125,123.229 C250.2175,123.052 250.8565,122.953 251.5185,122.953 C255.2665,122.953 258.3055,125.985 258.3175,129.73" id="Stroke-61" stroke="#87A6BC" stroke-width="2" stroke-linecap="round" stroke-linejoin="round"></path>
                        <path d="M211.7795,129.73 L258.3175,129.73" id="Stroke-63" stroke="#87A6BC" stroke-width="2" stroke-linecap="round" stroke-linejoin="round"></path>
                        <path d="M233.9572,115.2631 C239.4382,114.8891 243.6612,118.0401 244.0352,123.5211" id="Stroke-65" stroke="#87A6BC" stroke-width="2" stroke-linecap="round" stroke-linejoin="round"></path>
                    </g>
                </g>
            </g>
        </g>
    </g>
</svg>