<?xml version="1.0" encoding="UTF-8"?>
<svg width="64px" height="64px" viewBox="0 0 64 64" version="1.1" xmlns="http://www.w3.org/2000/svg" xmlns:xlink="http://www.w3.org/1999/xlink">
    <!-- Generator: Sketch 41.2 (35397) - http://www.bohemiancoding.com/sketch -->
    <title>sad blobby</title>
    <desc>Created with Sketch.</desc>
    <defs>
        <path d="M64,32 C64,49.6728511 49.6728511,64 32,64 C14.3271489,64 0,49.6728511 0,32 C0,14.3271489 14.3271489,0 32,0 C49.6728511,0 64,14.3271489 64,32 Z" id="path-1"></path>
    </defs>
    <g id="Page-1" stroke="none" stroke-width="1" fill="none" fill-rule="evenodd">
        <g id="Search-verifying" transform="translate(-298.000000, -180.000000)">
            <g id="Search-result" transform="translate(141.000000, 137.000000)">
                <g id="error" transform="translate(0.000000, 24.000000)">
                    <g id="sad-blobby" transform="translate(157.000000, 19.000000)">
                        <mask id="mask-2" fill="white">
                            <use xlink:href="#path-1"></use>
                        </mask>
                        <g id="Mask"></g>
                        <g id="Page-1" mask="url(#mask-2)">
                            <g transform="translate(-6.000000, 1.000000)">
                                <g transform="translate(0.164835, 7.142857)">
                                    <path d="M48.0811121,28.1174707 C48.0811121,28.1174707 55.5297514,29.4088669 54.799032,25.8532366 C49.8180211,1.61597951 40.4637191,-1.32378292 34.9054773,3.20821708 C29.4659169,7.64435993 14.3932077,26.8431011 20.2428396,70.0957714 C20.5089091,72.0631121 20.6028396,73.3729857 22.2936527,73.4358429 C30.9882462,73.7627 52.284422,74.5531286 58.1646857,74.7707714 C59.0310593,74.8029857 59.7550154,74.1406286 59.7985319,73.2802714 C60.0881143,67.5791286 54.2390999,40.5038564 48.0811121,28.1174707 Z" id="Fill-35" fill="#FF6E6E"></path>
                                    <path d="M24.9900923,67.7389429 C15.9059656,21.5529436 38.4932548,10.064861 41.1169031,1.71114676 C39.5859141,1.46914676 36.8440045,1.89425446 35.9167078,2.65011161 C30.4771474,7.08546875 15.3019617,22.1203265 20.2428396,70.0960857 C20.4482636,72.0907466 20.6028396,73.3725143 22.2936527,73.4361571 C30.9882462,73.7622286 52.284422,74.5526571 58.1646857,74.7710857 C59.0310593,74.8033 59.7550154,74.1401571 59.7985319,73.2805857 C59.8127736,72.9938 59.8270154,72.6598714 59.8388835,72.3000143 C51.6269275,71.9951571 34.5890374,71.3626571 27.0409055,71.0790143 C25.3500923,71.0153714 25.3630603,69.6352065 24.9900923,67.7389429 Z" id="Fill-37" fill-opacity="0.1" fill="#364555"></path>
                                    <path d="M40.1955077,16.9350714 C40.7857495,18.1285714 41.7518154,18.8577143 42.3523429,18.5646429 C42.9536615,18.2715714 42.9623648,17.0662857 42.3721231,15.8735714 C41.7826725,14.6800714 40.8166066,13.9501429 40.2152879,14.2432143 C39.6139692,14.5370714 39.6052659,15.7415714 40.1955077,16.9350714" id="Fill-39" fill="#364555" transform="translate(41.283815, 16.403952) rotate(40.000000) translate(-41.283815, -16.403952) "></path>
                                    <path d="M45.1705407,16.7561286 C45.7607824,17.9496286 46.7268484,18.6787714 47.3273758,18.3857 C47.9286945,18.0926286 47.9373978,16.8873429 47.347156,15.6946286 C46.7577055,14.5011286 45.7916396,13.7712 45.1903209,14.0642714 C44.5890022,14.3581286 44.5802989,15.5626286 45.1705407,16.7561286" id="Fill-41" fill="#364555" transform="translate(46.258848, 16.225009) rotate(40.000000) translate(-46.258848, -16.225009) "></path>
                                    <g id="Group-46" transform="translate(39.725275, 23.466357)" stroke="#364555" stroke-width="2" stroke-linecap="round" stroke-linejoin="round">
                                        <path d="M7.66182857,2.46600714 C7.66182857,2.46600714 5.4568706,2.1320149 3.43023098,3.31786093 C1.40359135,4.50370695 0.673872527,6.55486429 0.673872527,6.55486429" id="Stroke-45" transform="translate(4.167851, 4.488754) rotate(40.000000) translate(-4.167851, -4.488754) "></path>
                                    </g>
                                </g>
                                <g transform="translate(7.000000, 0.000000)">
                                    <path d="M62,31 C62,48.1205745 48.1205745,62 31,62 C13.8794255,62 0,48.1205745 0,31 C0,13.8794255 13.8794255,0 31,0 C48.1205745,0 62,13.8794255 62,31 Z" id="Stroke-1" stroke="#364555" stroke-width="2" stroke-linecap="round" stroke-linejoin="round"></path>
                                    <path d="M31,59.3617021 C15.3364255,59.3617021 2.63829787,46.6635745 2.63829787,31 C2.63829787,15.3364255 15.3364255,2.63829787 31,2.63829787 C46.6635745,2.63829787 59.3617021,15.3364255 59.3617021,31 C59.3617021,46.6635745 46.6635745,59.3617021 31,59.3617021 M31,0 C13.8794255,0 0,13.8794255 0,31 C0,48.1205745 13.8794255,62 31,62 C48.1205745,62 62,48.1205745 62,31 C62,13.8794255 48.1205745,0 31,0" id="Fill-3" fill-opacity="0.1" fill="#364555"></path>
                                </g>
                            </g>
                        </g>
                    </g>
                </g>
            </g>
        </g>
    </g>
</svg>