<?xml version="1.0" encoding="UTF-8" standalone="no"?>
<svg width="102px" height="83px" viewBox="0 0 102 83" version="1.1" xmlns="http://www.w3.org/2000/svg" xmlns:xlink="http://www.w3.org/1999/xlink">
    <title>smiley blog</title>
    <defs></defs>
    <g id="Page-1" stroke="none" stroke-width="1" fill="none" fill-rule="evenodd">
        <g id="Success" transform="translate(-461.000000, -141.000000)">
            <g id="smiley-blog" transform="translate(463.000000, 143.000000)">
                <path d="M6.8,79.1 L91.2,79.1 C94.9,79.1 98,76.1 98,72.3 L98,6.8 C98,3.1 95,0 91.2,0 L6.8,0 C3.1,0 0,3 0,6.8 L0,72.3 C0,76.1 3.1,79.1 6.8,79.1 L6.8,79.1 Z" id="Path" stroke="#FFFFFF" stroke-width="3"></path>
                <path d="M8.5,11.925 C8.2,11.625 8,11.125 8,10.725 C8,10.325 8.2,9.825 8.5,9.525 C9.1,8.825 10.3,8.825 11,9.525 C11.3,9.825 11.5,10.325 11.5,10.725 C11.5,11.125 11.3,11.625 11,11.925 C10.7,12.225 10.2,12.425 9.8,12.425 C9.3,12.425 8.8,12.225 8.5,11.925 L8.5,11.925 Z" id="Path" fill="#FFFFFF"></path>
                <path d="M18.5,11.925 C18.2,11.625 18,11.125 18,10.725 C18,10.325 18.2,9.825 18.5,9.525 C19.1,8.825 20.3,8.825 21,9.525 C21.3,9.825 21.5,10.325 21.5,10.725 C21.5,11.125 21.3,11.625 21,11.925 C20.7,12.225 20.2,12.425 19.8,12.425 C19.4,12.425 18.9,12.225 18.5,11.925 L18.5,11.925 Z" id="Path" fill="#FFFFFF"></path>
                <path d="M27.5,11.925 C27.2,11.625 27,11.125 27,10.725 C27,10.325 27.2,9.825 27.5,9.525 C28.1,8.825 29.3,8.825 30,9.525 C30.3,9.825 30.5,10.325 30.5,10.725 C30.5,11.125 30.3,11.625 30,11.925 C29.7,12.225 29.2,12.425 28.8,12.425 C28.2,12.425 27.8,12.225 27.5,11.925 L27.5,11.925 Z" id="Path" fill="#FFFFFF"></path>
                <path d="M0.5,20.5 L97.5,20.5" id="Line" stroke="#FFFFFF" stroke-width="3" stroke-linecap="square"></path>
                <path d="M65.2,57.5 C62.1,63 55.9,66.4 49,66.4 C42.2,66.4 36,63 32.8,57.6 C32.3,56.8 32.6,55.7 33.4,55.2 C34.2,54.7 35.3,55 35.8,55.8 C38.3,60.1 43.3,62.8 48.9,62.8 C54.5,62.8 59.6,60.1 62.1,55.7 C62.6,54.9 63.6,54.6 64.5,55 C65.4,55.6 65.7,56.7 65.2,57.5 L65.2,57.5 Z" id="Path" fill="#26CFFC"></path>
                <path d="M43.1,40 L31.2,47.2 C30.9,47.4 30.6,47.5 30.3,47.5 C29.7,47.5 29.1,47.2 28.8,46.7 C28.3,45.9 28.6,44.8 29.4,44.3 L38.4,38.8 L29.3,34.7 C28.4,34.3 28,33.3 28.4,32.4 C28.8,31.5 29.8,31.1 30.7,31.5 L42.8,36.9 C43.4,37.2 43.8,37.7 43.8,38.4 C43.8,39.1 43.7,39.7 43.1,40 L43.1,40 Z" id="Path" fill="#26CFFC"></path>
                <path d="M68.7,34.7 L59.6,38.8 L68.6,44.3 C69.4,44.8 69.7,45.9 69.2,46.7 C68.9,47.2 68.3,47.5 67.7,47.5 C67.4,47.5 67.1,47.4 66.8,47.2 L54.9,40 C54.3,39.7 54,39 54.1,38.4 C54.2,37.8 54.5,37.2 55.1,36.9 L67.2,31.5 C68.1,31.1 69.1,31.5 69.5,32.4 C70,33.2 69.6,34.3 68.7,34.7 L68.7,34.7 Z" id="Path" fill="#26CFFC"></path>
            </g>
        </g>
    </g>
</svg>