<svg id="202caa9a-913c-4c71-9b93-8f9219546ac9" data-name="Layer 6" xmlns="http://www.w3.org/2000/svg" viewBox="0 0 458 202"><defs><style>.\33 3574ac5-9467-413a-86e6-c2a1c7657a87{fill:#7191a3;}.bf5e86e0-cd68-45ea-a1c7-7ba5c99dfbe9{fill:#29b78a;}.\38 5089141-35ae-460f-9718-a72ae8b8b304{fill:#fff;}.\34 2bc3259-67ae-44ec-9a83-0b42e762acda{fill:#c93f2f;}.a6a8944f-5b5e-4349-b71f-7f57b1c1c96b{fill:none;}.\36 a7fd1da-32ae-40d6-b8cc-a66ae8209d88{fill:#866baf;}.\39 52ad0ef-95d2-4022-9246-e9891a8d1c01{fill:#f8ce5f;}.dff3ceb7-9fd9-40d3-87e0-61620f0def0d{fill:#4ca9df;}</style></defs><title>tell-your-story</title><path class="33574ac5-9467-413a-86e6-c2a1c7657a87" d="M193.34,191a1,1,0,0,1-.82-0.43c-0.75-1.07-1.55-2.13-2.36-3.15a1,1,0,0,1,1.57-1.25c0.84,1.05,1.65,2.14,2.43,3.25A1,1,0,0,1,193.34,191Zm-7-8.43a1,1,0,0,1-.71-0.3c-0.91-.93-1.87-1.84-2.84-2.73a1,1,0,1,1,1.34-1.48c1,0.91,2,1.85,2.92,2.81A1,1,0,0,1,186.32,182.61ZM178,175.4a1,1,0,0,1-.6-0.2c-1-.77-2.1-1.54-3.22-2.3a1,1,0,1,1,1.13-1.65c1.14,0.77,2.24,1.56,3.29,2.35A1,1,0,0,1,178,175.4Zm-9.17-6.06a1,1,0,0,1-.51-0.14q-1.72-1-3.45-2a1,1,0,0,1,1-1.75q1.74,1,3.49,2A1,1,0,0,1,168.87,169.34ZM159.24,164a1,1,0,0,1-.47-0.12L155.23,162a1,1,0,0,1,.94-1.77l3.54,1.87A1,1,0,0,1,159.24,164Zm-9.68-5.23a1,1,0,0,1-.5-0.13c-1.26-.72-2.39-1.4-3.47-2.07a1,1,0,1,1,1.06-1.7c1.05,0.66,2.17,1.32,3.4,2A1,1,0,0,1,149.56,158.8Zm-9.17-6a1,1,0,0,1-.62-0.21c-1.1-.86-2.14-1.76-3.1-2.65a1,1,0,0,1,1.37-1.46c0.92,0.85,1.92,1.71,3,2.54A1,1,0,0,1,140.39,152.75ZM132.71,145a1,1,0,0,1-.81-0.41,35.15,35.15,0,0,1-2.23-3.44,1,1,0,0,1,1.74-1,33.13,33.13,0,0,0,2.1,3.25A1,1,0,0,1,132.71,145Zm-5-9.72a1,1,0,0,1-.95-0.69c-0.42-1.26-.78-2.58-1.09-3.93a1,1,0,0,1,2-.44c0.29,1.29.64,2.55,1,3.75A1,1,0,0,1,127.72,135.25Z"/><path class="33574ac5-9467-413a-86e6-c2a1c7657a87" d="M292.5,197a1,1,0,0,1-.73-1.68c0.93-1,1.91-2,2.9-2.85a1,1,0,0,1,1.34,1.48c-1,.86-1.89,1.78-2.78,2.74A1,1,0,0,1,292.5,197Zm8.35-7.08a1,1,0,0,1-.55-1.83c1.12-.74,2.29-1.45,3.49-2.11a1,1,0,0,1,1,1.75c-1.14.63-2.27,1.31-3.34,2A1,1,0,0,1,300.85,189.92Zm9.75-5a1,1,0,0,1-.36-1.93c1.24-.47,2.53-0.92,3.85-1.32a1,1,0,0,1,.58,1.91c-1.27.39-2.52,0.82-3.72,1.27A1,1,0,0,1,310.6,184.93Zm10.57-3a1,1,0,0,1-.19-2c1.28-.25,2.62-0.48,4-0.68a1,1,0,0,1,.29,2c-1.34.2-2.65,0.42-3.89,0.67Zm10.9-1.46a1,1,0,0,1-.08-2q2-.17,4-0.28a1,1,0,0,1,.11,2q-2,.11-4,0.27h-0.08Zm11-.55a1,1,0,0,1,0-2l4-.09h0a1,1,0,0,1,0,2l-4,.09h0Zm11-.24a1,1,0,0,1,0-2q2-.05,4-0.14a1,1,0,0,1,.09,2q-2,.08-4,0.14h0Zm11-.6a1,1,0,0,1-.1-2c1.38-.13,2.7-0.29,3.92-0.47a1,1,0,0,1,.29,2c-1.26.19-2.61,0.35-4,.48h-0.1Zm10.81-1.92a1,1,0,0,1-.27-2,36.42,36.42,0,0,0,3.67-1.26,1,1,0,0,1,.75,1.85,38.37,38.37,0,0,1-3.88,1.33A1,1,0,0,1,375.88,177.18Zm9.88-4.64a1,1,0,0,1-.59-1.81,23.88,23.88,0,0,0,2.89-2.48,1,1,0,0,1,1.42,1.41,25.91,25.91,0,0,1-3.14,2.69A1,1,0,0,1,385.75,172.54Z"/><path class="bf5e86e0-cd68-45ea-a1c7-7ba5c99dfbe9" d="M100.13,81c-3.34-8.69-3.44-16.75-.22-18a16.87,16.87,0,0,0-9.69,21.8c3.34,8.69,19.37,17.95,24.25,16.07C112.66,101.57,103.47,89.69,100.13,81Z"/><path class="bf5e86e0-cd68-45ea-a1c7-7ba5c99dfbe9" d="M121.71,72.69A16.87,16.87,0,0,0,99.91,63c3.22-1.24,8.55,4.8,11.89,13.5s5,23.49,2.67,24.37C120.64,98.5,125,81.39,121.71,72.69Z"/><path class="85089141-35ae-460f-9718-a72ae8b8b304" d="M114.53,123a1,1,0,0,1-.93-0.64l-4.13-10.74a1,1,0,0,1,.57-1.29l14.49-5.57a1,1,0,0,1,1.29.57L130,116.05a1,1,0,0,1-.57,1.29l-14.49,5.57A1,1,0,0,1,114.53,123Zm-2.84-11.17,3.41,8.88,12.62-4.85L124.31,107Z"/><path class="85089141-35ae-460f-9718-a72ae8b8b304" d="M112.61,111.39a1,1,0,0,1-1-.91l-0.8-8.42a1,1,0,0,1,.64-1l5.81-2.24a1,1,0,0,1,1.16.34l5.05,6.79a1,1,0,0,1-.44,1.53L113,111.32A1,1,0,0,1,112.61,111.39Zm0.27-8.76,0.6,6.35,7.61-2.93-3.81-5.12Z"/><path class="85089141-35ae-460f-9718-a72ae8b8b304" d="M112.91,102.12c-3.32,0-8-2.15-11.67-4.47-5.9-3.71-10.37-8.38-12-12.49a17.87,17.87,0,1,1,33.35-12.83c1.62,4.2,1.61,10.74,0,17.07-1.68,6.54-4.59,11.17-7.79,12.4A5.35,5.35,0,0,1,112.91,102.12ZM106,62.87A15.88,15.88,0,0,0,91.15,84.45c1.43,3.72,5.6,8,11.15,11.51,5,3.11,9.81,4.75,11.81,4,2.52-1,5.1-5.3,6.57-11,1.53-5.94,1.56-12,.08-15.85A15.9,15.9,0,0,0,106,62.87Z"/><path class="85089141-35ae-460f-9718-a72ae8b8b304" d="M114.33,101.91c-0.88,0-2.82-.87-7.26-6.86a63,63,0,0,1-7.88-13.7,36.56,36.56,0,0,1-2.64-12.14c0-3.85,1-6.38,3-7.14s4.47,0.41,7,3.29a36.57,36.57,0,0,1,6.17,10.78,66.4,66.4,0,0,1,3.51,15.36c1,9.36-.81,10.06-1.41,10.3A1.29,1.29,0,0,1,114.33,101.91ZM114,100h0ZM100.8,63.85a1.49,1.49,0,0,0-.54.09c-1.11.43-1.75,2.39-1.71,5.25a34.55,34.55,0,0,0,2.51,11.44c3.25,8.46,11,18.16,13.08,19.19,1-2,.08-14.25-3.27-23a34.55,34.55,0,0,0-5.81-10.17C103.45,64.86,101.91,63.85,100.8,63.85Z"/><path class="85089141-35ae-460f-9718-a72ae8b8b304" d="M138.35,65H126.19a1,1,0,1,1,0-2h12.15A1,1,0,0,1,138.35,65Z"/><path class="85089141-35ae-460f-9718-a72ae8b8b304" d="M146.26,72H134.11a1,1,0,0,1,0-2h12.15A1,1,0,0,1,146.26,72Z"/><path class="85089141-35ae-460f-9718-a72ae8b8b304" d="M141,77.29H128.83a1,1,0,0,1,0-2H141A1,1,0,0,1,141,77.29Z"/><path class="42bc3259-67ae-44ec-9a83-0b42e762acda" d="M393.58,93.33h-12.1c-2.53,3.81-3.79,10.34-3.79,17.76,0,7.22,1.19,13.6,3.59,17.44H422c-2.4-3.85-3.59-10.22-3.59-17.44,0-7.43,1.26-14,3.79-17.76H393.58"/><path class="85089141-35ae-460f-9718-a72ae8b8b304" d="M401.29,129a1,1,0,0,1-.88-0.53c-2.13-4-3.35-10.32-3.35-17.42,0-7.88,1.37-14.34,3.87-18.19A1,1,0,0,1,402.6,94c-2.29,3.53-3.55,9.6-3.55,17.1,0,6.69,1.16,12.85,3.11,16.48A1,1,0,0,1,401.29,129Z"/><path class="85089141-35ae-460f-9718-a72ae8b8b304" d="M391.1,129a1,1,0,0,1-.88-0.53c-2.13-4-3.35-10.31-3.35-17.42,0-7.88,1.37-14.34,3.87-18.19A1,1,0,0,1,392.42,94c-2.29,3.52-3.55,9.6-3.55,17.1,0,6.79,1.13,12.79,3.11,16.48A1,1,0,0,1,391.1,129Z"/><rect class="85089141-35ae-460f-9718-a72ae8b8b304" x="381.27" y="127.53" width="12.56" height="2"/><path class="85089141-35ae-460f-9718-a72ae8b8b304" d="M422,129.53h-28.2a1,1,0,0,1,0-2h26.51c-1.88-3.92-2.91-9.67-2.91-16.44,0-7,1.08-12.84,3.06-16.76H393.58a1,1,0,0,1,0-2h28.65a1,1,0,0,1,.83,1.55c-2.3,3.46-3.62,9.73-3.62,17.21s1.22,13.36,3.44,16.91A1,1,0,0,1,422,129.53Z"/><path class="85089141-35ae-460f-9718-a72ae8b8b304" d="M381.27,129.53a1,1,0,0,1-.85-0.47c-2.41-3.87-3.74-10.25-3.74-18,0-8,1.41-14.48,4-18.32a1,1,0,1,1,1.66,1.11c-2.3,3.46-3.62,9.73-3.62,17.21s1.22,13.36,3.44,16.91A1,1,0,0,1,381.27,129.53Z"/><path class="85089141-35ae-460f-9718-a72ae8b8b304" d="M380.42,129.06c-2.41-3.87-3.74-10.25-3.74-18,0-8,1.41-14.48,4-18.32l0.3-.45h12.64v2H382c-2.13,3.54-3.34,9.6-3.34,16.76,0,7.35,1.22,13.36,3.44,16.91Z"/><path class="85089141-35ae-460f-9718-a72ae8b8b304" d="M421.18,129.06c-2.41-3.87-3.74-10.25-3.74-18,0-8,1.41-14.48,4-18.32l1.66,1.11c-2.3,3.46-3.62,9.73-3.62,17.21s1.22,13.36,3.44,16.91Z"/><path class="85089141-35ae-460f-9718-a72ae8b8b304" d="M402.4,89a1,1,0,0,1-.4-1.92l6.86-3-7.35-2.26a1,1,0,1,1,.59-1.91L412,83a1,1,0,0,1,.11,1.87l-9.33,4.07A1,1,0,0,1,402.4,89Z"/><path class="85089141-35ae-460f-9718-a72ae8b8b304" d="M401.72,93.92a1,1,0,0,1-1-1v-12a1,1,0,0,1,2,0v12A1,1,0,0,1,401.72,93.92Z"/><path class="85089141-35ae-460f-9718-a72ae8b8b304" d="M401.72,141.26a1,1,0,0,1-1-1V128.8a1,1,0,1,1,2,0v11.45A1,1,0,0,1,401.72,141.26Z"/><path class="85089141-35ae-460f-9718-a72ae8b8b304" d="M406.9,145.58a6,6,0,1,1,6-6A6,6,0,0,1,406.9,145.58Zm0-10a4,4,0,1,0,4,4A4,4,0,0,0,406.9,135.57Z"/><path class="85089141-35ae-460f-9718-a72ae8b8b304" d="M417,145.58a6,6,0,1,1,6-6A6,6,0,0,1,417,145.58Zm0-10a4,4,0,1,0,4,4A4,4,0,0,0,417,135.57Z"/><path class="85089141-35ae-460f-9718-a72ae8b8b304" d="M396.63,145.58a6,6,0,1,1,6-6A6,6,0,0,1,396.63,145.58Zm0-10a4,4,0,1,0,4,4A4,4,0,0,0,396.63,135.57Z"/><path class="85089141-35ae-460f-9718-a72ae8b8b304" d="M386.62,145.58a6,6,0,1,1,6-6A6,6,0,0,1,386.62,145.58Zm0-10a4,4,0,1,0,4,4A4,4,0,0,0,386.62,135.57Z"/><path class="85089141-35ae-460f-9718-a72ae8b8b304" d="M411.48,129a1,1,0,0,1-.88-0.53c-2.13-4-3.35-10.32-3.35-17.42,0-7.88,1.37-14.34,3.87-18.19A1,1,0,0,1,412.79,94c-2.29,3.53-3.55,9.6-3.55,17.1,0,6.69,1.16,12.85,3.11,16.48A1,1,0,0,1,411.48,129Z"/><path class="a6a8944f-5b5e-4349-b71f-7f57b1c1c96b" d="M383.75,106.58A18.12,18.12,0,0,0,371,111.87V99.44a9.19,9.19,0,0,1,9.16-9.16h43.45a9.19,9.19,0,0,1,9.16,9.16v12.43A18.12,18.12,0,0,0,420,106.58H383.75Z"/><path class="85089141-35ae-460f-9718-a72ae8b8b304" d="M371,132.86a1,1,0,0,1-1-1v-9.13l-3.88,2a1,1,0,1,1-.92-1.78l5.34-2.77a1,1,0,0,1,1.46.89v10.78A1,1,0,0,1,371,132.86Z"/><path class="85089141-35ae-460f-9718-a72ae8b8b304" d="M420,157.46H383.75a19.2,19.2,0,0,1-19.18-19.18v-6.42a1,1,0,0,1,2,0v6.42a17.2,17.2,0,0,0,17.18,17.18H420a17.2,17.2,0,0,0,17.18-17.18v-6.42a1,1,0,0,1,2,0v6.42A19.2,19.2,0,0,1,420,157.46Z"/><path class="85089141-35ae-460f-9718-a72ae8b8b304" d="M432.77,132.86a1,1,0,0,1-1-1v-4.67a1,1,0,0,1,1-1h5.37a1,1,0,1,1,0,2h-4.37v3.67A1,1,0,0,1,432.77,132.86Z"/><path class="85089141-35ae-460f-9718-a72ae8b8b304" d="M422.56,141.16a1,1,0,1,1,0-2c4.33,0,9.18-3.49,9.18-8.16a1,1,0,0,1,2,0C433.74,136.81,427.84,141.16,422.56,141.16Z"/><path class="85089141-35ae-460f-9718-a72ae8b8b304" d="M381.15,141.16c-5.28,0-11.18-4.35-11.18-10.16a1,1,0,0,1,2,0c0,4.67,4.85,8.16,9.18,8.16A1,1,0,0,1,381.15,141.16Z"/><path class="85089141-35ae-460f-9718-a72ae8b8b304" d="M444.56,132.86h-6.42a1,1,0,0,1,0-2h5.42v-2.67h-5.42a1,1,0,0,1,0-2h6.42a1,1,0,0,1,1,1v4.67A1,1,0,0,1,444.56,132.86Z"/><path class="85089141-35ae-460f-9718-a72ae8b8b304" d="M365.57,132.86h-6.41a1,1,0,0,1-1-1v-4.67a1,1,0,0,1,.54-0.89l6.45-3.35a1,1,0,1,1,.92,1.78l-5.91,3.07v3.06h5.41A1,1,0,0,1,365.57,132.86Z"/><path class="85089141-35ae-460f-9718-a72ae8b8b304" d="M375,128.45h-6.7a1,1,0,1,1,0-2H374v-3.33a1,1,0,0,1,2,0v4.33A1,1,0,0,1,375,128.45Z"/><path class="85089141-35ae-460f-9718-a72ae8b8b304" d="M434.47,150.17h-6.79a1,1,0,0,1,0-2h6.79A1,1,0,0,1,434.47,150.17Z"/><path class="85089141-35ae-460f-9718-a72ae8b8b304" d="M386.88,150.17h-8.82a1,1,0,0,1,0-2h8.82A1,1,0,0,1,386.88,150.17Z"/><path class="85089141-35ae-460f-9718-a72ae8b8b304" d="M375.67,144.05h-8.82a1,1,0,0,1,0-2h8.82A1,1,0,0,1,375.67,144.05Z"/><path class="85089141-35ae-460f-9718-a72ae8b8b304" d="M421.74,150.17H418a1,1,0,0,1,0-2h3.73A1,1,0,0,1,421.74,150.17Z"/><path class="85089141-35ae-460f-9718-a72ae8b8b304" d="M448.83,166.11a4.8,4.8,0,0,1-4.79-4.79,1,1,0,0,1,2,0,2.79,2.79,0,0,0,5.59,0,1,1,0,1,1,2,0A4.8,4.8,0,0,1,448.83,166.11Z"/><path class="85089141-35ae-460f-9718-a72ae8b8b304" d="M441.35,166.1a4.8,4.8,0,0,1-4.79-4.79,1,1,0,1,1,2,0,2.79,2.79,0,1,0,5.59,0,1,1,0,0,1,2,0A4.8,4.8,0,0,1,441.35,166.1Z"/><path class="85089141-35ae-460f-9718-a72ae8b8b304" d="M433.76,166.1a4.8,4.8,0,0,1-4.79-4.79,1,1,0,0,1,2,0,2.79,2.79,0,0,0,5.59,0,1,1,0,1,1,2,0A4.8,4.8,0,0,1,433.76,166.1Z"/><path class="85089141-35ae-460f-9718-a72ae8b8b304" d="M426.18,166.1a4.8,4.8,0,0,1-4.79-4.79,1,1,0,0,1,2,0,2.79,2.79,0,1,0,5.59,0,1,1,0,0,1,2,0A4.8,4.8,0,0,1,426.18,166.1Z"/><path class="85089141-35ae-460f-9718-a72ae8b8b304" d="M418.7,166.1a4.8,4.8,0,0,1-4.79-4.79,1,1,0,0,1,2,0,2.79,2.79,0,0,0,5.59,0,1,1,0,0,1,2,0A4.8,4.8,0,0,1,418.7,166.1Z"/><path class="85089141-35ae-460f-9718-a72ae8b8b304" d="M411,166.1a4.8,4.8,0,0,1-4.79-4.79,1,1,0,0,1,2,0,2.79,2.79,0,0,0,5.59,0,1,1,0,1,1,2,0A4.8,4.8,0,0,1,411,166.1Z"/><path class="85089141-35ae-460f-9718-a72ae8b8b304" d="M403.53,166.1a4.8,4.8,0,0,1-4.79-4.79,1,1,0,1,1,2,0,2.79,2.79,0,0,0,5.59,0,1,1,0,0,1,2,0A4.8,4.8,0,0,1,403.53,166.1Z"/><path class="85089141-35ae-460f-9718-a72ae8b8b304" d="M378.81,166.11a4.8,4.8,0,0,1-4.79-4.79,1,1,0,0,1,2,0,2.79,2.79,0,0,0,5.59,0,1,1,0,0,1,2,0A4.8,4.8,0,0,1,378.81,166.11Z"/><path class="85089141-35ae-460f-9718-a72ae8b8b304" d="M371.33,166.1a4.8,4.8,0,0,1-4.79-4.79,1,1,0,0,1,2,0,2.79,2.79,0,1,0,5.59,0,1,1,0,0,1,2,0A4.8,4.8,0,0,1,371.33,166.1Z"/><path class="85089141-35ae-460f-9718-a72ae8b8b304" d="M363.74,166.1a4.8,4.8,0,0,1-4.79-4.79,1,1,0,0,1,2,0,2.79,2.79,0,0,0,5.59,0,1,1,0,0,1,2,0A4.8,4.8,0,0,1,363.74,166.1Z"/><path class="85089141-35ae-460f-9718-a72ae8b8b304" d="M224.1,66.4h-27.7a1,1,0,0,1-1-1.23L209.28,5.54a1,1,0,0,1,1.95,0l13.85,59.64A1,1,0,0,1,224.1,66.4Zm-26.44-2h25.18L210.25,10.19Z"/><path class="85089141-35ae-460f-9718-a72ae8b8b304" d="M194,86.49h-20.1a1,1,0,0,1-1-1.21l10-46.61a1,1,0,0,1,2,0l10,46.61A1,1,0,0,1,194,86.49Zm-18.86-2h17.62l-8.81-40.86Z"/><path class="85089141-35ae-460f-9718-a72ae8b8b304" d="M247.83,94.1H233.16a1,1,0,0,1-1-1.2l7.33-36.29a1,1,0,0,1,2,0l7.33,36.29A1,1,0,0,1,247.83,94.1Zm-13.44-2h12.22L240.5,61.85Z"/><path class="85089141-35ae-460f-9718-a72ae8b8b304" d="M219.38,93a1,1,0,0,1-1-1V66.44H202.13V91h3.14a1,1,0,0,1,0,2h-4.14a1,1,0,0,1-1-1V65.44a1,1,0,0,1,1-1h18.25a1,1,0,0,1,1,1V92A1,1,0,0,1,219.38,93Z"/><path class="85089141-35ae-460f-9718-a72ae8b8b304" d="M245.47,113.92h-10a1,1,0,0,1-1-1V93.1a1,1,0,0,1,1-1h10a1,1,0,0,1,1,1v19.82A1,1,0,0,1,245.47,113.92Zm-9-2h8V94.1h-8v17.82Z"/><path class="85089141-35ae-460f-9718-a72ae8b8b304" d="M176.32,121.19a1,1,0,0,1-1-1V85.61a1,1,0,0,1,1-1h15.19a1,1,0,0,1,1,1v22.5a1,1,0,0,1-.38.78L176.94,121A1,1,0,0,1,176.32,121.19Zm1-34.58v31.5l13.19-10.49v-21H177.32Z"/><path class="85089141-35ae-460f-9718-a72ae8b8b304" d="M221.74,101.25a1,1,0,0,1-1-1V93h-6.27v7.28a1,1,0,1,1-2,0V92a1,1,0,0,1,1-1h8.27a1,1,0,0,1,1,1v8.28A1,1,0,0,1,221.74,101.25Z"/><path class="85089141-35ae-460f-9718-a72ae8b8b304" d="M213.46,101.25h-8.19a1,1,0,0,1-1-1V92a1,1,0,0,1,2,0v7.28h6.19V92a1,1,0,0,1,2,0v8.28A1,1,0,0,1,213.46,101.25Z"/><path class="85089141-35ae-460f-9718-a72ae8b8b304" d="M213.47,101.25a1,1,0,0,1-1-1V92a1,1,0,0,1,1-1h0a1,1,0,0,1,1,1v8.28A1,1,0,0,1,213.47,101.25Z"/><path class="85089141-35ae-460f-9718-a72ae8b8b304" d="M205.19,101.25a1,1,0,0,1-1-1V93H198v7.28a1,1,0,1,1-2,0V92a1,1,0,0,1,1-1h8.2a1,1,0,0,1,1,1v8.28A1,1,0,0,1,205.19,101.25Z"/><path class="85089141-35ae-460f-9718-a72ae8b8b304" d="M205.27,101.25a1.07,1.07,0,0,1-1.08-1V92a1,1,0,0,1,1-1h0.08a1,1,0,0,1,1,1v8.28A1,1,0,0,1,205.27,101.25Z"/><path class="85089141-35ae-460f-9718-a72ae8b8b304" d="M196.92,101.25H191.6a1,1,0,0,1,0-2h4.32V92a1,1,0,1,1,2,0v8.28A1,1,0,0,1,196.92,101.25Z"/><path class="85089141-35ae-460f-9718-a72ae8b8b304" d="M230,101.25h-8.28a1,1,0,0,1-1-1V92a1,1,0,0,1,2,0v7.28H229V92a1,1,0,0,1,2,0v8.28A1,1,0,0,1,230,101.25Z"/><path class="85089141-35ae-460f-9718-a72ae8b8b304" d="M230,101.25a1,1,0,0,1-1-1V92a1,1,0,0,1,1-1h3.38a1,1,0,0,1,0,2H231v7.28A1,1,0,0,1,230,101.25Z"/><path class="85089141-35ae-460f-9718-a72ae8b8b304" d="M173,124a1,1,0,0,1-.63-1.78l32.17-25.94a1,1,0,0,1,1.26,1.56l-32.17,25.94A1,1,0,0,1,173,124Z"/><path class="85089141-35ae-460f-9718-a72ae8b8b304" d="M207.09,80.36a1,1,0,0,1-1-1v-9a1,1,0,1,1,2,0v9A1,1,0,0,1,207.09,80.36Z"/><path class="85089141-35ae-460f-9718-a72ae8b8b304" d="M181.37,100.76a1,1,0,0,1-1-1v-9a1,1,0,0,1,2,0v9A1,1,0,0,1,181.37,100.76Z"/><path class="85089141-35ae-460f-9718-a72ae8b8b304" d="M186.25,100.76a1,1,0,0,1-1-1v-9a1,1,0,1,1,2,0v9A1,1,0,0,1,186.25,100.76Z"/><path class="85089141-35ae-460f-9718-a72ae8b8b304" d="M218,143.11a1,1,0,0,1-1-1v-9a1,1,0,0,1,2,0v9A1,1,0,0,1,218,143.11Z"/><path class="85089141-35ae-460f-9718-a72ae8b8b304" d="M222.89,143.11a1,1,0,0,1-1-1v-9a1,1,0,0,1,2,0v9A1,1,0,0,1,222.89,143.11Z"/><path class="85089141-35ae-460f-9718-a72ae8b8b304" d="M246.78,143.11a1,1,0,0,1-1-1v-9a1,1,0,0,1,2,0v9A1,1,0,0,1,246.78,143.11Z"/><path class="85089141-35ae-460f-9718-a72ae8b8b304" d="M251.66,143.11a1,1,0,0,1-1-1v-9a1,1,0,0,1,2,0v9A1,1,0,0,1,251.66,143.11Z"/><path class="85089141-35ae-460f-9718-a72ae8b8b304" d="M213.46,80.36a1,1,0,0,1-1-1v-9a1,1,0,1,1,2,0v9A1,1,0,0,1,213.46,80.36Z"/><path class="85089141-35ae-460f-9718-a72ae8b8b304" d="M181.63,156.71a1,1,0,0,1-1-1V116a1,1,0,1,1,2,0v39.68A1,1,0,0,1,181.63,156.71Z"/><path class="85089141-35ae-460f-9718-a72ae8b8b304" d="M211.18,157.4a1,1,0,0,1-1-1V125.65a1,1,0,1,1,2,0V156.4A1,1,0,0,1,211.18,157.4Z"/><path class="85089141-35ae-460f-9718-a72ae8b8b304" d="M258.44,157.4a1,1,0,0,1-1-1V125.65a1,1,0,1,1,2,0V156.4A1,1,0,0,1,258.44,157.4Z"/><polygon class="6a7fd1da-32ae-40d6-b8cc-a66ae8209d88" points="258.44 125.65 211.3 125.65 202.07 112.92 249.21 112.92 258.44 125.65"/><path class="85089141-35ae-460f-9718-a72ae8b8b304" d="M258.44,126.65H211.3a1,1,0,0,1-.81-0.41l-9.23-12.74a1,1,0,0,1,.81-1.59h47.14a1,1,0,0,1,.81.41l9.23,12.74A1,1,0,0,1,258.44,126.65Zm-46.63-2h44.67l-7.78-10.74H204Z"/><path class="85089141-35ae-460f-9718-a72ae8b8b304" d="M247.23,126.57a1,1,0,0,1-.81-0.41l-9-12.32a1,1,0,0,1,1.62-1.18L248,125A1,1,0,0,1,247.23,126.57Z"/><path class="85089141-35ae-460f-9718-a72ae8b8b304" d="M234.79,126.65a1,1,0,0,1-.81-0.41l-9.23-12.74a1,1,0,0,1,1.62-1.17l9.23,12.74A1,1,0,0,1,234.79,126.65Z"/><path class="85089141-35ae-460f-9718-a72ae8b8b304" d="M222.61,126.65a1,1,0,0,1-.81-0.41l-9.23-12.74a1,1,0,0,1,1.62-1.17l9.23,12.74A1,1,0,0,1,222.61,126.65Z"/><path class="85089141-35ae-460f-9718-a72ae8b8b304" d="M192.58,156.71a1,1,0,0,1-1-1V125.65a1,1,0,0,1,.19-0.59L201,112.33a1,1,0,0,1,1.62,1.17l-9,12.47v29.74A1,1,0,0,1,192.58,156.71Z"/><path class="85089141-35ae-460f-9718-a72ae8b8b304" d="M203,161.27a1,1,0,0,1-.48-0.12l-7.28-4-8.87-1.42L176.54,159a1,1,0,0,1-.63-1.9l10-3.34a1,1,0,0,1,.47,0l9.28,1.49a1,1,0,0,1,.32.11l7,3.87,13.69-4.86a1,1,0,0,1,.58,0l5.76,1.49a1,1,0,0,1-.5,1.94l-5.46-1.41-13.82,4.91A1,1,0,0,1,203,161.27Z"/><path class="85089141-35ae-460f-9718-a72ae8b8b304" d="M253.47,160.35a1,1,0,0,1-.45-1.89l9-4.6a1,1,0,0,1,.67-0.08l4.31,1,3-1.83a1,1,0,0,1,1.29.21l3.71,4.46a1,1,0,0,1-1.54,1.28l-3.16-3.79-2.6,1.59a1,1,0,0,1-.74.12l-4.36-1-8.71,4.43A1,1,0,0,1,253.47,160.35Z"/><path class="952ad0ef-95d2-4022-9246-e9891a8d1c01" d="M338.72,75.76a24.15,24.15,0,0,0-15.42-4.88,32.21,32.21,0,0,0-11.12,2.17,27.77,27.77,0,0,0,11,10.25L327.93,85a27.79,27.79,0,0,0,17.29-1.87A27.14,27.14,0,0,0,338.72,75.76Z"/><path class="85089141-35ae-460f-9718-a72ae8b8b304" d="M337.63,81.82a1,1,0,0,1-.28,0l-1-.28a1,1,0,1,1,.56-1.92l1,0.28A1,1,0,0,1,337.63,81.82ZM329,79.29a1,1,0,0,1-.28,0l-1-.28a1,1,0,1,1,.56-1.92l1,0.28A1,1,0,0,1,329,79.29Zm-8.64-2.53a1,1,0,0,1-.28,0l-1-.28a1,1,0,1,1,.56-1.92l1,0.28A1,1,0,0,1,320.35,76.76Z"/><path class="85089141-35ae-460f-9718-a72ae8b8b304" d="M333.64,86.68A25.53,25.53,0,0,1,327.7,86l-0.11,0-4.75-1.71-0.1,0A28.94,28.94,0,0,1,311.33,73.6a1,1,0,0,1,.44-1.46,33,33,0,0,1,11.5-2.26,1,1,0,0,1,1,1,1,1,0,0,1-1,1,32.31,32.31,0,0,0-9.6,1.67,26.39,26.39,0,0,0,9.86,8.83l4.64,1.67a26.82,26.82,0,0,0,15.53-1.35,25.76,25.76,0,0,0-5.64-6.15A1,1,0,1,1,339.33,75a28.29,28.29,0,0,1,6.75,7.65,1,1,0,0,1-.4,1.42A29,29,0,0,1,333.64,86.68Z"/><path class="85089141-35ae-460f-9718-a72ae8b8b304" d="M323.66,98.43a1,1,0,0,1-.92-0.6,18.81,18.81,0,0,1-1.3-6.56,17.56,17.56,0,0,1,1.82-7.77,1,1,0,0,1,1.74,1,15.52,15.52,0,0,0-1.56,6.82,17.26,17.26,0,0,0,.73,4.55,13.94,13.94,0,0,0,4.25-4.94l0.9-2.53a12.56,12.56,0,0,0,.32-2.63,1,1,0,0,1,1-1,1,1,0,0,1,1,1,14.45,14.45,0,0,1-.38,3.11l0,0.11-0.94,2.64,0,0.1a16.51,16.51,0,0,1-6,6.53A1,1,0,0,1,323.66,98.43Z"/><path class="85089141-35ae-460f-9718-a72ae8b8b304" d="M338.72,76.76a1,1,0,0,1-.61-0.21,23.08,23.08,0,0,0-14.8-4.67,1,1,0,0,1-.83-0.42,1,1,0,0,1-.13-0.92l0.88-2.46a9.08,9.08,0,0,1,17.1,6.13l-0.67,1.88A1,1,0,0,1,338.72,76.76Zm-14-6.87a24.77,24.77,0,0,1,13.52,4.27l0.22-.62a7.08,7.08,0,1,0-13.33-4.78Z"/><path class="85089141-35ae-460f-9718-a72ae8b8b304" d="M312.73,90.82a3.15,3.15,0,1,1,3.15-3.15A3.15,3.15,0,0,1,312.73,90.82Zm0-4.3a1.15,1.15,0,1,0,1.15,1.15A1.15,1.15,0,0,0,312.73,86.52Z"/><path class="85089141-35ae-460f-9718-a72ae8b8b304" d="M338.32,98.4a3.15,3.15,0,1,1,3.15-3.15A3.15,3.15,0,0,1,338.32,98.4Zm0-4.3a1.15,1.15,0,1,0,1.15,1.15A1.15,1.15,0,0,0,338.32,94.1Z"/><path class="85089141-35ae-460f-9718-a72ae8b8b304" d="M314.15,86.93a1,1,0,0,1-.7-1.72l4.78-4.62A1,1,0,0,1,319.62,82l-4.78,4.62A1,1,0,0,1,314.15,86.93Z"/><path class="85089141-35ae-460f-9718-a72ae8b8b304" d="M337.73,93.9a1,1,0,0,1-1-.79l-1.46-6.65a1,1,0,1,1,2-.43l1.46,6.65a1,1,0,0,1-.76,1.19Z"/><path class="85089141-35ae-460f-9718-a72ae8b8b304" d="M314,69.36a1,1,0,0,1-.47-1.88A12,12,0,0,1,319,66.37a1,1,0,1,1,0,2,10.13,10.13,0,0,0-4.56.88A1,1,0,0,1,314,69.36Z"/><path class="85089141-35ae-460f-9718-a72ae8b8b304" d="M340.37,89.54a1,1,0,0,1-.07-2,10.21,10.21,0,0,0,4.46-1.3,1,1,0,0,1,1.1,1.67,12,12,0,0,1-5.42,1.63h-0.07Z"/><path class="85089141-35ae-460f-9718-a72ae8b8b304" d="M321.51,66.78a1,1,0,0,1-.81-1.59l0.35-.48a1,1,0,0,1,1.62,1.17l-0.35.48A1,1,0,0,1,321.51,66.78Z"/><path class="33574ac5-9467-413a-86e6-c2a1c7657a87" d="M258,194a1,1,0,0,1-.71-1.71q0.85-.85,1.74-1.66a1,1,0,1,1,1.35,1.47q-0.86.78-1.68,1.6A1,1,0,0,1,258,194Zm7.08-6.12a1,1,0,0,1-.62-1.79c1.05-.82,2.12-1.63,3.19-2.44a1,1,0,0,1,1.2,1.6c-1.07.8-2.12,1.6-3.17,2.42A1,1,0,0,1,265.08,187.88Zm8.76-6.65a1,1,0,0,1-.62-1.79c1.14-.89,2.16-1.7,3.09-2.48a1,1,0,1,1,1.28,1.54c-1,.8-2,1.62-3.15,2.52A1,1,0,0,1,273.83,181.22Zm8.29-7.21a1,1,0,0,1-.71-1.7c0.93-.94,1.83-1.91,2.66-2.88a1,1,0,1,1,1.52,1.3c-0.86,1-1.79,2-2.76,3A1,1,0,0,1,282.12,174Zm6.88-8.54a1,1,0,0,1-.84-1.54c0.7-1.09,1.36-2.23,2-3.38a1,1,0,1,1,1.77.94c-0.64,1.2-1.33,2.38-2.06,3.52A1,1,0,0,1,289,165.47Zm4.88-9.82a1,1,0,0,1-.94-1.35c0.45-1.2.87-2.46,1.25-3.72a1,1,0,1,1,1.92.57c-0.39,1.31-.82,2.6-1.29,3.85A1,1,0,0,1,293.89,155.65Zm2.92-10.58-0.19,0a1,1,0,0,1-.79-1.17q0.1-.52.19-1.05,0.26-1.47.58-2.9a1,1,0,0,1,2,.43q-0.31,1.39-.56,2.81-0.1.55-.2,1.08A1,1,0,0,1,296.8,145.07Zm2.63-10.67a1,1,0,0,1-1-1.31c0.42-1.27.88-2.55,1.37-3.82a1,1,0,1,1,1.87.72c-0.48,1.23-.92,2.48-1.33,3.72A1,1,0,0,1,299.43,134.4Zm4.16-10.18a1,1,0,0,1-.9-1.44c0.59-1.19,1.21-2.4,1.86-3.59a1,1,0,1,1,1.75,1c-0.64,1.16-1.25,2.34-1.82,3.51A1,1,0,0,1,303.59,124.22Zm5.45-9.56a1,1,0,0,1-.84-1.55c0.73-1.11,1.5-2.24,2.28-3.34a1,1,0,0,1,1.63,1.16c-0.77,1.08-1.52,2.18-2.23,3.27A1,1,0,0,1,309,114.66Zm6.56-8.84a1,1,0,0,1-.76-1.65c1.65-1.95,2.7-3,2.75-3a1,1,0,0,1,1.41,1.42s-1,1-2.63,2.92A1,1,0,0,1,315.59,105.82Z"/><path class="33574ac5-9467-413a-86e6-c2a1c7657a87" d="M163.89,190a1,1,0,0,1-.46-0.12c-1.1-.58-2.29-1.14-3.54-1.66a1,1,0,1,1,.77-1.85c1.31,0.55,2.55,1.13,3.7,1.73A1,1,0,0,1,163.89,190Zm-10.23-4a1,1,0,0,1-.27,0c-1.23-.35-2.52-0.68-3.82-1a1,1,0,0,1,.44-2c1.34,0.3,2.66.64,3.93,1A1,1,0,0,1,153.66,186Zm-57.05-1L95,185a1,1,0,0,1-1-1,1,1,0,0,1,1-1c1.29,0,2.6,0,3.92,0a1,1,0,1,1,.1,2Q97.86,185,96.61,185Zm-8.51-.67H88c-1.32-.21-2.66-0.46-4-0.75a1,1,0,1,1,.43-2c1.29,0.29,2.59.53,3.87,0.73A1,1,0,0,1,88.11,184.31Zm17.92-.15a1,1,0,0,1-.13-2q2-.26,4-0.48a1,1,0,1,1,.22,2q-1.94.21-4,.47H106Zm36.88-.38h-0.14c-1.28-.18-2.6-0.34-3.93-0.48a1,1,0,1,1,.2-2c1.35,0.14,2.7.3,4,.49A1,1,0,0,1,142.91,183.78ZM117,183.07a1,1,0,0,1-.07-2q2.06-.14,4-0.22a1,1,0,0,1,1,1,1,1,0,0,1-1,1q-1.94.08-4,.22H117Zm15-.25h0q-1.92-.07-4-0.09a1,1,0,0,1-1-1,1,1,0,0,1,1-1q2.07,0,4,.09A1,1,0,0,1,132,182.81Zm-54.53-1.12a1,1,0,0,1-.32-0.05c-1.27-.42-2.56-0.89-3.81-1.39A1,1,0,1,1,74,178.4c1.22,0.48,2.47.94,3.71,1.35A1,1,0,0,1,77.43,181.69Zm-10.15-4.25a1,1,0,0,1-.46-0.11c-2.25-1.16-3.53-2-3.58-2a1,1,0,0,1,1.08-1.68s1.26,0.8,3.42,1.91A1,1,0,0,1,67.28,177.45Z"/><path class="dff3ceb7-9fd9-40d3-87e0-61620f0def0d" d="M20.58,121.77h0.73a4,4,0,0,0,2.93-1.26c1-.84,2.41-2,7.32-2a31.55,31.55,0,0,1,13.81,3.35,1.33,1.33,0,0,0,1.26,0,13.05,13.05,0,0,1,5.65-1,8.66,8.66,0,0,1,3,.63,4.67,4.67,0,0,0-2.93,4.39,1.14,1.14,0,0,0,.42.94c6.17,5.54,8.89,10.88,8.89,18a1.68,1.68,0,0,0,.52,1.15,11.45,11.45,0,0,1,3.35,5.23,11.61,11.61,0,0,0-3.87-.84,9.86,9.86,0,0,0-4.92,1.78c-0.42-2.2,2.09-5.54,3.14-6.69a1.27,1.27,0,0,0,.21-1.46c-3.35-6.59-8.79-8.79-14.33-11-1.88-.73-3.87-1.57-5.75-2.51a1.42,1.42,0,0,0,0-1.78,1.33,1.33,0,0,0-1.88-.1,10.26,10.26,0,0,0-3.35,5.65c-0.42,1.46-.52,1.57-0.84,1.57a3.73,3.73,0,0,1-.73-0.73,10.14,10.14,0,0,1-.84-8.58A1.33,1.33,0,1,0,30,125.33c-0.1.1-.1,0.31-0.21,0.42a33.75,33.75,0,0,0-3.56-1.57C24.13,123.23,22,122.4,20.58,121.77Z"/><path class="85089141-35ae-460f-9718-a72ae8b8b304" d="M31.56,118.53a31.55,31.55,0,0,1,13.81,3.35,1.33,1.33,0,0,0,1.26,0,13.05,13.05,0,0,1,5.65-1,8.66,8.66,0,0,1,3,.63,4.67,4.67,0,0,0-2.93,4.39,1.14,1.14,0,0,0,.42.94c6.17,5.54,8.89,10.88,8.89,18a1.68,1.68,0,0,0,.52,1.15,11.45,11.45,0,0,1,3.35,5.23,11.61,11.61,0,0,0-3.87-.84,9.86,9.86,0,0,0-4.92,1.78c-0.42-2.2,2.09-5.54,3.14-6.69a1.27,1.27,0,0,0,.21-1.46c-3.35-6.59-8.79-8.79-14.33-11-1.88-.73-3.87-1.57-5.75-2.51a1.42,1.42,0,0,0,0-1.78,1.5,1.5,0,0,0-1-.45,1.17,1.17,0,0,0-.84.34,10.26,10.26,0,0,0-3.35,5.65c-0.42,1.46-.52,1.57-0.84,1.57a3.73,3.73,0,0,1-.73-0.73,10.14,10.14,0,0,1-.84-8.58,1.35,1.35,0,0,0-.63-1.78,1.47,1.47,0,0,0-.58-0.12,1.33,1.33,0,0,0-1.2.75c-0.1.1-.1,0.31-0.21,0.42a33.75,33.75,0,0,0-3.56-1.57c-2.09-.94-4.18-1.78-5.65-2.41h0.73a4,4,0,0,0,2.93-1.26c1-.84,2.41-2,7.32-2m0-2c-5.11,0-7,1.18-8.52,2.39l0,0-0.05,0a2.13,2.13,0,0,1-1.63.77H20.58a2,2,0,0,0-.79,3.84l1.67,0.7c1.21,0.5,2.58,1.07,3.95,1.69l0.14,0.06a31.37,31.37,0,0,1,3.35,1.48,2,2,0,0,0,.89.21h0.16a12.42,12.42,0,0,0,1.65,8.46,3.94,3.94,0,0,0,1,1.05,2,2,0,0,0,1.36.54c1.9,0,2.36-1.6,2.76-3a9.16,9.16,0,0,1,1.52-3.41,2,2,0,0,0,.89.89c1.71,0.85,3.65,1.7,5.92,2.59,5.13,2,10,4,13,9.6-1,1.22-3.9,4.94-3.31,8.05a2,2,0,0,0,3,1.31,7.71,7.71,0,0,1,3.84-1.47,9.92,9.92,0,0,1,3.19.72,2,2,0,0,0,2.62-2.39,13.48,13.48,0,0,0-3.8-6.08c-0.05-7.43-2.85-13.16-9.3-19a2.65,2.65,0,0,1,1.76-2.27,2,2,0,0,0-.14-3.69,10.64,10.64,0,0,0-3.74-.75A15.81,15.81,0,0,0,46,120a33.25,33.25,0,0,0-14.44-3.43h0Z"/><path class="85089141-35ae-460f-9718-a72ae8b8b304" d="M18,134.23a31.55,31.55,0,0,1,13.81,3.35,1.33,1.33,0,0,0,1.26,0,13.05,13.05,0,0,1,5.65-1,8.66,8.66,0,0,1,3,.63,4.67,4.67,0,0,0-2.93,4.39,1.14,1.14,0,0,0,.42.94c6.17,5.54,8.89,10.88,8.89,18a1.68,1.68,0,0,0,.52,1.15,11.45,11.45,0,0,1,3.35,5.23,11.61,11.61,0,0,0-3.87-.84,9.86,9.86,0,0,0-4.92,1.78c-0.42-2.2,2.09-5.54,3.14-6.69a1.27,1.27,0,0,0,.21-1.46c-3.35-6.59-8.79-8.79-14.33-11-1.88-.73-3.87-1.57-5.75-2.51a1.42,1.42,0,0,0,0-1.78,1.5,1.5,0,0,0-1-.45,1.17,1.17,0,0,0-.84.34,10.26,10.26,0,0,0-3.35,5.65c-0.42,1.46-.52,1.57-0.84,1.57a3.73,3.73,0,0,1-.73-0.73,10.14,10.14,0,0,1-.84-8.58,1.35,1.35,0,0,0-.63-1.78,1.47,1.47,0,0,0-.58-0.12,1.33,1.33,0,0,0-1.2.75c-0.1.1-.1,0.31-0.21,0.42a33.75,33.75,0,0,0-3.56-1.57c-2.09-.94-4.18-1.78-5.65-2.41H7.7a4,4,0,0,0,2.93-1.26c1-.84,2.41-2,7.32-2m0-2c-5.11,0-7,1.18-8.52,2.39l0,0-0.05,0a2.13,2.13,0,0,1-1.63.77H7a2,2,0,0,0-.79,3.84L7.85,140c1.21,0.5,2.58,1.07,3.95,1.69l0.14,0.06a31.37,31.37,0,0,1,3.35,1.48,2,2,0,0,0,.89.21h0.16A12.42,12.42,0,0,0,18,151.9,3.94,3.94,0,0,0,19,153a2,2,0,0,0,1.36.54c1.9,0,2.36-1.6,2.76-3a9.16,9.16,0,0,1,1.52-3.41,2,2,0,0,0,.89.89c1.71,0.85,3.65,1.7,5.92,2.59,5.13,2,10,4,13.05,9.6-1,1.22-3.9,4.94-3.31,8.05a2,2,0,0,0,3,1.31A7.71,7.71,0,0,1,48.08,168a9.92,9.92,0,0,1,3.19.72,2,2,0,0,0,2.62-2.39,13.48,13.48,0,0,0-3.8-6.08c-0.05-7.44-2.84-13.16-9.3-19A2.65,2.65,0,0,1,42.54,139a2,2,0,0,0-.14-3.69,10.64,10.64,0,0,0-3.74-.75,15.81,15.81,0,0,0-6.27,1.13A33.25,33.25,0,0,0,18,132.23h0Z"/><path class="85089141-35ae-460f-9718-a72ae8b8b304" d="M81.53,165.94a4.12,4.12,0,0,1-4.12-4.12,1,1,0,0,1,2,0,2.12,2.12,0,0,0,4.23,0,1,1,0,0,1,2,0A4.12,4.12,0,0,1,81.53,165.94Z"/><path class="85089141-35ae-460f-9718-a72ae8b8b304" d="M75.38,165.92a4.12,4.12,0,0,1-4.12-4.12,1,1,0,0,1,2,0,2.12,2.12,0,0,0,4.23,0,1,1,0,0,1,2,0A4.12,4.12,0,0,1,75.38,165.92Z"/><path class="85089141-35ae-460f-9718-a72ae8b8b304" d="M69.15,165.92A4.12,4.12,0,0,1,65,161.81a1,1,0,0,1,2,0,2.12,2.12,0,0,0,4.23,0,1,1,0,0,1,2,0A4.12,4.12,0,0,1,69.15,165.92Z"/><path class="85089141-35ae-460f-9718-a72ae8b8b304" d="M62.91,165.92a4.12,4.12,0,0,1-4.12-4.12,1,1,0,0,1,2,0,2.12,2.12,0,0,0,4.23,0,1,1,0,0,1,2,0A4.12,4.12,0,0,1,62.91,165.92Z"/><path class="85089141-35ae-460f-9718-a72ae8b8b304" d="M69.94,148.25a1,1,0,0,1-.94-0.67,8.13,8.13,0,0,0-2.6-3.41,1,1,0,0,1,1.16-1.63,10.07,10.07,0,0,1,3.33,4.37A1,1,0,0,1,69.94,148.25Z"/><path class="85089141-35ae-460f-9718-a72ae8b8b304" d="M38.46,165.66H38.33a1,1,0,0,1-.86-1.12,10.07,10.07,0,0,1,2.31-5,1,1,0,1,1,1.47,1.35,8,8,0,0,0-1.8,3.89A1,1,0,0,1,38.46,165.66Z"/><path class="85089141-35ae-460f-9718-a72ae8b8b304" d="M23.39,138.8a1,1,0,0,1-.36-0.07,15.1,15.1,0,0,0-4.56-.84,1,1,0,0,1-1-1,1,1,0,0,1,1-1,16.86,16.86,0,0,1,5.24,1A1,1,0,0,1,23.39,138.8Z"/><path class="85089141-35ae-460f-9718-a72ae8b8b304" d="M38,123.21a1,1,0,0,1-.36-0.07,15.1,15.1,0,0,0-4.56-.84,1,1,0,0,1-1-1,1,1,0,0,1,1-1,16.86,16.86,0,0,1,5.24,1A1,1,0,0,1,38,123.21Z"/><path class="33574ac5-9467-413a-86e6-c2a1c7657a87" d="M221.43,189.53a1,1,0,0,1-.89-1.46,15.06,15.06,0,0,1,2.54-3.41,1,1,0,0,1,1.45,1.37,13.17,13.17,0,0,0-2.22,3A1,1,0,0,1,221.43,189.53Zm7.52-7.9a1,1,0,0,1-.65-1.76c0.92-.77,1.94-1.62,3.09-2.56a1,1,0,1,1,1.26,1.55c-1.14.93-2.16,1.77-3.06,2.53A1,1,0,0,1,228.95,181.63Zm7.87-7.55a1,1,0,0,1-.88-1.46,11.5,11.5,0,0,0,1.13-3.48,1,1,0,1,1,2,.32,13.5,13.5,0,0,1-1.34,4.09A1,1,0,0,1,236.82,174.08Zm1-10.75a1,1,0,0,1-1-.81,22.51,22.51,0,0,0-1-3.67,1,1,0,0,1,1.85-.75,24,24,0,0,1,1.13,4,1,1,0,0,1-.79,1.17Z"/></svg>