<svg id="01cacefd-3dac-4835-ba8b-a13fea6d1347" data-name="Layer 6" xmlns="http://www.w3.org/2000/svg" viewBox="0 0 455 193"><defs><style>.\31 1ded5ef-f891-4930-9f5f-2b5e78e89bef{fill:#7191a3;}.\39 50c48d1-bfa4-4fb7-82c1-1cb0967e9601{fill:#29b78a;}.\30 262bd65-bd23-4c4e-87ca-3c1847838ec5{fill:#fff;}.\35 790b764-3eed-4055-bb75-8c8fdcf7e489{fill:#c93f2f;}.ae905a3f-f7a7-4776-a771-718ee07dec58{fill:none;}.b1d1eacf-b632-41a3-9ad3-6228a01bcd7c{fill:#866baf;}.c1869e49-a267-425d-8f8e-e2540ef9427e{fill:#f8ce5f;}.f1aeed5e-f845-4c75-892b-5cb03fb9cf9a{fill:#4ca9df;}</style></defs><title>tell-your-story</title><path class="11ded5ef-f891-4930-9f5f-2b5e78e89bef" d="M144,182a1,1,0,0,1-1-1,20.06,20.06,0,0,0-.32-3.56,1,1,0,0,1,2-.36A22.05,22.05,0,0,1,145,181,1,1,0,0,1,144,182Zm-2.56-10.34a1,1,0,0,1-.9-0.57c-0.53-1.1-1.14-2.22-1.87-3.42a1,1,0,0,1,1.71-1c0.77,1.26,1.41,2.44,2,3.59A1,1,0,0,1,141.47,171.62Zm-5.84-9.31a1,1,0,0,1-.81-0.42l-1.4-1.93-1-1.31a1,1,0,0,1,1.62-1.17l0.95,1.31,1.4,1.93A1,1,0,0,1,135.63,162.31Zm-6.33-9a1,1,0,0,1-.84-0.46c-0.78-1.22-1.46-2.37-2.08-3.5a1,1,0,1,1,1.76-1c0.59,1.09,1.25,2.19,2,3.38A1,1,0,0,1,129.3,153.32Zm-4.87-9.83a1,1,0,0,1-.95-0.69,32.91,32.91,0,0,1-1.05-4,1,1,0,0,1,2-.39,30.8,30.8,0,0,0,1,3.74A1,1,0,0,1,124.43,143.49Zm-1.57-10.81h0a1,1,0,0,1-1-1,34.5,34.5,0,0,1,.4-4.1,1,1,0,1,1,2,.31,32.53,32.53,0,0,0-.37,3.86A1,1,0,0,1,122.86,132.67Z"/><path class="11ded5ef-f891-4930-9f5f-2b5e78e89bef" d="M361.44,188.31a1,1,0,0,1-.31,0,1,1,0,0,1-.64-1.26,17.93,17.93,0,0,1,1.91-3.81,1,1,0,0,1,1.68,1.08,16.29,16.29,0,0,0-1.69,3.34A1,1,0,0,1,361.44,188.31Zm6.52-8.7a1,1,0,0,1-.6-1.8,20.07,20.07,0,0,1,3.6-2.17,1,1,0,0,1,.85,1.81,18,18,0,0,0-3.24,2A1,1,0,0,1,368,179.61ZM378,175.38a1,1,0,0,1-.33-1.94,27.79,27.79,0,0,0,3.54-1.54,1,1,0,1,1,.92,1.77,29.64,29.64,0,0,1-3.8,1.65A1,1,0,0,1,378,175.38Zm9.26-5.74a1,1,0,0,1-.74-1.67,9.69,9.69,0,0,0,1.93-3,1,1,0,0,1,1.87.71,11.7,11.7,0,0,1-2.32,3.68A1,1,0,0,1,387.29,169.64Z"/><path class="950c48d1-bfa4-4fb7-82c1-1cb0967e9601" d="M98.13,80c-3.34-8.69-3.44-16.75-.22-18a16.87,16.87,0,0,0-9.69,21.8c3.34,8.69,19.37,17.95,24.25,16.07C110.66,100.57,101.47,88.69,98.13,80Z"/><path class="950c48d1-bfa4-4fb7-82c1-1cb0967e9601" d="M119.71,71.69A16.87,16.87,0,0,0,97.91,62c3.22-1.24,8.55,4.8,11.89,13.5s5,23.49,2.67,24.37C118.64,97.5,123,80.39,119.71,71.69Z"/><path class="0262bd65-bd23-4c4e-87ca-3c1847838ec5" d="M112.53,122a1,1,0,0,1-.93-0.64l-4.13-10.74a1,1,0,0,1,.57-1.29l14.49-5.57a1,1,0,0,1,1.29.57L128,115.05a1,1,0,0,1-.57,1.29l-14.49,5.57A1,1,0,0,1,112.53,122Zm-2.84-11.17,3.41,8.88,12.62-4.85L122.31,106Z"/><path class="0262bd65-bd23-4c4e-87ca-3c1847838ec5" d="M110.61,110.39a1,1,0,0,1-1-.91l-0.8-8.42a1,1,0,0,1,.64-1l5.81-2.24a1,1,0,0,1,1.16.34l5.05,6.79a1,1,0,0,1-.44,1.53L111,110.32A1,1,0,0,1,110.61,110.39Zm0.27-8.76,0.6,6.35,7.61-2.93-3.81-5.12Z"/><path class="0262bd65-bd23-4c4e-87ca-3c1847838ec5" d="M110.91,101.12c-3.32,0-8-2.15-11.67-4.47-5.9-3.71-10.37-8.38-12-12.49a17.87,17.87,0,1,1,33.35-12.83c1.62,4.2,1.61,10.74,0,17.07-1.68,6.54-4.59,11.17-7.79,12.4A5.35,5.35,0,0,1,110.91,101.12ZM104,61.87A15.88,15.88,0,0,0,89.15,83.45c1.43,3.72,5.6,8,11.15,11.51,5,3.11,9.81,4.75,11.81,4,2.52-1,5.1-5.3,6.57-11,1.53-5.94,1.56-12,.08-15.85A15.9,15.9,0,0,0,104,61.87Z"/><path class="0262bd65-bd23-4c4e-87ca-3c1847838ec5" d="M112.33,100.91c-0.88,0-2.82-.87-7.26-6.86a63,63,0,0,1-7.88-13.7,36.56,36.56,0,0,1-2.64-12.14c0-3.85,1-6.38,3-7.14s4.47,0.41,7,3.29a36.57,36.57,0,0,1,6.17,10.78,66.4,66.4,0,0,1,3.51,15.36c1,9.36-.81,10.06-1.41,10.3A1.29,1.29,0,0,1,112.33,100.91ZM112,99h0ZM98.8,62.85a1.49,1.49,0,0,0-.54.09c-1.11.43-1.75,2.39-1.71,5.25a34.55,34.55,0,0,0,2.51,11.44c3.25,8.46,11,18.16,13.08,19.19,1-2,.08-14.25-3.27-23a34.55,34.55,0,0,0-5.81-10.17C101.45,63.86,99.91,62.85,98.8,62.85Z"/><path class="0262bd65-bd23-4c4e-87ca-3c1847838ec5" d="M136.35,64H124.19a1,1,0,1,1,0-2h12.15A1,1,0,0,1,136.35,64Z"/><path class="0262bd65-bd23-4c4e-87ca-3c1847838ec5" d="M144.26,71H132.11a1,1,0,0,1,0-2h12.15A1,1,0,0,1,144.26,71Z"/><path class="0262bd65-bd23-4c4e-87ca-3c1847838ec5" d="M139,76.29H126.83a1,1,0,0,1,0-2H139A1,1,0,0,1,139,76.29Z"/><path class="5790b764-3eed-4055-bb75-8c8fdcf7e489" d="M391.58,92.33h-12.1c-2.53,3.81-3.79,10.34-3.79,17.76,0,7.22,1.19,13.6,3.59,17.44H420c-2.4-3.85-3.59-10.22-3.59-17.44,0-7.43,1.26-14,3.79-17.76H391.58"/><path class="0262bd65-bd23-4c4e-87ca-3c1847838ec5" d="M399.29,128a1,1,0,0,1-.88-0.53c-2.13-4-3.35-10.32-3.35-17.42,0-7.88,1.37-14.34,3.87-18.19A1,1,0,0,1,400.6,93c-2.29,3.53-3.55,9.6-3.55,17.1,0,6.69,1.16,12.85,3.11,16.48A1,1,0,0,1,399.29,128Z"/><path class="0262bd65-bd23-4c4e-87ca-3c1847838ec5" d="M389.1,128a1,1,0,0,1-.88-0.53c-2.13-4-3.35-10.31-3.35-17.42,0-7.88,1.37-14.34,3.87-18.19A1,1,0,0,1,390.42,93c-2.29,3.52-3.55,9.6-3.55,17.1,0,6.79,1.13,12.79,3.11,16.48A1,1,0,0,1,389.1,128Z"/><rect class="0262bd65-bd23-4c4e-87ca-3c1847838ec5" x="379.27" y="126.53" width="12.56" height="2"/><path class="0262bd65-bd23-4c4e-87ca-3c1847838ec5" d="M420,128.53h-28.2a1,1,0,0,1,0-2h26.51c-1.88-3.92-2.91-9.67-2.91-16.44,0-7,1.08-12.84,3.06-16.76H391.58a1,1,0,0,1,0-2h28.65a1,1,0,0,1,.83,1.55c-2.3,3.46-3.62,9.73-3.62,17.21s1.22,13.36,3.44,16.91A1,1,0,0,1,420,128.53Z"/><path class="0262bd65-bd23-4c4e-87ca-3c1847838ec5" d="M379.27,128.53a1,1,0,0,1-.85-0.47c-2.41-3.87-3.74-10.25-3.74-18,0-8,1.41-14.48,4-18.32a1,1,0,1,1,1.66,1.11c-2.3,3.46-3.62,9.73-3.62,17.21s1.22,13.36,3.44,16.91A1,1,0,0,1,379.27,128.53Z"/><path class="0262bd65-bd23-4c4e-87ca-3c1847838ec5" d="M378.42,128.06c-2.41-3.87-3.74-10.25-3.74-18,0-8,1.41-14.48,4-18.32l0.3-.45h12.64v2H380c-2.13,3.54-3.34,9.6-3.34,16.76,0,7.35,1.22,13.36,3.44,16.91Z"/><path class="0262bd65-bd23-4c4e-87ca-3c1847838ec5" d="M419.18,128.06c-2.41-3.87-3.74-10.25-3.74-18,0-8,1.41-14.48,4-18.32l1.66,1.11c-2.3,3.46-3.62,9.73-3.62,17.21s1.22,13.36,3.44,16.91Z"/><path class="0262bd65-bd23-4c4e-87ca-3c1847838ec5" d="M400.4,88a1,1,0,0,1-.4-1.92l6.86-3-7.35-2.26a1,1,0,1,1,.59-1.91L410,82a1,1,0,0,1,.11,1.87l-9.33,4.07A1,1,0,0,1,400.4,88Z"/><path class="0262bd65-bd23-4c4e-87ca-3c1847838ec5" d="M399.72,92.92a1,1,0,0,1-1-1v-12a1,1,0,0,1,2,0v12A1,1,0,0,1,399.72,92.92Z"/><path class="0262bd65-bd23-4c4e-87ca-3c1847838ec5" d="M399.72,140.26a1,1,0,0,1-1-1V127.8a1,1,0,1,1,2,0v11.45A1,1,0,0,1,399.72,140.26Z"/><path class="0262bd65-bd23-4c4e-87ca-3c1847838ec5" d="M404.9,144.58a6,6,0,1,1,6-6A6,6,0,0,1,404.9,144.58Zm0-10a4,4,0,1,0,4,4A4,4,0,0,0,404.9,134.57Z"/><path class="0262bd65-bd23-4c4e-87ca-3c1847838ec5" d="M415,144.58a6,6,0,1,1,6-6A6,6,0,0,1,415,144.58Zm0-10a4,4,0,1,0,4,4A4,4,0,0,0,415,134.57Z"/><path class="0262bd65-bd23-4c4e-87ca-3c1847838ec5" d="M394.63,144.58a6,6,0,1,1,6-6A6,6,0,0,1,394.63,144.58Zm0-10a4,4,0,1,0,4,4A4,4,0,0,0,394.63,134.57Z"/><path class="0262bd65-bd23-4c4e-87ca-3c1847838ec5" d="M384.62,144.58a6,6,0,1,1,6-6A6,6,0,0,1,384.62,144.58Zm0-10a4,4,0,1,0,4,4A4,4,0,0,0,384.62,134.57Z"/><path class="0262bd65-bd23-4c4e-87ca-3c1847838ec5" d="M409.48,128a1,1,0,0,1-.88-0.53c-2.13-4-3.35-10.32-3.35-17.42,0-7.88,1.37-14.34,3.87-18.19A1,1,0,0,1,410.79,93c-2.29,3.53-3.55,9.6-3.55,17.1,0,6.69,1.16,12.85,3.11,16.48A1,1,0,0,1,409.48,128Z"/><path class="ae905a3f-f7a7-4776-a771-718ee07dec58" d="M381.75,105.58A18.12,18.12,0,0,0,369,110.87V98.44a9.19,9.19,0,0,1,9.16-9.16h43.45a9.19,9.19,0,0,1,9.16,9.16v12.43A18.12,18.12,0,0,0,418,105.58H381.75Z"/><path class="0262bd65-bd23-4c4e-87ca-3c1847838ec5" d="M369,131.86a1,1,0,0,1-1-1v-9.13l-3.88,2a1,1,0,1,1-.92-1.78l5.34-2.77a1,1,0,0,1,1.46.89v10.78A1,1,0,0,1,369,131.86Z"/><path class="0262bd65-bd23-4c4e-87ca-3c1847838ec5" d="M418,156.46H381.75a19.2,19.2,0,0,1-19.18-19.18v-6.42a1,1,0,0,1,2,0v6.42a17.2,17.2,0,0,0,17.18,17.18H418a17.2,17.2,0,0,0,17.18-17.18v-6.42a1,1,0,0,1,2,0v6.42A19.2,19.2,0,0,1,418,156.46Z"/><path class="0262bd65-bd23-4c4e-87ca-3c1847838ec5" d="M430.77,131.86a1,1,0,0,1-1-1v-4.67a1,1,0,0,1,1-1h5.37a1,1,0,0,1,0,2h-4.37v3.67A1,1,0,0,1,430.77,131.86Z"/><path class="0262bd65-bd23-4c4e-87ca-3c1847838ec5" d="M420.56,140.16a1,1,0,1,1,0-2c4.33,0,9.18-3.49,9.18-8.16a1,1,0,0,1,2,0C431.74,135.81,425.84,140.16,420.56,140.16Z"/><path class="0262bd65-bd23-4c4e-87ca-3c1847838ec5" d="M379.15,140.16c-5.28,0-11.18-4.35-11.18-10.16a1,1,0,0,1,2,0c0,4.67,4.85,8.16,9.18,8.16A1,1,0,0,1,379.15,140.16Z"/><path class="0262bd65-bd23-4c4e-87ca-3c1847838ec5" d="M442.56,131.86h-6.42a1,1,0,0,1,0-2h5.42v-2.67h-5.42a1,1,0,1,1,0-2h6.42a1,1,0,0,1,1,1v4.67A1,1,0,0,1,442.56,131.86Z"/><path class="0262bd65-bd23-4c4e-87ca-3c1847838ec5" d="M363.57,131.86h-6.41a1,1,0,0,1-1-1v-4.67a1,1,0,0,1,.54-0.89l6.45-3.35a1,1,0,1,1,.92,1.78l-5.91,3.07v3.06h5.41A1,1,0,0,1,363.57,131.86Z"/><path class="0262bd65-bd23-4c4e-87ca-3c1847838ec5" d="M373,127.45h-6.7a1,1,0,0,1,0-2H372v-3.33a1,1,0,0,1,2,0v4.33A1,1,0,0,1,373,127.45Z"/><path class="0262bd65-bd23-4c4e-87ca-3c1847838ec5" d="M432.47,149.17h-6.79a1,1,0,0,1,0-2h6.79A1,1,0,0,1,432.47,149.17Z"/><path class="0262bd65-bd23-4c4e-87ca-3c1847838ec5" d="M384.88,149.17h-8.82a1,1,0,0,1,0-2h8.82A1,1,0,0,1,384.88,149.17Z"/><path class="0262bd65-bd23-4c4e-87ca-3c1847838ec5" d="M373.67,143.05h-8.82a1,1,0,0,1,0-2h8.82A1,1,0,0,1,373.67,143.05Z"/><path class="0262bd65-bd23-4c4e-87ca-3c1847838ec5" d="M419.74,149.17H416a1,1,0,0,1,0-2h3.73A1,1,0,0,1,419.74,149.17Z"/><path class="0262bd65-bd23-4c4e-87ca-3c1847838ec5" d="M446.83,165.11a4.8,4.8,0,0,1-4.79-4.79,1,1,0,0,1,2,0,2.79,2.79,0,0,0,5.59,0,1,1,0,1,1,2,0A4.8,4.8,0,0,1,446.83,165.11Z"/><path class="0262bd65-bd23-4c4e-87ca-3c1847838ec5" d="M439.35,165.1a4.8,4.8,0,0,1-4.79-4.79,1,1,0,1,1,2,0,2.79,2.79,0,1,0,5.59,0,1,1,0,0,1,2,0A4.8,4.8,0,0,1,439.35,165.1Z"/><path class="0262bd65-bd23-4c4e-87ca-3c1847838ec5" d="M431.76,165.1a4.8,4.8,0,0,1-4.79-4.79,1,1,0,0,1,2,0,2.79,2.79,0,0,0,5.59,0,1,1,0,1,1,2,0A4.8,4.8,0,0,1,431.76,165.1Z"/><path class="0262bd65-bd23-4c4e-87ca-3c1847838ec5" d="M424.18,165.1a4.8,4.8,0,0,1-4.79-4.79,1,1,0,0,1,2,0,2.79,2.79,0,1,0,5.59,0,1,1,0,0,1,2,0A4.8,4.8,0,0,1,424.18,165.1Z"/><path class="0262bd65-bd23-4c4e-87ca-3c1847838ec5" d="M416.7,165.1a4.8,4.8,0,0,1-4.79-4.79,1,1,0,0,1,2,0,2.79,2.79,0,0,0,5.59,0,1,1,0,0,1,2,0A4.8,4.8,0,0,1,416.7,165.1Z"/><path class="0262bd65-bd23-4c4e-87ca-3c1847838ec5" d="M409,165.1a4.8,4.8,0,0,1-4.79-4.79,1,1,0,0,1,2,0,2.79,2.79,0,0,0,5.59,0,1,1,0,1,1,2,0A4.8,4.8,0,0,1,409,165.1Z"/><path class="0262bd65-bd23-4c4e-87ca-3c1847838ec5" d="M401.53,165.1a4.8,4.8,0,0,1-4.79-4.79,1,1,0,1,1,2,0,2.79,2.79,0,0,0,5.59,0,1,1,0,0,1,2,0A4.8,4.8,0,0,1,401.53,165.1Z"/><path class="0262bd65-bd23-4c4e-87ca-3c1847838ec5" d="M376.81,165.11a4.8,4.8,0,0,1-4.79-4.79,1,1,0,0,1,2,0,2.79,2.79,0,0,0,5.59,0,1,1,0,0,1,2,0A4.8,4.8,0,0,1,376.81,165.11Z"/><path class="0262bd65-bd23-4c4e-87ca-3c1847838ec5" d="M369.33,165.1a4.8,4.8,0,0,1-4.79-4.79,1,1,0,0,1,2,0,2.79,2.79,0,1,0,5.59,0,1,1,0,0,1,2,0A4.8,4.8,0,0,1,369.33,165.1Z"/><path class="0262bd65-bd23-4c4e-87ca-3c1847838ec5" d="M361.74,165.1a4.8,4.8,0,0,1-4.79-4.79,1,1,0,0,1,2,0,2.79,2.79,0,0,0,5.59,0,1,1,0,0,1,2,0A4.8,4.8,0,0,1,361.74,165.1Z"/><path class="0262bd65-bd23-4c4e-87ca-3c1847838ec5" d="M222.1,65.4h-27.7a1,1,0,0,1-1-1.23L207.28,4.54a1,1,0,0,1,1.95,0l13.85,59.64A1,1,0,0,1,222.1,65.4Zm-26.44-2h25.18L208.25,9.19Z"/><path class="0262bd65-bd23-4c4e-87ca-3c1847838ec5" d="M192,85.49h-20.1a1,1,0,0,1-1-1.21l10-46.61a1,1,0,0,1,2,0l10,46.61A1,1,0,0,1,192,85.49Zm-18.86-2h17.62l-8.81-40.86Z"/><path class="0262bd65-bd23-4c4e-87ca-3c1847838ec5" d="M245.83,93.1H231.16a1,1,0,0,1-1-1.2l7.33-36.29a1,1,0,0,1,2,0l7.33,36.29A1,1,0,0,1,245.83,93.1Zm-13.44-2h12.22L238.5,60.85Z"/><path class="0262bd65-bd23-4c4e-87ca-3c1847838ec5" d="M217.38,92a1,1,0,0,1-1-1V65.44H200.13V90h3.14a1,1,0,0,1,0,2h-4.14a1,1,0,0,1-1-1V64.44a1,1,0,0,1,1-1h18.25a1,1,0,0,1,1,1V91A1,1,0,0,1,217.38,92Z"/><path class="0262bd65-bd23-4c4e-87ca-3c1847838ec5" d="M243.47,112.92h-10a1,1,0,0,1-1-1V92.1a1,1,0,0,1,1-1h10a1,1,0,0,1,1,1v19.82A1,1,0,0,1,243.47,112.92Zm-9-2h8V93.1h-8v17.82Z"/><path class="0262bd65-bd23-4c4e-87ca-3c1847838ec5" d="M174.32,120.19a1,1,0,0,1-1-1V84.61a1,1,0,0,1,1-1h15.19a1,1,0,0,1,1,1v22.5a1,1,0,0,1-.38.78L174.94,120A1,1,0,0,1,174.32,120.19Zm1-34.58v31.5l13.19-10.49v-21H175.32Z"/><path class="0262bd65-bd23-4c4e-87ca-3c1847838ec5" d="M219.74,100.25a1,1,0,0,1-1-1V92h-6.27v7.28a1,1,0,0,1-2,0V91a1,1,0,0,1,1-1h8.27a1,1,0,0,1,1,1v8.28A1,1,0,0,1,219.74,100.25Z"/><path class="0262bd65-bd23-4c4e-87ca-3c1847838ec5" d="M211.46,100.25h-8.19a1,1,0,0,1-1-1V91a1,1,0,0,1,2,0v7.28h6.19V91a1,1,0,0,1,2,0v8.28A1,1,0,0,1,211.46,100.25Z"/><path class="0262bd65-bd23-4c4e-87ca-3c1847838ec5" d="M211.47,100.25a1,1,0,0,1-1-1V91a1,1,0,0,1,1-1h0a1,1,0,0,1,1,1v8.28A1,1,0,0,1,211.47,100.25Z"/><path class="0262bd65-bd23-4c4e-87ca-3c1847838ec5" d="M203.19,100.25a1,1,0,0,1-1-1V92H196v7.28a1,1,0,0,1-2,0V91a1,1,0,0,1,1-1h8.2a1,1,0,0,1,1,1v8.28A1,1,0,0,1,203.19,100.25Z"/><path class="0262bd65-bd23-4c4e-87ca-3c1847838ec5" d="M203.27,100.25a1.07,1.07,0,0,1-1.08-1V91a1,1,0,0,1,1-1h0.08a1,1,0,0,1,1,1v8.28A1,1,0,0,1,203.27,100.25Z"/><path class="0262bd65-bd23-4c4e-87ca-3c1847838ec5" d="M194.92,100.25H189.6a1,1,0,0,1,0-2h4.32V91a1,1,0,1,1,2,0v8.28A1,1,0,0,1,194.92,100.25Z"/><path class="0262bd65-bd23-4c4e-87ca-3c1847838ec5" d="M228,100.25h-8.28a1,1,0,0,1-1-1V91a1,1,0,0,1,2,0v7.28H227V91a1,1,0,0,1,2,0v8.28A1,1,0,0,1,228,100.25Z"/><path class="0262bd65-bd23-4c4e-87ca-3c1847838ec5" d="M228,100.25a1,1,0,0,1-1-1V91a1,1,0,0,1,1-1h3.38a1,1,0,0,1,0,2H229v7.28A1,1,0,0,1,228,100.25Z"/><path class="0262bd65-bd23-4c4e-87ca-3c1847838ec5" d="M171,123a1,1,0,0,1-.63-1.78l32.17-25.94a1,1,0,0,1,1.26,1.56l-32.17,25.94A1,1,0,0,1,171,123Z"/><path class="0262bd65-bd23-4c4e-87ca-3c1847838ec5" d="M205.09,79.36a1,1,0,0,1-1-1v-9a1,1,0,1,1,2,0v9A1,1,0,0,1,205.09,79.36Z"/><path class="0262bd65-bd23-4c4e-87ca-3c1847838ec5" d="M179.37,99.76a1,1,0,0,1-1-1v-9a1,1,0,0,1,2,0v9A1,1,0,0,1,179.37,99.76Z"/><path class="0262bd65-bd23-4c4e-87ca-3c1847838ec5" d="M184.25,99.76a1,1,0,0,1-1-1v-9a1,1,0,1,1,2,0v9A1,1,0,0,1,184.25,99.76Z"/><path class="0262bd65-bd23-4c4e-87ca-3c1847838ec5" d="M216,142.11a1,1,0,0,1-1-1v-9a1,1,0,0,1,2,0v9A1,1,0,0,1,216,142.11Z"/><path class="0262bd65-bd23-4c4e-87ca-3c1847838ec5" d="M220.89,142.11a1,1,0,0,1-1-1v-9a1,1,0,0,1,2,0v9A1,1,0,0,1,220.89,142.11Z"/><path class="0262bd65-bd23-4c4e-87ca-3c1847838ec5" d="M244.78,142.11a1,1,0,0,1-1-1v-9a1,1,0,0,1,2,0v9A1,1,0,0,1,244.78,142.11Z"/><path class="0262bd65-bd23-4c4e-87ca-3c1847838ec5" d="M249.66,142.11a1,1,0,0,1-1-1v-9a1,1,0,0,1,2,0v9A1,1,0,0,1,249.66,142.11Z"/><path class="0262bd65-bd23-4c4e-87ca-3c1847838ec5" d="M211.46,79.36a1,1,0,0,1-1-1v-9a1,1,0,1,1,2,0v9A1,1,0,0,1,211.46,79.36Z"/><path class="0262bd65-bd23-4c4e-87ca-3c1847838ec5" d="M179.63,155.71a1,1,0,0,1-1-1V115a1,1,0,1,1,2,0v39.68A1,1,0,0,1,179.63,155.71Z"/><path class="0262bd65-bd23-4c4e-87ca-3c1847838ec5" d="M209.18,156.4a1,1,0,0,1-1-1V124.65a1,1,0,1,1,2,0V155.4A1,1,0,0,1,209.18,156.4Z"/><path class="0262bd65-bd23-4c4e-87ca-3c1847838ec5" d="M256.44,156.4a1,1,0,0,1-1-1V124.65a1,1,0,1,1,2,0V155.4A1,1,0,0,1,256.44,156.4Z"/><polygon class="b1d1eacf-b632-41a3-9ad3-6228a01bcd7c" points="256.44 124.65 209.3 124.65 200.07 111.92 247.21 111.92 256.44 124.65"/><path class="0262bd65-bd23-4c4e-87ca-3c1847838ec5" d="M256.44,125.65H209.3a1,1,0,0,1-.81-0.41l-9.23-12.74a1,1,0,0,1,.81-1.59h47.14a1,1,0,0,1,.81.41l9.23,12.74A1,1,0,0,1,256.44,125.65Zm-46.63-2h44.67l-7.78-10.74H202Z"/><path class="0262bd65-bd23-4c4e-87ca-3c1847838ec5" d="M245.23,125.57a1,1,0,0,1-.81-0.41l-9-12.32a1,1,0,0,1,1.62-1.18L246,124A1,1,0,0,1,245.23,125.57Z"/><path class="0262bd65-bd23-4c4e-87ca-3c1847838ec5" d="M232.79,125.65a1,1,0,0,1-.81-0.41l-9.23-12.74a1,1,0,0,1,1.62-1.17l9.23,12.74A1,1,0,0,1,232.79,125.65Z"/><path class="0262bd65-bd23-4c4e-87ca-3c1847838ec5" d="M220.61,125.65a1,1,0,0,1-.81-0.41l-9.23-12.74a1,1,0,0,1,1.62-1.17l9.23,12.74A1,1,0,0,1,220.61,125.65Z"/><path class="0262bd65-bd23-4c4e-87ca-3c1847838ec5" d="M190.58,155.71a1,1,0,0,1-1-1V124.65a1,1,0,0,1,.19-0.59L199,111.33a1,1,0,0,1,1.62,1.17l-9,12.47v29.74A1,1,0,0,1,190.58,155.71Z"/><path class="0262bd65-bd23-4c4e-87ca-3c1847838ec5" d="M201,160.27a1,1,0,0,1-.48-0.12l-7.28-4-8.87-1.42L174.54,158a1,1,0,0,1-.63-1.9l10-3.34a1,1,0,0,1,.47,0l9.28,1.49a1,1,0,0,1,.32.11l7,3.87,13.69-4.86a1,1,0,0,1,.58,0l5.76,1.49a1,1,0,0,1-.5,1.94l-5.46-1.41-13.82,4.91A1,1,0,0,1,201,160.27Z"/><path class="0262bd65-bd23-4c4e-87ca-3c1847838ec5" d="M251.47,159.35a1,1,0,0,1-.45-1.89l9-4.6a1,1,0,0,1,.67-0.08l4.31,1,3-1.83a1,1,0,0,1,1.29.21l3.71,4.46a1,1,0,0,1-1.54,1.28l-3.16-3.79-2.6,1.59a1,1,0,0,1-.74.12l-4.36-1-8.71,4.43A1,1,0,0,1,251.47,159.35Z"/><path class="c1869e49-a267-425d-8f8e-e2540ef9427e" d="M336.72,74.76a24.15,24.15,0,0,0-15.42-4.88,32.21,32.21,0,0,0-11.12,2.17,27.77,27.77,0,0,0,11,10.25L325.93,84a27.79,27.79,0,0,0,17.29-1.87A27.14,27.14,0,0,0,336.72,74.76Z"/><path class="0262bd65-bd23-4c4e-87ca-3c1847838ec5" d="M335.63,80.82a1,1,0,0,1-.28,0l-1-.28a1,1,0,1,1,.56-1.92l1,0.28A1,1,0,0,1,335.63,80.82ZM327,78.29a1,1,0,0,1-.28,0l-1-.28a1,1,0,1,1,.56-1.92l1,0.28A1,1,0,0,1,327,78.29Zm-8.64-2.53a1,1,0,0,1-.28,0l-1-.28a1,1,0,1,1,.56-1.92l1,0.28A1,1,0,0,1,318.35,75.76Z"/><path class="0262bd65-bd23-4c4e-87ca-3c1847838ec5" d="M331.64,85.68A25.53,25.53,0,0,1,325.7,85l-0.11,0-4.75-1.71-0.1,0A28.94,28.94,0,0,1,309.33,72.6a1,1,0,0,1,.44-1.46,33,33,0,0,1,11.5-2.26,1,1,0,0,1,1,1,1,1,0,0,1-1,1,32.31,32.31,0,0,0-9.6,1.67,26.39,26.39,0,0,0,9.86,8.83l4.64,1.67a26.82,26.82,0,0,0,15.53-1.35,25.76,25.76,0,0,0-5.64-6.15A1,1,0,1,1,337.33,74a28.29,28.29,0,0,1,6.75,7.65,1,1,0,0,1-.4,1.42A29,29,0,0,1,331.64,85.68Z"/><path class="0262bd65-bd23-4c4e-87ca-3c1847838ec5" d="M321.66,97.43a1,1,0,0,1-.92-0.6,18.81,18.81,0,0,1-1.3-6.56,17.56,17.56,0,0,1,1.82-7.77,1,1,0,0,1,1.74,1,15.52,15.52,0,0,0-1.56,6.82,17.26,17.26,0,0,0,.73,4.55,13.94,13.94,0,0,0,4.25-4.94l0.9-2.53a12.56,12.56,0,0,0,.32-2.63,1,1,0,0,1,1-1,1,1,0,0,1,1,1,14.45,14.45,0,0,1-.38,3.11l0,0.11-0.94,2.64,0,0.1a16.51,16.51,0,0,1-6,6.53A1,1,0,0,1,321.66,97.43Z"/><path class="0262bd65-bd23-4c4e-87ca-3c1847838ec5" d="M336.72,75.76a1,1,0,0,1-.61-0.21,23.08,23.08,0,0,0-14.8-4.67,1,1,0,0,1-.83-0.42,1,1,0,0,1-.13-0.92l0.88-2.46a9.08,9.08,0,0,1,17.1,6.13l-0.67,1.88A1,1,0,0,1,336.72,75.76Zm-14-6.87a24.77,24.77,0,0,1,13.52,4.27l0.22-.62a7.08,7.08,0,1,0-13.33-4.78Z"/><path class="0262bd65-bd23-4c4e-87ca-3c1847838ec5" d="M310.73,89.82a3.15,3.15,0,1,1,3.15-3.15A3.15,3.15,0,0,1,310.73,89.82Zm0-4.3a1.15,1.15,0,1,0,1.15,1.15A1.15,1.15,0,0,0,310.73,85.52Z"/><path class="0262bd65-bd23-4c4e-87ca-3c1847838ec5" d="M336.32,97.4a3.15,3.15,0,1,1,3.15-3.15A3.15,3.15,0,0,1,336.32,97.4Zm0-4.3a1.15,1.15,0,1,0,1.15,1.15A1.15,1.15,0,0,0,336.32,93.1Z"/><path class="0262bd65-bd23-4c4e-87ca-3c1847838ec5" d="M312.15,85.93a1,1,0,0,1-.7-1.72l4.78-4.62A1,1,0,0,1,317.62,81l-4.78,4.62A1,1,0,0,1,312.15,85.93Z"/><path class="0262bd65-bd23-4c4e-87ca-3c1847838ec5" d="M335.73,92.9a1,1,0,0,1-1-.79l-1.46-6.65a1,1,0,1,1,2-.43l1.46,6.65a1,1,0,0,1-.76,1.19Z"/><path class="0262bd65-bd23-4c4e-87ca-3c1847838ec5" d="M312,68.36a1,1,0,0,1-.47-1.88A12,12,0,0,1,317,65.37a1,1,0,1,1,0,2,10.13,10.13,0,0,0-4.56.88A1,1,0,0,1,312,68.36Z"/><path class="0262bd65-bd23-4c4e-87ca-3c1847838ec5" d="M338.37,88.54a1,1,0,0,1-.07-2,10.21,10.21,0,0,0,4.46-1.3,1,1,0,0,1,1.1,1.67,12,12,0,0,1-5.42,1.63h-0.07Z"/><path class="0262bd65-bd23-4c4e-87ca-3c1847838ec5" d="M319.51,65.78a1,1,0,0,1-.81-1.59l0.35-.48a1,1,0,0,1,1.62,1.17l-0.35.48A1,1,0,0,1,319.51,65.78Z"/><path class="11ded5ef-f891-4930-9f5f-2b5e78e89bef" d="M298.87,184.64a1,1,0,0,1-1-1.31,25.47,25.47,0,0,0,.92-3.73,1,1,0,1,1,2,.33,27.5,27.5,0,0,1-1,4A1,1,0,0,1,298.87,184.64Zm1.19-10.85a1,1,0,0,1-1-.91c-0.11-1.21-.29-2.47-0.55-3.86a1,1,0,1,1,2-.37c0.27,1.45.46,2.78,0.57,4.05a1,1,0,0,1-.91,1.08h-0.09ZM297.89,163a1,1,0,0,1-1-.74l-1-3.86a1,1,0,0,1,1.93-.52l1,3.86A1,1,0,0,1,297.89,163Zm-2.74-10.65a1,1,0,0,1-1-.78c-0.31-1.37-.58-2.67-0.82-4a1,1,0,1,1,2-.37c0.24,1.26.5,2.53,0.81,3.88a1,1,0,0,1-.75,1.2Zm-1.87-10.83a1,1,0,0,1-1-.89q-0.15-1.33-.27-2.73-0.06-.66-0.09-1.31a1,1,0,1,1,2-.11q0,0.62.09,1.25,0.12,1.37.27,2.68a1,1,0,0,1-.88,1.11h-0.11Zm-0.18-11H293a1,1,0,0,1-.88-1.1c0.15-1.35.36-2.71,0.64-4a1,1,0,0,1,2,.4c-0.26,1.27-.47,2.57-0.61,3.86A1,1,0,0,1,293.1,130.57Zm2.57-10.66a1,1,0,0,1-.94-1.35c0.47-1.25,1-2.52,1.6-3.76a1,1,0,0,1,1.81.86c-0.57,1.19-1.08,2.4-1.53,3.6A1,1,0,0,1,295.67,119.91Zm5-9.78a1,1,0,0,1-.83-1.55c0.74-1.12,1.53-2.24,2.36-3.32a1,1,0,0,1,1.59,1.22c-0.8,1-1.56,2.12-2.27,3.21A1,1,0,0,1,300.67,110.13Zm6.92-8.55a1,1,0,0,1-.71-1.7,37.07,37.07,0,0,1,3-2.8,1,1,0,1,1,1.24,1.57,35.55,35.55,0,0,0-2.86,2.63A1,1,0,0,1,307.59,101.59Z"/><path class="11ded5ef-f891-4930-9f5f-2b5e78e89bef" d="M106.82,188.1a1,1,0,0,1-.39-0.08c-1.18-.51-2.41-1-3.66-1.41a1,1,0,1,1,.65-1.89c1.3,0.44,2.58.94,3.81,1.46A1,1,0,0,1,106.82,188.1Zm-10.49-3.26-0.2,0c-1.28-.26-2.58-0.47-3.87-0.63a1,1,0,0,1,.25-2c1.34,0.17,2.69.39,4,.66A1,1,0,0,1,96.33,184.84ZM85.4,183.79h0a39.21,39.21,0,0,1-4.09-.25,1,1,0,1,1,.23-2,37.36,37.36,0,0,0,3.88.24A1,1,0,0,1,85.4,183.79Zm-10.82-1.72a1,1,0,0,1-.31,0,36.11,36.11,0,0,1-3.84-1.48,1,1,0,1,1,.83-1.82,34,34,0,0,0,3.62,1.4A1,1,0,0,1,74.58,182.07Zm-9.77-5a1,1,0,0,1-.59-0.2A23.1,23.1,0,0,1,61,174.16a1,1,0,0,1,1.48-1.34,21.61,21.61,0,0,0,2.88,2.48A1,1,0,0,1,64.81,177.1Z"/><path class="f1aeed5e-f845-4c75-892b-5cb03fb9cf9a" d="M18.58,120.77h0.73a4,4,0,0,0,2.93-1.26c1-.84,2.41-2,7.32-2a31.55,31.55,0,0,1,13.81,3.35,1.33,1.33,0,0,0,1.26,0,13.05,13.05,0,0,1,5.65-1,8.66,8.66,0,0,1,3,.63,4.67,4.67,0,0,0-2.93,4.39,1.14,1.14,0,0,0,.42.94c6.17,5.54,8.89,10.88,8.89,18a1.68,1.68,0,0,0,.52,1.15,11.45,11.45,0,0,1,3.35,5.23,11.61,11.61,0,0,0-3.87-.84,9.86,9.86,0,0,0-4.92,1.78c-0.42-2.2,2.09-5.54,3.14-6.69a1.27,1.27,0,0,0,.21-1.46c-3.35-6.59-8.79-8.79-14.33-11-1.88-.73-3.87-1.57-5.75-2.51a1.42,1.42,0,0,0,0-1.78,1.33,1.33,0,0,0-1.88-.1,10.26,10.26,0,0,0-3.35,5.65c-0.42,1.46-.52,1.57-0.84,1.57a3.73,3.73,0,0,1-.73-0.73,10.14,10.14,0,0,1-.84-8.58A1.33,1.33,0,1,0,28,124.33c-0.1.1-.1,0.31-0.21,0.42a33.75,33.75,0,0,0-3.56-1.57C22.13,122.23,20,121.4,18.58,120.77Z"/><path class="0262bd65-bd23-4c4e-87ca-3c1847838ec5" d="M29.56,117.53a31.55,31.55,0,0,1,13.81,3.35,1.33,1.33,0,0,0,1.26,0,13.05,13.05,0,0,1,5.65-1,8.66,8.66,0,0,1,3,.63,4.67,4.67,0,0,0-2.93,4.39,1.14,1.14,0,0,0,.42.94c6.17,5.54,8.89,10.88,8.89,18a1.68,1.68,0,0,0,.52,1.15,11.45,11.45,0,0,1,3.35,5.23,11.61,11.61,0,0,0-3.87-.84,9.86,9.86,0,0,0-4.92,1.78c-0.42-2.2,2.09-5.54,3.14-6.69a1.27,1.27,0,0,0,.21-1.46c-3.35-6.59-8.79-8.79-14.33-11-1.88-.73-3.87-1.57-5.75-2.51a1.42,1.42,0,0,0,0-1.78,1.5,1.5,0,0,0-1-.45,1.17,1.17,0,0,0-.84.34,10.26,10.26,0,0,0-3.35,5.65c-0.42,1.46-.52,1.57-0.84,1.57a3.73,3.73,0,0,1-.73-0.73,10.14,10.14,0,0,1-.84-8.58,1.35,1.35,0,0,0-.63-1.78,1.47,1.47,0,0,0-.58-0.12,1.33,1.33,0,0,0-1.2.75c-0.1.1-.1,0.31-0.21,0.42a33.75,33.75,0,0,0-3.56-1.57c-2.09-.94-4.18-1.78-5.65-2.41h0.73a4,4,0,0,0,2.93-1.26c1-.84,2.41-2,7.32-2m0-2c-5.11,0-7,1.18-8.52,2.39l0,0-0.05,0a2.13,2.13,0,0,1-1.63.77H18.58a2,2,0,0,0-.79,3.84l1.67,0.7c1.21,0.5,2.58,1.07,3.95,1.69l0.14,0.06a31.37,31.37,0,0,1,3.35,1.48,2,2,0,0,0,.89.21h0.16a12.42,12.42,0,0,0,1.65,8.46,3.94,3.94,0,0,0,1,1.05,2,2,0,0,0,1.36.54c1.9,0,2.36-1.6,2.76-3a9.16,9.16,0,0,1,1.52-3.41,2,2,0,0,0,.89.89c1.71,0.85,3.65,1.7,5.92,2.59,5.13,2,10,4,13,9.6-1,1.22-3.9,4.94-3.31,8.05a2,2,0,0,0,3,1.31,7.71,7.71,0,0,1,3.84-1.47,9.92,9.92,0,0,1,3.19.72,2,2,0,0,0,2.62-2.39,13.48,13.48,0,0,0-3.8-6.08c-0.05-7.43-2.85-13.16-9.3-19a2.65,2.65,0,0,1,1.76-2.27,2,2,0,0,0-.14-3.69,10.64,10.64,0,0,0-3.74-.75A15.81,15.81,0,0,0,44,119a33.25,33.25,0,0,0-14.44-3.43h0Z"/><path class="0262bd65-bd23-4c4e-87ca-3c1847838ec5" d="M16,133.23a31.55,31.55,0,0,1,13.81,3.35,1.33,1.33,0,0,0,1.26,0,13.05,13.05,0,0,1,5.65-1,8.66,8.66,0,0,1,3,.63,4.67,4.67,0,0,0-2.93,4.39,1.14,1.14,0,0,0,.42.94c6.17,5.54,8.89,10.88,8.89,18a1.68,1.68,0,0,0,.52,1.15,11.45,11.45,0,0,1,3.35,5.23,11.61,11.61,0,0,0-3.87-.84,9.86,9.86,0,0,0-4.92,1.78c-0.42-2.2,2.09-5.54,3.14-6.69a1.27,1.27,0,0,0,.21-1.46c-3.35-6.59-8.79-8.79-14.33-11-1.88-.73-3.87-1.57-5.75-2.51a1.42,1.42,0,0,0,0-1.78,1.5,1.5,0,0,0-1-.45,1.17,1.17,0,0,0-.84.34,10.26,10.26,0,0,0-3.35,5.65c-0.42,1.46-.52,1.57-0.84,1.57a3.73,3.73,0,0,1-.73-0.73,10.14,10.14,0,0,1-.84-8.58,1.35,1.35,0,0,0-.63-1.78,1.47,1.47,0,0,0-.58-0.12,1.33,1.33,0,0,0-1.2.75c-0.1.1-.1,0.31-0.21,0.42a33.75,33.75,0,0,0-3.56-1.57c-2.09-.94-4.18-1.78-5.65-2.41H5.7a4,4,0,0,0,2.93-1.26c1-.84,2.41-2,7.32-2m0-2c-5.11,0-7,1.18-8.52,2.39l0,0-0.05,0a2.13,2.13,0,0,1-1.63.77H5a2,2,0,0,0-.79,3.84L5.85,139c1.21,0.5,2.58,1.07,3.95,1.69l0.14,0.06a31.37,31.37,0,0,1,3.35,1.48,2,2,0,0,0,.89.21h0.16A12.42,12.42,0,0,0,16,150.9,3.94,3.94,0,0,0,17,152a2,2,0,0,0,1.36.54c1.9,0,2.36-1.6,2.76-3a9.16,9.16,0,0,1,1.52-3.41,2,2,0,0,0,.89.89c1.71,0.85,3.65,1.7,5.92,2.59,5.13,2,10,4,13.05,9.6-1,1.22-3.9,4.94-3.31,8.05a2,2,0,0,0,3,1.31A7.71,7.71,0,0,1,46.08,167a9.92,9.92,0,0,1,3.19.72,2,2,0,0,0,2.62-2.39,13.48,13.48,0,0,0-3.8-6.08c-0.05-7.44-2.84-13.16-9.3-19A2.65,2.65,0,0,1,40.54,138a2,2,0,0,0-.14-3.69,10.64,10.64,0,0,0-3.74-.75,15.81,15.81,0,0,0-6.27,1.13A33.25,33.25,0,0,0,16,131.23h0Z"/><path class="0262bd65-bd23-4c4e-87ca-3c1847838ec5" d="M79.53,164.94a4.12,4.12,0,0,1-4.12-4.12,1,1,0,0,1,2,0,2.12,2.12,0,0,0,4.23,0,1,1,0,0,1,2,0A4.12,4.12,0,0,1,79.53,164.94Z"/><path class="0262bd65-bd23-4c4e-87ca-3c1847838ec5" d="M73.38,164.92a4.12,4.12,0,0,1-4.12-4.12,1,1,0,0,1,2,0,2.12,2.12,0,0,0,4.23,0,1,1,0,0,1,2,0A4.12,4.12,0,0,1,73.38,164.92Z"/><path class="0262bd65-bd23-4c4e-87ca-3c1847838ec5" d="M67.15,164.92A4.12,4.12,0,0,1,63,160.81a1,1,0,0,1,2,0,2.12,2.12,0,0,0,4.23,0,1,1,0,0,1,2,0A4.12,4.12,0,0,1,67.15,164.92Z"/><path class="0262bd65-bd23-4c4e-87ca-3c1847838ec5" d="M60.91,164.92a4.12,4.12,0,0,1-4.12-4.12,1,1,0,0,1,2,0,2.12,2.12,0,0,0,4.23,0,1,1,0,0,1,2,0A4.12,4.12,0,0,1,60.91,164.92Z"/><path class="0262bd65-bd23-4c4e-87ca-3c1847838ec5" d="M67.94,147.25a1,1,0,0,1-.94-0.67,8.13,8.13,0,0,0-2.6-3.41,1,1,0,0,1,1.16-1.63,10.07,10.07,0,0,1,3.33,4.37A1,1,0,0,1,67.94,147.25Z"/><path class="0262bd65-bd23-4c4e-87ca-3c1847838ec5" d="M36.46,164.66H36.33a1,1,0,0,1-.86-1.12,10.07,10.07,0,0,1,2.31-5,1,1,0,1,1,1.47,1.35,8,8,0,0,0-1.8,3.89A1,1,0,0,1,36.46,164.66Z"/><path class="0262bd65-bd23-4c4e-87ca-3c1847838ec5" d="M21.39,137.8a1,1,0,0,1-.36-0.07,15.1,15.1,0,0,0-4.56-.84,1,1,0,0,1-1-1,1,1,0,0,1,1-1,16.86,16.86,0,0,1,5.24,1A1,1,0,0,1,21.39,137.8Z"/><path class="0262bd65-bd23-4c4e-87ca-3c1847838ec5" d="M36,122.21a1,1,0,0,1-.36-0.07,15.1,15.1,0,0,0-4.56-.84,1,1,0,0,1-1-1,1,1,0,0,1,1-1,16.86,16.86,0,0,1,5.24,1A1,1,0,0,1,36,122.21Z"/><path class="11ded5ef-f891-4930-9f5f-2b5e78e89bef" d="M262,184.06a1,1,0,0,1-.95-0.68,12.71,12.71,0,0,0-1.71-3.27,1,1,0,1,1,1.63-1.16,14.69,14.69,0,0,1,2,3.79A1,1,0,0,1,262,184.06Zm-6.89-8.34a1,1,0,0,1-.56-0.17,25.9,25.9,0,0,0-3.33-1.93,1,1,0,1,1,.87-1.8,27.92,27.92,0,0,1,3.59,2.07A1,1,0,0,1,255.12,175.72Zm-10.05-4.3a1,1,0,0,1-.26,0,24.22,24.22,0,0,1-3.92-1.4,1,1,0,0,1,.84-1.82,22.22,22.22,0,0,0,3.6,1.29A1,1,0,0,1,245.06,171.42Zm-9.48-5.32a1,1,0,0,1-.71-0.3,14,14,0,0,1-2.58-3.47,1,1,0,0,1,1.81-.85,12.33,12.33,0,0,0,2.2,2.92A1,1,0,0,1,235.58,166.1Z"/></svg>