<?xml version="1.0" encoding="UTF-8" standalone="no"?>
<svg width="14px" height="19px" viewBox="0 0 14 19" version="1.1" xmlns="http://www.w3.org/2000/svg" xmlns:xlink="http://www.w3.org/1999/xlink">
    <!-- Generator: Sketch 3.6.1 (26313) - http://www.bohemiancoding.com/sketch -->
    <title>trash</title>
    <desc>Created with Sketch.</desc>
    <defs></defs>
    <g id="Page-1" stroke="none" stroke-width="1" fill="none" fill-rule="evenodd">
        <g id="trash" transform="translate(-5.000000, -2.000000)">
            <g transform="translate(5.000000, 2.000000)" id="Shape" fill="#FFFFFF">
                <path d="M1.187,6 L12.812,6 L12.117,17.125 C12.051,18.179 11.177,19 10.121,19 L3.879,19 C2.823,19 1.949,18.179 1.883,17.125 L1.187,6 L1.187,6 Z M14,3 L14,5 L0,5 L0,3 L3,3 L3,2 C3,0.895 3.895,0 5,0 L9,0 C10.105,0 11,0.895 11,2 L11,3 L14,3 L14,3 Z M5,3 L9,3 L9,2 L5,2 L5,3 L5,3 Z"></path>
            </g>
            <g id="Layer_1"></g>
        </g>
    </g>
</svg>
