<svg id="9161d376-0f36-4a61-9a74-482509f4aa60" data-name="Layer 2" xmlns="http://www.w3.org/2000/svg" viewBox="0 0 777 234"><defs><style>.\31 1f8bc58-f0fc-4a8c-a2a0-29457e820a2d,.\31 65adf16-e114-4e14-b1cd-479cf189568c,.\34 970b69e-b270-4c6d-bcab-b7eb552e13ec,.\34 a2c8344-9979-4d3b-be29-9c259db084b2,.\35 42407dd-f4d4-4cb8-b442-4fa8225e87f5,.d150b657-ef19-43ad-87a4-42c6c2263ae7{fill:none;}.\31 65adf16-e114-4e14-b1cd-479cf189568c,.\34 970b69e-b270-4c6d-bcab-b7eb552e13ec,.\34 a2c8344-9979-4d3b-be29-9c259db084b2,.\35 42407dd-f4d4-4cb8-b442-4fa8225e87f5,.cfe39d87-f2e5-46d6-af45-59925ca339f9,.d150b657-ef19-43ad-87a4-42c6c2263ae7{stroke:#fff;stroke-width:2px;}.\31 65adf16-e114-4e14-b1cd-479cf189568c,.\34 970b69e-b270-4c6d-bcab-b7eb552e13ec,.\34 a2c8344-9979-4d3b-be29-9c259db084b2,.\35 42407dd-f4d4-4cb8-b442-4fa8225e87f5,.cfe39d87-f2e5-46d6-af45-59925ca339f9{stroke-linecap:round;}.\34 970b69e-b270-4c6d-bcab-b7eb552e13ec,.\34 a2c8344-9979-4d3b-be29-9c259db084b2,.\35 42407dd-f4d4-4cb8-b442-4fa8225e87f5,.cfe39d87-f2e5-46d6-af45-59925ca339f9{stroke-linejoin:round;}.\35 42407dd-f4d4-4cb8-b442-4fa8225e87f5{stroke-dasharray:8 10;}.\38 6559152-7841-464e-835f-b1578d2edeb0{fill:#f8ce5f;}.\31 65adf16-e114-4e14-b1cd-479cf189568c,.d150b657-ef19-43ad-87a4-42c6c2263ae7{stroke-miterlimit:10;}.a84e2c5d-fb60-428e-acf2-cc060326bf75{fill:#c93f2f;}.\32 3b415df-9a80-40ef-9213-a7b5b79f4361{fill:#29b78a;}.\30 a9df8c0-8be1-4c33-b782-90f87a3a926c{fill:#4ca9df;}.\34 a2c8344-9979-4d3b-be29-9c259db084b2{stroke-dasharray:1 9;}.cfe39d87-f2e5-46d6-af45-59925ca339f9{fill:#866baf;}</style></defs><title>whats-your-story</title><path class="542407dd-f4d4-4cb8-b442-4fa8225e87f5" d="M213,110.58s-23.88,5.57-35,23.5c-22,35.48,20,77.52,59.5,44,30.17-25.59,80-16.5,76.5,28"/><circle class="86559152-7841-464e-835f-b1578d2edeb0" cx="234.07" cy="76.17" r="15.35"/><path class="165adf16-e114-4e14-b1cd-479cf189568c" d="M241.23,98.15v8.5a7.25,7.25,0,0,1-7.23,7.23h0a7.25,7.25,0,0,1-7.23-7.23V98.33a10,10,0,0,0-2.1-6A18.87,18.87,0,1,1,245.38,91C241,94.23,241.23,98.15,241.23,98.15Z"/><path class="4970b69e-b270-4c6d-bcab-b7eb552e13ec" d="M221.92,77.85s4.09-1,4.91-6.71c0,0,7.2,14.07,12.76,0a6.93,6.93,0,0,0,6.71,5.72"/><line class="4970b69e-b270-4c6d-bcab-b7eb552e13ec" x1="234.12" y1="41.83" x2="234.08" y2="51.03"/><line class="4970b69e-b270-4c6d-bcab-b7eb552e13ec" x1="216.16" y1="46.94" x2="220.98" y2="54.77"/><line class="4970b69e-b270-4c6d-bcab-b7eb552e13ec" x1="204.5" y1="59.04" x2="212.48" y2="63.62"/><line class="4970b69e-b270-4c6d-bcab-b7eb552e13ec" x1="255.73" y1="88.16" x2="263.71" y2="92.74"/><line class="4970b69e-b270-4c6d-bcab-b7eb552e13ec" x1="251.74" y1="46.75" x2="246.95" y2="54.6"/><line class="4970b69e-b270-4c6d-bcab-b7eb552e13ec" x1="263.04" y1="57.93" x2="255.21" y2="62.75"/><line class="4970b69e-b270-4c6d-bcab-b7eb552e13ec" x1="212.99" y1="89.03" x2="205.16" y2="93.85"/><line class="4970b69e-b270-4c6d-bcab-b7eb552e13ec" x1="268.16" y1="75.22" x2="258.96" y2="75.37"/><line class="4970b69e-b270-4c6d-bcab-b7eb552e13ec" x1="209.24" y1="76.41" x2="200.05" y2="76.56"/><line class="165adf16-e114-4e14-b1cd-479cf189568c" x1="227.11" y1="98.5" x2="241.16" y2="98.5"/><line class="165adf16-e114-4e14-b1cd-479cf189568c" x1="227.11" y1="102.42" x2="241.16" y2="102.42"/><line class="165adf16-e114-4e14-b1cd-479cf189568c" x1="227.11" y1="106.35" x2="241.16" y2="106.35"/><path class="542407dd-f4d4-4cb8-b442-4fa8225e87f5" d="M399.13,184.05c-10,26,14.5,36.5,14.5,36.5"/><path class="542407dd-f4d4-4cb8-b442-4fa8225e87f5" d="M56.43,171.75s3.07,9.26,26.28,12.68,57.56-7.73,83.89,25.14"/><path class="542407dd-f4d4-4cb8-b442-4fa8225e87f5" d="M625,210.06s17-27,67-15,72-18,54-53"/><path class="a84e2c5d-fb60-428e-acf2-cc060326bf75" d="M397.59,112.55h11.89c2.49,3.74,3.73,10.15,3.73,17.45,0,7.1-1.17,13.35-3.53,17.13h-40c2.36-3.78,3.53-10,3.53-17.13,0-7.29-1.24-13.71-3.73-17.45h28.14"/><path class="4970b69e-b270-4c6d-bcab-b7eb552e13ec" d="M389.54,112.66c2.44,3.76,3.64,10.12,3.64,17.33,0,6.63-1.12,12.82-3.17,16.65"/><path class="4970b69e-b270-4c6d-bcab-b7eb552e13ec" d="M399.55,112.66c2.44,3.76,3.64,10.12,3.64,17.33,0,6.63-1.12,12.82-3.17,16.65"/><path class="d150b657-ef19-43ad-87a4-42c6c2263ae7" d="M409.67,147.13H397.34"/><path class="4970b69e-b270-4c6d-bcab-b7eb552e13ec" d="M397.59,112.55H369.44c2.49,3.74,3.73,10.15,3.73,17.45,0,7.1-1.17,13.35-3.53,17.13h27.7"/><path class="4970b69e-b270-4c6d-bcab-b7eb552e13ec" d="M409.47,112.55c2.49,3.74,3.73,10.15,3.73,17.45,0,7.1-1.17,13.35-3.53,17.13"/><path class="d150b657-ef19-43ad-87a4-42c6c2263ae7" d="M409.67,147.13c2.36-3.78,3.53-10,3.53-17.13,0-7.29-1.24-13.71-3.73-17.45H397.59"/><path class="d150b657-ef19-43ad-87a4-42c6c2263ae7" d="M369.64,147.13c2.36-3.78,3.53-10,3.53-17.13,0-7.29-1.24-13.71-3.73-17.45"/><polyline class="4970b69e-b270-4c6d-bcab-b7eb552e13ec" points="389.5 100.31 379.75 103.31 388.92 107.31"/><line class="4970b69e-b270-4c6d-bcab-b7eb552e13ec" x1="389.58" y1="112.15" x2="389.58" y2="100.31"/><line class="4970b69e-b270-4c6d-bcab-b7eb552e13ec" x1="389.58" y1="147.4" x2="389.58" y2="158.65"/><circle class="4970b69e-b270-4c6d-bcab-b7eb552e13ec" cx="384.5" cy="157.98" r="4.92"/><circle class="4970b69e-b270-4c6d-bcab-b7eb552e13ec" cx="374.58" cy="157.98" r="4.92"/><circle class="4970b69e-b270-4c6d-bcab-b7eb552e13ec" cx="394.58" cy="157.98" r="4.92"/><circle class="4970b69e-b270-4c6d-bcab-b7eb552e13ec" cx="404.42" cy="157.98" r="4.92"/><path class="4970b69e-b270-4c6d-bcab-b7eb552e13ec" d="M379.53,112.66c2.44,3.76,3.64,10.12,3.64,17.33,0,6.63-1.12,12.82-3.17,16.65"/><path class="11f8bc58-f0fc-4a8c-a2a0-29457e820a2d" d="M407.24,125.56a17.8,17.8,0,0,1,12.56,5.2V118.55a9,9,0,0,0-9-9H368.11a9,9,0,0,0-9,9v12.21a17.8,17.8,0,0,1,12.56-5.2h35.57Z"/><path class="4970b69e-b270-4c6d-bcab-b7eb552e13ec" d="M419.81,150.4V139.81l5.24,2.72"/><path class="4970b69e-b270-4c6d-bcab-b7eb552e13ec" d="M353.81,150.4v6.31a17.91,17.91,0,0,0,17.86,17.86h35.57a17.91,17.91,0,0,0,17.86-17.86V150.4"/><polyline class="4970b69e-b270-4c6d-bcab-b7eb552e13ec" points="353.81 145.81 359.08 145.81 359.08 150.4"/><path class="4970b69e-b270-4c6d-bcab-b7eb552e13ec" d="M359.11,149.55c0,5,5.05,9,10,9-5,0-10-4-10-9"/><path class="4970b69e-b270-4c6d-bcab-b7eb552e13ec" d="M419.8,149.55c0,5-5.05,9-10,9,4.95,0,10-4,10-9"/><polyline class="4970b69e-b270-4c6d-bcab-b7eb552e13ec" points="353.81 145.81 347.5 145.81 347.5 150.4 353.81 150.4"/><path class="4970b69e-b270-4c6d-bcab-b7eb552e13ec" d="M425.1,150.4h6.29v-4.58l-6.34-3.29"/><polyline class="4970b69e-b270-4c6d-bcab-b7eb552e13ec" points="422.42 146.06 415.83 146.06 415.83 141.81"/><line class="4970b69e-b270-4c6d-bcab-b7eb552e13ec" x1="357.42" y1="167.4" x2="364.08" y2="167.4"/><line class="4970b69e-b270-4c6d-bcab-b7eb552e13ec" x1="404.17" y1="167.4" x2="412.83" y2="167.4"/><line class="4970b69e-b270-4c6d-bcab-b7eb552e13ec" x1="415.18" y1="161.39" x2="423.84" y2="161.39"/><line class="4970b69e-b270-4c6d-bcab-b7eb552e13ec" x1="369.92" y1="167.4" x2="373.58" y2="167.4"/><path class="4970b69e-b270-4c6d-bcab-b7eb552e13ec" d="M347,179.34a3.73,3.73,0,0,1-7.45,0"/><path class="4970b69e-b270-4c6d-bcab-b7eb552e13ec" d="M354.38,179.33a3.73,3.73,0,0,1-7.45,0"/><path class="4970b69e-b270-4c6d-bcab-b7eb552e13ec" d="M361.83,179.33a3.73,3.73,0,0,1-7.45,0"/><path class="4970b69e-b270-4c6d-bcab-b7eb552e13ec" d="M369.29,179.33a3.73,3.73,0,0,1-7.45,0"/><path class="4970b69e-b270-4c6d-bcab-b7eb552e13ec" d="M376.63,179.33a3.73,3.73,0,0,1-7.45,0"/><path class="4970b69e-b270-4c6d-bcab-b7eb552e13ec" d="M384.19,179.33a3.73,3.73,0,0,1-7.45,0"/><path class="4970b69e-b270-4c6d-bcab-b7eb552e13ec" d="M391.54,179.33a3.73,3.73,0,0,1-7.45,0"/><path class="4970b69e-b270-4c6d-bcab-b7eb552e13ec" d="M415.82,179.34a3.73,3.73,0,0,1-7.45,0"/><path class="4970b69e-b270-4c6d-bcab-b7eb552e13ec" d="M423.16,179.33a3.73,3.73,0,0,1-7.45,0"/><path class="4970b69e-b270-4c6d-bcab-b7eb552e13ec" d="M430.62,179.33a3.73,3.73,0,0,1-7.45,0"/><path class="23b415df-9a80-40ef-9213-a7b5b79f4361" d="M20.83,153.78c-3.81-9.9-3.92-19.06-.25-20.47a19.2,19.2,0,0,0-11,24.81c3.81,9.9,22,20.42,27.6,18.29C35.1,177.2,24.64,163.67,20.83,153.78Z"/><path class="23b415df-9a80-40ef-9213-a7b5b79f4361" d="M45.39,144.33a19.2,19.2,0,0,0-24.81-11c3.67-1.41,9.73,5.47,13.54,15.36s5.64,26.74,3,27.74C44.18,173.7,49.2,154.23,45.39,144.33Z"/><rect class="4970b69e-b270-4c6d-bcab-b7eb552e13ec" x="34.29" y="184.59" width="17.67" height="13.1" transform="translate(-65.76 28.23) rotate(-21.04)"/><polygon class="4970b69e-b270-4c6d-bcab-b7eb552e13ec" points="40.75 175.1 34.13 177.65 35.04 187.23 46.5 182.83 40.75 175.1"/><path class="4970b69e-b270-4c6d-bcab-b7eb552e13ec" d="M45.39,144.33c3.81,9.9-1.21,29.37-8.23,32.07-5.56,2.14-23.8-8.39-27.6-18.29A19.2,19.2,0,0,1,45.39,144.33Z"/><path class="4970b69e-b270-4c6d-bcab-b7eb552e13ec" d="M34.12,148.67c3.81,9.9,5.64,26.74,3,27.74-2.06.79-12.52-12.73-16.33-22.62s-3.92-19.06-.25-20.47S30.31,138.77,34.12,148.67Z"/><line class="4970b69e-b270-4c6d-bcab-b7eb552e13ec" x1="50.5" y1="134.41" x2="64.33" y2="134.41"/><line class="4970b69e-b270-4c6d-bcab-b7eb552e13ec" x1="59.51" y1="142.42" x2="73.34" y2="142.42"/><line class="4970b69e-b270-4c6d-bcab-b7eb552e13ec" x1="53.5" y1="148.42" x2="67.34" y2="148.42"/><path class="0a9df8c0-8be1-4c33-b782-90f87a3a926c" d="M758.07,104.87a39.1,39.1,0,0,0-25-7.89,52.14,52.14,0,0,0-18,3.52c5.45,8.41,11.64,13.57,17.82,16.6l7.69,2.76c14.94,3.56,28-3,28-3A43.93,43.93,0,0,0,758.07,104.87Z"/><line class="4a2c8344-9979-4d3b-be29-9c259db084b2" x1="726.78" y1="104.42" x2="757.65" y2="113.45"/><path class="4970b69e-b270-4c6d-bcab-b7eb552e13ec" d="M733.1,97a52.14,52.14,0,0,0-18,3.52c5.45,8.41,11.64,13.57,17.82,16.6l7.69,2.76c14.94,3.56,28-3,28-3a43.92,43.92,0,0,0-10.53-12"/><path class="4970b69e-b270-4c6d-bcab-b7eb552e13ec" d="M734.45,118.19c-1.11,2-2.43,5.58-2.73,11.76a29,29,0,0,0,2,10,25,25,0,0,0,9.2-9.92l1.53-4.27a21.85,21.85,0,0,0,.58-4.69"/><path class="4970b69e-b270-4c6d-bcab-b7eb552e13ec" d="M758.07,104.87l1.09-3A13.08,13.08,0,0,0,734.53,93l-1.42,4A39.1,39.1,0,0,1,758.07,104.87Z"/><circle class="4970b69e-b270-4c6d-bcab-b7eb552e13ec" cx="716" cy="124.15" r="3.48"/><circle class="4970b69e-b270-4c6d-bcab-b7eb552e13ec" cx="757.42" cy="136.42" r="3.48"/><line class="4970b69e-b270-4c6d-bcab-b7eb552e13ec" x1="718.29" y1="121.33" x2="726.03" y2="113.85"/><line class="4970b69e-b270-4c6d-bcab-b7eb552e13ec" x1="756.47" y1="132.61" x2="754.11" y2="121.85"/><path class="4970b69e-b270-4c6d-bcab-b7eb552e13ec" d="M718,92.89a17.82,17.82,0,0,1,8.18-1.61"/><path class="4970b69e-b270-4c6d-bcab-b7eb552e13ec" d="M768.73,123.19a17.82,17.82,0,0,1-8,2.37"/><path class="4970b69e-b270-4c6d-bcab-b7eb552e13ec" d="M730.22,88.72l0.56-.78"/><polygon class="4970b69e-b270-4c6d-bcab-b7eb552e13ec" points="568.95 63.26 581.38 9.73 593.81 63.26 568.95 63.26"/><polygon class="4970b69e-b270-4c6d-bcab-b7eb552e13ec" points="548.72 81.29 557.74 39.45 566.76 81.29 548.72 81.29"/><polygon class="4970b69e-b270-4c6d-bcab-b7eb552e13ec" points="601.94 88.11 608.52 55.54 615.1 88.11 601.94 88.11"/><polyline class="4970b69e-b270-4c6d-bcab-b7eb552e13ec" points="576.9 87.1 573.19 87.1 573.19 63.28 589.57 63.28 589.57 87.1"/><rect class="4970b69e-b270-4c6d-bcab-b7eb552e13ec" x="604.06" y="88.11" width="8.93" height="17.79"/><polygon class="4970b69e-b270-4c6d-bcab-b7eb552e13ec" points="550.92 112.43 550.92 81.39 564.56 81.39 564.56 101.59 550.92 112.43"/><polyline class="4970b69e-b270-4c6d-bcab-b7eb552e13ec" points="591.68 94.53 591.68 87.1 584.26 87.1 584.26 94.53"/><polyline class="4970b69e-b270-4c6d-bcab-b7eb552e13ec" points="576.9 87.1 576.9 94.53 584.25 94.53 584.25 87.1"/><rect class="4970b69e-b270-4c6d-bcab-b7eb552e13ec" x="584.25" y="87.1" width="0.01" height="7.43"/><polyline class="4970b69e-b270-4c6d-bcab-b7eb552e13ec" points="576.83 94.53 576.83 87.1 569.47 87.1 569.47 94.53"/><rect class="4970b69e-b270-4c6d-bcab-b7eb552e13ec" x="576.83" y="87.1" width="0.07" height="7.43"/><polyline class="4970b69e-b270-4c6d-bcab-b7eb552e13ec" points="564.64 94.53 569.41 94.53 569.41 87.11"/><polyline class="4970b69e-b270-4c6d-bcab-b7eb552e13ec" points="591.68 87.1 591.68 94.53 599.11 94.53 599.11 87.1"/><polyline class="4970b69e-b270-4c6d-bcab-b7eb552e13ec" points="602.14 87.1 599.11 87.1 599.11 94.53"/><line class="4970b69e-b270-4c6d-bcab-b7eb552e13ec" x1="576.77" y1="91.7" x2="547.9" y2="114.98"/><line class="4970b69e-b270-4c6d-bcab-b7eb552e13ec" x1="578.54" y1="67.75" x2="578.54" y2="75.78"/><line class="4970b69e-b270-4c6d-bcab-b7eb552e13ec" x1="555.45" y1="86.06" x2="555.45" y2="94.09"/><line class="4970b69e-b270-4c6d-bcab-b7eb552e13ec" x1="559.84" y1="86.06" x2="559.84" y2="94.09"/><line class="4970b69e-b270-4c6d-bcab-b7eb552e13ec" x1="588.33" y1="124.07" x2="588.33" y2="132.11"/><line class="4970b69e-b270-4c6d-bcab-b7eb552e13ec" x1="592.72" y1="124.07" x2="592.72" y2="132.11"/><line class="4970b69e-b270-4c6d-bcab-b7eb552e13ec" x1="614.16" y1="124.07" x2="614.16" y2="132.11"/><line class="4970b69e-b270-4c6d-bcab-b7eb552e13ec" x1="618.54" y1="124.07" x2="618.54" y2="132.11"/><line class="4970b69e-b270-4c6d-bcab-b7eb552e13ec" x1="584.25" y1="67.75" x2="584.25" y2="75.78"/><line class="4970b69e-b270-4c6d-bcab-b7eb552e13ec" x1="555.69" y1="108.7" x2="555.69" y2="144.31"/><line class="4970b69e-b270-4c6d-bcab-b7eb552e13ec" x1="582.21" y1="117.33" x2="582.21" y2="144.93"/><line class="4970b69e-b270-4c6d-bcab-b7eb552e13ec" x1="624.63" y1="117.33" x2="624.63" y2="144.93"/><polygon class="cfe39d87-f2e5-46d6-af45-59925ca339f9" points="624.63 117.33 582.32 117.33 574.03 105.9 616.34 105.9 624.63 117.33"/><line class="4970b69e-b270-4c6d-bcab-b7eb552e13ec" x1="614.57" y1="117.26" x2="606.52" y2="106.2"/><line class="4970b69e-b270-4c6d-bcab-b7eb552e13ec" x1="603.4" y1="117.33" x2="595.12" y2="105.9"/><line class="4970b69e-b270-4c6d-bcab-b7eb552e13ec" x1="592.47" y1="117.33" x2="584.19" y2="105.9"/><polyline class="4970b69e-b270-4c6d-bcab-b7eb552e13ec" points="573.79 105.9 565.51 117.33 565.51 144.31"/><polyline class="4970b69e-b270-4c6d-bcab-b7eb552e13ec" points="550.83 146.41 559.83 143.41 568.17 144.74 574.83 148.41 587.5 143.91 592.67 145.24"/><polyline class="4970b69e-b270-4c6d-bcab-b7eb552e13ec" points="620.17 147.57 628.27 143.45 632.5 144.41 635.5 142.57 638.83 146.57"/><path class="542407dd-f4d4-4cb8-b442-4fa8225e87f5" d="M562.24,157.17a36.45,36.45,0,0,0-5.76,1c-5.9,1.44-14.47,5-16.43,13.44-3,13.21,8.3,20.49,15.41,21.68s28.79,20.83-23.71,37.08"/></svg>