<svg id="d2416dfd-60bc-486b-9ca9-d0118ca3a03b" data-name="Layer 1" xmlns="http://www.w3.org/2000/svg" viewBox="0 0 128.57 152.14"><defs><style>.c0f2a3d0-a9f5-4a83-bbb6-eea784a393ac{fill:#f26e6f;}.\31 2541402-fb7f-452c-8048-893fb46e0166,.bbb73afd-e123-4a75-a812-73a9d75cdc91{fill:#374655;}.\31 2541402-fb7f-452c-8048-893fb46e0166,.ec743676-bcfb-4e08-994e-5a66c5a0ea97{opacity:0.1;}.\39 f5004ca-b127-4cc3-9e19-ffbea80172fb{fill:#fff;}.\35 a4bff27-6c1d-4fab-99a7-dd13c00254f9,.\39 f5004ca-b127-4cc3-9e19-ffbea80172fb,.b787e815-d5b1-4311-bef6-be6b21c86c84{stroke:#374655;stroke-linecap:round;stroke-width:2px;}.\35 a4bff27-6c1d-4fab-99a7-dd13c00254f9,.\39 f5004ca-b127-4cc3-9e19-ffbea80172fb{stroke-linejoin:round;}.\35 a4bff27-6c1d-4fab-99a7-dd13c00254f9,.b787e815-d5b1-4311-bef6-be6b21c86c84{fill:none;}.b787e815-d5b1-4311-bef6-be6b21c86c84{stroke-miterlimit:10;}</style></defs><title>404</title><path class="c0f2a3d0-a9f5-4a83-bbb6-eea784a393ac" d="M100.22,65.56s19.23,20,26,45c-4.54,2.84-7.67,4.53-7.67,4.53a107.72,107.72,0,0,0-17.88-29.93C87.93,69.85,100.22,65.56,100.22,65.56Z" transform="translate(-1.55 -1.23)"/><path class="12541402-fb7f-452c-8048-893fb46e0166" d="M107.78,81.42a154.85,154.85,0,0,1-7.57-15.87s-12.28,4.29.5,19.62a107.72,107.72,0,0,1,17.88,29.93A83.89,83.89,0,0,0,107.78,81.42Z" transform="translate(-1.55 -1.23)"/><path class="c0f2a3d0-a9f5-4a83-bbb6-eea784a393ac" d="M117.42,112.18s-2.26,6.08-.66,6.74,4.05-5.09,4.05-5.09l-2.08-3Z" transform="translate(-1.55 -1.23)"/><path class="c0f2a3d0-a9f5-4a83-bbb6-eea784a393ac" d="M118.44,111.52s2.06,12.81,4.25,12.1S121,111.37,121,111.37Z" transform="translate(-1.55 -1.23)"/><path class="c0f2a3d0-a9f5-4a83-bbb6-eea784a393ac" d="M120.19,111.23s3.9,12.42,6.18,11.23S123,110.53,123,110.53Z" transform="translate(-1.55 -1.23)"/><path class="c0f2a3d0-a9f5-4a83-bbb6-eea784a393ac" d="M121.94,109s6,13.35,7.8,12.39-3.65-11.33-3.65-11.33Z" transform="translate(-1.55 -1.23)"/><path class="c0f2a3d0-a9f5-4a83-bbb6-eea784a393ac" d="M70.73,67.07c-11.4,7.88-42.28-19.73-18.49-30.44C48.14,31.06,48,29,47.41,27c-18,5.35-25.24,46.56,21.8,52.24C78.18,75.4,72.73,69.53,70.73,67.07Z" transform="translate(-1.55 -1.23)"/><g class="ec743676-bcfb-4e08-994e-5a66c5a0ea97"><path class="bbb73afd-e123-4a75-a812-73a9d75cdc91" d="M49.11,36.48C31.36,47,49.71,68.82,61.81,70.29c1.39,0.17,7.09.79,7.09,0.79a26.62,26.62,0,0,0-.65-2.9C55.5,71.38,30,46.64,52.24,36.63,50.85,36,50.1,36.57,49.11,36.48Z" transform="translate(-1.55 -1.23)"/></g><path class="c0f2a3d0-a9f5-4a83-bbb6-eea784a393ac" d="M52.24,36.63s6.38,1.51,6.85-.45-6.56-3.75-6.56-3.75l-3.12,2.93Z" transform="translate(-1.55 -1.23)"/><path class="c0f2a3d0-a9f5-4a83-bbb6-eea784a393ac" d="M50.31,35.56s14.33-4.65,13.13-7-13.76,4.12-13.76,4.12Z" transform="translate(-1.55 -1.23)"/><path class="c0f2a3d0-a9f5-4a83-bbb6-eea784a393ac" d="M49.83,34.24s9.62-5.44,7.57-7.62S47.52,31,47.52,31Z" transform="translate(-1.55 -1.23)"/><path class="c0f2a3d0-a9f5-4a83-bbb6-eea784a393ac" d="M46.84,32s10.44-6.42,9-8.36-11.41,4.65-11.41,4.65Z" transform="translate(-1.55 -1.23)"/><path class="c0f2a3d0-a9f5-4a83-bbb6-eea784a393ac" d="M99.55,117.44s2.08,12.61-6.38,28.14a9.81,9.81,0,0,1,7,6.09A1.24,1.24,0,0,1,99,153.37H82.26a1.23,1.23,0,0,1-1.12-1.76c2.52-5.42,9.73-22.32,8.16-35.1Z" transform="translate(-1.55 -1.23)"/><path class="12541402-fb7f-452c-8048-893fb46e0166" d="M89.49,119.92a30.92,30.92,0,0,0-.2-3.4l10.26,0.93a22,22,0,0,1,.2,2.46C96.12,120.85,91.51,120.26,89.49,119.92Z" transform="translate(-1.55 -1.23)"/><path class="c0f2a3d0-a9f5-4a83-bbb6-eea784a393ac" d="M76.83,116s0,12.35-12.66,24.7c3.73,3.69,3,7.29,3.13,9.62a1.24,1.24,0,0,1-1.6,1.28l-11.9-9.26a1.23,1.23,0,0,1-.55-2c4-4.44,14.65-13.11,13.33-23.82Z" transform="translate(-1.55 -1.23)"/><path class="12541402-fb7f-452c-8048-893fb46e0166" d="M66.59,120a44.71,44.71,0,0,0,9.65.22,21.55,21.55,0,0,0,.59-4.21l-10.26.51A15.1,15.1,0,0,1,66.59,120Z" transform="translate(-1.55 -1.23)"/><path class="c0f2a3d0-a9f5-4a83-bbb6-eea784a393ac" d="M109.13,116.49c0.37-7.26.49-33.58-14.05-62.6L102.23,48a1.23,1.23,0,0,0,.16-1.75c-3.84-4.52-27.65-25.11-34.67-19.34s8.64,49.74-8.59,85.5a3,3,0,0,0,2.59,4.25l45.34,1.7A2,2,0,0,0,109.13,116.49Z" transform="translate(-1.55 -1.23)"/><path class="12541402-fb7f-452c-8048-893fb46e0166" d="M67.72,113.69a3,3,0,0,1-2.59-4.25c15.83-32.86,4-72.74,7.34-83.37a5.84,5.84,0,0,0-4.75.87c-6.88,5.65,8.64,49.74-8.59,85.5a3,3,0,0,0,2.59,4.25l45.34,1.7a2,2,0,0,0,2.07-1.9c0-.36,0-0.79.05-1.25Z" transform="translate(-1.55 -1.23)"/><ellipse class="bbb73afd-e123-4a75-a812-73a9d75cdc91" cx="80.67" cy="42.83" rx="1.53" ry="3.06" transform="translate(-12.17 38.72) rotate(-26.16)"/><ellipse class="bbb73afd-e123-4a75-a812-73a9d75cdc91" cx="85.7" cy="40.06" rx="1.53" ry="3.06" transform="translate(-10.43 40.65) rotate(-26.16)"/><line class="9f5004ca-b127-4cc3-9e19-ffbea80172fb" x1="95.68" y1="53.73" x2="86.85" y2="58.94"/><line class="9f5004ca-b127-4cc3-9e19-ffbea80172fb" x1="114.54" y1="151.14" x2="1" y2="151.14"/><path class="b787e815-d5b1-4311-bef6-be6b21c86c84" d="M59.63,5.42c2.52-2.85,5.86-4.29,7.53-2.19,2.75,3.46-3.9,7-1.06,10.73" transform="translate(-1.55 -1.23)"/><line class="b787e815-d5b1-4311-bef6-be6b21c86c84" x1="66.29" y1="15.02" x2="67.16" y2="15.91"/><path class="5a4bff27-6c1d-4fab-99a7-dd13c00254f9" d="M110.24,105.83s-19.66,3.86-48.74-5" transform="translate(-1.55 -1.23)"/></svg>