<svg id="33071d0a-d34c-4f64-9727-297a10f880bd" data-name="Layer 1" xmlns="http://www.w3.org/2000/svg" xmlns:xlink="http://www.w3.org/1999/xlink" viewBox="0 0 109.5 146.64"><defs><style>.\31 9179f07-3cba-462c-bbe9-f9162b7dc604,.d6ee862b-eb97-4916-8505-69dcd4a0e0f0{fill:none;}.\31 7add900-bd85-4c68-8357-d54e8a2bd1b7{clip-path:url(#06837f9b-ef8f-48e4-8725-e4f75fbe77ae);}.\38 2459525-7484-49ab-a8a3-63a7b829b589{fill:#fdcb7b;}.\39 d08ff5b-8fba-4e97-ab6a-e126ed21c989,.bd6887ce-c449-4a27-ab8d-c88e5190a072,.bdd1c3a2-288b-45b0-996b-b0d4dd10faf6{fill:#374655;}.bd6887ce-c449-4a27-ab8d-c88e5190a072,.bdd1c3a2-288b-45b0-996b-b0d4dd10faf6{opacity:0.1;}.\31 9179f07-3cba-462c-bbe9-f9162b7dc604,.\32 4ce3d6f-85e5-4064-9de8-54019f942889,.bdd1c3a2-288b-45b0-996b-b0d4dd10faf6{stroke:#374655;stroke-linecap:round;stroke-linejoin:round;stroke-width:2px;}.\32 4ce3d6f-85e5-4064-9de8-54019f942889{fill:#fff;}</style><clipPath id="06837f9b-ef8f-48e4-8725-e4f75fbe77ae"><rect class="d6ee862b-eb97-4916-8505-69dcd4a0e0f0" x="-19.48" y="-10.15" width="128.98" height="189.51"/></clipPath></defs><title>check-email</title><g class="17add900-bd85-4c68-8357-d54e8a2bd1b7"><path class="82459525-7484-49ab-a8a3-63a7b829b589" d="M84.59,109.12s7,18.34,21.61,26.78a9.38,9.38,0,0,0-2.64,8.44,1.18,1.18,0,0,0,1.78.81L119,136.8a1.18,1.18,0,0,0,0-2c-4.76-3.17-19.46-18-24.55-29.19Z"/><path class="bd6887ce-c449-4a27-ab8d-c88e5190a072" d="M84.59,109.12h0s0.57,1.5,1.72,3.82a64.94,64.94,0,0,0,10-3.82c-0.69-1.19-1.31-2.37-1.83-3.51Z"/><path class="82459525-7484-49ab-a8a3-63a7b829b589" d="M91.28,63.53s17.5,3.68,33.09-16.38c6.22,3.28,10.45,3.41,10.45,3.41S120.44,78,88,73.56C80.54,67.06,91.28,63.53,91.28,63.53Z"/><path class="bd6887ce-c449-4a27-ab8d-c88e5190a072" d="M134.83,50.57h0C114.59,76.75,87.14,69,87.14,69l-1.59,1.28A7.71,7.71,0,0,0,88,73.56C120.44,78,134.83,50.57,134.83,50.57Z"/><path class="82459525-7484-49ab-a8a3-63a7b829b589" d="M66.57,57.23c-1.21-.27-13.76-0.67-21.25-16l-8.09,4.43s8.89,19.6,26.37,23.66S66.57,57.23,66.57,57.23Z"/><path class="bd6887ce-c449-4a27-ab8d-c88e5190a072" d="M72.18,66.8C51.25,66.94,43.27,54,37.69,45.24a2.17,2.17,0,0,0-.47.41s8.89,19.6,26.37,23.66C70.6,70.94,72.46,69.32,72.18,66.8Z"/><path class="82459525-7484-49ab-a8a3-63a7b829b589" d="M69,111.05s-2,12.06,6.1,26.9a9.38,9.38,0,0,0-6.65,5.82,1.18,1.18,0,0,0,1.1,1.62h16a1.18,1.18,0,0,0,1.07-1.68c-2.41-5.19-9.3-21.34-7.8-33.55Z"/><path class="bd6887ce-c449-4a27-ab8d-c88e5190a072" d="M78.63,113.42a29.56,29.56,0,0,1,.19-3.25l-9.81.89a21,21,0,0,0-.19,2.35C72.3,114.31,76.7,113.75,78.63,113.42Z"/><path class="82459525-7484-49ab-a8a3-63a7b829b589" d="M62.8,109.37c-1.87-6.33-7.4-30.54,6.9-59.06l-6.84-5.6A1.18,1.18,0,0,1,62.7,43c3.67-4.32,26.43-24,33.14-18.49S81.4,66.17,104.14,99.46a2.36,2.36,0,0,1-.42,3.16c-3.59,3-14.1,9.19-38.74,8.43A2.35,2.35,0,0,1,62.8,109.37Z"/><path class="bd6887ce-c449-4a27-ab8d-c88e5190a072" d="M104.14,99.46c-22.74-33.29-1.58-69.4-8.29-74.92a4.39,4.39,0,0,0-2.39-.93c2.86,8.94-14.66,42.08,6,73.48a2.36,2.36,0,0,1-.48,3.15c-3.52,2.82-13.57,8.54-36.5,7.82,0.13,0.49.25,0.93,0.36,1.31A2.35,2.35,0,0,0,65,111c24.65,0.76,35.15-5.45,38.74-8.43A2.36,2.36,0,0,0,104.14,99.46Z"/><path class="19179f07-3cba-462c-bbe9-f9162b7dc604" d="M58.85,94.53a53.69,53.69,0,0,0,40.51-6.89"/><path class="19179f07-3cba-462c-bbe9-f9162b7dc604" d="M68.73,51.61s4.46,4,12.09,0"/><ellipse class="9d08ff5b-8fba-4e97-ab6a-e126ed21c989" cx="83.47" cy="39.73" rx="2.93" ry="1.47" transform="translate(11.01 97.14) rotate(-63.84)"/><ellipse class="9d08ff5b-8fba-4e97-ab6a-e126ed21c989" cx="78.67" cy="37.08" rx="2.93" ry="1.47" transform="translate(10.7 91.34) rotate(-63.84)"/><path class="82459525-7484-49ab-a8a3-63a7b829b589" d="M46.37,44.15S44.18,29,41.59,29.77s1.76,14.5,1.76,14.5Z"/><path class="82459525-7484-49ab-a8a3-63a7b829b589" d="M44.3,44.46s-4.37-14.75-7.09-13.39S41,45.24,41,45.24Z"/><path class="82459525-7484-49ab-a8a3-63a7b829b589" d="M42.19,47s-6.79-15.88-9-14.79,4,13.43,4,13.43Z"/><rect class="24ce3d6f-85e5-4064-9de8-54019f942889" x="6.48" y="11.93" width="54" height="30" transform="translate(-8.24 16.67) rotate(-25)"/><polygon class="bdd1c3a2-288b-45b0-996b-b0d4dd10faf6" points="36.75 32.51 2.67 24.75 51.61 1.93 36.75 32.51"/><polygon class="24ce3d6f-85e5-4064-9de8-54019f942889" points="33.9 27.84 2.67 24.75 51.61 1.93 33.9 27.84"/><path class="82459525-7484-49ab-a8a3-63a7b829b589" d="M48.5,35.45c-1.81-.78-4.88,5.94-4.88,5.94L46,45S50.38,36.25,48.5,35.45Z"/></g></svg>