<svg id="b81be125-62e6-4216-b62b-9066e75938e7" data-name="Layer 1" xmlns="http://www.w3.org/2000/svg" viewBox="0 0 123.11 132.51"><defs><style>.\30 28bbf15-ca80-438c-bd87-7429763cb9f3,.\39 d37e254-3f80-45af-b5e7-d163365251bd{fill:#ac91c4;}.\37 a0798f5-cdb2-4745-8e61-9c13842c1ee4,.ffd5e8fa-5ccf-48c6-be0e-527dc7f8bd22{fill:#374655;}.\37 a0798f5-cdb2-4745-8e61-9c13842c1ee4{opacity:0.1;}.\39 d37e254-3f80-45af-b5e7-d163365251bd{opacity:0.15;}.\33 b6a715f-6a80-4ee0-a824-1e3ec9903001{fill:none;}.\33 b6a715f-6a80-4ee0-a824-1e3ec9903001,.ffd5e8fa-5ccf-48c6-be0e-527dc7f8bd22{stroke:#374655;stroke-linecap:round;stroke-linejoin:round;stroke-width:2px;}</style></defs><title>checkout-success</title><path class="028bbf15-ca80-438c-bd87-7429763cb9f3" d="M48.12,91.29S45.62,106.4,55.77,125c-4.64.89-7.31,4.69-8.34,7.3a1.48,1.48,0,0,0,1.38,2h20a1.48,1.48,0,0,0,1.34-2.1c-3-6.5-11.66-26.75-9.77-42.05Z" transform="translate(-2.11 -2.82)"/><path class="028bbf15-ca80-438c-bd87-7429763cb9f3" d="M74,91.29S71.47,106.4,81.62,125c-4.64.89-7.31,4.69-8.34,7.3a1.48,1.48,0,0,0,1.38,2h20a1.48,1.48,0,0,0,1.34-2.1c-3-6.5-11.66-26.75-9.77-42.05Z" transform="translate(-2.11 -2.82)"/><path class="7a0798f5-cdb2-4745-8e61-9c13842c1ee4" d="M86.26,90.17L74,91.29a40,40,0,0,0,0,9.27L86.29,100A43.7,43.7,0,0,1,86.26,90.17Z" transform="translate(-2.11 -2.82)"/><path class="7a0798f5-cdb2-4745-8e61-9c13842c1ee4" d="M60.41,90.17L48.12,91.29a41.63,41.63,0,0,0,.09,10.48l12.37-.58A45.22,45.22,0,0,1,60.41,90.17Z" transform="translate(-2.11 -2.82)"/><path class="028bbf15-ca80-438c-bd87-7429763cb9f3" d="M17.51,24.25S30.64,48.61,56.4,45.52c1.77,10.16-3.84,11.66-3.84,11.66s-25,2-39.51-23.35C11.95,26.6,17.51,24.25,17.51,24.25Z" transform="translate(-2.11 -2.82)"/><path class="9d37e254-3f80-45af-b5e7-d163365251bd" d="M56.46,52.07a5,5,0,0,1-2.13,1.72s-24.84,3.67-41-20.7A11.13,11.13,0,0,1,13.11,30a10.72,10.72,0,0,0-.05,3.8C27.53,59.21,52.57,57.18,52.57,57.18S55.52,56.39,56.46,52.07Z" transform="translate(-2.11 -2.82)"/><line class="3b6a715f-6a80-4ee0-a824-1e3ec9903001" x1="18.2" y1="10.76" x2="19.08" y2="9.07"/><line class="3b6a715f-6a80-4ee0-a824-1e3ec9903001" x1="18.2" y1="10.76" x2="19.08" y2="9.07"/><line class="3b6a715f-6a80-4ee0-a824-1e3ec9903001" x1="16.03" y1="10.56" x2="15.46" y2="8.75"/><line class="3b6a715f-6a80-4ee0-a824-1e3ec9903001" x1="14.36" y1="11.96" x2="12.68" y2="11.07"/><path class="028bbf15-ca80-438c-bd87-7429763cb9f3" d="M16.59,27.53S9.89,21.88,9,25.39s6.25,5.8,6.25,5.8Z" transform="translate(-2.11 -2.82)"/><path class="028bbf15-ca80-438c-bd87-7429763cb9f3" d="M18.1,24.65S11.4,19,10.53,22.51s6.25,5.8,6.25,5.8Z" transform="translate(-2.11 -2.82)"/><path class="028bbf15-ca80-438c-bd87-7429763cb9f3" d="M16,29.37S8.73,25.47,8,28.56s5.39,5.07,5.39,5.07Z" transform="translate(-2.11 -2.82)"/><path class="028bbf15-ca80-438c-bd87-7429763cb9f3" d="M18.81,27.06s-1.24-1.71,1.28-6.52-1.53-4.89-3.21-1.68-2.14,6-1.24,8.36C16.82,30.31,18.81,27.06,18.81,27.06Z" transform="translate(-2.11 -2.82)"/><path class="028bbf15-ca80-438c-bd87-7429763cb9f3" d="M88.51,44.07s19.59,19.62,26.88,44.44c-4.48,2.92-7.57,4.67-7.57,4.67A107.55,107.55,0,0,0,89.39,63.65C76.33,48.59,88.51,44.07,88.51,44.07Z" transform="translate(-2.11 -2.82)"/><path class="7a0798f5-cdb2-4745-8e61-9c13842c1ee4" d="M96.37,59.76a154.61,154.61,0,0,1-7.86-15.69s-12.18,4.52.88,19.58a107.54,107.54,0,0,1,18.43,29.53A83.76,83.76,0,0,0,96.37,59.76Z" transform="translate(-2.11 -2.82)"/><path class="028bbf15-ca80-438c-bd87-7429763cb9f3" d="M106.59,90.27s-2.14,6.11-.53,6.74S110,91.84,110,91.84l-2.14-3Z" transform="translate(-2.11 -2.82)"/><path class="028bbf15-ca80-438c-bd87-7429763cb9f3" d="M107.6,89.6s2.31,12.75,4.47,12-1.92-12.19-1.92-12.19Z" transform="translate(-2.11 -2.82)"/><path class="028bbf15-ca80-438c-bd87-7429763cb9f3" d="M109.34,89.27s4.14,12.32,6.39,11.09-3.64-11.85-3.64-11.85Z" transform="translate(-2.11 -2.82)"/><path class="028bbf15-ca80-438c-bd87-7429763cb9f3" d="M111,87.05s6.21,13.21,8,12.22S115.21,88,115.21,88Z" transform="translate(-2.11 -2.82)"/><path class="028bbf15-ca80-438c-bd87-7429763cb9f3" d="M91.76,95.71a1.8,1.8,0,0,0,1.71-1.91c-0.75-12.91-5.69-90.07-16-91C68,2,52.27,25.21,47.53,32.56a1.81,1.81,0,0,0,1.14,2.75l8.72,1.88S37.2,68.09,41.89,96.49A1.79,1.79,0,0,0,43.74,98C63.09,97.08,85.35,96,91.76,95.71Z" transform="translate(-2.11 -2.82)"/><path class="7a0798f5-cdb2-4745-8e61-9c13842c1ee4" d="M84.37,16.22h-25c-1.56,1.88-3.06,3.8-4.45,5.66a8,8,0,0,0,5.34,2.63c2.21,0,4.16-1.41,5.64-2.94,1.48,1.53,3.44,2.94,5.64,2.94,4,0,7.25-4.7,8.22-6.29h5.06Q84.61,17.19,84.37,16.22Z" transform="translate(-2.11 -2.82)"/><path class="7a0798f5-cdb2-4745-8e61-9c13842c1ee4" d="M77.48,2.84H77.27C85,18.92,88.82,78.59,89.47,89.8a1.8,1.8,0,0,1-1.71,1.91C81.54,92,60.43,93,41.53,93.89q0.15,1.3.36,2.6A1.79,1.79,0,0,0,43.74,98c19.34-.9,41.6-2,48-2.27a1.8,1.8,0,0,0,1.71-1.91C92.72,80.89,87.79,3.73,77.48,2.84Z" transform="translate(-2.11 -2.82)"/><path class="3b6a715f-6a80-4ee0-a824-1e3ec9903001" d="M39,82.52s11,7.65,55,.05" transform="translate(-2.11 -2.82)"/><path class="ffd5e8fa-5ccf-48c6-be0e-527dc7f8bd22" d="M67.93,15.22s-3.42,6.29-7.64,6.29-7.64-6.29-7.64-6.29H67.93Z" transform="translate(-2.11 -2.82)"/><path class="ffd5e8fa-5ccf-48c6-be0e-527dc7f8bd22" d="M79.22,15.22s-3.42,6.29-7.64,6.29-7.64-6.29-7.64-6.29H79.22Z" transform="translate(-2.11 -2.82)"/><path class="3b6a715f-6a80-4ee0-a824-1e3ec9903001" d="M78.41,15.22h8.95a1.93,1.93,0,0,1,1.93,1.93v1.79" transform="translate(-2.11 -2.82)"/><path class="3b6a715f-6a80-4ee0-a824-1e3ec9903001" d="M55.3,38.28a21.69,21.69,0,0,0,19.5-3.44" transform="translate(-2.11 -2.82)"/><line class="3b6a715f-6a80-4ee0-a824-1e3ec9903001" x1="1" y1="131.51" x2="122.11" y2="131.51"/></svg>