<svg id="c7258bd2-b19e-410c-8747-462413183594" data-name="Layer 1" xmlns="http://www.w3.org/2000/svg" xmlns:xlink="http://www.w3.org/1999/xlink" viewBox="0 0 137.94 144.47"><defs><style>.\36 1715ebf-b6ba-417c-a804-c13104384b3d,.f4990103-b7b1-449f-9d7d-f3284659593b{fill:none;}.\37 53cde51-017a-4669-bc79-3fb1ce50bb47{clip-path:url(#516dc664-7343-47e3-b5c7-ea0d578846d1);}.dc273cc5-e580-4d97-ba1c-dc450113b475{fill:#fdcb7b;}.\30 ae6aa08-0fd4-4bc2-b388-f644dce5be13,.\32 98cc296-663c-4675-98ac-01a9a4789502,.e1da8aef-2c72-4c8e-b089-74f1075a53b1{fill:#374655;}.\32 98cc296-663c-4675-98ac-01a9a4789502,.e1da8aef-2c72-4c8e-b089-74f1075a53b1{opacity:0.1;}.\39 c1f3f97-16ec-4d39-837b-469db8d05505{fill:#8ac0e8;}.\30 4f502c6-7964-4bf4-a965-864244b9abee,.\32 98cc296-663c-4675-98ac-01a9a4789502,.\36 1715ebf-b6ba-417c-a804-c13104384b3d{stroke:#374655;stroke-linecap:round;stroke-linejoin:round;stroke-width:2px;}.\30 4f502c6-7964-4bf4-a965-864244b9abee{fill:#fff;}</style><clipPath id="516dc664-7343-47e3-b5c7-ea0d578846d1" transform="translate(-23.83 -1.92)"><rect class="f4990103-b7b1-449f-9d7d-f3284659593b" x="2.68" y="-9.15" width="128.98" height="189.51"/></clipPath></defs><title>check-email</title><g class="753cde51-017a-4669-bc79-3fb1ce50bb47"><path class="dc273cc5-e580-4d97-ba1c-dc450113b475" d="M106.75,110.11s7,18.34,21.61,26.78a9.38,9.38,0,0,0-2.64,8.44,1.18,1.18,0,0,0,1.78.81l13.63-8.34a1.18,1.18,0,0,0,0-2c-4.76-3.17-19.46-18-24.55-29.19Z" transform="translate(-23.83 -1.92)"/><path class="e1da8aef-2c72-4c8e-b089-74f1075a53b1" d="M106.75,110.11h0s0.57,1.5,1.72,3.82a64.94,64.94,0,0,0,10-3.82c-0.69-1.19-1.31-2.37-1.83-3.51Z" transform="translate(-23.83 -1.92)"/><path class="dc273cc5-e580-4d97-ba1c-dc450113b475" d="M113.45,64.53s17.5,3.68,33.09-16.38c6.22,3.28,10.45,3.41,10.45,3.41s-14.39,27.41-46.82,23C102.71,68.06,113.45,64.53,113.45,64.53Z" transform="translate(-23.83 -1.92)"/><path class="9c1f3f97-16ec-4d39-837b-469db8d05505" d="M146.54,48.16s-2.47-6.2-.58-7,4.75,6,4.75,6l-2.48,3.58Z" transform="translate(-23.83 -1.92)"/><path class="9c1f3f97-16ec-4d39-837b-469db8d05505" d="M147.9,49.94s2.53-15.12,5.1-14.27-2.08,14.46-2.08,14.46Z" transform="translate(-23.83 -1.92)"/><path class="9c1f3f97-16ec-4d39-837b-469db8d05505" d="M150,50.3s4.7-14.65,7.39-13.23-4.12,14.08-4.12,14.08Z" transform="translate(-23.83 -1.92)"/><path class="9c1f3f97-16ec-4d39-837b-469db8d05505" d="M152,52.89s7.14-15.73,9.3-14.59-4.39,13.37-4.39,13.37Z" transform="translate(-23.83 -1.92)"/><path class="e1da8aef-2c72-4c8e-b089-74f1075a53b1" d="M157,51.56h0C136.76,77.75,109.31,70,109.31,70l-1.59,1.28a7.71,7.71,0,0,0,2.46,3.3C142.61,79,157,51.56,157,51.56Z" transform="translate(-23.83 -1.92)"/><path class="dc273cc5-e580-4d97-ba1c-dc450113b475" d="M88.73,58.23C87.52,58,75,57.55,67.48,42.22l-8.09,4.43s8.89,19.6,26.37,23.66S88.73,58.23,88.73,58.23Z" transform="translate(-23.83 -1.92)"/><path class="e1da8aef-2c72-4c8e-b089-74f1075a53b1" d="M94.35,67.79C73.41,67.94,65.44,55,59.86,46.24a2.17,2.17,0,0,0-.47.41s8.89,19.6,26.37,23.66C92.76,71.94,94.62,70.32,94.35,67.79Z" transform="translate(-23.83 -1.92)"/><path class="dc273cc5-e580-4d97-ba1c-dc450113b475" d="M91.18,112.05s-2,12.06,6.1,26.9a9.38,9.38,0,0,0-6.65,5.82,1.18,1.18,0,0,0,1.1,1.62h16a1.18,1.18,0,0,0,1.07-1.68c-2.41-5.19-9.3-21.34-7.8-33.55Z" transform="translate(-23.83 -1.92)"/><path class="e1da8aef-2c72-4c8e-b089-74f1075a53b1" d="M100.8,114.42a29.56,29.56,0,0,1,.19-3.25l-9.81.89A21,21,0,0,0,91,114.4C94.46,115.31,98.87,114.74,100.8,114.42Z" transform="translate(-23.83 -1.92)"/><path class="dc273cc5-e580-4d97-ba1c-dc450113b475" d="M85,110.37c-1.87-6.33-7.4-30.54,6.9-59.06L85,45.7A1.18,1.18,0,0,1,84.86,44c3.67-4.32,26.43-24,33.14-18.49s-14.44,41.63,8.29,74.92a2.36,2.36,0,0,1-.42,3.16c-3.59,3-14.1,9.19-38.74,8.43A2.35,2.35,0,0,1,85,110.37Z" transform="translate(-23.83 -1.92)"/><path class="e1da8aef-2c72-4c8e-b089-74f1075a53b1" d="M126.3,100.45c-22.74-33.29-1.58-69.4-8.29-74.92a4.39,4.39,0,0,0-2.39-.93c2.86,8.94-14.66,42.08,6,73.48a2.36,2.36,0,0,1-.48,3.15c-3.52,2.82-13.57,8.54-36.5,7.82,0.13,0.49.25,0.93,0.36,1.31A2.35,2.35,0,0,0,87.14,112c24.65,0.76,35.15-5.45,38.74-8.43A2.36,2.36,0,0,0,126.3,100.45Z" transform="translate(-23.83 -1.92)"/><path class="61715ebf-b6ba-417c-a804-c13104384b3d" d="M81,95.52a53.69,53.69,0,0,0,40.51-6.89" transform="translate(-23.83 -1.92)"/><path class="61715ebf-b6ba-417c-a804-c13104384b3d" d="M90.9,52.61s4.46,4,12.09,0" transform="translate(-23.83 -1.92)"/><ellipse class="0ae6aa08-0fd4-4bc2-b388-f644dce5be13" cx="105.63" cy="40.73" rx="2.93" ry="1.47" transform="translate(-1.33 115.66) rotate(-63.84)"/><ellipse class="0ae6aa08-0fd4-4bc2-b388-f644dce5be13" cx="100.83" cy="38.08" rx="2.93" ry="1.47" transform="translate(-1.63 109.87) rotate(-63.84)"/><path class="dc273cc5-e580-4d97-ba1c-dc450113b475" d="M68.54,45.14S66.34,30,63.75,30.77s1.76,14.5,1.76,14.5Z" transform="translate(-23.83 -1.92)"/><path class="dc273cc5-e580-4d97-ba1c-dc450113b475" d="M66.47,45.46S62.1,30.71,59.37,32.07s3.81,14.17,3.81,14.17Z" transform="translate(-23.83 -1.92)"/><path class="dc273cc5-e580-4d97-ba1c-dc450113b475" d="M64.35,48s-6.79-15.88-9-14.79,4,13.43,4,13.43Z" transform="translate(-23.83 -1.92)"/><rect class="04f502c6-7964-4bf4-a965-864244b9abee" x="28.64" y="12.93" width="54" height="30" transform="translate(-30.42 24.21) rotate(-25)"/><polygon class="298cc296-663c-4675-98ac-01a9a4789502" points="35.08 31.59 1 23.82 49.94 1 35.08 31.59"/><polygon class="04f502c6-7964-4bf4-a965-864244b9abee" points="32.23 26.91 1 23.82 49.94 1 32.23 26.91"/><path class="dc273cc5-e580-4d97-ba1c-dc450113b475" d="M70.67,36.44c-1.81-.78-4.88,5.94-4.88,5.94L68.19,46S72.55,37.25,70.67,36.44Z" transform="translate(-23.83 -1.92)"/></g></svg>