<svg id="1450378c-3d65-40f1-8f6f-1d52affdb840" data-name="Layer 1" xmlns="http://www.w3.org/2000/svg" viewBox="0 0 108 84"><defs><style>.a6be0f5f-1195-4b6d-914d-b3c494ce6e0f{fill:#f3f6f8;}.\34 b9c0afb-16da-41c5-a7b5-45b19b1c5df0,.\34 cd7cd77-5f26-4a73-8dc2-aba5d0b72c63,.a6be0f5f-1195-4b6d-914d-b3c494ce6e0f,.d35fed3c-b103-4fa0-bc93-e4cbe36ad91a{stroke:#374655;}.\34 b9c0afb-16da-41c5-a7b5-45b19b1c5df0,.\34 cd7cd77-5f26-4a73-8dc2-aba5d0b72c63,.a6be0f5f-1195-4b6d-914d-b3c494ce6e0f,.d35fed3c-b103-4fa0-bc93-e4cbe36ad91a,.f7f6722c-1b3c-4ab9-8e7a-9453b61542c0{stroke-linecap:round;stroke-linejoin:round;}.\34 b9c0afb-16da-41c5-a7b5-45b19b1c5df0,.a6be0f5f-1195-4b6d-914d-b3c494ce6e0f,.f7f6722c-1b3c-4ab9-8e7a-9453b61542c0{stroke-width:2px;}.\34 b9c0afb-16da-41c5-a7b5-45b19b1c5df0,.\35 ffec1ee-9a1d-4917-a516-30af4cf4f423{fill:#fff;}.\36 768dba8-bd43-49ba-88ba-b7066bc96aca{fill:#374655;opacity:0.1;}.f7f6722c-1b3c-4ab9-8e7a-9453b61542c0{fill:#8ac0e8;stroke:#8ac0e8;}.\34 cd7cd77-5f26-4a73-8dc2-aba5d0b72c63,.d35fed3c-b103-4fa0-bc93-e4cbe36ad91a{fill:none;stroke-width:3px;}.d35fed3c-b103-4fa0-bc93-e4cbe36ad91a{stroke-dasharray:0 6.5;}</style></defs><title>domain-active</title><path class="a6be0f5f-1195-4b6d-914d-b3c494ce6e0f" d="M1.47,11.29v68a4,4,0,0,0,4,4h98a4,4,0,0,0,4-4v-68H1.47Z" transform="translate(-0.47 -0.29)"/><path class="4b9c0afb-16da-41c5-a7b5-45b19b1c5df0" d="M107.47,5.29a4,4,0,0,0-4-4h-98a4,4,0,0,0-4,4v6h106v-6Z" transform="translate(-0.47 -0.29)"/><rect class="4b9c0afb-16da-41c5-a7b5-45b19b1c5df0" x="13" y="11" width="82" height="72"/><rect class="6768dba8-bd43-49ba-88ba-b7066bc96aca" x="94.47" y="11.29" width="4" height="72" transform="translate(192.47 94.29) rotate(180)"/><rect class="6768dba8-bd43-49ba-88ba-b7066bc96aca" x="10.47" y="11.29" width="4" height="72" transform="translate(24.47 94.29) rotate(180)"/><rect class="f7f6722c-1b3c-4ab9-8e7a-9453b61542c0" x="38.45" y="46.31" width="8" height="20" transform="translate(-27.85 46.22) rotate(-45)"/><rect class="f7f6722c-1b3c-4ab9-8e7a-9453b61542c0" x="57.54" y="28.7" width="8" height="34" transform="translate(49.87 -30.42) rotate(45)"/><line class="5ffec1ee-9a1d-4917-a516-30af4cf4f423" x1="7" y1="6" x2="20" y2="6"/><line class="4cd7cd77-5f26-4a73-8dc2-aba5d0b72c63" x1="7" y1="6" x2="7" y2="6"/><line class="d35fed3c-b103-4fa0-bc93-e4cbe36ad91a" x1="13.5" y1="6" x2="16.75" y2="6"/><line class="4cd7cd77-5f26-4a73-8dc2-aba5d0b72c63" x1="20" y1="6" x2="20" y2="6"/><rect class="6768dba8-bd43-49ba-88ba-b7066bc96aca" x="0.5" y="10.5" width="106" height="4"/></svg>