<svg id="2a38e0f4-a79a-4772-a3f0-88c427530891" data-name="Layer 1" xmlns="http://www.w3.org/2000/svg" viewBox="0 0 214 189.41"><defs><style>.b0ac5254-c76a-422b-b82f-fded29b79f1b{fill:#8ac0e8;}.\35 8efc3b9-10c2-4fd3-b45c-8f55af7bf983,.\37 9bd4be5-d869-4325-9cba-54960f6364f4,.a520b61d-8316-48f3-8a45-6bc0a3686027,.c61bc90d-ccf0-46e5-9e16-88130a9749f6{fill:#374655;}.\35 8efc3b9-10c2-4fd3-b45c-8f55af7bf983,.\35 e36ff5e-4a79-46ea-97ad-d094aab0fa4f,.c61bc90d-ccf0-46e5-9e16-88130a9749f6{opacity:0.1;}.b0b17c1e-6dd3-40b7-99df-2f52e501cd69{fill:#fff;}.\33 cf9ee7e-6450-4bf1-9915-377c0edb973e,.\35 8efc3b9-10c2-4fd3-b45c-8f55af7bf983,.a520b61d-8316-48f3-8a45-6bc0a3686027,.af4397cf-cb3b-4705-9d00-722e085b0a23,.b0b17c1e-6dd3-40b7-99df-2f52e501cd69{stroke:#374655;stroke-linecap:round;stroke-linejoin:round;stroke-width:2px;}.af4397cf-cb3b-4705-9d00-722e085b0a23{fill:#f3f6f8;}.\33 cf9ee7e-6450-4bf1-9915-377c0edb973e{fill:none;}</style></defs><title>lets-get-started</title><path class="b0ac5254-c76a-422b-b82f-fded29b79f1b" d="M128,57.42c-1-.23-10.09-1.32-18.86-12.8l-6,5s7.53,14.58,22.32,18S128,57.42,128,57.42Z" transform="translate(-0.33 -0.95)"/><path class="c61bc90d-ccf0-46e5-9e16-88130a9749f6" d="M132.78,65.52c-17.72.13-25.31-14.07-27.07-18l-2.52,2.11s7.53,14.58,22.32,18C131.44,69,133,67.65,132.78,65.52Z" transform="translate(-0.33 -0.95)"/><path class="b0ac5254-c76a-422b-b82f-fded29b79f1b" d="M150.95,58.62S166,57,173.28,36.76c5.87,1,9.3,0,9.3,0s-4.38,25.83-31.64,30.78C143.23,64.27,150.95,58.62,150.95,58.62Z" transform="translate(-0.33 -0.95)"/><path class="b0ac5254-c76a-422b-b82f-fded29b79f1b" d="M173.28,36.76s-3.61-4.34-2.29-5.45,5.41,3.62,5.41,3.62l-1.06,3.53Z" transform="translate(-0.33 -0.95)"/><path class="b0ac5254-c76a-422b-b82f-fded29b79f1b" d="M174.84,37.84S172.91,25,175.21,25s2.12,12.18,2.12,12.18Z" transform="translate(-0.33 -0.95)"/><path class="b0ac5254-c76a-422b-b82f-fded29b79f1b" d="M176.6,37.59s-0.06-13,2.47-12.58,0.38,12.41.38,12.41Z" transform="translate(-0.33 -0.95)"/><path class="b0ac5254-c76a-422b-b82f-fded29b79f1b" d="M178.93,39.13s1.62-14.53,3.66-14.18,0,11.91,0,11.91Z" transform="translate(-0.33 -0.95)"/><path class="c61bc90d-ccf0-46e5-9e16-88130a9749f6" d="M182.58,36.76h0C173.17,63.14,149,64.09,149,64.09l-0.94,1.44a6.52,6.52,0,0,0,2.84,2C178.2,62.59,182.58,36.76,182.58,36.76Z" transform="translate(-0.33 -0.95)"/><path class="b0ac5254-c76a-422b-b82f-fded29b79f1b" d="M145.68,100.89s9.53,14.28,27,4.7c2.41,2.87,6.52,3,8.72,2.85a1,1,0,0,0,.79-1.48L176,95.57a1,1,0,0,0-1.48-.32C171.3,97.67,160.43,105,153.22,98,146.32,96.41,145.68,100.89,145.68,100.89Z" transform="translate(-0.33 -0.95)"/><path class="c61bc90d-ccf0-46e5-9e16-88130a9749f6" d="M153.22,98c-6.9-1.57-7.54,2.91-7.54,2.91a18.58,18.58,0,0,0,3.17,3.39,16.23,16.23,0,0,0,7.23-4.31A10.43,10.43,0,0,1,153.22,98Z" transform="translate(-0.33 -0.95)"/><path class="b0ac5254-c76a-422b-b82f-fded29b79f1b" d="M131.1,103s-1.69,10.2,5.16,22.77a7.94,7.94,0,0,0-5.63,4.93,1,1,0,0,0,.93,1.37h13.52a1,1,0,0,0,.91-1.42c-2-4.39-7.87-18.06-6.6-28.39Z" transform="translate(-0.33 -0.95)"/><path class="c61bc90d-ccf0-46e5-9e16-88130a9749f6" d="M139.24,105a25,25,0,0,1,.16-2.75l-8.3.75a17.78,17.78,0,0,0-.16,2A21.91,21.91,0,0,0,139.24,105Z" transform="translate(-0.33 -0.95)"/><path class="b0ac5254-c76a-422b-b82f-fded29b79f1b" d="M97.3,39.77l8.37-7s-5.1-3.39-8.27-.51C94.48,34.88,97.3,39.77,97.3,39.77Z" transform="translate(-0.33 -0.95)"/><path class="b0ac5254-c76a-422b-b82f-fded29b79f1b" d="M102.93,31.48s2.58-3.11,5.4-1l-4.56,3.82Z" transform="translate(-0.33 -0.95)"/><path class="b0b17c1e-6dd3-40b7-99df-2f52e501cd69" d="M75.92,164.12s-4.85-23.56,6.1-23.56c11.73,0,20.24,9.8,20.24,23.24a37.42,37.42,0,0,1-9.73,25.4H78.89C86.77,172.49,75.92,164.12,75.92,164.12Z" transform="translate(-0.33 -0.95)"/><path class="58efc3b9-10c2-4fd3-b45c-8f55af7bf983" d="M82,140.56c-11,0-6.1,23.56-6.1,23.56a13.56,13.56,0,0,1,2.29,2.47,112.08,112.08,0,0,0,10.42-24.9A19.46,19.46,0,0,0,82,140.56Z" transform="translate(-0.33 -0.95)"/><path class="b0b17c1e-6dd3-40b7-99df-2f52e501cd69" d="M41.2,164.12s4.85-23.56-6.1-23.56c-11.73,0-20.24,9.8-20.24,23.24a37.42,37.42,0,0,0,9.73,25.4H38.23C30.34,172.49,41.2,164.12,41.2,164.12Z" transform="translate(-0.33 -0.95)"/><path class="58efc3b9-10c2-4fd3-b45c-8f55af7bf983" d="M35.09,140.56c11,0,6.1,23.56,6.1,23.56a13.56,13.56,0,0,0-2.29,2.47,112.08,112.08,0,0,1-10.42-24.9A19.46,19.46,0,0,1,35.09,140.56Z" transform="translate(-0.33 -0.95)"/><path class="b0b17c1e-6dd3-40b7-99df-2f52e501cd69" d="M80.08,61.62a127,127,0,0,0-21.52-30.5C38.5,52.18,26.4,79.44,26.4,109.22a109.74,109.74,0,0,0,14.8,54.9H75.92a109.74,109.74,0,0,0,14.8-54.9,108.5,108.5,0,0,0-4-29.34" transform="translate(-0.33 -0.95)"/><path class="58efc3b9-10c2-4fd3-b45c-8f55af7bf983" d="M58.56,31.13A123.23,123.23,0,0,1,74.91,59.64,3.62,3.62,0,0,0,79,61.85l0.84-.17A119.58,119.58,0,0,0,58.56,31.13Z" transform="translate(-0.33 -0.95)"/><path class="58efc3b9-10c2-4fd3-b45c-8f55af7bf983" d="M86.36,80.06a4.53,4.53,0,0,0-2.28,4.78,133.21,133.21,0,0,1,2.24,24.38c0,19.77-6.09,38.43-13.73,54.9h3.34a109.74,109.74,0,0,0,14.8-54.9,108.49,108.49,0,0,0-4-29.34Z" transform="translate(-0.33 -0.95)"/><circle class="af4397cf-cb3b-4705-9d00-722e085b0a23" cx="58.23" cy="77.75" r="9.56"/><path class="58efc3b9-10c2-4fd3-b45c-8f55af7bf983" d="M58.56,69.14a9.58,9.58,0,0,0-2,.21,9.55,9.55,0,0,1,0,18.69A9.56,9.56,0,1,0,58.56,69.14Z" transform="translate(-0.33 -0.95)"/><line class="3cf9ee7e-6450-4bf1-9915-377c0edb973e" x1="50.97" y1="98.81" x2="65.49" y2="98.81"/><line class="3cf9ee7e-6450-4bf1-9915-377c0edb973e" x1="50.97" y1="110.31" x2="65.49" y2="110.31"/><line class="3cf9ee7e-6450-4bf1-9915-377c0edb973e" x1="50.97" y1="121.82" x2="65.49" y2="121.82"/><rect class="b0b17c1e-6dd3-40b7-99df-2f52e501cd69" x="53.93" y="142.41" width="8.58" height="46"/><rect class="58efc3b9-10c2-4fd3-b45c-8f55af7bf983" x="60.23" y="142.41" width="2.28" height="46"/><polygon class="b0b17c1e-6dd3-40b7-99df-2f52e501cd69" points="175.91 168.97 175.91 150.03 152.33 150.03 152.33 131.09 128.76 131.09 128.76 188.39 199.48 188.39 199.48 168.97 175.91 168.97"/><polygon class="b0b17c1e-6dd3-40b7-99df-2f52e501cd69" points="137.93 19.26 130.64 10.57 90.39 44.34 90.39 44.34 90.39 44.34 79.75 60.67 97.68 53.03 97.68 53.03 97.68 53.03 137.93 19.26"/><polygon class="af4397cf-cb3b-4705-9d00-722e085b0a23" points="90.39 44.34 90.39 44.34 90.39 44.34 79.75 60.67 97.68 53.03 97.68 53.03 97.68 53.03 97.68 53.03 90.39 44.34 90.39 44.34"/><rect class="af4397cf-cb3b-4705-9d00-722e085b0a23" x="131.37" y="10.66" width="11.34" height="6.33" transform="translate(59.21 -100.99) rotate(50)"/><path class="b0b17c1e-6dd3-40b7-99df-2f52e501cd69" d="M139.56,3.72h7.34a2,2,0,0,1,2,2v7.82a0,0,0,0,1,0,0H137.56a0,0,0,0,1,0,0V5.72A2,2,0,0,1,139.56,3.72Z" transform="translate(57.44 -107.59) rotate(50)"/><line class="3cf9ee7e-6450-4bf1-9915-377c0edb973e" x1="94.03" y1="48.69" x2="134.28" y2="14.91"/><polygon class="a520b61d-8316-48f3-8a45-6bc0a3686027" points="86.35 57.86 83.66 54.66 79.75 60.67 86.35 57.86"/><line class="3cf9ee7e-6450-4bf1-9915-377c0edb973e" x1="90.39" y1="44.34" x2="97.68" y2="53.03"/><path class="b0ac5254-c76a-422b-b82f-fded29b79f1b" d="M124.84,101.54c-1.58-5.36-6.26-25.84,5.84-50l-5.79-4.74a1,1,0,0,1-.13-1.42c3.11-3.66,22.37-20.32,28-15.65s-12.22,35.23,7,63.4a2,2,0,0,1-.35,2.67c-3,2.52-11.93,7.78-32.79,7.13A2,2,0,0,1,124.84,101.54Z" transform="translate(-0.33 -0.95)"/><path class="c61bc90d-ccf0-46e5-9e16-88130a9749f6" d="M159.83,93.16c-19.24-28.17-1.34-58.73-7-63.4a3.72,3.72,0,0,0-2-.78c2.42,7.56-12.4,35.61,5,62.18a2,2,0,0,1-.4,2.67c-3,2.39-11.48,7.22-30.89,6.61,0.11,0.42.22,0.79,0.31,1.11a2,2,0,0,0,1.84,1.42c20.86,0.65,29.75-4.61,32.79-7.13A2,2,0,0,0,159.83,93.16Z" transform="translate(-0.33 -0.95)"/><path class="3cf9ee7e-6450-4bf1-9915-377c0edb973e" d="M121.5,89a45.44,45.44,0,0,0,34.28-5.83" transform="translate(-0.33 -0.95)"/><path class="3cf9ee7e-6450-4bf1-9915-377c0edb973e" d="M129.86,52.67s3.78,3.35,10.23,0" transform="translate(-0.33 -0.95)"/><ellipse class="79bd4be5-d869-4325-9cba-54960f6364f4" cx="142.33" cy="42.61" rx="2.48" ry="1.24" transform="translate(41 150.63) rotate(-63.84)"/><ellipse class="79bd4be5-d869-4325-9cba-54960f6364f4" cx="138.27" cy="40.37" rx="2.48" ry="1.24" transform="translate(40.74 145.73) rotate(-63.84)"/><g class="5e36ff5e-4a79-46ea-97ad-d094aab0fa4f"><path class="79bd4be5-d869-4325-9cba-54960f6364f4" d="M100.92,42.12c0.55-.4.45-1.3,0.2-2.27,0.74,2.95-.57-1.06.48-0.33a1.57,1.57,0,0,0,1.9.21,1.51,1.51,0,0,0,.63-2,0.25,0.25,0,0,1,.35-0.32,1.52,1.52,0,0,0,1.87-.26c0.82-.74-0.34-2.21-1.77-3.53l-6.73,6.24C98.9,41.39,100.08,42.73,100.92,42.12Z" transform="translate(-0.33 -0.95)"/></g><path class="b0ac5254-c76a-422b-b82f-fded29b79f1b" d="M99.92,41.12c0.52-.38.45-1.22,0.23-2.14a0.37,0.37,0,0,1,.57-0.38,1.58,1.58,0,0,0,2.42-1.9,0.25,0.25,0,0,1,.35-0.32,1.52,1.52,0,0,0,1.87-.26c0.82-.74-0.34-2.21-1.77-3.53l-6.73,6.24C97.9,40.39,99.08,41.73,99.92,41.12Z" transform="translate(-0.33 -0.95)"/><line class="b0b17c1e-6dd3-40b7-99df-2f52e501cd69" x1="1" y1="188.39" x2="213" y2="188.39"/></svg>