<svg id="a3445ccb-fa7d-4e01-bd90-2cf02ce3a25e" data-name="Layer 1" xmlns="http://www.w3.org/2000/svg" viewBox="0 0 117.82 86"><defs><style>.\31 ac92c91-58f6-4d05-9804-b01e3b3b3075{fill:#fff;}.\31 ac92c91-58f6-4d05-9804-b01e3b3b3075,.\39 45a5a52-6153-47b0-939d-3914b5cc1cec{stroke:#374655;}.\31 ac92c91-58f6-4d05-9804-b01e3b3b3075,.\39 45a5a52-6153-47b0-939d-3914b5cc1cec,.eea64e85-659a-4f6a-9009-2e64cdadd1a0{stroke-linecap:round;stroke-linejoin:round;stroke-width:2px;}.\39 45a5a52-6153-47b0-939d-3914b5cc1cec,.af1f66f9-c440-4016-9bf3-885e673dd558{fill:#374655;}.\39 45a5a52-6153-47b0-939d-3914b5cc1cec{opacity:0.1;}.eea64e85-659a-4f6a-9009-2e64cdadd1a0{fill:none;stroke:#f3f6f8;}.d5519d16-c4a4-45fb-a702-3204b3629a27{fill:#8ac0e8;}</style></defs><title>nameservers</title><rect class="1ac92c91-58f6-4d05-9804-b01e3b3b3075" x="5" y="69" width="13" height="4"/><rect class="1ac92c91-58f6-4d05-9804-b01e3b3b3075" x="80.52" y="69.23" width="13" height="4" transform="translate(173.52 142.23) rotate(-180)"/><rect class="1ac92c91-58f6-4d05-9804-b01e3b3b3075" x="1" y="1" width="96" height="32"/><rect class="945a5a52-6153-47b0-939d-3914b5cc1cec" x="1" y="30" width="96" height="3"/><line class="eea64e85-659a-4f6a-9009-2e64cdadd1a0" x1="87" y1="24" x2="87" y2="10"/><line class="eea64e85-659a-4f6a-9009-2e64cdadd1a0" x1="80" y1="24" x2="80" y2="10"/><line class="eea64e85-659a-4f6a-9009-2e64cdadd1a0" x1="73" y1="24" x2="73" y2="10"/><rect class="1ac92c91-58f6-4d05-9804-b01e3b3b3075" x="1" y="37" width="96" height="32"/><rect class="945a5a52-6153-47b0-939d-3914b5cc1cec" x="1" y="66" width="96" height="3"/><line class="eea64e85-659a-4f6a-9009-2e64cdadd1a0" x1="87" y1="60" x2="87" y2="46"/><line class="eea64e85-659a-4f6a-9009-2e64cdadd1a0" x1="80" y1="60" x2="80" y2="46"/><line class="eea64e85-659a-4f6a-9009-2e64cdadd1a0" x1="73" y1="60" x2="73" y2="46"/><circle class="af1f66f9-c440-4016-9bf3-885e673dd558" cx="9" cy="24" r="2"/><circle class="d5519d16-c4a4-45fb-a702-3204b3629a27" cx="16" cy="24" r="2"/><circle class="af1f66f9-c440-4016-9bf3-885e673dd558" cx="16" cy="60" r="2"/><circle class="d5519d16-c4a4-45fb-a702-3204b3629a27" cx="9" cy="60" r="2"/><path class="1ac92c91-58f6-4d05-9804-b01e3b3b3075" d="M113.52,65.23a16,16,0,0,0-.35-3.26l4.17-2.41-5-8.66-4.17,2.41A16,16,0,0,0,102.52,50V45.23h-10V50a16,16,0,0,0-5.65,3.27L82.7,50.9l-5,8.66L81.85,62a15.79,15.79,0,0,0,0,6.53L77.7,70.9l5,8.66,4.17-2.41a16,16,0,0,0,5.65,3.27v4.81h10V80.42a16,16,0,0,0,5.65-3.27l4.17,2.41,5-8.66-4.16-2.4A16.06,16.06,0,0,0,113.52,65.23Z" transform="translate(-0.52 -0.23)"/><circle class="1ac92c91-58f6-4d05-9804-b01e3b3b3075" cx="97" cy="65" r="5"/><rect class="1ac92c91-58f6-4d05-9804-b01e3b3b3075" x="5" y="33" width="13" height="4"/><rect class="1ac92c91-58f6-4d05-9804-b01e3b3b3075" x="80.52" y="33.23" width="13" height="4" transform="translate(173.52 70.23) rotate(-180)"/></svg>