<svg id="372c44f7-4838-4432-8207-d6ffc02a193d" data-name="Layer 1" xmlns="http://www.w3.org/2000/svg" viewBox="0 0 265.15 110.75"><defs><style>.\35 62ebbff-3ffa-432d-9d65-d2f8f7971c61{fill:#fdcb7b;}.\35 077d19e-df40-4362-ad7f-ca441c7dcf6e,.b23e7b55-7b0d-4c42-ab16-158d750ee54c,.c62c8a62-5001-4d31-94fc-ab7920a20734,.e6f73823-eb1b-48ac-98a5-f159d4d5a6cd{fill:#374655;}.\35 077d19e-df40-4362-ad7f-ca441c7dcf6e,.c62c8a62-5001-4d31-94fc-ab7920a20734{opacity:0.1;}.aff71084-c92c-4083-974b-c7175ed8c889,.b4ddd9b5-fa0f-4dc1-8b57-7d08e1eba951{fill:none;}.\33 012cb64-0f16-4b96-bbc1-5f4b8639aaa7,.\35 077d19e-df40-4362-ad7f-ca441c7dcf6e,.aff71084-c92c-4083-974b-c7175ed8c889,.b4ddd9b5-fa0f-4dc1-8b57-7d08e1eba951{stroke:#374655;stroke-width:2px;}.aff71084-c92c-4083-974b-c7175ed8c889{stroke-miterlimit:10;}.\32 13e8f6c-180b-4c20-8488-e3a4f1fcc363{fill:#2eb88a;}.\33 012cb64-0f16-4b96-bbc1-5f4b8639aaa7{fill:#fff;}.\33 012cb64-0f16-4b96-bbc1-5f4b8639aaa7,.\35 077d19e-df40-4362-ad7f-ca441c7dcf6e,.b4ddd9b5-fa0f-4dc1-8b57-7d08e1eba951{stroke-linecap:round;stroke-linejoin:round;}.\34 74384d8-1d51-4f84-b37c-0540ab695970,.e6f73823-eb1b-48ac-98a5-f159d4d5a6cd{opacity:0.15;}</style></defs><title>setup-connecting</title><path class="562ebbff-3ffa-432d-9d65-d2f8f7971c61" d="M204.94,81.9s2,15.21,11.43,20.73a6,6,0,0,0,.48,8l7.63-8.36a0.91,0.91,0,0,0-.09-1.31c-2.88-2.4-13.18-11.6-12.12-19.66A6.07,6.07,0,0,0,204.94,81.9Z" transform="translate(-0.57 -0.66)"/><path class="c62c8a62-5001-4d31-94fc-ab7920a20734" d="M224.4,100.91C222,98.88,214.23,92,212.53,85h0c-0.07-.29-0.13-0.58-0.18-0.88,0-.08,0-0.16,0-0.24s-0.06-.43-0.08-0.64,0-.19,0-0.29,0-.41,0-0.62,0-.18,0-0.27c0-.29,0-0.58.07-0.87a6.07,6.07,0,0,0-7.33.65V82l0,0.13,0,0.11,0,0.24,0,0.1v0.06h0c0.13,0.73.36,1.94,0.76,3.45a17.53,17.53,0,0,0,5.65-.7c1.08,7.32,9.51,14.84,12.07,17a0.88,0.88,0,0,1,.3.54l0.63-.69A0.91,0.91,0,0,0,224.4,100.91Z" transform="translate(-0.57 -0.66)"/><path class="aff71084-c92c-4083-974b-c7175ed8c889" d="M250.83,99.66c-4.12-6.24-9.25-14-9-28.61C242.16,55.27,231.65,46,213,45.51c-0.25,0-.75,5.07-0.12,5.09,20,0.48,24,11.34,23.87,20.36-0.31,16.19,5.55,25,9.82,31.51,2,3,3.63,5.5,4.17,7.94h5.15C255.39,106.6,253.28,103.36,250.83,99.66Z" transform="translate(-0.57 -0.66)"/><path class="562ebbff-3ffa-432d-9d65-d2f8f7971c61" d="M193.37,79.77s-4.11,5.11-3.31,23.77c-5,1.74-4.44,7.13-4.44,7.13h11a0.91,0.91,0,0,0,.91-1c-0.27-4.6-1.06-24.43,4.44-31.55Z" transform="translate(-0.57 -0.66)"/><path class="c62c8a62-5001-4d31-94fc-ab7920a20734" d="M199,85.38q0.13-.54.27-1.06v0q0.14-.51.29-1l0-.07c0.1-.31.2-0.62,0.31-0.92l0-.1c0.1-.29.21-0.57,0.32-0.84l0.08-.17c0.1-.24.21-0.49,0.32-0.72l0.14-.27c0.1-.19.19-0.38,0.29-0.57s0.16-.27.24-0.4l0.22-.37q0.24-.37.5-0.7l-2.3.43h0l-6.32,1.18a10.89,10.89,0,0,0-1.43,3.1A16.85,16.85,0,0,0,197.07,85c-2.22,8.83-1.72,21.23-1.51,24.74a0.91,0.91,0,0,1-.91,1h2a0.91,0.91,0,0,0,.91-1C197.36,106.25,196.86,94.19,199,85.38Z" transform="translate(-0.57 -0.66)"/><path class="562ebbff-3ffa-432d-9d65-d2f8f7971c61" d="M202,83.59c18.47,3,22-11.9,14.49-33.24a3.24,3.24,0,0,1,.14-3c3.51-5.07,11.26-21.55,7.79-24.48S193.8,33.64,193.8,33.64s4.17,9.22,6.83,11.89C189.62,68.9,183.53,80.57,202,83.59Z" transform="translate(-0.57 -0.66)"/><path class="c62c8a62-5001-4d31-94fc-ab7920a20734" d="M216.63,47.36c3.51-5.07,11.26-21.55,7.79-24.48a3.86,3.86,0,0,0-2.78-.33,1.77,1.77,0,0,1,.78.33c3.47,2.94-4.28,19.41-7.79,24.48a3.24,3.24,0,0,0-.14,3c6.72,19.09,4.59,33-9.17,33.6,15.55,0.75,18.2-13.61,11.17-33.6A3.24,3.24,0,0,1,216.63,47.36Z" transform="translate(-0.57 -0.66)"/><path class="c62c8a62-5001-4d31-94fc-ab7920a20734" d="M197.64,51.89A123.31,123.31,0,0,0,191.36,67c3.62,0.74,7.87-.84,9.17-4.41l2.24-6.15Z" transform="translate(-0.57 -0.66)"/><path class="213e8f6c-180b-4c20-8488-e3a4f1fcc363" d="M193.63,38.54c1.54,1.45,3.68,3.5,5.19,5.09l-0.05.1c-2.52-2.37-5.4-4.88-5.4-4.88Z" transform="translate(-0.57 -0.66)"/><path class="3012cb64-0f16-4b96-bbc1-5f4b8639aaa7" d="M204.76,22.93L171.47,10.81,157,50.62l33.29,12.12A7.58,7.58,0,0,0,200,58.21l9.3-25.56A7.58,7.58,0,0,0,204.76,22.93Z" transform="translate(-0.57 -0.66)"/><path class="5077d19e-df40-4362-ad7f-ca441c7dcf6e" d="M157,50.62l0.93-2.56h0l3.8-10.43,9.76-26.81,4.72,1.72L162.63,49.77l26.28,9.56a7.58,7.58,0,0,0,9.71-4.53l9.3-25.56a7.54,7.54,0,0,0,.38-3.62,7.57,7.57,0,0,1,1,7L200,58.21a7.58,7.58,0,0,1-9.71,4.53L161.7,52.34h0Z" transform="translate(-0.57 -0.66)"/><rect class="3012cb64-0f16-4b96-bbc1-5f4b8639aaa7" x="156.31" y="4.47" width="8.16" height="49.71" transform="translate(300.5 111.07) rotate(-160)"/><path class="3012cb64-0f16-4b96-bbc1-5f4b8639aaa7" d="M141.46,8.67h19.91a0,0,0,0,1,0,0v7.8a0,0,0,0,1,0,0H141.46a3.9,3.9,0,0,1-3.9-3.9v0A3.9,3.9,0,0,1,141.46,8.67Z" transform="translate(12.74 -51.02) rotate(20)"/><path class="3012cb64-0f16-4b96-bbc1-5f4b8639aaa7" d="M133.26,31.23h19.91a0,0,0,0,1,0,0V39a0,0,0,0,1,0,0H133.26a3.9,3.9,0,0,1-3.9-3.9v0A3.9,3.9,0,0,1,133.26,31.23Z" transform="translate(19.96 -46.86) rotate(20)"/><path class="562ebbff-3ffa-432d-9d65-d2f8f7971c61" d="M186.35,34.83s-0.7-4.3-2-4.09-0.63,5-.63,5l2.59,1.17Z" transform="translate(-0.57 -0.66)"/><path class="562ebbff-3ffa-432d-9d65-d2f8f7971c61" d="M186.18,36.29s-6.51-7.62-7.66-6.27,6,7.4,6,7.4Z" transform="translate(-0.57 -0.66)"/><path class="562ebbff-3ffa-432d-9d65-d2f8f7971c61" d="M185.15,37.19s-7.56-6.62-8.59-4.92,7.05,6.5,7.05,6.5Z" transform="translate(-0.57 -0.66)"/><path class="562ebbff-3ffa-432d-9d65-d2f8f7971c61" d="M185,39.13s-8.26-5.85-9.17-4.35,6.08,5.64,6.08,5.64Z" transform="translate(-0.57 -0.66)"/><path class="562ebbff-3ffa-432d-9d65-d2f8f7971c61" d="M186.35,34.83s2.95,7.78,17.72,15.14c-0.67,7-1.34,8.31-1.34,8.31s-13.89-6.75-21-18C182.28,35.38,186.35,34.83,186.35,34.83Z" transform="translate(-0.57 -0.66)"/><path class="b4ddd9b5-fa0f-4dc1-8b57-7d08e1eba951" d="M207.57,39c1.27,0.65,3.45,1.21,6.87.51" transform="translate(-0.57 -0.66)"/><path class="b4ddd9b5-fa0f-4dc1-8b57-7d08e1eba951" d="M189.87,70.56a46,46,0,0,0,30.14,4" transform="translate(-0.57 -0.66)"/><path class="aff71084-c92c-4083-974b-c7175ed8c889" d="M39.86,51.48c-4.64,3.78-7.35,9.27-8.06,16.31-0.89,8.92-4.87,13.81-9.08,19-4.81,5.91-9.76,12-8.88,23.63h5C18,100.54,22,95.62,26.6,89.94c4.28-5.26,9.13-11.23,10.18-21.65C38.68,49.36,57.45,51,58.25,51.1l0.52-5C58.32,46.08,47.76,45.05,39.86,51.48Z" transform="translate(-0.57 -0.66)"/><path class="213e8f6c-180b-4c20-8488-e3a4f1fcc363" d="M74.8,79.77s4.11,5.11,3.31,23.77c5,1.74,4.44,7.13,4.44,7.13h-11a0.91,0.91,0,0,1-.91-1c0.27-4.6,1.06-24.43-4.44-31.55Z" transform="translate(-0.57 -0.66)"/><path class="e6f73823-eb1b-48ac-98a5-f159d4d5a6cd" d="M70.61,109.71a0.91,0.91,0,0,0,.91,1h1.3c1.62-20.79-1.74-25.91-2.58-27.57A16.55,16.55,0,0,0,76,82.26a9.75,9.75,0,0,0-1.22-2.49l-8.63-1.61C71.67,85.28,70.88,105.11,70.61,109.71Z" transform="translate(-0.57 -0.66)"/><path class="213e8f6c-180b-4c20-8488-e3a4f1fcc363" d="M63.23,81.9s-2,15.21-11.43,20.73a6,6,0,0,1-.48,8l-7.63-8.36a0.91,0.91,0,0,1,.09-1.31c2.88-2.4,13.18-11.6,12.12-19.66A6.07,6.07,0,0,1,63.23,81.9Z" transform="translate(-0.57 -0.66)"/><path class="e6f73823-eb1b-48ac-98a5-f159d4d5a6cd" d="M55.89,81.24c1.06,8.07-9.24,17.26-12.12,19.66a0.91,0.91,0,0,0-.09,1.31l1,1.06c10.49-7.64,12-15.17,13-18.94a16.57,16.57,0,0,0,5.1,0c0.33-1.51.46-2.45,0.46-2.45A6.07,6.07,0,0,0,55.89,81.24Z" transform="translate(-0.57 -0.66)"/><path class="213e8f6c-180b-4c20-8488-e3a4f1fcc363" d="M78.55,78.16s-13.33,6.13-27.28,4.63a1.82,1.82,0,0,1-1.59-1.55c-1.79-12.33-1.63-24.53,2-30.93a2.66,2.66,0,0,0-.08-2.87c-3.48-5-10.48-15.65-3.83-21.57,10.62-7.3,27,13,27,13s-4.6,4-7.26,6.68C78.55,68.9,78.55,78.16,78.55,78.16Z" transform="translate(-0.57 -0.66)"/><g class="474384d8-1d51-4f84-b37c-0540ab695970"><path class="b23e7b55-7b0d-4c42-ab16-158d750ee54c" d="M70.63,52.38l-2,2c3.2,4.82,5.58,8.85,7.31,12.1A149.49,149.49,0,0,0,70.63,52.38Z" transform="translate(-0.57 -0.66)"/></g><path class="213e8f6c-180b-4c20-8488-e3a4f1fcc363" d="M74.54,38.54C73,40,70.86,42,69.35,43.63l0.05,0.1c2.52-2.37,5.4-4.88,5.4-4.88Z" transform="translate(-0.57 -0.66)"/><path class="e6f73823-eb1b-48ac-98a5-f159d4d5a6cd" d="M54,81.29a1.82,1.82,0,0,1-1.63-1.51c-2.1-12.28-2.25-24.48,1.23-31A2.66,2.66,0,0,0,53.47,46c-3.37-4.54-9.92-14-5.49-20.2l-0.21.12c-6.65,5.92.35,16.61,3.83,21.57a2.66,2.66,0,0,1,.08,2.87c-3.65,6.4-3.8,18.6-2,30.93a1.82,1.82,0,0,0,1.59,1.55c14,1.49,27.28-4.63,27.28-4.63s0-.33-0.07-1C73.91,78.94,64.19,82.12,54,81.29Z" transform="translate(-0.57 -0.66)"/><path class="3012cb64-0f16-4b96-bbc1-5f4b8639aaa7" d="M68.24,9.12L103.53,6l3.69,42.2L71.93,51.32a7.58,7.58,0,0,1-8.21-6.89l-2.37-27.1A7.58,7.58,0,0,1,68.24,9.12Z" transform="translate(-0.57 -0.66)"/><rect class="3012cb64-0f16-4b96-bbc1-5f4b8639aaa7" x="105.36" y="1.92" width="8.16" height="49.71" transform="translate(-2.49 8.98) rotate(-5)"/><path class="5077d19e-df40-4362-ad7f-ca441c7dcf6e" d="M107.22,48.23L107,45.51h0l-1-11.06L103.53,6l-5,.44L102,45.95,74.12,48.39a7.58,7.58,0,0,1-8.21-6.89L63.54,14.4a7.54,7.54,0,0,1,.57-3.6,7.57,7.57,0,0,0-2.76,6.53l2.37,27.1a7.58,7.58,0,0,0,8.21,6.89l30.29-2.65h0Z" transform="translate(-0.57 -0.66)"/><path class="213e8f6c-180b-4c20-8488-e3a4f1fcc363" d="M47.78,25.88c6.44-4.43,15,1.27,20.74,6.45a0.91,0.91,0,0,1,.16,1.15,29.32,29.32,0,0,1-8.78,8.75C54,38.85,47.78,25.88,47.78,25.88Z" transform="translate(-0.57 -0.66)"/><path class="213e8f6c-180b-4c20-8488-e3a4f1fcc363" d="M81.82,34.83s0.7-4.3,2-4.09,0.63,5,.63,5l-2.59,1.17Z" transform="translate(-0.57 -0.66)"/><path class="213e8f6c-180b-4c20-8488-e3a4f1fcc363" d="M82,36.29S88.5,28.67,89.65,30s-6,7.4-6,7.4Z" transform="translate(-0.57 -0.66)"/><path class="213e8f6c-180b-4c20-8488-e3a4f1fcc363" d="M83,37.19s7.56-6.62,8.59-4.92-7.05,6.5-7.05,6.5Z" transform="translate(-0.57 -0.66)"/><path class="213e8f6c-180b-4c20-8488-e3a4f1fcc363" d="M83.18,39.13s8.26-5.85,9.17-4.35-6.08,5.64-6.08,5.64Z" transform="translate(-0.57 -0.66)"/><path class="213e8f6c-180b-4c20-8488-e3a4f1fcc363" d="M81.82,34.83S78.87,42.62,64.11,50c0.67,7,1.34,8.31,1.34,8.31s13.89-6.75,21-18C85.89,35.38,81.82,34.83,81.82,34.83Z" transform="translate(-0.57 -0.66)"/><path class="b4ddd9b5-fa0f-4dc1-8b57-7d08e1eba951" d="M63.38,40.59c-1.27.65-3.45,1.21-6.87,0.51" transform="translate(-0.57 -0.66)"/><ellipse class="b23e7b55-7b0d-4c42-ab16-158d750ee54c" cx="57.76" cy="29.86" rx="1.02" ry="2.03" transform="translate(-4.17 50.72) rotate(-46.67)"/><ellipse class="b23e7b55-7b0d-4c42-ab16-158d750ee54c" cx="55.02" cy="32.5" rx="1.02" ry="2.03" transform="translate(-6.95 49.56) rotate(-46.67)"/><path class="b4ddd9b5-fa0f-4dc1-8b57-7d08e1eba951" d="M77.38,70.56a46,46,0,0,1-30.14,4" transform="translate(-0.57 -0.66)"/><path class="562ebbff-3ffa-432d-9d65-d2f8f7971c61" d="M217.39,23.54a137.62,137.62,0,0,0-15.31,6.13,1.36,1.36,0,0,0-.23,2.33l8.49,6.17,10.36-8.32Z" transform="translate(-0.57 -0.66)"/><ellipse class="b23e7b55-7b0d-4c42-ab16-158d750ee54c" cx="213.41" cy="29.86" rx="2.03" ry="1.02" transform="translate(37.12 153.93) rotate(-43.33)"/><ellipse class="b23e7b55-7b0d-4c42-ab16-158d750ee54c" cx="216.15" cy="32.5" rx="2.03" ry="1.02" transform="translate(36.05 156.53) rotate(-43.33)"/><line class="3012cb64-0f16-4b96-bbc1-5f4b8639aaa7" x1="264.15" y1="109.75" x2="1" y2="109.75"/></svg>