<svg id="2ef93064-6a7d-4913-8f47-4d56360e0828" data-name="Layer 1" xmlns="http://www.w3.org/2000/svg" viewBox="0 0 176.72 136.13"><defs><style>.\33 5304cad-eb96-4793-85d5-1e7fcbb5c215,.\35 f6be6f3-d069-4af3-86c0-26f31b7c24ca,.b3f07fe9-8360-4473-999b-3af0ff63b2fc,.c492d38e-9faf-4ee5-b180-53f88a665f00{fill:none;}.\33 5304cad-eb96-4793-85d5-1e7fcbb5c215{stroke:#8ac0e8;}.\33 5304cad-eb96-4793-85d5-1e7fcbb5c215,.\35 f6be6f3-d069-4af3-86c0-26f31b7c24ca,.\38 cd2b623-ab80-42ab-a2b3-c08ff482e079,.b3f07fe9-8360-4473-999b-3af0ff63b2fc,.c492d38e-9faf-4ee5-b180-53f88a665f00{stroke-linecap:round;stroke-linejoin:round;stroke-width:2px;}.\35 f6be6f3-d069-4af3-86c0-26f31b7c24ca,.\38 cd2b623-ab80-42ab-a2b3-c08ff482e079,.c492d38e-9faf-4ee5-b180-53f88a665f00{stroke:#374655;}.\35 f6be6f3-d069-4af3-86c0-26f31b7c24ca{opacity:0.4;}.b3f07fe9-8360-4473-999b-3af0ff63b2fc{stroke:#ac91c4;}.e5ea9946-1612-477b-a2c6-a78d836ef74f{fill:#ac91c4;}.\38 1bc6281-126f-494d-aa2b-3b3c491a5101,.f0bda4c9-5875-44ab-a3d6-7dbfb8ca1684{fill:#374655;}.\38 1bc6281-126f-494d-aa2b-3b3c491a5101{opacity:0.1;}.\38 49323d8-0c37-471e-bf2a-dd6531cf9457{fill:#8ac0e8;}.\38 cd2b623-ab80-42ab-a2b3-c08ff482e079{fill:#fff;}</style></defs><title>setup-complete</title><line class="35304cad-eb96-4793-85d5-1e7fcbb5c215" x1="51.36" y1="31" x2="51.36" y2="35"/><line class="5f6be6f3-d069-4af3-86c0-26f31b7c24ca" x1="69.19" y1="20.17" x2="67.53" y2="22.83"/><line class="5f6be6f3-d069-4af3-86c0-26f31b7c24ca" x1="131.36" y1="17.17" x2="127.36" y2="17.17"/><line class="c492d38e-9faf-4ee5-b180-53f88a665f00" x1="111.36" y1="3" x2="107.36" y2="3"/><line class="c492d38e-9faf-4ee5-b180-53f88a665f00" x1="150.11" y1="24.59" x2="147.28" y2="27.41"/><line class="c492d38e-9faf-4ee5-b180-53f88a665f00" x1="41.95" y1="17.41" x2="44.78" y2="14.59"/><line class="c492d38e-9faf-4ee5-b180-53f88a665f00" x1="80.36" y1="5" x2="80.36" y2="1"/><line class="b3f07fe9-8360-4473-999b-3af0ff63b2fc" x1="29.21" y1="10" x2="29.21" y2="6"/><line class="c492d38e-9faf-4ee5-b180-53f88a665f00" x1="112.36" y1="26" x2="112.36" y2="22"/><line class="b3f07fe9-8360-4473-999b-3af0ff63b2fc" x1="141.36" y1="8" x2="141.36" y2="4"/><line class="c492d38e-9faf-4ee5-b180-53f88a665f00" x1="47.2" y1="69.26" x2="47.2" y2="65.26"/><line class="5f6be6f3-d069-4af3-86c0-26f31b7c24ca" x1="24.62" y1="43.65" x2="27.45" y2="40.83"/><line class="b3f07fe9-8360-4473-999b-3af0ff63b2fc" x1="93.04" y1="21.41" x2="90.21" y2="18.59"/><line class="35304cad-eb96-4793-85d5-1e7fcbb5c215" x1="126.97" y1="37.83" x2="124.14" y2="35"/><line class="35304cad-eb96-4793-85d5-1e7fcbb5c215" x1="156.06" y1="44.24" x2="156.06" y2="40.24"/><line class="35304cad-eb96-4793-85d5-1e7fcbb5c215" x1="58.36" y1="2" x2="54.36" y2="2"/><path class="e5ea9946-1612-477b-a2c6-a78d836ef74f" d="M51.72,112.88s-4.86,12.79-15.07,18.68a6.54,6.54,0,0,1,1.84,5.89,0.82,0.82,0,0,1-1.24.56l-9.51-5.81a0.82,0.82,0,0,1,0-1.39c3.32-2.21,13.57-12.55,17.12-20.36Z" transform="translate(-1.3 -3.06)"/><path class="e5ea9946-1612-477b-a2c6-a78d836ef74f" d="M48.12,84.9S36.79,85,29.84,99.47a16.8,16.8,0,0,0-6.93-.71s5.22-18.9,25.89-20.51C54.29,81.28,48.12,84.9,48.12,84.9Z" transform="translate(-1.3 -3.06)"/><path class="e5ea9946-1612-477b-a2c6-a78d836ef74f" d="M29.84,99.47s2.36,3.5,1.29,4.23-3.75-3.1-3.75-3.1l1.06-2.55Z" transform="translate(-1.3 -3.06)"/><path class="e5ea9946-1612-477b-a2c6-a78d836ef74f" d="M28.75,98.55s0.46,9.7-1.24,9.51-0.65-9.23-.65-9.23Z" transform="translate(-1.3 -3.06)"/><path class="e5ea9946-1612-477b-a2c6-a78d836ef74f" d="M27.43,98.61s-0.94,9.69-2.8,9.18,0.66-9.27.66-9.27Z" transform="translate(-1.3 -3.06)"/><path class="e5ea9946-1612-477b-a2c6-a78d836ef74f" d="M25.81,97.28S23.5,108,22,107.55s0.92-8.86.92-8.86Z" transform="translate(-1.3 -3.06)"/><path class="81bc6281-126f-494d-aa2b-3b3c491a5101" d="M22.91,98.77h0c9-18.92,27-17.79,27-17.79l0.81-1a4.88,4.88,0,0,0-2-1.72C28.13,79.87,22.91,98.77,22.91,98.77Z" transform="translate(-1.3 -3.06)"/><path class="e5ea9946-1612-477b-a2c6-a78d836ef74f" d="M64.5,77.6c0.85-.26,9.76-1.27,14.22-12.62l6,2.69S79.53,82.15,67.31,86,64.5,77.6,64.5,77.6Z" transform="translate(-1.3 -3.06)"/><path class="81bc6281-126f-494d-aa2b-3b3c491a5101" d="M61.05,84.74C76,83.65,80.91,74,84.38,67.41a1.55,1.55,0,0,1,.36.26S79.53,82.15,67.31,86C62.42,87.6,61,86.55,61.05,84.74Z" transform="translate(-1.3 -3.06)"/><path class="e5ea9946-1612-477b-a2c6-a78d836ef74f" d="M62.58,114.23S64,122.64,58.32,133A6.54,6.54,0,0,1,63,137.06a0.82,0.82,0,0,1-.77,1.13H51A0.82,0.82,0,0,1,50.3,137c1.68-3.62,6.49-14.88,5.44-23.4Z" transform="translate(-1.3 -3.06)"/><path class="81bc6281-126f-494d-aa2b-3b3c491a5101" d="M55.74,113.61a25.29,25.29,0,0,1-.11,6.22,28.2,28.2,0,0,0,7-.79,22.13,22.13,0,0,0,0-4.81Z" transform="translate(-1.3 -3.06)"/><path class="81bc6281-126f-494d-aa2b-3b3c491a5101" d="M51.72,112.88l-6.89-2.44a36.55,36.55,0,0,1-3.41,5.74,34.34,34.34,0,0,0,7.27,2.74A43,43,0,0,0,51.72,112.88Z" transform="translate(-1.3 -3.06)"/><path class="e5ea9946-1612-477b-a2c6-a78d836ef74f" d="M68.08,113.35c1.3-4.54,6.16-25-6-41.48L66.88,68A0.82,0.82,0,0,0,67,66.79c-2.56-3-13.32-14.68-20.19-8.4s6.32,20.56-9,50.5a2,2,0,0,0,.67,2.6c3.95,2.57,15.32,8.58,28.46,3.16A2,2,0,0,0,68.08,113.35Z" transform="translate(-1.3 -3.06)"/><path class="81bc6281-126f-494d-aa2b-3b3c491a5101" d="M42.1,109.68a2,2,0,0,1-.77-2.57c13-28,2.61-42,5.88-49.07-0.14.11-.28,0.22-0.42,0.35-6.76,6.18,6.32,20.56-9,50.5a2,2,0,0,0,.67,2.6c3.95,2.57,15.32,8.58,28.46,3.16a2,2,0,0,0,1.14-1.29l0.16-.6C56.31,117,45.89,111.95,42.1,109.68Z" transform="translate(-1.3 -3.06)"/><path class="c492d38e-9faf-4ee5-b180-53f88a665f00" d="M70.24,106.78S54.61,111.26,39.91,102" transform="translate(-1.3 -3.06)"/><path class="c492d38e-9faf-4ee5-b180-53f88a665f00" d="M62.78,72.77s-3.11,2.76-8.43,0" transform="translate(-1.3 -3.06)"/><ellipse class="f0bda4c9-5875-44ab-a3d6-7dbfb8ca1684" cx="52.5" cy="64.49" rx="1.02" ry="2.04" transform="translate(-24.36 26.69) rotate(-26.16)"/><ellipse class="f0bda4c9-5875-44ab-a3d6-7dbfb8ca1684" cx="55.85" cy="62.64" rx="1.02" ry="2.04" transform="translate(-23.2 27.98) rotate(-26.16)"/><path class="e5ea9946-1612-477b-a2c6-a78d836ef74f" d="M76.12,61.06C77.37,60.4,79.94,65,79.94,65l-1.5,2.72S74.83,61.74,76.12,61.06Z" transform="translate(-1.3 -3.06)"/><path class="e5ea9946-1612-477b-a2c6-a78d836ef74f" d="M78.14,67.13s0.69-10.93,2.59-10.51S80.3,67,80.3,67Z" transform="translate(-1.3 -3.06)"/><path class="e5ea9946-1612-477b-a2c6-a78d836ef74f" d="M79.63,67.24s2.27-10.75,4.29-9.94S82,67.6,82,67.6Z" transform="translate(-1.3 -3.06)"/><path class="e5ea9946-1612-477b-a2c6-a78d836ef74f" d="M81.28,68.93s3.93-11.7,5.55-11-2.09,9.79-2.09,9.79Z" transform="translate(-1.3 -3.06)"/><path class="849323d8-0c37-471e-bf2a-dd6531cf9457" d="M127.61,112.88s4.86,12.79,15.07,18.68a6.54,6.54,0,0,0-1.84,5.89,0.82,0.82,0,0,0,1.24.56l9.51-5.81a0.82,0.82,0,0,0,0-1.39c-3.32-2.21-13.57-12.55-17.12-20.36Z" transform="translate(-1.3 -3.06)"/><path class="81bc6281-126f-494d-aa2b-3b3c491a5101" d="M127.61,112.88h0s0.4,1,1.2,2.67a45.29,45.29,0,0,0,7-2.66c-0.48-.83-0.92-1.65-1.28-2.44Z" transform="translate(-1.3 -3.06)"/><path class="849323d8-0c37-471e-bf2a-dd6531cf9457" d="M130,85.59s12.27,2.29,17,19.37a18.51,18.51,0,0,1,7.65.59s-2-21.5-24.06-27.29C124,80.46,130,85.59,130,85.59Z" transform="translate(-1.3 -3.06)"/><path class="849323d8-0c37-471e-bf2a-dd6531cf9457" d="M146.95,105s-3.24,3.34-2.22,4.33,4.67-2.63,4.67-2.63l-0.65-3Z" transform="translate(-1.3 -3.06)"/><path class="849323d8-0c37-471e-bf2a-dd6531cf9457" d="M148.3,104.17s-2.4,10.42-.51,10.55,2.51-9.88,2.51-9.88Z" transform="translate(-1.3 -3.06)"/><path class="849323d8-0c37-471e-bf2a-dd6531cf9457" d="M149.73,104.49S148.85,115.18,151,115s1.09-10.17,1.09-10.17Z" transform="translate(-1.3 -3.06)"/><path class="849323d8-0c37-471e-bf2a-dd6531cf9457" d="M151.75,103.37s0.41,12,2.11,11.88,0.73-9.79.73-9.79Z" transform="translate(-1.3 -3.06)"/><path class="81bc6281-126f-494d-aa2b-3b3c491a5101" d="M154.59,105.54h0C148.52,83.27,128.76,81,128.76,81l-0.69-1.25a5.38,5.38,0,0,1,2.46-1.48C152.62,84,154.59,105.54,154.59,105.54Z" transform="translate(-1.3 -3.06)"/><path class="849323d8-0c37-471e-bf2a-dd6531cf9457" d="M115,76.69c-0.85-.19-9.59-0.47-14.82-11.17l-5.64,3.09s6.2,13.67,18.39,16.51S115,76.69,115,76.69Z" transform="translate(-1.3 -3.06)"/><path class="81bc6281-126f-494d-aa2b-3b3c491a5101" d="M119,83.36c-14.6.1-20.16-8.89-24.05-15a1.51,1.51,0,0,0-.33.29s6.2,13.67,18.39,16.51C117.86,86.26,119.15,85.13,119,83.36Z" transform="translate(-1.3 -3.06)"/><path class="849323d8-0c37-471e-bf2a-dd6531cf9457" d="M116.75,114.23S115.36,122.64,121,133a6.54,6.54,0,0,0-4.64,4.06,0.82,0.82,0,0,0,.77,1.13h11.14A0.82,0.82,0,0,0,129,137c-1.68-3.62-6.49-14.88-5.44-23.4Z" transform="translate(-1.3 -3.06)"/><path class="81bc6281-126f-494d-aa2b-3b3c491a5101" d="M123.46,115.88a20.62,20.62,0,0,1,.13-2.27l-6.84.62a14.66,14.66,0,0,0-.13,1.64A18.06,18.06,0,0,0,123.46,115.88Z" transform="translate(-1.3 -3.06)"/><path class="849323d8-0c37-471e-bf2a-dd6531cf9457" d="M112.42,113.06c-1.3-4.42-5.16-21.3,4.81-41.19L112.46,68a0.82,0.82,0,0,1-.11-1.17c2.56-3,18.43-16.74,23.12-12.9s-10.07,29,5.79,52.25a1.64,1.64,0,0,1-.29,2.2c-2.5,2.08-9.83,6.41-27,5.88A1.64,1.64,0,0,1,112.42,113.06Z" transform="translate(-1.3 -3.06)"/><path class="81bc6281-126f-494d-aa2b-3b3c491a5101" d="M141.25,106.14c-15.86-23.22-1.1-48.41-5.79-52.25a3.06,3.06,0,0,0-1.67-.65c2,6.23-10.22,29.35,4.16,51.25a1.64,1.64,0,0,1-.33,2.2c-2.46,2-9.46,6-25.46,5.45,0.09,0.34.18,0.65,0.25,0.91a1.64,1.64,0,0,0,1.52,1.17c17.19,0.53,24.52-3.8,27-5.88A1.64,1.64,0,0,0,141.25,106.14Z" transform="translate(-1.3 -3.06)"/><path class="c492d38e-9faf-4ee5-b180-53f88a665f00" d="M109.66,102.7a37.45,37.45,0,0,0,28.25-4.81" transform="translate(-1.3 -3.06)"/><path class="c492d38e-9faf-4ee5-b180-53f88a665f00" d="M116.56,72.77s3.11,2.76,8.43,0" transform="translate(-1.3 -3.06)"/><ellipse class="f0bda4c9-5875-44ab-a3d6-7dbfb8ca1684" cx="126.83" cy="64.49" rx="2.04" ry="1.02" transform="translate(11.73 146.84) rotate(-63.84)"/><ellipse class="f0bda4c9-5875-44ab-a3d6-7dbfb8ca1684" cx="123.48" cy="62.64" rx="2.04" ry="1.02" transform="translate(11.52 142.8) rotate(-63.84)"/><path class="849323d8-0c37-471e-bf2a-dd6531cf9457" d="M102.45,61.5C101.18,61,99,65.64,99,65.64l1.68,2.53S103.76,62.06,102.45,61.5Z" transform="translate(-1.3 -3.06)"/><path class="849323d8-0c37-471e-bf2a-dd6531cf9457" d="M101,67.57s-1.53-10.58-3.34-10,1.23,10.12,1.23,10.12Z" transform="translate(-1.3 -3.06)"/><path class="849323d8-0c37-471e-bf2a-dd6531cf9457" d="M99.52,67.79s-3-10.29-4.95-9.34,2.66,9.88,2.66,9.88Z" transform="translate(-1.3 -3.06)"/><path class="849323d8-0c37-471e-bf2a-dd6531cf9457" d="M98,69.56S93.3,58.49,91.78,59.25s2.8,9.37,2.8,9.37Z" transform="translate(-1.3 -3.06)"/><line class="8cd2b623-ab80-42ab-a2b3-c08ff482e079" x1="1" y1="135.13" x2="175.72" y2="135.13"/><line class="c492d38e-9faf-4ee5-b180-53f88a665f00" x1="88.36" y1="46.51" x2="88.36" y2="49.82"/><line class="c492d38e-9faf-4ee5-b180-53f88a665f00" x1="93.99" y1="48.87" x2="91.65" y2="51.22"/><line class="c492d38e-9faf-4ee5-b180-53f88a665f00" x1="82.73" y1="48.87" x2="85.07" y2="51.22"/></svg>